<svg version="1.1" xmlns="http://www.w3.org/2000/svg" xmlns:xlink="http://www.w3.org/1999/xlink" width="666.6279296875" height="1026"><defs/><g><g transform="translate(-230,-38) scale(1,1)"><rect fill="#C0C0C0" stroke="none" x="639" y="55" width="242.009765625" height="252" opacity="0.2"/></g><g transform="translate(-230,-38) scale(1,1)"><rect fill="#ffffff" stroke="none" x="632" y="48" width="242.009765625" height="252"/></g><g transform="translate(-230,-38) scale(1,1)"><path fill="none" stroke="#000000" d="M 632 48 L 874.009765625 48 L 874.009765625 300 L 632 300 L 632 48 Z Z" stroke-miterlimit="10"/></g><g transform="translate(-230,-38) scale(1,1)"><path fill="none" stroke="#000000" d="M 632 88 L 874.009765625 88" stroke-miterlimit="10"/></g><g transform="translate(-230,-38) scale(1,1)"><path fill="none" stroke="#000000" d="M 632 291 L 874.009765625 291" stroke-miterlimit="10"/></g><g transform="translate(-230,-38) scale(1,1)"><g><path fill="none" stroke="none"/><text fill="#000000" stroke="none" font-family="Arial" font-size="13px" font-style="normal" font-weight="bold" text-decoration="none" x="705.673583984375" y="67.5">CalculatedDelay</text></g></g><g transform="translate(-230,-38) scale(1,1)"><g><path fill="none" stroke="none"/><text fill="#000000" stroke="none" font-family="Arial" font-size="13px" font-style="normal" font-weight="normal" text-decoration="none" x="716.166259765625" y="82.5">(from model)</text></g></g><g transform="translate(-230,-38) scale(1,1)"><g><path fill="none" stroke="none"/><text fill="#000000" stroke="none" font-family="Arial" font-size="13px" font-style="normal" font-weight="normal" text-decoration="none" x="637" y="105.5">-id: int</text></g></g><g transform="translate(-230,-38) scale(1,1)"><g><path fill="none" stroke="none"/><text fill="#000000" stroke="none" font-family="Arial" font-size="13px" font-style="normal" font-weight="normal" text-decoration="none" x="637" y="120.5">-registrationNumber: String</text></g></g><g transform="translate(-230,-38) scale(1,1)"><g><path fill="none" stroke="none"/><text fill="#000000" stroke="none" font-family="Arial" font-size="13px" font-style="normal" font-weight="normal" text-decoration="none" x="637" y="135.5">-brand: String</text></g></g><g transform="translate(-230,-38) scale(1,1)"><g><path fill="none" stroke="none"/><text fill="#000000" stroke="none" font-family="Arial" font-size="13px" font-style="normal" font-weight="normal" text-decoration="none" x="637" y="150.5">-model: String</text></g></g><g transform="translate(-230,-38) scale(1,1)"><g><path fill="none" stroke="none"/><text fill="#000000" stroke="none" font-family="Arial" font-size="13px" font-style="normal" font-weight="normal" text-decoration="none" x="637" y="165.5">-expectedReturnTime: Time</text></g></g><g transform="translate(-230,-38) scale(1,1)"><g><path fill="none" stroke="none"/><text fill="#000000" stroke="none" font-family="Arial" font-size="13px" font-style="normal" font-weight="normal" text-decoration="none" x="637" y="180.5">-calculatedReturnTime: Time</text></g></g><g transform="translate(-230,-38) scale(1,1)"><g><path fill="none" stroke="none"/><text fill="#000000" stroke="none" font-family="Arial" font-size="13px" font-style="normal" font-weight="normal" text-decoration="none" x="637" y="195.5">~calculatedReturnDateTime: Timestamp</text></g></g><g transform="translate(-230,-38) scale(1,1)"><g><path fill="none" stroke="none"/><text fill="#000000" stroke="none" font-family="Arial" font-size="13px" font-style="normal" font-weight="normal" text-decoration="none" x="637" y="210.5">-penality: float</text></g></g><g transform="translate(-230,-38) scale(1,1)"><g><path fill="none" stroke="none"/><text fill="#000000" stroke="none" font-family="Arial" font-size="13px" font-style="normal" font-weight="normal" text-decoration="none" x="637" y="225.5">-firstName: String</text></g></g><g transform="translate(-230,-38) scale(1,1)"><g><path fill="none" stroke="none"/><text fill="#000000" stroke="none" font-family="Arial" font-size="13px" font-style="normal" font-weight="normal" text-decoration="none" x="637" y="240.5">-lastName: String</text></g></g><g transform="translate(-230,-38) scale(1,1)"><g><path fill="none" stroke="none"/><text fill="#000000" stroke="none" font-family="Arial" font-size="13px" font-style="normal" font-weight="normal" text-decoration="none" x="637" y="255.5">-phoneNumber: String</text></g></g><g transform="translate(-230,-38) scale(1,1)"><g><path fill="none" stroke="none"/><text fill="#000000" stroke="none" font-family="Arial" font-size="13px" font-style="normal" font-weight="normal" text-decoration="none" x="637" y="270.5">-tagAppel: boolean</text></g></g><g transform="translate(-230,-38) scale(1,1)"><g><path fill="none" stroke="none"/><text fill="#000000" stroke="none" font-family="Arial" font-size="13px" font-style="normal" font-weight="normal" text-decoration="none" x="637" y="285.5">-idSession: int</text></g></g><g transform="translate(-230,-38) scale(1,1)"><rect fill="#C0C0C0" stroke="none" x="583" y="335" width="206.22802734375" height="267" opacity="0.2"/></g><g transform="translate(-230,-38) scale(1,1)"><rect fill="#ffffff" stroke="none" x="576" y="328" width="206.22802734375" height="267"/></g><g transform="translate(-230,-38) scale(1,1)"><path fill="none" stroke="#000000" d="M 576 328 L 782.22802734375 328 L 782.22802734375 595 L 576 595 L 576 328 Z Z" stroke-miterlimit="10"/></g><g transform="translate(-230,-38) scale(1,1)"><path fill="none" stroke="#000000" d="M 576 368 L 782.22802734375 368" stroke-miterlimit="10"/></g><g transform="translate(-230,-38) scale(1,1)"><path fill="none" stroke="#000000" d="M 576 586 L 782.22802734375 586" stroke-miterlimit="10"/></g><g transform="translate(-230,-38) scale(1,1)"><g><path fill="none" stroke="none"/><text fill="#000000" stroke="none" font-family="Arial" font-size="13px" font-style="normal" font-weight="bold" text-decoration="none" x="634.3154296875" y="347.5">CurrentSession</text></g></g><g transform="translate(-230,-38) scale(1,1)"><g><path fill="none" stroke="none"/><text fill="#000000" stroke="none" font-family="Arial" font-size="13px" font-style="normal" font-weight="normal" text-decoration="none" x="642.275390625" y="362.5">(from model)</text></g></g><g transform="translate(-230,-38) scale(1,1)"><g><path fill="none" stroke="none"/><text fill="#000000" stroke="none" font-family="Arial" font-size="13px" font-style="normal" font-weight="normal" text-decoration="none" x="581" y="385.5">-id: int</text></g></g><g transform="translate(-230,-38) scale(1,1)"><g><path fill="none" stroke="none"/><text fill="#000000" stroke="none" font-family="Arial" font-size="13px" font-style="normal" font-weight="normal" text-decoration="none" x="581" y="400.5">-booking: int</text></g></g><g transform="translate(-230,-38) scale(1,1)"><g><path fill="none" stroke="none"/><text fill="#000000" stroke="none" font-family="Arial" font-size="13px" font-style="normal" font-weight="normal" text-decoration="none" x="581" y="415.5">-car: int</text></g></g><g transform="translate(-230,-38) scale(1,1)"><g><path fill="none" stroke="none"/><text fill="#000000" stroke="none" font-family="Arial" font-size="13px" font-style="normal" font-weight="normal" text-decoration="none" x="581" y="430.5">-departureParkingSpot: int</text></g></g><g transform="translate(-230,-38) scale(1,1)"><g><path fill="none" stroke="none"/><text fill="#000000" stroke="none" font-family="Arial" font-size="13px" font-style="normal" font-weight="normal" text-decoration="none" x="581" y="445.5">-arrivalParkingSpot: int</text></g></g><g transform="translate(-230,-38) scale(1,1)"><g><path fill="none" stroke="none"/><text fill="#000000" stroke="none" font-family="Arial" font-size="13px" font-style="normal" font-weight="normal" text-decoration="none" x="581" y="460.5">-actualDepartureTime: Timestamp</text></g></g><g transform="translate(-230,-38) scale(1,1)"><g><path fill="none" stroke="none"/><text fill="#000000" stroke="none" font-family="Arial" font-size="13px" font-style="normal" font-weight="normal" text-decoration="none" x="581" y="475.5">-expectedArrivalTime: Timestamp</text></g></g><g transform="translate(-230,-38) scale(1,1)"><g><path fill="none" stroke="none"/><text fill="#000000" stroke="none" font-family="Arial" font-size="13px" font-style="normal" font-weight="normal" text-decoration="none" x="581" y="490.5">-actualArrivalTime: Timestamp</text></g></g><g transform="translate(-230,-38) scale(1,1)"><g><path fill="none" stroke="none"/><text fill="#000000" stroke="none" font-family="Arial" font-size="13px" font-style="normal" font-weight="normal" text-decoration="none" x="581" y="505.5">-pricing: double</text></g></g><g transform="translate(-230,-38) scale(1,1)"><g><path fill="none" stroke="none"/><text fill="#000000" stroke="none" font-family="Arial" font-size="13px" font-style="normal" font-weight="normal" text-decoration="none" x="581" y="520.5">-user: int</text></g></g><g transform="translate(-230,-38) scale(1,1)"><g><path fill="none" stroke="none"/><text fill="#000000" stroke="none" font-family="Arial" font-size="13px" font-style="normal" font-weight="normal" text-decoration="none" x="581" y="535.5">-tag: boolean</text></g></g><g transform="translate(-230,-38) scale(1,1)"><g><path fill="none" stroke="none"/><text fill="#000000" stroke="none" font-family="Arial" font-size="13px" font-style="normal" font-weight="normal" text-decoration="none" x="581" y="550.5">-penality: float</text></g></g><g transform="translate(-230,-38) scale(1,1)"><g><path fill="none" stroke="none"/><text fill="#000000" stroke="none" font-family="Arial" font-size="13px" font-style="normal" font-weight="normal" text-decoration="none" x="581" y="565.5">-latitudeCurrent: float</text></g></g><g transform="translate(-230,-38) scale(1,1)"><g><path fill="none" stroke="none"/><text fill="#000000" stroke="none" font-family="Arial" font-size="13px" font-style="normal" font-weight="normal" text-decoration="none" x="581" y="580.5">-longitudeCurrent: float</text></g></g><g transform="translate(-230,-38) scale(1,1)"><rect fill="#C0C0C0" stroke="none" x="407" y="631" width="331.6259765625" height="430" opacity="0.2"/></g><g transform="translate(-230,-38) scale(1,1)"><rect fill="#ffffff" stroke="none" x="400" y="624" width="331.6259765625" height="430"/></g><g transform="translate(-230,-38) scale(1,1)"><path fill="none" stroke="#000000" d="M 400 624 L 731.6259765625 624 L 731.6259765625 1054 L 400 1054 L 400 624 Z Z" stroke-miterlimit="10"/></g><g transform="translate(-230,-38) scale(1,1)"><path fill="none" stroke="#000000" d="M 400 664 L 731.6259765625 664" stroke-miterlimit="10"/></g><g transform="translate(-230,-38) scale(1,1)"><path fill="none" stroke="#000000" d="M 400 792 L 731.6259765625 792" stroke-miterlimit="10"/></g><g transform="translate(-230,-38) scale(1,1)"><g><path fill="none" stroke="none"/><text fill="#000000" stroke="none" font-family="Arial" font-size="13px" font-style="normal" font-weight="bold" text-decoration="none" x="542.323486328125" y="643.5">Booking</text></g></g><g transform="translate(-230,-38) scale(1,1)"><g><path fill="none" stroke="none"/><text fill="#000000" stroke="none" font-family="Arial" font-size="13px" font-style="normal" font-weight="normal" text-decoration="none" x="528.974365234375" y="658.5">(from model)</text></g></g><g transform="translate(-230,-38) scale(1,1)"><g><path fill="none" stroke="none"/><text fill="#000000" stroke="none" font-family="Arial" font-size="13px" font-style="normal" font-weight="normal" text-decoration="none" x="405" y="681.5">-id: int</text></g></g><g transform="translate(-230,-38) scale(1,1)"><g><path fill="none" stroke="none"/><text fill="#000000" stroke="none" font-family="Arial" font-size="13px" font-style="normal" font-weight="normal" text-decoration="none" x="405" y="696.5">-car_registration_id: String</text></g></g><g transform="translate(-230,-38) scale(1,1)"><g><path fill="none" stroke="none"/><text fill="#000000" stroke="none" font-family="Arial" font-size="13px" font-style="normal" font-weight="normal" text-decoration="none" x="405" y="711.5">-departure_date: Timestamp</text></g></g><g transform="translate(-230,-38) scale(1,1)"><g><path fill="none" stroke="none"/><text fill="#000000" stroke="none" font-family="Arial" font-size="13px" font-style="normal" font-weight="normal" text-decoration="none" x="405" y="726.5">-arrival_date: Timestamp</text></g></g><g transform="translate(-230,-38) scale(1,1)"><g><path fill="none" stroke="none"/><text fill="#000000" stroke="none" font-family="Arial" font-size="13px" font-style="normal" font-weight="normal" text-decoration="none" x="405" y="741.5">-id_car: Integer</text></g></g><g transform="translate(-230,-38) scale(1,1)"><g><path fill="none" stroke="none"/><text fill="#000000" stroke="none" font-family="Arial" font-size="13px" font-style="normal" font-weight="normal" text-decoration="none" x="405" y="756.5">-id_user: Integer</text></g></g><g transform="translate(-230,-38) scale(1,1)"><g><path fill="none" stroke="none"/><text fill="#000000" stroke="none" font-family="Arial" font-size="13px" font-style="normal" font-weight="normal" text-decoration="none" x="405" y="771.5">-idPlaceDepart: int</text></g></g><g transform="translate(-230,-38) scale(1,1)"><g><path fill="none" stroke="none"/><text fill="#000000" stroke="none" font-family="Arial" font-size="13px" font-style="normal" font-weight="normal" text-decoration="none" x="405" y="786.5">-idPlaceArrivee: int</text></g></g><g transform="translate(-230,-38) scale(1,1)"><rect fill="#C0C0C0" stroke="none" x="279" y="55" width="155.65625" height="282" opacity="0.2"/></g><g transform="translate(-230,-38) scale(1,1)"><rect fill="#ffffff" stroke="none" x="272" y="48" width="155.65625" height="282"/></g><g transform="translate(-230,-38) scale(1,1)"><path fill="none" stroke="#000000" d="M 272 48 L 427.65625 48 L 427.65625 330 L 272 330 L 272 48 Z Z" stroke-miterlimit="10"/></g><g transform="translate(-230,-38) scale(1,1)"><path fill="none" stroke="#000000" d="M 272 88 L 427.65625 88" stroke-miterlimit="10"/></g><g transform="translate(-230,-38) scale(1,1)"><path fill="none" stroke="#000000" d="M 272 321 L 427.65625 321" stroke-miterlimit="10"/></g><g transform="translate(-230,-38) scale(1,1)"><g><path fill="none" stroke="none"/><text fill="#000000" stroke="none" font-family="Arial" font-size="13px" font-style="normal" font-weight="bold" text-decoration="none" x="336.1044921875" y="67.5">User</text></g></g><g transform="translate(-230,-38) scale(1,1)"><g><path fill="none" stroke="none"/><text fill="#000000" stroke="none" font-family="Arial" font-size="13px" font-style="normal" font-weight="normal" text-decoration="none" x="312.989501953125" y="82.5">(from model)</text></g></g><g transform="translate(-230,-38) scale(1,1)"><g><path fill="none" stroke="none"/><text fill="#000000" stroke="none" font-family="Arial" font-size="13px" font-style="normal" font-weight="normal" text-decoration="none" x="277" y="105.5">-id: int</text></g></g><g transform="translate(-230,-38) scale(1,1)"><g><path fill="none" stroke="none"/><text fill="#000000" stroke="none" font-family="Arial" font-size="13px" font-style="normal" font-weight="normal" text-decoration="none" x="277" y="120.5">-gender: String</text></g></g><g transform="translate(-230,-38) scale(1,1)"><g><path fill="none" stroke="none"/><text fill="#000000" stroke="none" font-family="Arial" font-size="13px" font-style="normal" font-weight="normal" text-decoration="none" x="277" y="135.5">-firstName: String</text></g></g><g transform="translate(-230,-38) scale(1,1)"><g><path fill="none" stroke="none"/><text fill="#000000" stroke="none" font-family="Arial" font-size="13px" font-style="normal" font-weight="normal" text-decoration="none" x="277" y="150.5">-lastName: String</text></g></g><g transform="translate(-230,-38) scale(1,1)"><g><path fill="none" stroke="none"/><text fill="#000000" stroke="none" font-family="Arial" font-size="13px" font-style="normal" font-weight="normal" text-decoration="none" x="277" y="165.5">-email: String</text></g></g><g transform="translate(-230,-38) scale(1,1)"><g><path fill="none" stroke="none"/><text fill="#000000" stroke="none" font-family="Arial" font-size="13px" font-style="normal" font-weight="normal" text-decoration="none" x="277" y="180.5">-password: String</text></g></g><g transform="translate(-230,-38) scale(1,1)"><g><path fill="none" stroke="none"/><text fill="#000000" stroke="none" font-family="Arial" font-size="13px" font-style="normal" font-weight="normal" text-decoration="none" x="277" y="195.5">-passwordConfirm: String</text></g></g><g transform="translate(-230,-38) scale(1,1)"><g><path fill="none" stroke="none"/><text fill="#000000" stroke="none" font-family="Arial" font-size="13px" font-style="normal" font-weight="normal" text-decoration="none" x="277" y="210.5">-addressLine1: String</text></g></g><g transform="translate(-230,-38) scale(1,1)"><g><path fill="none" stroke="none"/><text fill="#000000" stroke="none" font-family="Arial" font-size="13px" font-style="normal" font-weight="normal" text-decoration="none" x="277" y="225.5">-addressLine2: String</text></g></g><g transform="translate(-230,-38) scale(1,1)"><g><path fill="none" stroke="none"/><text fill="#000000" stroke="none" font-family="Arial" font-size="13px" font-style="normal" font-weight="normal" text-decoration="none" x="277" y="240.5">-zipCode: String</text></g></g><g transform="translate(-230,-38) scale(1,1)"><g><path fill="none" stroke="none"/><text fill="#000000" stroke="none" font-family="Arial" font-size="13px" font-style="normal" font-weight="normal" text-decoration="none" x="277" y="255.5">-city: String</text></g></g><g transform="translate(-230,-38) scale(1,1)"><g><path fill="none" stroke="none"/><text fill="#000000" stroke="none" font-family="Arial" font-size="13px" font-style="normal" font-weight="normal" text-decoration="none" x="277" y="270.5">-phoneNumber: String</text></g></g><g transform="translate(-230,-38) scale(1,1)"><g><path fill="none" stroke="none"/><text fill="#000000" stroke="none" font-family="Arial" font-size="13px" font-style="normal" font-weight="normal" text-decoration="none" x="277" y="285.5">-birthdate: Date</text></g></g><g transform="translate(-230,-38) scale(1,1)"><g><path fill="none" stroke="none"/><text fill="#000000" stroke="none" font-family="Arial" font-size="13px" font-style="normal" font-weight="normal" text-decoration="none" x="277" y="300.5">-birthdateString: String</text></g></g><g transform="translate(-230,-38) scale(1,1)"><g><path fill="none" stroke="none"/><text fill="#000000" stroke="none" font-family="Arial" font-size="13px" font-style="normal" font-weight="normal" text-decoration="none" x="277" y="315.5">-signUpDate: Date</text></g></g><g transform="translate(-230,-38) scale(1,1)"><rect fill="#C0C0C0" stroke="none" x="247" y="431" width="113.05078125" height="192" opacity="0.2"/></g><g transform="translate(-230,-38) scale(1,1)"><rect fill="#ffffff" stroke="none" x="240" y="424" width="113.05078125" height="192"/></g><g transform="translate(-230,-38) scale(1,1)"><path fill="none" stroke="#000000" d="M 240 424 L 353.05078125 424 L 353.05078125 616 L 240 616 L 240 424 Z Z" stroke-miterlimit="10"/></g><g transform="translate(-230,-38) scale(1,1)"><path fill="none" stroke="#000000" d="M 240 464 L 353.05078125 464" stroke-miterlimit="10"/></g><g transform="translate(-230,-38) scale(1,1)"><path fill="none" stroke="#000000" d="M 240 607 L 353.05078125 607" stroke-miterlimit="10"/></g><g transform="translate(-230,-38) scale(1,1)"><g><path fill="none" stroke="none"/><text fill="#000000" stroke="none" font-family="Arial" font-size="13px" font-style="normal" font-weight="bold" text-decoration="none" x="261.114990234375" y="443.5">ParkingSpot</text></g></g><g transform="translate(-230,-38) scale(1,1)"><g><path fill="none" stroke="none"/><text fill="#000000" stroke="none" font-family="Arial" font-size="13px" font-style="normal" font-weight="normal" text-decoration="none" x="259.686767578125" y="458.5">(from model)</text></g></g><g transform="translate(-230,-38) scale(1,1)"><g><path fill="none" stroke="none"/><text fill="#000000" stroke="none" font-family="Arial" font-size="13px" font-style="normal" font-weight="normal" text-decoration="none" x="245" y="481.5">-id: Integer</text></g></g><g transform="translate(-230,-38) scale(1,1)"><g><path fill="none" stroke="none"/><text fill="#000000" stroke="none" font-family="Arial" font-size="13px" font-style="normal" font-weight="normal" text-decoration="none" x="245" y="496.5">-nbSpot: Integer</text></g></g><g transform="translate(-230,-38) scale(1,1)"><g><path fill="none" stroke="none"/><text fill="#000000" stroke="none" font-family="Arial" font-size="13px" font-style="normal" font-weight="normal" text-decoration="none" x="245" y="511.5">-nbParking: String</text></g></g><g transform="translate(-230,-38) scale(1,1)"><g><path fill="none" stroke="none"/><text fill="#000000" stroke="none" font-family="Arial" font-size="13px" font-style="normal" font-weight="normal" text-decoration="none" x="245" y="526.5">-plug: boolean</text></g></g><g transform="translate(-230,-38) scale(1,1)"><g><path fill="none" stroke="none"/><text fill="#000000" stroke="none" font-family="Arial" font-size="13px" font-style="normal" font-weight="normal" text-decoration="none" x="245" y="541.5">-location: String</text></g></g><g transform="translate(-230,-38) scale(1,1)"><g><path fill="none" stroke="none"/><text fill="#000000" stroke="none" font-family="Arial" font-size="13px" font-style="normal" font-weight="normal" text-decoration="none" x="245" y="556.5">-longitude: float</text></g></g><g transform="translate(-230,-38) scale(1,1)"><g><path fill="none" stroke="none"/><text fill="#000000" stroke="none" font-family="Arial" font-size="13px" font-style="normal" font-weight="normal" text-decoration="none" x="245" y="571.5">-latitude: float</text></g></g><g transform="translate(-230,-38) scale(1,1)"><g><path fill="none" stroke="none"/><text fill="#000000" stroke="none" font-family="Arial" font-size="13px" font-style="normal" font-weight="normal" text-decoration="none" x="245" y="586.5">-length: Integer</text></g></g><g transform="translate(-230,-38) scale(1,1)"><g><path fill="none" stroke="none"/><text fill="#000000" stroke="none" font-family="Arial" font-size="13px" font-style="normal" font-weight="normal" text-decoration="none" x="245" y="601.5">-width: Integer</text></g></g><g transform="translate(-230,-38) scale(1,1)"><path fill="none" stroke="#000000" d="M 429 255 L 575 375" stroke-miterlimit="10"/></g><g transform="translate(-230,-38) scale(1,1)"><g><path fill="none" stroke="none"/><text fill="#000000" stroke="none" font-family="Arial" font-size="13px" font-style="normal" font-weight="normal" text-decoration="none" x="480.5" y="309.5">+concerne</text></g></g><g transform="translate(-230,-38) scale(1,1)"><g><path fill="none" stroke="none"/><text fill="#000000" stroke="none" font-family="Arial" font-size="13px" font-style="normal" font-weight="normal" text-decoration="none" x="433.5" y="284.5">1</text></g></g><g transform="translate(-230,-38) scale(1,1)"><g><path fill="none" stroke="none"/><text fill="#000000" stroke="none" font-family="Arial" font-size="13px" font-style="normal" font-weight="normal" text-decoration="none" x="546.5" y="376.5">1</text></g></g><g transform="translate(-230,-38) scale(1,1)"><path fill="none" stroke="#000000" d="M 638 596 L 630 623" stroke-miterlimit="10"/></g><g transform="translate(-230,-38) scale(1,1)"><g><path fill="none" stroke="none"/><text fill="#000000" stroke="none" font-family="Arial" font-size="13px" font-style="normal" font-weight="normal" text-decoration="none" x="615.5" y="619.5">1</text></g></g><g transform="translate(-230,-38) scale(1,1)"><g><path fill="none" stroke="none"/><text fill="#000000" stroke="none" font-family="Arial" font-size="13px" font-style="normal" font-weight="normal" text-decoration="none" x="620.5" y="608.5">+concerne</text></g></g><g transform="translate(-230,-38) scale(1,1)"><g><path fill="none" stroke="none"/><text fill="#000000" stroke="none" font-family="Arial" font-size="13px" font-style="normal" font-weight="normal" text-decoration="none" x="620.5" y="604.5">1</text></g></g><g transform="translate(-230,-38) scale(1,1)"><path fill="none" stroke="#000000" d="M 575 477 L 354 511" stroke-miterlimit="10"/></g><g transform="translate(-230,-38) scale(1,1)"><g><path fill="none" stroke="none"/><text fill="#000000" stroke="none" font-family="Arial" font-size="13px" font-style="normal" font-weight="normal" text-decoration="none" x="440.5" y="514.5">+arrive à</text></g></g><g transform="translate(-230,-38) scale(1,1)"><g><path fill="none" stroke="none"/><text fill="#000000" stroke="none" font-family="Arial" font-size="13px" font-style="normal" font-weight="normal" text-decoration="none" x="547.5" y="473.5">1</text></g></g><g transform="translate(-230,-38) scale(1,1)"><g><path fill="none" stroke="none"/><text fill="#000000" stroke="none" font-family="Arial" font-size="13px" font-style="normal" font-weight="normal" text-decoration="none" x="369.5" y="501.5">1</text></g></g><g transform="translate(-230,-38) scale(1,1)"><path fill="none" stroke="#000000" d="M 714 327 L 720 301" stroke-miterlimit="10"/></g><g transform="translate(-230,-38) scale(1,1)"><g><path fill="none" stroke="none"/><text fill="#000000" stroke="none" font-family="Arial" font-size="13px" font-style="normal" font-weight="normal" text-decoration="none" x="741.5" y="316.5">+est_calculé_à_partir_de</text></g></g></g></svg>