<svg version="1.1" xmlns="http://www.w3.org/2000/svg" xmlns:xlink="http://www.w3.org/1999/xlink" width="941" height="1057"><defs/><g><g transform="translate(-422,-62) scale(1,1)"><path fill="#C0C0C0" stroke="none" d="M 511 88.5 C 511 83.2532944 515.2532944 79 520.5 79 C 525.7467056 79 530 83.2532944 530 88.5 C 530 93.7467056 525.7467056 98 520.5 98 C 515.2532944 98 511 93.7467056 511 88.5 Z" opacity="0.2"/></g><g transform="translate(-422,-62) scale(1,1)"><path fill="#000000" stroke="none" d="M 504 81.5 C 504 76.2532944 508.2532944 72 513.5 72 C 518.7467056 72 523 76.2532944 523 81.5 C 523 86.7467056 518.7467056 91 513.5 91 C 508.2532944 91 504 86.7467056 504 81.5 Z"/></g><g transform="translate(-422,-62) scale(1,1)"><path fill="#C0C0C0" stroke="none" d="M 457 151 L 733 151 Q 743 151 743 161 L 743 197 Q 743 207 733 207 L 457 207 Q 447 207 447 197 L 447 161 Q 447 151 457 151 Z" opacity="0.2"/></g><g transform="translate(-422,-62) scale(1,1)"><path fill="#ffffff" stroke="none" d="M 450 144 L 726 144 Q 736 144 736 154 L 736 190 Q 736 200 726 200 L 450 200 Q 440 200 440 190 L 440 154 Q 440 144 450 144 Z"/></g><g transform="translate(-422,-62) scale(1,1)"><path fill="none" stroke="#000000" d="M 450 144 L 726 144 Q 736 144 736 154 L 736 190 Q 736 200 726 200 L 450 200 Q 440 200 440 190 L 440 154 Q 440 144 450 144 Z" stroke-miterlimit="10"/></g><g transform="translate(-422,-62) scale(1,1)"><g><path fill="none" stroke="none"/><text fill="#000000" stroke="none" font-family="Arial" font-size="13px" font-style="normal" font-weight="bold" text-decoration="none" x="476.043212890625" y="163.5">Appuyer sur l''onglet course monitoring</text></g></g><g transform="translate(-422,-62) scale(1,1)"><path fill="none" stroke="#000000" d="M 522 92 L 564 143" stroke-miterlimit="10"/></g><g transform="translate(-422,-62) scale(1,1)"><path fill="none" stroke="#000000" d="M 554.2900598513036 137.83114497120167 L 564 143 L 560.7889679177748 132.47910303410777" stroke-miterlimit="10"/></g><g transform="translate(-422,-62) scale(1,1)"><path fill="#C0C0C0" stroke="none" d="M 801 143 L 1037 143 Q 1047 143 1047 153 L 1047 205 Q 1047 215 1037 215 L 801 215 Q 791 215 791 205 L 791 153 Q 791 143 801 143 Z" opacity="0.2"/></g><g transform="translate(-422,-62) scale(1,1)"><path fill="#ffffff" stroke="none" d="M 794 136 L 1030 136 Q 1040 136 1040 146 L 1040 198 Q 1040 208 1030 208 L 794 208 Q 784 208 784 198 L 784 146 Q 784 136 794 136 Z"/></g><g transform="translate(-422,-62) scale(1,1)"><path fill="none" stroke="#000000" d="M 794 136 L 1030 136 Q 1040 136 1040 146 L 1040 198 Q 1040 208 1030 208 L 794 208 Q 784 208 784 198 L 784 146 Q 784 136 794 136 Z" stroke-miterlimit="10"/></g><g transform="translate(-422,-62) scale(1,1)"><g><path fill="none" stroke="none"/><text fill="#000000" stroke="none" font-family="Arial" font-size="13px" font-style="normal" font-weight="bold" text-decoration="none" x="804.69287109375" y="155.5">Le système calcule automatiquement</text><text fill="#000000" stroke="none" font-family="Arial" font-size="13px" font-style="normal" font-weight="bold" text-decoration="none" x="811.906982421875" y="168.5">les heures de rendu des course en</text><text fill="#000000" stroke="none" font-family="Arial" font-size="13px" font-style="normal" font-weight="bold" text-decoration="none" x="867.92822265625" y="181.5">cours et les trie</text></g></g><g transform="translate(-422,-62) scale(1,1)"><path fill="#C0C0C0" stroke="none" d="M 745 263 L 1005 263 Q 1015 263 1015 273 L 1015 319 Q 1015 329 1005 329 L 745 329 Q 735 329 735 319 L 735 273 Q 735 263 745 263 Z" opacity="0.2"/></g><g transform="translate(-422,-62) scale(1,1)"><path fill="#ffffff" stroke="none" d="M 738 256 L 998 256 Q 1008 256 1008 266 L 1008 312 Q 1008 322 998 322 L 738 322 Q 728 322 728 312 L 728 266 Q 728 256 738 256 Z"/></g><g transform="translate(-422,-62) scale(1,1)"><path fill="none" stroke="#000000" d="M 738 256 L 998 256 Q 1008 256 1008 266 L 1008 312 Q 1008 322 998 322 L 738 322 Q 728 322 728 312 L 728 266 Q 728 256 738 256 Z" stroke-miterlimit="10"/></g><g transform="translate(-422,-62) scale(1,1)"><g><path fill="none" stroke="none"/><text fill="#000000" stroke="none" font-family="Arial" font-size="13px" font-style="normal" font-weight="bold" text-decoration="none" x="754.735595703125" y="275.5">L'agent consulte le tableau des session</text><text fill="#000000" stroke="none" font-family="Arial" font-size="13px" font-style="normal" font-weight="bold" text-decoration="none" x="757.807861328125" y="288.5">calculé comme en retard par rapport à</text><text fill="#000000" stroke="none" font-family="Arial" font-size="13px" font-style="normal" font-weight="bold" text-decoration="none" x="803.15869140625" y="301.5">l'heure de rendu prévu</text></g></g><g transform="translate(-422,-62) scale(1,1)"><path fill="none" stroke="#000000" d="M 737 172 L 783 172" stroke-miterlimit="10"/></g><g transform="translate(-422,-62) scale(1,1)"><path fill="none" stroke="#000000" d="M 772.8373251423759 176.209517756016 L 783 172 L 772.8373251423758 167.790482243984" stroke-miterlimit="10"/></g><g transform="translate(-422,-62) scale(1,1)"><path fill="none" stroke="#000000" d="M 898 209 L 881 255" stroke-miterlimit="10"/></g><g transform="translate(-422,-62) scale(1,1)"><path fill="none" stroke="#000000" d="M 880.5743881731615 244.00823696703503 L 881 255 L 888.4713971688944 246.92669681328417" stroke-miterlimit="10"/></g><g transform="translate(-422,-62) scale(1,1)"><path fill="#C0C0C0" stroke="none" d="M 449 375 L 873.8427734375 375 Q 883.8427734375 375 883.8427734375 385 L 883.8427734375 418 Q 883.8427734375 428 873.8427734375 428 L 449 428 Q 439 428 439 418 L 439 385 Q 439 375 449 375 Z" opacity="0.2"/></g><g transform="translate(-422,-62) scale(1,1)"><path fill="#ffffff" stroke="none" d="M 442 368 L 866.8427734375 368 Q 876.8427734375 368 876.8427734375 378 L 876.8427734375 411 Q 876.8427734375 421 866.8427734375 421 L 442 421 Q 432 421 432 411 L 432 378 Q 432 368 442 368 Z"/></g><g transform="translate(-422,-62) scale(1,1)"><path fill="none" stroke="#000000" d="M 442 368 L 866.8427734375 368 Q 876.8427734375 368 876.8427734375 378 L 876.8427734375 411 Q 876.8427734375 421 866.8427734375 421 L 442 421 Q 432 421 432 411 L 432 378 Q 432 368 442 368 Z" stroke-miterlimit="10"/></g><g transform="translate(-422,-62) scale(1,1)"><g><path fill="none" stroke="none"/><text fill="#000000" stroke="none" font-family="Arial" font-size="13px" font-style="normal" font-weight="bold" text-decoration="none" x="473.954345703125" y="387.5">L'agent appel le client en retard avec le numéro affiché dans le</text><text fill="#000000" stroke="none" font-family="Arial" font-size="13px" font-style="normal" font-weight="bold" text-decoration="none" x="633.096435546875" y="400.5">tableau</text></g></g><g transform="translate(-422,-62) scale(1,1)"><path fill="none" stroke="#000000" d="M 799 323 L 709 367" stroke-miterlimit="10"/></g><g transform="translate(-422,-62) scale(1,1)"><path fill="none" stroke="#000000" d="M 716.2811253078994 358.75468531524314 L 709 367 L 719.9788510064932 366.318215153276" stroke-miterlimit="10"/></g><g transform="translate(-422,-62) scale(1,1)"><path fill="#C0C0C0" stroke="none" d="M 577 503 L 789.36767578125 503 Q 799.36767578125 503 799.36767578125 513 L 799.36767578125 546 Q 799.36767578125 556 789.36767578125 556 L 577 556 Q 567 556 567 546 L 567 513 Q 567 503 577 503 Z" opacity="0.2"/></g><g transform="translate(-422,-62) scale(1,1)"><path fill="#ffffff" stroke="none" d="M 570 496 L 782.36767578125 496 Q 792.36767578125 496 792.36767578125 506 L 792.36767578125 539 Q 792.36767578125 549 782.36767578125 549 L 570 549 Q 560 549 560 539 L 560 506 Q 560 496 570 496 Z"/></g><g transform="translate(-422,-62) scale(1,1)"><path fill="none" stroke="#000000" d="M 570 496 L 782.36767578125 496 Q 792.36767578125 496 792.36767578125 506 L 792.36767578125 539 Q 792.36767578125 549 782.36767578125 549 L 570 549 Q 560 549 560 539 L 560 506 Q 560 496 570 496 Z" stroke-miterlimit="10"/></g><g transform="translate(-422,-62) scale(1,1)"><g><path fill="none" stroke="none"/><text fill="#000000" stroke="none" font-family="Arial" font-size="13px" font-style="normal" font-weight="bold" text-decoration="none" x="575.56396484375" y="515.5">L'agent appuie sur le bouton conflit</text></g></g><g transform="translate(-422,-62) scale(1,1)"><path fill="#C0C0C0" stroke="none" d="M 505 607 L 1074.16943359375 607 Q 1084.16943359375 607 1084.16943359375 617 L 1084.16943359375 650 Q 1084.16943359375 660 1074.16943359375 660 L 505 660 Q 495 660 495 650 L 495 617 Q 495 607 505 607 Z" opacity="0.2"/></g><g transform="translate(-422,-62) scale(1,1)"><path fill="#ffffff" stroke="none" d="M 498 600 L 1067.16943359375 600 Q 1077.16943359375 600 1077.16943359375 610 L 1077.16943359375 643 Q 1077.16943359375 653 1067.16943359375 653 L 498 653 Q 488 653 488 643 L 488 610 Q 488 600 498 600 Z"/></g><g transform="translate(-422,-62) scale(1,1)"><path fill="none" stroke="#000000" d="M 498 600 L 1067.16943359375 600 Q 1077.16943359375 600 1077.16943359375 610 L 1077.16943359375 643 Q 1077.16943359375 653 1067.16943359375 653 L 498 653 Q 488 653 488 643 L 488 610 Q 488 600 498 600 Z" stroke-miterlimit="10"/></g><g transform="translate(-422,-62) scale(1,1)"><g><path fill="none" stroke="none"/><text fill="#000000" stroke="none" font-family="Arial" font-size="13px" font-style="normal" font-weight="bold" text-decoration="none" x="531.845947265625" y="619.5">Le système affiche les clients suivants qui seront impacté par le retard de la session en</text><text fill="#000000" stroke="none" font-family="Arial" font-size="13px" font-style="normal" font-weight="bold" text-decoration="none" x="766.690185546875" y="632.5">cours</text></g></g><g transform="translate(-422,-62) scale(1,1)"><path fill="#C0C0C0" stroke="none" d="M 489 703 L 1117.55810546875 703 Q 1127.55810546875 703 1127.55810546875 713 L 1127.55810546875 746 Q 1127.55810546875 756 1117.55810546875 756 L 489 756 Q 479 756 479 746 L 479 713 Q 479 703 489 703 Z" opacity="0.2"/></g><g transform="translate(-422,-62) scale(1,1)"><path fill="#ffffff" stroke="none" d="M 482 696 L 1110.55810546875 696 Q 1120.55810546875 696 1120.55810546875 706 L 1120.55810546875 739 Q 1120.55810546875 749 1110.55810546875 749 L 482 749 Q 472 749 472 739 L 472 706 Q 472 696 482 696 Z"/></g><g transform="translate(-422,-62) scale(1,1)"><path fill="none" stroke="#000000" d="M 482 696 L 1110.55810546875 696 Q 1120.55810546875 696 1120.55810546875 706 L 1120.55810546875 739 Q 1120.55810546875 749 1110.55810546875 749 L 482 749 Q 472 749 472 739 L 472 706 Q 472 696 482 696 Z" stroke-miterlimit="10"/></g><g transform="translate(-422,-62) scale(1,1)"><g><path fill="none" stroke="none"/><text fill="#000000" stroke="none" font-family="Arial" font-size="13px" font-style="normal" font-weight="bold" text-decoration="none" x="540.658935546875" y="715.5">L'agent appel le second client impacté par le retard et lui propose des solutions et gestes</text><text fill="#000000" stroke="none" font-family="Arial" font-size="13px" font-style="normal" font-weight="bold" text-decoration="none" x="757.63134765625" y="728.5">commerciaux</text></g></g><g transform="translate(-422,-62) scale(1,1)"><path fill="#C0C0C0" stroke="none" d="M 665 823 L 935.20751953125 823 Q 945.20751953125 823 945.20751953125 833 L 945.20751953125 853 Q 945.20751953125 863 935.20751953125 863 L 665 863 Q 655 863 655 853 L 655 833 Q 655 823 665 823 Z" opacity="0.2"/></g><g transform="translate(-422,-62) scale(1,1)"><path fill="#ffffff" stroke="none" d="M 658 816 L 928.20751953125 816 Q 938.20751953125 816 938.20751953125 826 L 938.20751953125 846 Q 938.20751953125 856 928.20751953125 856 L 658 856 Q 648 856 648 846 L 648 826 Q 648 816 658 816 Z"/></g><g transform="translate(-422,-62) scale(1,1)"><path fill="none" stroke="#000000" d="M 658 816 L 928.20751953125 816 Q 938.20751953125 816 938.20751953125 826 L 938.20751953125 846 Q 938.20751953125 856 928.20751953125 856 L 658 856 Q 648 856 648 846 L 648 826 Q 648 816 658 816 Z" stroke-miterlimit="10"/></g><g transform="translate(-422,-62) scale(1,1)"><g><path fill="none" stroke="none"/><text fill="#000000" stroke="none" font-family="Arial" font-size="13px" font-style="normal" font-weight="bold" text-decoration="none" x="666.842529296875" y="835.5">L'agent coche la sollution choisi par le client</text></g></g><g transform="translate(-422,-62) scale(1,1)"><path fill="none" stroke="#000000" d="M 659 422 L 671 495" stroke-miterlimit="10"/></g><g transform="translate(-422,-62) scale(1,1)"><path fill="none" stroke="#000000" d="M 665.19777671314 485.654722854328 L 671 495 L 673.5053174096751 484.2890997261305" stroke-miterlimit="10"/></g><g transform="translate(-422,-62) scale(1,1)"><path fill="#C0C0C0" stroke="none" d="M 767 912.5 L 778.5 903 L 789 912.5 L 778.5 921 L 767 912.5" opacity="0.2"/></g><g transform="translate(-422,-62) scale(1,1)"><path fill="#ffffff" stroke="none" d="M 760 905 L 771 896 L 782 905 L 771 914 L 760 905"/></g><g transform="translate(-422,-62) scale(1,1)"><path fill="none" stroke="#000000" d="M 760 905 L 771 896 L 782 905 L 771 914 L 760 905 L 760 905" stroke-miterlimit="10"/></g><g transform="translate(-422,-62) scale(1,1)"><path fill="none" stroke="#000000" d="M 705 550 L 754 599" stroke-miterlimit="10"/></g><g transform="translate(-422,-62) scale(1,1)"><path fill="none" stroke="#000000" d="M 743.8373251423758 594.790482243984 L 754 599 L 749.790482243984 588.8373251423759" stroke-miterlimit="10"/></g><g transform="translate(-422,-62) scale(1,1)"><path fill="none" stroke="#000000" d="M 786 654 L 792 695" stroke-miterlimit="10"/></g><g transform="translate(-422,-62) scale(1,1)"><path fill="none" stroke="#000000" d="M 786.3632990944595 685.5539636406862 L 792 695 L 794.6936069311774 684.3348942011664" stroke-miterlimit="10"/></g><g transform="translate(-422,-62) scale(1,1)"><path fill="none" stroke="#000000" d="M 795 750 L 794 815" stroke-miterlimit="10"/></g><g transform="translate(-422,-62) scale(1,1)"><path fill="none" stroke="#000000" d="M 789.9473106677766 804.7737734634675 L 794 815 L 798.3653500210745 804.9032817612105" stroke-miterlimit="10"/></g><g transform="translate(-422,-62) scale(1,1)"><path fill="none" stroke="#000000" d="M 786 857 L 774 895" stroke-miterlimit="10"/></g><g transform="translate(-422,-62) scale(1,1)"><path fill="none" stroke="#000000" d="M 773.0461770210651 884.0414315841505 L 774 895 L 781.0744233424875 886.5766672645996" stroke-miterlimit="10"/></g><g transform="translate(-422,-62) scale(1,1)"><path fill="#C0C0C0" stroke="none" d="M 465 943 L 637.69482421875 943 Q 647.69482421875 943 647.69482421875 953 L 647.69482421875 973 Q 647.69482421875 983 637.69482421875 983 L 465 983 Q 455 983 455 973 L 455 953 Q 455 943 465 943 Z" opacity="0.2"/></g><g transform="translate(-422,-62) scale(1,1)"><path fill="#ffffff" stroke="none" d="M 458 936 L 630.69482421875 936 Q 640.69482421875 936 640.69482421875 946 L 640.69482421875 966 Q 640.69482421875 976 630.69482421875 976 L 458 976 Q 448 976 448 966 L 448 946 Q 448 936 458 936 Z"/></g><g transform="translate(-422,-62) scale(1,1)"><path fill="none" stroke="#000000" d="M 458 936 L 630.69482421875 936 Q 640.69482421875 936 640.69482421875 946 L 640.69482421875 966 Q 640.69482421875 976 630.69482421875 976 L 458 976 Q 448 976 448 966 L 448 946 Q 448 936 458 936 Z" stroke-miterlimit="10"/></g><g transform="translate(-422,-62) scale(1,1)"><g><path fill="none" stroke="none"/><text fill="#000000" stroke="none" font-family="Arial" font-size="13px" font-style="normal" font-weight="bold" text-decoration="none" x="459.64111328125" y="955.5">L'agent modifie la réservation</text></g></g><g transform="translate(-422,-62) scale(1,1)"><path fill="#C0C0C0" stroke="none" d="M 961 919 L 1129.36572265625 919 Q 1139.36572265625 919 1139.36572265625 929 L 1139.36572265625 949 Q 1139.36572265625 959 1129.36572265625 959 L 961 959 Q 951 959 951 949 L 951 929 Q 951 919 961 919 Z" opacity="0.2"/></g><g transform="translate(-422,-62) scale(1,1)"><path fill="#ffffff" stroke="none" d="M 954 912 L 1122.36572265625 912 Q 1132.36572265625 912 1132.36572265625 922 L 1132.36572265625 942 Q 1132.36572265625 952 1122.36572265625 952 L 954 952 Q 944 952 944 942 L 944 922 Q 944 912 954 912 Z"/></g><g transform="translate(-422,-62) scale(1,1)"><path fill="none" stroke="#000000" d="M 954 912 L 1122.36572265625 912 Q 1132.36572265625 912 1132.36572265625 922 L 1132.36572265625 942 Q 1132.36572265625 952 1122.36572265625 952 L 954 952 Q 944 952 944 942 L 944 922 Q 944 912 954 912 Z" stroke-miterlimit="10"/></g><g transform="translate(-422,-62) scale(1,1)"><g><path fill="none" stroke="none"/><text fill="#000000" stroke="none" font-family="Arial" font-size="13px" font-style="normal" font-weight="bold" text-decoration="none" x="954.9111328125" y="931.5">L'agent annule la réservation</text></g></g><g transform="translate(-422,-62) scale(1,1)"><path fill="#C0C0C0" stroke="none" d="M 729 1071 L 953.701171875 1071 Q 963.701171875 1071 963.701171875 1081 L 963.701171875 1101 Q 963.701171875 1111 953.701171875 1111 L 729 1111 Q 719 1111 719 1101 L 719 1081 Q 719 1071 729 1071 Z" opacity="0.2"/></g><g transform="translate(-422,-62) scale(1,1)"><path fill="#ffffff" stroke="none" d="M 722 1064 L 946.701171875 1064 Q 956.701171875 1064 956.701171875 1074 L 956.701171875 1094 Q 956.701171875 1104 946.701171875 1104 L 722 1104 Q 712 1104 712 1094 L 712 1074 Q 712 1064 722 1064 Z"/></g><g transform="translate(-422,-62) scale(1,1)"><path fill="none" stroke="#000000" d="M 722 1064 L 946.701171875 1064 Q 956.701171875 1064 956.701171875 1074 L 956.701171875 1094 Q 956.701171875 1104 946.701171875 1104 L 722 1104 Q 712 1104 712 1094 L 712 1074 Q 712 1064 722 1064 Z" stroke-miterlimit="10"/></g><g transform="translate(-422,-62) scale(1,1)"><g><path fill="none" stroke="none"/><text fill="#000000" stroke="none" font-family="Arial" font-size="13px" font-style="normal" font-weight="bold" text-decoration="none" x="725.0693359375" y="1083.5">L'agent applique un geste commercial</text></g></g><g transform="translate(-422,-62) scale(1,1)"><path fill="none" stroke="#000000" d="M 759 908 L 637 935" stroke-miterlimit="10"/></g><g transform="translate(-422,-62) scale(1,1)"><path fill="none" stroke="#000000" d="M 646.0129764734716 928.6939509129211 L 637 935 L 647.8321868550353 936.9140867110979" stroke-miterlimit="10"/></g><g transform="translate(-422,-62) scale(1,1)"><g><path fill="none" stroke="none"/><text fill="#000000" stroke="none" font-family="Arial" font-size="13px" font-style="normal" font-weight="normal" text-decoration="none" x="448.5" y="900.5">le client a besoin d'un autre véhicule rapidement</text></g></g><g transform="translate(-422,-62) scale(1,1)"><path fill="none" stroke="#000000" d="M 783 906 L 943 922" stroke-miterlimit="10"/></g><g transform="translate(-422,-62) scale(1,1)"><path fill="none" stroke="#000000" d="M 932.4688978926434 925.1774027765504 L 943 922 L 933.3066232366605 916.80014933638" stroke-miterlimit="10"/></g><g transform="translate(-422,-62) scale(1,1)"><g><path fill="none" stroke="none"/><text fill="#000000" stroke="none" font-family="Arial" font-size="13px" font-style="normal" font-weight="normal" text-decoration="none" x="839.5" y="908.5">annulation</text></g></g><g transform="translate(-422,-62) scale(1,1)"><path fill="#C0C0C0" stroke="none" d="M 775 1024.5 L 786.5 1015 L 797 1024.5 L 786.5 1033 L 775 1024.5" opacity="0.2"/></g><g transform="translate(-422,-62) scale(1,1)"><path fill="#ffffff" stroke="none" d="M 768 1017 L 779 1008 L 790 1017 L 779 1026 L 768 1017"/></g><g transform="translate(-422,-62) scale(1,1)"><path fill="none" stroke="#000000" d="M 768 1017 L 779 1008 L 790 1017 L 779 1026 L 768 1017 L 768 1017" stroke-miterlimit="10"/></g><g transform="translate(-422,-62) scale(1,1)"><path fill="none" stroke="#000000" d="M 625 977 L 767 1014" stroke-miterlimit="10"/></g><g transform="translate(-422,-62) scale(1,1)"><path fill="none" stroke="#000000" d="M 756.1042785803854 1015.5110442568474 L 767 1014 L 758.2270918575812 1007.3640311389607" stroke-miterlimit="10"/></g><g transform="translate(-422,-62) scale(1,1)"><path fill="none" stroke="#000000" d="M 974 953 L 791 1013" stroke-miterlimit="10"/></g><g transform="translate(-422,-62) scale(1,1)"><path fill="none" stroke="#000000" d="M 799.3453957912465 1005.8338037225145 L 791 1013 L 801.9683519387997 1013.8338199725523" stroke-miterlimit="10"/></g><g transform="translate(-422,-62) scale(1,1)"><path fill="none" stroke="#000000" d="M 772 915 L 778 1007" stroke-miterlimit="10"/></g><g transform="translate(-422,-62) scale(1,1)"><path fill="none" stroke="#000000" d="M 773.1380278627038 997.1328207203803 L 778 1007 L 781.5392159115803 996.5849171519753" stroke-miterlimit="10"/></g><g transform="translate(-422,-62) scale(1,1)"><g><path fill="none" stroke="none"/><text fill="#000000" stroke="none" font-family="Arial" font-size="13px" font-style="normal" font-weight="normal" text-decoration="none" x="677.5" y="966.5">le client décide d'attendre son véhicule</text></g></g><g transform="translate(-422,-62) scale(1,1)"><path fill="none" stroke="#000000" d="M 787 1027 L 817 1063" stroke-miterlimit="10"/></g><g transform="translate(-422,-62) scale(1,1)"><path fill="none" stroke="#000000" d="M 807.260172980272 1057.8876845142559 L 817 1063 L 813.727855214301 1052.4979493192318" stroke-miterlimit="10"/></g><g transform="translate(-422,-62) scale(1,1)"><path fill="#C0C0C0" stroke="none" d="M 1049 1063 L 1232.779296875 1063 Q 1242.779296875 1063 1242.779296875 1073 L 1242.779296875 1106 Q 1242.779296875 1116 1232.779296875 1116 L 1049 1116 Q 1039 1116 1039 1106 L 1039 1073 Q 1039 1063 1049 1063 Z" opacity="0.2"/></g><g transform="translate(-422,-62) scale(1,1)"><path fill="#ffffff" stroke="none" d="M 1042 1056 L 1225.779296875 1056 Q 1235.779296875 1056 1235.779296875 1066 L 1235.779296875 1099 Q 1235.779296875 1109 1225.779296875 1109 L 1042 1109 Q 1032 1109 1032 1099 L 1032 1066 Q 1032 1056 1042 1056 Z"/></g><g transform="translate(-422,-62) scale(1,1)"><path fill="none" stroke="#000000" d="M 1042 1056 L 1225.779296875 1056 Q 1235.779296875 1056 1235.779296875 1066 L 1235.779296875 1099 Q 1235.779296875 1109 1225.779296875 1109 L 1042 1109 Q 1032 1109 1032 1099 L 1032 1066 Q 1032 1056 1042 1056 Z" stroke-miterlimit="10"/></g><g transform="translate(-422,-62) scale(1,1)"><g><path fill="none" stroke="none"/><text fill="#000000" stroke="none" font-family="Arial" font-size="13px" font-style="normal" font-weight="bold" text-decoration="none" x="1063.265625" y="1075.5">L'Agent tague la session</text><text fill="#000000" stroke="none" font-family="Arial" font-size="13px" font-style="normal" font-weight="bold" text-decoration="none" x="1082.229248046875" y="1088.5">comme déjà traité</text></g></g><g transform="translate(-422,-62) scale(1,1)"><path fill="none" stroke="#000000" d="M 958 1083 L 1031 1083" stroke-miterlimit="10"/></g><g transform="translate(-422,-62) scale(1,1)"><path fill="none" stroke="#000000" d="M 1020.8373251423759 1087.2095177560159 L 1031 1083 L 1020.8373251423758 1078.7904822439841" stroke-miterlimit="10"/></g><g transform="translate(-422,-62) scale(1,1)"><path fill="#C0C0C0" stroke="none" d="M 1335 1099.5 C 1335 1092.59644 1340.59644 1087 1347.5 1087 C 1354.40356 1087 1360 1092.59644 1360 1099.5 C 1360 1106.40356 1354.40356 1112 1347.5 1112 C 1340.59644 1112 1335 1106.40356 1335 1099.5 Z" opacity="0.2"/></g><g transform="translate(-422,-62) scale(1,1)"><path fill="none" stroke="#000000" d="M 1328 1092.5 C 1328 1085.59644 1333.59644 1080 1340.5 1080 C 1347.40356 1080 1353 1085.59644 1353 1092.5 C 1353 1099.40356 1347.40356 1105 1340.5 1105 C 1333.59644 1105 1328 1099.40356 1328 1092.5 Z" stroke-miterlimit="10"/></g><g transform="translate(-422,-62) scale(1,1)"><path fill="#000000" stroke="none" d="M 1333 1092.5 C 1333 1088.357864 1336.357864 1085 1340.5 1085 C 1344.642136 1085 1348 1088.357864 1348 1092.5 C 1348 1096.642136 1344.642136 1100 1340.5 1100 C 1336.357864 1100 1333 1096.642136 1333 1092.5 Z"/></g><g transform="translate(-422,-62) scale(1,1)"><path fill="none" stroke="#000000" d="M 1237 1087 L 1327 1091" stroke-miterlimit="10"/></g><g transform="translate(-422,-62) scale(1,1)"><path fill="none" stroke="#000000" d="M 1316.660442335192 1094.7541373571182 L 1327 1091 L 1317.034252678021 1086.343404643469" stroke-miterlimit="10"/></g></g></svg>