<svg version="1.1" xmlns="http://www.w3.org/2000/svg" xmlns:xlink="http://www.w3.org/1999/xlink" width="475" height="291"><defs/><g><g transform="translate(-166,-30) scale(1,1)"><rect fill="#C0C0C0" stroke="none" x="295" y="47" width="343" height="271" opacity="0.2"/></g><g transform="translate(-166,-30) scale(1,1)"><rect fill="#ffffff" stroke="none" x="288" y="40" width="343" height="271"/></g><g transform="translate(-166,-30) scale(1,1)"><path fill="none" stroke="#000000" d="M 288 40 L 631 40 L 631 311 L 288 311 L 288 40 Z Z" stroke-miterlimit="10"/></g><g transform="translate(-166,-30) scale(1,1)"><g><path fill="none" stroke="none"/><text fill="#000000" stroke="none" font-family="Arial" font-size="13px" font-style="normal" font-weight="bold" text-decoration="none" x="438.91455078125" y="59.5">system</text></g></g><g transform="translate(-166,-30) scale(1,1)"><path fill="#ffffff" stroke="none" d="M 199.98210422585228 121.68 C 199.98210422585228 116.886167936 203.86794655079774 113 208.661376953125 113 C 213.45480735545226 113 217.34064968039772 116.886167936 217.34064968039772 121.68 C 217.34064968039772 126.473832064 213.45480735545226 130.36 208.661376953125 130.36 C 203.86794655079774 130.36 199.98210422585228 126.473832064 199.98210422585228 121.68 Z"/></g><g transform="translate(-166,-30) scale(1,1)"><path fill="none" stroke="#000000" d="M 199.98210422585228 121.68 C 199.98210422585228 116.886167936 203.86794655079774 113 208.661376953125 113 C 213.45480735545226 113 217.34064968039772 116.886167936 217.34064968039772 121.68 C 217.34064968039772 126.473832064 213.45480735545226 130.36 208.661376953125 130.36 C 203.86794655079774 130.36 199.98210422585228 126.473832064 199.98210422585228 121.68 Z" stroke-miterlimit="10"/></g><g transform="translate(-166,-30) scale(1,1)"><path fill="none" stroke="#000000" d="M 208.661376953125 130.36 L 208.661376953125 147.64" stroke-miterlimit="10"/></g><g transform="translate(-166,-30) scale(1,1)"><path fill="none" stroke="#000000" d="M 199.47155877130683 136.84 L 217.85119513494317 136.84" stroke-miterlimit="10"/></g><g transform="translate(-166,-30) scale(1,1)"><path fill="none" stroke="#000000" d="M 208.661376953125 147.64 L 195.89774058948865 165" stroke-miterlimit="10"/></g><g transform="translate(-166,-30) scale(1,1)"><path fill="none" stroke="#000000" d="M 208.661376953125 147.64 L 221.42501331676135 165" stroke-miterlimit="10"/></g><g transform="translate(-166,-30) scale(1,1)"><g><path fill="none" stroke="none"/><text fill="#000000" stroke="none" font-family="Arial" font-size="13px" font-style="normal" font-weight="bold" text-decoration="none" x="182.28369140625" y="185.5">Agent Fo</text></g></g><g transform="translate(-166,-30) scale(1,1)"><path fill="#C0C0C0" stroke="none" d="M 367 96 C 367 86.6111584 419.38267840000003 79 484 79 C 548.6173216 79 601 86.6111584 601 96 C 601 105.3888416 548.6173216 113 484 113 C 419.38267840000003 113 367 105.3888416 367 96 Z" opacity="0.2"/></g><g transform="translate(-166,-30) scale(1,1)"><path fill="#ffffff" stroke="none" d="M 360 89 C 360 79.6111584 412.38267840000003 72 477 72 C 541.6173216 72 594 79.6111584 594 89 C 594 98.3888416 541.6173216 106 477 106 C 412.38267840000003 106 360 98.3888416 360 89 Z"/></g><g transform="translate(-166,-30) scale(1,1)"><path fill="none" stroke="#000000" d="M 360 89 C 360 79.6111584 412.38267840000003 72 477 72 C 541.6173216 72 594 79.6111584 594 89 C 594 98.3888416 541.6173216 106 477 106 C 412.38267840000003 106 360 98.3888416 360 89 Z" stroke-miterlimit="10"/></g><g transform="translate(-166,-30) scale(1,1)"><g><path fill="none" stroke="none"/><text fill="#000000" stroke="none" font-family="Arial" font-size="13px" font-style="normal" font-weight="bold" text-decoration="none" x="405.465087890625" y="96">Lot1:modifier réservation</text></g></g><g transform="translate(-166,-30) scale(1,1)"><path fill="none" stroke="#000000" d="M 242 143 L 399 107" stroke-miterlimit="10"/></g></g></svg>