<svg version="1.1" xmlns="http://www.w3.org/2000/svg" xmlns:xlink="http://www.w3.org/1999/xlink" width="987" height="775"><defs/><g><g transform="translate(-50,-14) scale(1,1)"><path fill="none" stroke="#000000" d="M 72 24 L 1027 24 L 1027 779 L 72 779 L 72 24" stroke-miterlimit="10"/></g><g transform="translate(-50,-14) scale(1,1)"><path fill="#ffffff" stroke="none" d="M 72 24 L 72 46 L 277.64892578125 46 L 288.64892578125 35 L 288.64892578125 24 L 72 24"/></g><g transform="translate(-50,-14) scale(1,1)"><path fill="none" stroke="#000000" d="M 72 24 L 72 46 L 277.64892578125 46 L 288.64892578125 35 L 288.64892578125 24 L 72 24 L 72 24" stroke-miterlimit="10"/></g><g transform="translate(-50,-14) scale(1,1)"><g><path fill="none" stroke="none"/><text fill="#000000" stroke="none" font-family="Arial" font-size="13px" font-style="normal" font-weight="normal" text-decoration="none" x="142.97900390625" y="41.5">Modification d'urgence</text></g></g><g transform="translate(-50,-14) scale(1,1)"><g><path fill="none" stroke="none"/><text fill="#000000" stroke="none" font-family="Arial" font-size="13px" font-style="normal" font-weight="bold" text-decoration="none" x="77" y="41.5">interaction</text></g></g><g transform="translate(-50,-14) scale(1,1)"><path fill="#ffffff" stroke="none" d="M 116.5709090909091 47.3 C 116.5709090909091 43.82060576 119.4493108130909 41 123 41 C 126.5506891869091 41 129.42909090909092 43.82060576 129.42909090909092 47.3 C 129.42909090909092 50.779394239999995 126.5506891869091 53.6 123 53.6 C 119.4493108130909 53.6 116.5709090909091 50.779394239999995 116.5709090909091 47.3 Z"/></g><g transform="translate(-50,-14) scale(1,1)"><path fill="none" stroke="#000000" d="M 116.5709090909091 47.3 C 116.5709090909091 43.82060576 119.4493108130909 41 123 41 C 126.5506891869091 41 129.42909090909092 43.82060576 129.42909090909092 47.3 C 129.42909090909092 50.779394239999995 126.5506891869091 53.6 123 53.6 C 119.4493108130909 53.6 116.5709090909091 50.779394239999995 116.5709090909091 47.3 Z" stroke-miterlimit="10"/></g><g transform="translate(-50,-14) scale(1,1)"><path fill="none" stroke="#000000" d="M 123 53.6 L 123 66.4" stroke-miterlimit="10"/></g><g transform="translate(-50,-14) scale(1,1)"><path fill="none" stroke="#000000" d="M 116.19272727272728 58.4 L 129.80727272727273 58.4" stroke-miterlimit="10"/></g><g transform="translate(-50,-14) scale(1,1)"><path fill="none" stroke="#000000" d="M 123 66.4 L 113.54545454545455 79" stroke-miterlimit="10"/></g><g transform="translate(-50,-14) scale(1,1)"><path fill="none" stroke="#000000" d="M 123 66.4 L 132.45454545454547 79" stroke-miterlimit="10"/></g><g transform="translate(-50,-14) scale(1,1)"><g><path fill="none" stroke="none"/><text fill="#000000" stroke="none" font-family="Arial" font-size="13px" font-style="normal" font-weight="bold" text-decoration="none" x="68.79736328125" y="99.5">Lifeline1: Agent Fo</text></g></g><g transform="translate(-50,-14) scale(1,1)"><path fill="none" stroke="#000000" d="M 124.5 105 L 124.5 645" stroke-miterlimit="10" stroke-dasharray="3"/></g><g transform="translate(-50,-14) scale(1,1)"><rect fill="#C0C0C0" stroke="none" x="575" y="47" width="100.63720703125" height="39" opacity="0.2"/></g><g transform="translate(-50,-14) scale(1,1)"><rect fill="#ffffff" stroke="none" x="568" y="40" width="100.63720703125" height="39"/></g><g transform="translate(-50,-14) scale(1,1)"><path fill="none" stroke="#000000" d="M 568 40 L 668.63720703125 40 L 668.63720703125 79 L 568 79 L 568 40 Z Z" stroke-miterlimit="10"/></g><g transform="translate(-50,-14) scale(1,1)"><g><path fill="none" stroke="none"/><text fill="#000000" stroke="none" font-family="Arial" font-size="13px" font-style="normal" font-weight="bold" text-decoration="none" x="579.312255859375" y="59.5">System: CSC</text></g></g><g transform="translate(-50,-14) scale(1,1)"><path fill="none" stroke="#000000" d="M 619.5 80 L 619.5 661" stroke-miterlimit="10" stroke-dasharray="3"/></g><g transform="translate(-50,-14) scale(1,1)"><path fill="none" stroke="#000000" d="M 104 344 L 664 344 L 664 496 L 104 496 L 104 344" stroke-miterlimit="10"/></g><g transform="translate(-50,-14) scale(1,1)"><path fill="#ffffff" stroke="none" d="M 104 344 L 104 366 L 255.84619140625 366 L 266.84619140625 355 L 266.84619140625 344 L 104 344"/></g><g transform="translate(-50,-14) scale(1,1)"><path fill="none" stroke="#000000" d="M 104 344 L 104 366 L 255.84619140625 366 L 266.84619140625 355 L 266.84619140625 344 L 104 344 L 104 344" stroke-miterlimit="10"/></g><g transform="translate(-50,-14) scale(1,1)"><g><path fill="none" stroke="none"/><text fill="#000000" stroke="none" font-family="Arial" font-size="13px" font-style="normal" font-weight="normal" text-decoration="none" x="128.72998046875" y="361.5">CombinedFragment1</text></g></g><g transform="translate(-50,-14) scale(1,1)"><g><path fill="none" stroke="none"/><text fill="#000000" stroke="none" font-family="Arial" font-size="13px" font-style="normal" font-weight="bold" text-decoration="none" x="109" y="361.5">alt</text></g></g><g transform="translate(-50,-14) scale(1,1)"><g><path fill="none" stroke="none"/><text fill="#000000" stroke="none" font-family="Arial" font-size="13px" font-style="normal" font-weight="normal" text-decoration="none" x="123.5" y="394.5">[Annulation]</text></g></g><g transform="translate(-50,-14) scale(1,1)"><path fill="none" stroke="#000000" d="M 104 433 L 664 433" stroke-miterlimit="10" stroke-dasharray="10,3"/></g><g transform="translate(-50,-14) scale(1,1)"><g><path fill="none" stroke="none"/><text fill="#000000" stroke="none" font-family="Arial" font-size="13px" font-style="normal" font-weight="normal" text-decoration="none" x="123.5" y="460.5">[Modification de la réservation]</text></g></g><g transform="translate(-50,-14) scale(1,1)"><path fill="none" stroke="#000000" d="M 124 120 L 612 120" stroke-miterlimit="10"/></g><g transform="translate(-50,-14) scale(1,1)"><path fill="none" stroke="#000000" d="M 601.8373251423759 124.20951775601598 L 612 120 L 601.8373251423758 115.79048224398402" stroke-miterlimit="10"/></g><g transform="translate(-50,-14) scale(1,1)"><g><path fill="none" stroke="none"/><text fill="#000000" stroke="none" font-family="Arial" font-size="13px" font-style="normal" font-weight="normal" text-decoration="none" x="285.5" y="116.5">1 : addMonitorCoursePage()</text></g></g><g transform="translate(-50,-14) scale(1,1)"><rect fill="#ffffff" stroke="none" x="612" y="120" width="13" height="28"/></g><g transform="translate(-50,-14) scale(1,1)"><path fill="none" stroke="#000000" d="M 612 120 L 625 120 L 625 148 L 612 148 L 612 120 Z Z" stroke-miterlimit="10"/></g><g transform="translate(-50,-14) scale(1,1)"><path fill="none" stroke="#000000" d="M 625 128 L 655 128 L 655 148 L 632 148" stroke-miterlimit="10"/></g><g transform="translate(-50,-14) scale(1,1)"><path fill="#000000" stroke="none" d="M 642.1626748576241 143.790482243984 L 632 148 L 642.1626748576241 152.209517756016"/></g><g transform="translate(-50,-14) scale(1,1)"><path fill="none" stroke="#000000" d="M 642.1626748576241 143.790482243984 L 632 148 L 642.1626748576241 152.209517756016 L 642.1626748576241 143.790482243984" stroke-miterlimit="10"/></g><g transform="translate(-50,-14) scale(1,1)"><g><path fill="none" stroke="none"/><text fill="#000000" stroke="none" font-family="Arial" font-size="13px" font-style="normal" font-weight="normal" text-decoration="none" x="646.5" y="172.5">2 : addCalculatedDelayAutomatically</text></g></g><g transform="translate(-50,-14) scale(1,1)"><rect fill="#ffffff" stroke="none" x="619" y="148" width="13" height="28"/></g><g transform="translate(-50,-14) scale(1,1)"><path fill="none" stroke="#000000" d="M 619 148 L 632 148 L 632 176 L 619 176 L 619 148 Z Z" stroke-miterlimit="10"/></g><g transform="translate(-50,-14) scale(1,1)"><path fill="none" stroke="#000000" d="M 619 184 L 124 184" stroke-miterlimit="10" stroke-dasharray="3"/></g><g transform="translate(-50,-14) scale(1,1)"><path fill="none" stroke="#000000" d="M 134.16267485762415 179.790482243984 L 124 184 L 134.16267485762415 188.209517756016" stroke-miterlimit="10"/></g><g transform="translate(-50,-14) scale(1,1)"><g><path fill="none" stroke="none"/><text fill="#000000" stroke="none" font-family="Arial" font-size="13px" font-style="normal" font-weight="normal" text-decoration="none" x="280.5" y="200.5">3 : ModelAndView TabResultat</text></g></g><g transform="translate(-50,-14) scale(1,1)"><path fill="none" stroke="#000000" d="M 124 224 L 612 224" stroke-miterlimit="10"/></g><g transform="translate(-50,-14) scale(1,1)"><path fill="#000000" stroke="none" d="M 601.8373251423759 228.209517756016 L 612 224 L 601.8373251423758 219.790482243984"/></g><g transform="translate(-50,-14) scale(1,1)"><path fill="none" stroke="#000000" d="M 601.8373251423759 228.209517756016 L 612 224 L 601.8373251423758 219.790482243984 L 601.8373251423759 228.209517756016" stroke-miterlimit="10"/></g><g transform="translate(-50,-14) scale(1,1)"><g><path fill="none" stroke="none"/><text fill="#000000" stroke="none" font-family="Arial" font-size="13px" font-style="normal" font-weight="normal" text-decoration="none" x="216.5" y="220.5">4 : findSessionByregistrationId(int id):ModelAndView</text></g></g><g transform="translate(-50,-14) scale(1,1)"><rect fill="#ffffff" stroke="none" x="612" y="224" width="13" height="28"/></g><g transform="translate(-50,-14) scale(1,1)"><path fill="none" stroke="#000000" d="M 612 224 L 625 224 L 625 252 L 612 252 L 612 224 Z Z" stroke-miterlimit="10"/></g><g transform="translate(-50,-14) scale(1,1)"><path fill="none" stroke="#000000" d="M 619 256 L 124 256" stroke-miterlimit="10" stroke-dasharray="3"/></g><g transform="translate(-50,-14) scale(1,1)"><path fill="none" stroke="#000000" d="M 134.16267485762415 251.790482243984 L 124 256 L 134.16267485762415 260.209517756016" stroke-miterlimit="10"/></g><g transform="translate(-50,-14) scale(1,1)"><g><path fill="none" stroke="none"/><text fill="#000000" stroke="none" font-family="Arial" font-size="13px" font-style="normal" font-weight="normal" text-decoration="none" x="330.5" y="272.5">5 : ficheClient</text></g></g><g transform="translate(-50,-14) scale(1,1)"><path fill="none" stroke="#000000" d="M 619 288 L 124 288" stroke-miterlimit="10" stroke-dasharray="3"/></g><g transform="translate(-50,-14) scale(1,1)"><path fill="none" stroke="#000000" d="M 134.16267485762415 283.790482243984 L 124 288 L 134.16267485762415 292.209517756016" stroke-miterlimit="10"/></g><g transform="translate(-50,-14) scale(1,1)"><g><path fill="none" stroke="none"/><text fill="#000000" stroke="none" font-family="Arial" font-size="13px" font-style="normal" font-weight="normal" text-decoration="none" x="309.5" y="304.5">6 : ReservationDetail</text></g></g><g transform="translate(-50,-14) scale(1,1)"><path fill="none" stroke="#000000" d="M 124 328 L 612 328" stroke-miterlimit="10"/></g><g transform="translate(-50,-14) scale(1,1)"><path fill="#000000" stroke="none" d="M 601.8373251423759 332.209517756016 L 612 328 L 601.8373251423758 323.790482243984"/></g><g transform="translate(-50,-14) scale(1,1)"><path fill="none" stroke="#000000" d="M 601.8373251423759 332.209517756016 L 612 328 L 601.8373251423758 323.790482243984 L 601.8373251423759 332.209517756016" stroke-miterlimit="10"/></g><g transform="translate(-50,-14) scale(1,1)"><g><path fill="none" stroke="none"/><text fill="#000000" stroke="none" font-family="Arial" font-size="13px" font-style="normal" font-weight="normal" text-decoration="none" x="288.484130859375" y="324.5">7 : UpdateImpactedSession</text></g></g><g transform="translate(-50,-14) scale(1,1)"><rect fill="#ffffff" stroke="none" x="612" y="328" width="13" height="28"/></g><g transform="translate(-50,-14) scale(1,1)"><path fill="none" stroke="#000000" d="M 612 328 L 625 328 L 625 356 L 612 356 L 612 328 Z Z" stroke-miterlimit="10"/></g><g transform="translate(-50,-14) scale(1,1)"><path fill="none" stroke="#000000" d="M 124 408 L 612 408" stroke-miterlimit="10"/></g><g transform="translate(-50,-14) scale(1,1)"><path fill="#000000" stroke="none" d="M 601.8373251423759 412.209517756016 L 612 408 L 601.8373251423758 403.790482243984"/></g><g transform="translate(-50,-14) scale(1,1)"><path fill="none" stroke="#000000" d="M 601.8373251423759 412.209517756016 L 612 408 L 601.8373251423758 403.790482243984 L 601.8373251423759 412.209517756016" stroke-miterlimit="10"/></g><g transform="translate(-50,-14) scale(1,1)"><g><path fill="none" stroke="none"/><text fill="#000000" stroke="none" font-family="Arial" font-size="13px" font-style="normal" font-weight="normal" text-decoration="none" x="298.5" y="404.5">8 : cancelBooking(int id)</text></g></g><g transform="translate(-50,-14) scale(1,1)"><rect fill="#ffffff" stroke="none" x="612" y="408" width="13" height="28"/></g><g transform="translate(-50,-14) scale(1,1)"><path fill="none" stroke="#000000" d="M 612 408 L 625 408 L 625 436 L 612 436 L 612 408 Z Z" stroke-miterlimit="10"/></g><g transform="translate(-50,-14) scale(1,1)"><path fill="none" stroke="#000000" d="M 124 474 L 612 474" stroke-miterlimit="10"/></g><g transform="translate(-50,-14) scale(1,1)"><path fill="#000000" stroke="none" d="M 601.8373251423759 478.209517756016 L 612 474 L 601.8373251423758 469.790482243984"/></g><g transform="translate(-50,-14) scale(1,1)"><path fill="none" stroke="#000000" d="M 601.8373251423759 478.209517756016 L 612 474 L 601.8373251423758 469.790482243984 L 601.8373251423759 478.209517756016" stroke-miterlimit="10"/></g><g transform="translate(-50,-14) scale(1,1)"><g><path fill="none" stroke="none"/><text fill="#000000" stroke="none" font-family="Arial" font-size="13px" font-style="normal" font-weight="normal" text-decoration="none" x="311.5" y="470.5">9 : updateBooking()</text></g></g><g transform="translate(-50,-14) scale(1,1)"><rect fill="#ffffff" stroke="none" x="612" y="474" width="13" height="28"/></g><g transform="translate(-50,-14) scale(1,1)"><path fill="none" stroke="#000000" d="M 612 474 L 625 474 L 625 502 L 612 502 L 612 474 Z Z" stroke-miterlimit="10"/></g><g transform="translate(-50,-14) scale(1,1)"><path fill="none" stroke="#000000" d="M 619 520 L 124 520" stroke-miterlimit="10" stroke-dasharray="3"/></g><g transform="translate(-50,-14) scale(1,1)"><path fill="none" stroke="#000000" d="M 134.16267485762415 515.790482243984 L 124 520 L 134.16267485762415 524.209517756016" stroke-miterlimit="10"/></g><g transform="translate(-50,-14) scale(1,1)"><g><path fill="none" stroke="none"/><text fill="#000000" stroke="none" font-family="Arial" font-size="13px" font-style="normal" font-weight="normal" text-decoration="none" x="290.5" y="536.5">10 : PageGesteCommercial</text></g></g><g transform="translate(-50,-14) scale(1,1)"><path fill="none" stroke="#000000" d="M 124 568 L 612 568" stroke-miterlimit="10"/></g><g transform="translate(-50,-14) scale(1,1)"><path fill="#000000" stroke="none" d="M 601.8373251423759 572.209517756016 L 612 568 L 601.8373251423758 563.790482243984"/></g><g transform="translate(-50,-14) scale(1,1)"><path fill="none" stroke="#000000" d="M 601.8373251423759 572.209517756016 L 612 568 L 601.8373251423758 563.790482243984 L 601.8373251423759 572.209517756016" stroke-miterlimit="10"/></g><g transform="translate(-50,-14) scale(1,1)"><g><path fill="none" stroke="none"/><text fill="#000000" stroke="none" font-family="Arial" font-size="13px" font-style="normal" font-weight="normal" text-decoration="none" x="253.5" y="564.5">11 : applyGesteCommercial(int id_gest)</text></g></g><g transform="translate(-50,-14) scale(1,1)"><rect fill="#ffffff" stroke="none" x="612" y="568" width="13" height="28"/></g><g transform="translate(-50,-14) scale(1,1)"><path fill="none" stroke="#000000" d="M 612 568 L 625 568 L 625 596 L 612 596 L 612 568 Z Z" stroke-miterlimit="10"/></g><g transform="translate(-50,-14) scale(1,1)"><path fill="none" stroke="#000000" d="M 124 616 L 612 616" stroke-miterlimit="10"/></g><g transform="translate(-50,-14) scale(1,1)"><path fill="#000000" stroke="none" d="M 601.8373251423759 620.209517756016 L 612 616 L 601.8373251423758 611.790482243984"/></g><g transform="translate(-50,-14) scale(1,1)"><path fill="none" stroke="#000000" d="M 601.8373251423759 620.209517756016 L 612 616 L 601.8373251423758 611.790482243984 L 601.8373251423759 620.209517756016" stroke-miterlimit="10"/></g><g transform="translate(-50,-14) scale(1,1)"><g><path fill="none" stroke="none"/><text fill="#000000" stroke="none" font-family="Arial" font-size="13px" font-style="normal" font-weight="normal" text-decoration="none" x="254.5" y="612.5">12 : clotureLigne(int id_CalculateDelay)</text></g></g><g transform="translate(-50,-14) scale(1,1)"><rect fill="#ffffff" stroke="none" x="612" y="616" width="13" height="28"/></g><g transform="translate(-50,-14) scale(1,1)"><path fill="none" stroke="#000000" d="M 612 616 L 625 616 L 625 644 L 612 644 L 612 616 Z Z" stroke-miterlimit="10"/></g></g></svg>