<svg version="1.1" xmlns="http://www.w3.org/2000/svg" xmlns:xlink="http://www.w3.org/1999/xlink" width="612.46630859375" height="460"><defs/><g><g transform="translate(-286,-62) scale(1,1)"><rect fill="#C0C0C0" stroke="none" x="303" y="79" width="225.48681640625" height="235" opacity="0.2"/></g><g transform="translate(-286,-62) scale(1,1)"><rect fill="#ffffff" stroke="none" x="296" y="72" width="225.48681640625" height="235"/></g><g transform="translate(-286,-62) scale(1,1)"><path fill="none" stroke="#000000" d="M 296 72 L 521.48681640625 72 L 521.48681640625 307 L 296 307 L 296 72 Z Z" stroke-miterlimit="10"/></g><g transform="translate(-286,-62) scale(1,1)"><path fill="none" stroke="#000000" d="M 296 110 L 521.48681640625 110" stroke-miterlimit="10"/></g><g transform="translate(-286,-62) scale(1,1)"><path fill="none" stroke="#000000" d="M 296 298 L 521.48681640625 298" stroke-miterlimit="10"/></g><g transform="translate(-286,-62) scale(1,1)"><g><path fill="none" stroke="none"/><text fill="#000000" stroke="none" font-family="Arial" font-size="13px" font-style="normal" font-weight="normal" text-decoration="none" x="384.743408203125" y="89.5">«Entity»</text></g></g><g transform="translate(-286,-62) scale(1,1)"><g><path fill="none" stroke="none"/><text fill="#000000" stroke="none" font-family="Arial" font-size="13px" font-style="normal" font-weight="bold" text-decoration="none" x="398.743408203125" y="104.5">Car</text></g></g><g transform="translate(-286,-62) scale(1,1)"><g><path fill="none" stroke="none"/><text fill="#000000" stroke="none" font-family="Arial" font-size="13px" font-style="normal" font-weight="normal" text-decoration="none" x="301" y="127.5">+immatriculation = String {unique}</text></g></g><g transform="translate(-286,-62) scale(1,1)"><g><path fill="none" stroke="none"/><text fill="#000000" stroke="none" font-family="Arial" font-size="13px" font-style="normal" font-weight="normal" text-decoration="none" x="301" y="142.5">+modele = String</text></g></g><g transform="translate(-286,-62) scale(1,1)"><g><path fill="none" stroke="none"/><text fill="#000000" stroke="none" font-family="Arial" font-size="13px" font-style="normal" font-weight="normal" text-decoration="none" x="301" y="157.5">+marque = String</text></g></g><g transform="translate(-286,-62) scale(1,1)"><g><path fill="none" stroke="none"/><text fill="#000000" stroke="none" font-family="Arial" font-size="13px" font-style="normal" font-weight="normal" text-decoration="none" x="301" y="172.5">+carState = integer</text></g></g><g transform="translate(-286,-62) scale(1,1)"><g><path fill="none" stroke="none"/><text fill="#000000" stroke="none" font-family="Arial" font-size="13px" font-style="normal" font-weight="normal" text-decoration="none" x="301" y="187.5">+dateDebutService = date</text></g></g><g transform="translate(-286,-62) scale(1,1)"><g><path fill="none" stroke="none"/><text fill="#000000" stroke="none" font-family="Arial" font-size="13px" font-style="normal" font-weight="normal" text-decoration="none" x="301" y="202.5">+kilometrageInitial = Decimal</text></g></g><g transform="translate(-286,-62) scale(1,1)"><g><path fill="none" stroke="none"/><text fill="#000000" stroke="none" font-family="Arial" font-size="13px" font-style="normal" font-weight="normal" text-decoration="none" x="301" y="217.5">+typeCarburant = String</text></g></g><g transform="translate(-286,-62) scale(1,1)"><g><path fill="none" stroke="none"/><text fill="#000000" stroke="none" font-family="Arial" font-size="13px" font-style="normal" font-weight="normal" text-decoration="none" x="301" y="232.5">+nombrePlace = integer</text></g></g><g transform="translate(-286,-62) scale(1,1)"><g><path fill="none" stroke="none"/><text fill="#000000" stroke="none" font-family="Arial" font-size="13px" font-style="normal" font-weight="normal" text-decoration="none" x="301" y="247.5">+nombrePorte = integer</text></g></g><g transform="translate(-286,-62) scale(1,1)"><g><path fill="none" stroke="none"/><text fill="#000000" stroke="none" font-family="Arial" font-size="13px" font-style="normal" font-weight="normal" text-decoration="none" x="301" y="262.5">+typeVehicule = String</text></g></g><g transform="translate(-286,-62) scale(1,1)"><g><path fill="none" stroke="none"/><text fill="#000000" stroke="none" font-family="Arial" font-size="13px" font-style="normal" font-weight="normal" text-decoration="none" x="301" y="277.5">+idConfort = integer</text></g></g><g transform="translate(-286,-62) scale(1,1)"><g><path fill="none" stroke="none"/><text fill="#000000" stroke="none" font-family="Arial" font-size="13px" font-style="normal" font-weight="normal" text-decoration="none" x="301" y="292.5">+modeTrasnmission = String</text></g></g><g transform="translate(-286,-62) scale(1,1)"><rect fill="#C0C0C0" stroke="none" x="703" y="135" width="192.46630859375" height="115" opacity="0.2"/></g><g transform="translate(-286,-62) scale(1,1)"><rect fill="#ffffff" stroke="none" x="696" y="128" width="192.46630859375" height="115"/></g><g transform="translate(-286,-62) scale(1,1)"><path fill="none" stroke="#000000" d="M 696 128 L 888.46630859375 128 L 888.46630859375 243 L 696 243 L 696 128 Z Z" stroke-miterlimit="10"/></g><g transform="translate(-286,-62) scale(1,1)"><path fill="none" stroke="#000000" d="M 696 166 L 888.46630859375 166" stroke-miterlimit="10"/></g><g transform="translate(-286,-62) scale(1,1)"><path fill="none" stroke="#000000" d="M 696 234 L 888.46630859375 234" stroke-miterlimit="10"/></g><g transform="translate(-286,-62) scale(1,1)"><g><path fill="none" stroke="none"/><text fill="#000000" stroke="none" font-family="Arial" font-size="13px" font-style="normal" font-weight="normal" text-decoration="none" x="768.233154296875" y="145.5">«Entity»</text></g></g><g transform="translate(-286,-62) scale(1,1)"><g><path fill="none" stroke="none"/><text fill="#000000" stroke="none" font-family="Arial" font-size="13px" font-style="normal" font-weight="bold" text-decoration="none" x="778.733154296875" y="160.5">User</text></g></g><g transform="translate(-286,-62) scale(1,1)"><g><path fill="none" stroke="none"/><text fill="#000000" stroke="none" font-family="Arial" font-size="13px" font-style="normal" font-weight="normal" text-decoration="none" x="701" y="183.5">+matricule = integer {unique}</text></g></g><g transform="translate(-286,-62) scale(1,1)"><g><path fill="none" stroke="none"/><text fill="#000000" stroke="none" font-family="Arial" font-size="13px" font-style="normal" font-weight="normal" text-decoration="none" x="701" y="198.5">+nom = String</text></g></g><g transform="translate(-286,-62) scale(1,1)"><g><path fill="none" stroke="none"/><text fill="#000000" stroke="none" font-family="Arial" font-size="13px" font-style="normal" font-weight="normal" text-decoration="none" x="701" y="213.5">+email = String</text></g></g><g transform="translate(-286,-62) scale(1,1)"><g><path fill="none" stroke="none"/><text fill="#000000" stroke="none" font-family="Arial" font-size="13px" font-style="normal" font-weight="normal" text-decoration="none" x="701" y="228.5">+status = integer</text></g></g><g transform="translate(-286,-62) scale(1,1)"><path fill="none" stroke="#000000" d="M 695 186 L 522 188" stroke-miterlimit="10"/></g><g transform="translate(-286,-62) scale(1,1)"><g><path fill="none" stroke="none"/><text fill="#000000" stroke="none" font-family="Arial" font-size="13px" font-style="normal" font-weight="normal" text-decoration="none" x="562.396240234375" y="207.5">+est affecté par</text></g></g><g transform="translate(-286,-62) scale(1,1)"><g><path fill="none" stroke="none"/><text fill="#000000" stroke="none" font-family="Arial" font-size="13px" font-style="normal" font-weight="normal" text-decoration="none" x="669" y="179.5">1</text></g></g><g transform="translate(-286,-62) scale(1,1)"><g><path fill="none" stroke="none"/><text fill="#000000" stroke="none" font-family="Arial" font-size="13px" font-style="normal" font-weight="normal" text-decoration="none" x="532.5" y="181.5">0..*</text></g></g><g transform="translate(-286,-62) scale(1,1)"><rect fill="#C0C0C0" stroke="none" x="703" y="399" width="188.6259765625" height="85" opacity="0.2"/></g><g transform="translate(-286,-62) scale(1,1)"><rect fill="#ffffff" stroke="none" x="696" y="392" width="188.6259765625" height="85"/></g><g transform="translate(-286,-62) scale(1,1)"><path fill="none" stroke="#000000" d="M 696 392 L 884.6259765625 392 L 884.6259765625 477 L 696 477 L 696 392 Z Z" stroke-miterlimit="10"/></g><g transform="translate(-286,-62) scale(1,1)"><path fill="none" stroke="#000000" d="M 696 430 L 884.6259765625 430" stroke-miterlimit="10"/></g><g transform="translate(-286,-62) scale(1,1)"><path fill="none" stroke="#000000" d="M 696 468 L 884.6259765625 468" stroke-miterlimit="10"/></g><g transform="translate(-286,-62) scale(1,1)"><g><path fill="none" stroke="none"/><text fill="#000000" stroke="none" font-family="Arial" font-size="13px" font-style="normal" font-weight="normal" text-decoration="none" x="766.31298828125" y="409.5">«Entity»</text></g></g><g transform="translate(-286,-62) scale(1,1)"><g><path fill="none" stroke="none"/><text fill="#000000" stroke="none" font-family="Arial" font-size="13px" font-style="normal" font-weight="bold" text-decoration="none" x="757.81298828125" y="424.5">UserStatus</text></g></g><g transform="translate(-286,-62) scale(1,1)"><g><path fill="none" stroke="none"/><text fill="#000000" stroke="none" font-family="Arial" font-size="13px" font-style="normal" font-weight="normal" text-decoration="none" x="701" y="447.5">+id = integer {unique}</text></g></g><g transform="translate(-286,-62) scale(1,1)"><g><path fill="none" stroke="none"/><text fill="#000000" stroke="none" font-family="Arial" font-size="13px" font-style="normal" font-weight="normal" text-decoration="none" x="701" y="462.5">+Attribute2 = String {unique}</text></g></g><g transform="translate(-286,-62) scale(1,1)"><path fill="none" stroke="#000000" d="M 790 391 L 792 244" stroke-miterlimit="10"/></g><g transform="translate(-286,-62) scale(1,1)"><g><path fill="none" stroke="none"/><text fill="#000000" stroke="none" font-family="Arial" font-size="13px" font-style="normal" font-weight="normal" text-decoration="none" x="745.18896484375" y="322.5">+concerne</text></g></g><g transform="translate(-286,-62) scale(1,1)"><g><path fill="none" stroke="none"/><text fill="#000000" stroke="none" font-family="Arial" font-size="13px" font-style="normal" font-weight="normal" text-decoration="none" x="798" y="375.5">1</text></g></g><g transform="translate(-286,-62) scale(1,1)"><g><path fill="none" stroke="none"/><text fill="#000000" stroke="none" font-family="Arial" font-size="13px" font-style="normal" font-weight="normal" text-decoration="none" x="793.5" y="271.5">0..*</text></g></g><g transform="translate(-286,-62) scale(1,1)"><rect fill="#C0C0C0" stroke="none" x="343" y="447" width="148.7626953125" height="72" opacity="0.2"/></g><g transform="translate(-286,-62) scale(1,1)"><rect fill="#ffffff" stroke="none" x="336" y="440" width="148.7626953125" height="72"/></g><g transform="translate(-286,-62) scale(1,1)"><path fill="none" stroke="#000000" d="M 336 440 L 484.7626953125 440 L 484.7626953125 512 L 336 512 L 336 440 Z Z" stroke-miterlimit="10"/></g><g transform="translate(-286,-62) scale(1,1)"><path fill="none" stroke="#000000" d="M 336 465 L 484.7626953125 465" stroke-miterlimit="10"/></g><g transform="translate(-286,-62) scale(1,1)"><path fill="none" stroke="#000000" d="M 336 503 L 484.7626953125 503" stroke-miterlimit="10"/></g><g transform="translate(-286,-62) scale(1,1)"><g><path fill="none" stroke="none"/><text fill="#000000" stroke="none" font-family="Arial" font-size="13px" font-style="normal" font-weight="bold" text-decoration="none" x="351.88134765625" y="459.5">ConfortClimatisation</text></g></g><g transform="translate(-286,-62) scale(1,1)"><g><path fill="none" stroke="none"/><text fill="#000000" stroke="none" font-family="Arial" font-size="13px" font-style="normal" font-weight="normal" text-decoration="none" x="341" y="482.5">+id = integer</text></g></g><g transform="translate(-286,-62) scale(1,1)"><g><path fill="none" stroke="none"/><text fill="#000000" stroke="none" font-family="Arial" font-size="13px" font-style="normal" font-weight="normal" text-decoration="none" x="341" y="497.5">+description = String</text></g></g><g transform="translate(-286,-62) scale(1,1)"><path fill="none" stroke="#000000" d="M 409 308 L 410 439" stroke-miterlimit="10"/></g><g transform="translate(-286,-62) scale(1,1)"><g><path fill="none" stroke="none"/><text fill="#000000" stroke="none" font-family="Arial" font-size="13px" font-style="normal" font-weight="normal" text-decoration="none" x="394.61181640625" y="378.5">+possède</text></g></g><g transform="translate(-286,-62) scale(1,1)"><g><path fill="none" stroke="none"/><text fill="#000000" stroke="none" font-family="Arial" font-size="13px" font-style="normal" font-weight="normal" text-decoration="none" x="385.5" y="335.5">0..*</text></g></g><g transform="translate(-286,-62) scale(1,1)"><g><path fill="none" stroke="none"/><text fill="#000000" stroke="none" font-family="Arial" font-size="13px" font-style="normal" font-weight="normal" text-decoration="none" x="393" y="423.5">1</text></g></g></g></svg>