<svg version="1.1" xmlns="http://www.w3.org/2000/svg" xmlns:xlink="http://www.w3.org/1999/xlink" width="773.48681640625" height="375"><defs/><g><g transform="translate(-110,-14) scale(1,1)"><rect fill="#C0C0C0" stroke="none" x="655" y="151" width="225.48681640625" height="235" opacity="0.2"/></g><g transform="translate(-110,-14) scale(1,1)"><rect fill="#ffffff" stroke="none" x="648" y="144" width="225.48681640625" height="235"/></g><g transform="translate(-110,-14) scale(1,1)"><path fill="none" stroke="#000000" d="M 648 144 L 873.48681640625 144 L 873.48681640625 379 L 648 379 L 648 144 Z Z" stroke-miterlimit="10"/></g><g transform="translate(-110,-14) scale(1,1)"><path fill="none" stroke="#000000" d="M 648 182 L 873.48681640625 182" stroke-miterlimit="10"/></g><g transform="translate(-110,-14) scale(1,1)"><path fill="none" stroke="#000000" d="M 648 370 L 873.48681640625 370" stroke-miterlimit="10"/></g><g transform="translate(-110,-14) scale(1,1)"><g><path fill="none" stroke="none"/><text fill="#000000" stroke="none" font-family="Arial" font-size="13px" font-style="normal" font-weight="normal" text-decoration="none" x="736.743408203125" y="161.5">«Entity»</text></g></g><g transform="translate(-110,-14) scale(1,1)"><g><path fill="none" stroke="none"/><text fill="#000000" stroke="none" font-family="Arial" font-size="13px" font-style="normal" font-weight="bold" text-decoration="none" x="750.743408203125" y="176.5">Car</text></g></g><g transform="translate(-110,-14) scale(1,1)"><g><path fill="none" stroke="none"/><text fill="#000000" stroke="none" font-family="Arial" font-size="13px" font-style="normal" font-weight="normal" text-decoration="none" x="653" y="199.5">+immatriculation = String {unique}</text></g></g><g transform="translate(-110,-14) scale(1,1)"><g><path fill="none" stroke="none"/><text fill="#000000" stroke="none" font-family="Arial" font-size="13px" font-style="normal" font-weight="normal" text-decoration="none" x="653" y="214.5">+modele = String</text></g></g><g transform="translate(-110,-14) scale(1,1)"><g><path fill="none" stroke="none"/><text fill="#000000" stroke="none" font-family="Arial" font-size="13px" font-style="normal" font-weight="normal" text-decoration="none" x="653" y="229.5">+marque = String</text></g></g><g transform="translate(-110,-14) scale(1,1)"><g><path fill="none" stroke="none"/><text fill="#000000" stroke="none" font-family="Arial" font-size="13px" font-style="normal" font-weight="normal" text-decoration="none" x="653" y="244.5">+carState = integer</text></g></g><g transform="translate(-110,-14) scale(1,1)"><g><path fill="none" stroke="none"/><text fill="#000000" stroke="none" font-family="Arial" font-size="13px" font-style="normal" font-weight="normal" text-decoration="none" x="653" y="259.5">+dateDebutService = date</text></g></g><g transform="translate(-110,-14) scale(1,1)"><g><path fill="none" stroke="none"/><text fill="#000000" stroke="none" font-family="Arial" font-size="13px" font-style="normal" font-weight="normal" text-decoration="none" x="653" y="274.5">+kilometrageInitial = Decimal</text></g></g><g transform="translate(-110,-14) scale(1,1)"><g><path fill="none" stroke="none"/><text fill="#000000" stroke="none" font-family="Arial" font-size="13px" font-style="normal" font-weight="normal" text-decoration="none" x="653" y="289.5">+typeCarburant = String</text></g></g><g transform="translate(-110,-14) scale(1,1)"><g><path fill="none" stroke="none"/><text fill="#000000" stroke="none" font-family="Arial" font-size="13px" font-style="normal" font-weight="normal" text-decoration="none" x="653" y="304.5">+nombrePlace = integer</text></g></g><g transform="translate(-110,-14) scale(1,1)"><g><path fill="none" stroke="none"/><text fill="#000000" stroke="none" font-family="Arial" font-size="13px" font-style="normal" font-weight="normal" text-decoration="none" x="653" y="319.5">+nombrePorte = integer</text></g></g><g transform="translate(-110,-14) scale(1,1)"><g><path fill="none" stroke="none"/><text fill="#000000" stroke="none" font-family="Arial" font-size="13px" font-style="normal" font-weight="normal" text-decoration="none" x="653" y="334.5">+typeVehicule = String</text></g></g><g transform="translate(-110,-14) scale(1,1)"><g><path fill="none" stroke="none"/><text fill="#000000" stroke="none" font-family="Arial" font-size="13px" font-style="normal" font-weight="normal" text-decoration="none" x="653" y="349.5">+idConfort = integer</text></g></g><g transform="translate(-110,-14) scale(1,1)"><g><path fill="none" stroke="none"/><text fill="#000000" stroke="none" font-family="Arial" font-size="13px" font-style="normal" font-weight="normal" text-decoration="none" x="653" y="364.5">+modeTrasnmission = String</text></g></g><g transform="translate(-110,-14) scale(1,1)"><rect fill="#C0C0C0" stroke="none" x="431" y="231" width="122.69921875" height="70" opacity="0.2"/></g><g transform="translate(-110,-14) scale(1,1)"><rect fill="#ffffff" stroke="none" x="424" y="224" width="122.69921875" height="70"/></g><g transform="translate(-110,-14) scale(1,1)"><path fill="none" stroke="#000000" d="M 424 224 L 546.69921875 224 L 546.69921875 294 L 424 294 L 424 224 Z Z" stroke-miterlimit="10"/></g><g transform="translate(-110,-14) scale(1,1)"><path fill="none" stroke="#000000" d="M 424 262 L 546.69921875 262" stroke-miterlimit="10"/></g><g transform="translate(-110,-14) scale(1,1)"><path fill="none" stroke="#000000" d="M 424 272 L 546.69921875 272" stroke-miterlimit="10"/></g><g transform="translate(-110,-14) scale(1,1)"><g><path fill="none" stroke="none"/><text fill="#000000" stroke="none" font-family="Arial" font-size="13px" font-style="normal" font-weight="normal" text-decoration="none" x="458.849609375" y="241.5">«control»</text></g></g><g transform="translate(-110,-14) scale(1,1)"><g><path fill="none" stroke="none"/><text fill="#000000" stroke="none" font-family="Arial" font-size="13px" font-style="normal" font-weight="bold" text-decoration="none" x="446.349609375" y="256.5">ControleAjout</text></g></g><g transform="translate(-110,-14) scale(1,1)"><g><path fill="none" stroke="none"/><text fill="#000000" stroke="none" font-family="Arial" font-size="13px" font-style="normal" font-weight="normal" text-decoration="none" x="429" y="289.5">+ajouterVehicule()</text></g></g><g transform="translate(-110,-14) scale(1,1)"><rect fill="#C0C0C0" stroke="none" x="127" y="175" width="176" height="188" opacity="0.2"/></g><g transform="translate(-110,-14) scale(1,1)"><rect fill="#ffffff" stroke="none" x="120" y="168" width="176" height="188"/></g><g transform="translate(-110,-14) scale(1,1)"><path fill="none" stroke="#000000" d="M 120 168 L 296 168 L 296 356 L 120 356 L 120 168 Z Z" stroke-miterlimit="10"/></g><g transform="translate(-110,-14) scale(1,1)"><path fill="none" stroke="#000000" d="M 120 206 L 296 206" stroke-miterlimit="10"/></g><g transform="translate(-110,-14) scale(1,1)"><path fill="none" stroke="#000000" d="M 120 304 L 296 304" stroke-miterlimit="10"/></g><g transform="translate(-110,-14) scale(1,1)"><g><path fill="none" stroke="none"/><text fill="#000000" stroke="none" font-family="Arial" font-size="13px" font-style="normal" font-weight="normal" text-decoration="none" x="174.5" y="185.5">«boundary»</text></g></g><g transform="translate(-110,-14) scale(1,1)"><g><path fill="none" stroke="none"/><text fill="#000000" stroke="none" font-family="Arial" font-size="13px" font-style="normal" font-weight="bold" text-decoration="none" x="168" y="200.5">AjoutVehicule</text></g></g><g transform="translate(-110,-14) scale(1,1)"><g><path fill="none" stroke="none"/><text fill="#000000" stroke="none" font-family="Arial" font-size="13px" font-style="normal" font-weight="normal" text-decoration="none" x="125" y="223.5">+immatriculation</text></g></g><g transform="translate(-110,-14) scale(1,1)"><g><path fill="none" stroke="none"/><text fill="#000000" stroke="none" font-family="Arial" font-size="13px" font-style="normal" font-weight="normal" text-decoration="none" x="125" y="238.5">+marque</text></g></g><g transform="translate(-110,-14) scale(1,1)"><g><path fill="none" stroke="none"/><text fill="#000000" stroke="none" font-family="Arial" font-size="13px" font-style="normal" font-weight="normal" text-decoration="none" x="125" y="253.5">+mode de transmission</text></g></g><g transform="translate(-110,-14) scale(1,1)"><g><path fill="none" stroke="none"/><text fill="#000000" stroke="none" font-family="Arial" font-size="13px" font-style="normal" font-weight="normal" text-decoration="none" x="125" y="268.5">+categorie</text></g></g><g transform="translate(-110,-14) scale(1,1)"><g><path fill="none" stroke="none"/><text fill="#000000" stroke="none" font-family="Arial" font-size="13px" font-style="normal" font-weight="normal" text-decoration="none" x="125" y="283.5">+nombreplace</text></g></g><g transform="translate(-110,-14) scale(1,1)"><g><path fill="none" stroke="none"/><text fill="#000000" stroke="none" font-family="Arial" font-size="13px" font-style="normal" font-weight="normal" text-decoration="none" x="125" y="298.5">+nombrePorte</text></g></g><g transform="translate(-110,-14) scale(1,1)"><g><path fill="none" stroke="none"/><text fill="#000000" stroke="none" font-family="Arial" font-size="13px" font-style="normal" font-weight="normal" text-decoration="none" x="125" y="321.5">+ajouter()</text></g></g><g transform="translate(-110,-14) scale(1,1)"><path fill="none" stroke="#000000" d="M 548 259 L 647 260" stroke-miterlimit="10"/></g><g transform="translate(-110,-14) scale(1,1)"><path fill="none" stroke="#000000" d="M 423 260 L 297 261" stroke-miterlimit="10"/></g><g transform="translate(-110,-14) scale(1,1)"><path fill="#ffffff" stroke="none" d="M 210.07780735085228 33.68 C 210.07780735085228 28.886167936 213.96364967579774 25 218.757080078125 25 C 223.55051048045226 25 227.43635280539772 28.886167936 227.43635280539772 33.68 C 227.43635280539772 38.473832064 223.55051048045226 42.36 218.757080078125 42.36 C 213.96364967579774 42.36 210.07780735085228 38.473832064 210.07780735085228 33.68 Z"/></g><g transform="translate(-110,-14) scale(1,1)"><path fill="none" stroke="#000000" d="M 210.07780735085228 33.68 C 210.07780735085228 28.886167936 213.96364967579774 25 218.757080078125 25 C 223.55051048045226 25 227.43635280539772 28.886167936 227.43635280539772 33.68 C 227.43635280539772 38.473832064 223.55051048045226 42.36 218.757080078125 42.36 C 213.96364967579774 42.36 210.07780735085228 38.473832064 210.07780735085228 33.68 Z" stroke-miterlimit="10"/></g><g transform="translate(-110,-14) scale(1,1)"><path fill="none" stroke="#000000" d="M 218.757080078125 42.36 L 218.757080078125 59.64" stroke-miterlimit="10"/></g><g transform="translate(-110,-14) scale(1,1)"><path fill="none" stroke="#000000" d="M 209.56726189630683 48.84 L 227.94689825994317 48.84" stroke-miterlimit="10"/></g><g transform="translate(-110,-14) scale(1,1)"><path fill="none" stroke="#000000" d="M 218.757080078125 59.64 L 205.99344371448865 77" stroke-miterlimit="10"/></g><g transform="translate(-110,-14) scale(1,1)"><path fill="none" stroke="#000000" d="M 218.757080078125 59.64 L 231.52071644176135 77" stroke-miterlimit="10"/></g><g transform="translate(-110,-14) scale(1,1)"><g><path fill="none" stroke="none"/><text fill="#000000" stroke="none" font-family="Arial" font-size="13px" font-style="normal" font-weight="bold" text-decoration="none" x="177.257080078125" y="97.5">Directeur CSC</text></g></g><g transform="translate(-110,-14) scale(1,1)"><g><path fill="none" stroke="none"/><text fill="#000000" stroke="none" font-family="Arial" font-size="13px" font-style="normal" font-weight="normal" text-decoration="none" x="178.757080078125" y="112.5">(from Model1)</text></g></g><g transform="translate(-110,-14) scale(1,1)"><path fill="none" stroke="#000000" d="M 215 119 L 213 167" stroke-miterlimit="10"/></g><g transform="translate(-110,-14) scale(1,1)"><path fill="none" stroke="#000000" d="M 209.2172092782506 156.67089092150505 L 213 167 L 217.62894610186075 157.02137995582214" stroke-miterlimit="10"/></g></g></svg>