<svg version="1.1" xmlns="http://www.w3.org/2000/svg" xmlns:xlink="http://www.w3.org/1999/xlink" width="714" height="614"><defs/><g><g transform="translate(-14,5) scale(1,1)"><path fill="none" stroke="#000000" d="M 24 5 L 718 5 L 718 599 L 24 599 L 24 5" stroke-miterlimit="10"/></g><g transform="translate(-14,5) scale(1,1)"><path fill="#ffffff" stroke="none" d="M 24 5 L 24 27 L 127 27 L 138 16 L 138 5 L 24 5"/></g><g transform="translate(-14,5) scale(1,1)"><path fill="none" stroke="#000000" d="M 24 5 L 24 27 L 127 27 L 138 16 L 138 5 L 24 5 L 24 5" stroke-miterlimit="10"/></g><g transform="translate(-14,5) scale(1,1)"><g><path fill="none" stroke="none"/><text fill="#000000" stroke="none" font-family="Arial" font-size="13px" font-style="normal" font-weight="normal" text-decoration="none" x="95" y="22.5">DSS</text></g></g><g transform="translate(-14,5) scale(1,1)"><g><path fill="none" stroke="none"/><text fill="#000000" stroke="none" font-family="Arial" font-size="13px" font-style="normal" font-weight="bold" text-decoration="none" x="29" y="22.5">interaction</text></g></g><g transform="translate(-14,5) scale(1,1)"><rect fill="#C0C0C0" stroke="none" x="447" y="47" width="104" height="39" opacity="0.2"/></g><g transform="translate(-14,5) scale(1,1)"><rect fill="#ffffff" stroke="none" x="440" y="40" width="104" height="39"/></g><g transform="translate(-14,5) scale(1,1)"><path fill="none" stroke="#000000" d="M 440 40 L 544 40 L 544 79 L 440 79 L 440 40 Z Z" stroke-miterlimit="10"/></g><g transform="translate(-14,5) scale(1,1)"><g><path fill="none" stroke="none"/><text fill="#000000" stroke="none" font-family="Arial" font-size="13px" font-style="normal" font-weight="bold" text-decoration="none" x="479.5" y="59.5">:sud</text></g></g><g transform="translate(-14,5) scale(1,1)"><path fill="none" stroke="#000000" d="M 493.5 80 L 493.5 480" stroke-miterlimit="10" stroke-dasharray="3"/></g><g transform="translate(-14,5) scale(1,1)"><path fill="#ffffff" stroke="none" d="M 200.7588973721591 47.3 C 200.7588973721591 43.82060576 203.6372990943409 41 207.18798828125 41 C 210.7386774681591 41 213.61707919034092 43.82060576 213.61707919034092 47.3 C 213.61707919034092 50.779394239999995 210.7386774681591 53.6 207.18798828125 53.6 C 203.6372990943409 53.6 200.7588973721591 50.779394239999995 200.7588973721591 47.3 Z"/></g><g transform="translate(-14,5) scale(1,1)"><path fill="none" stroke="#000000" d="M 200.7588973721591 47.3 C 200.7588973721591 43.82060576 203.6372990943409 41 207.18798828125 41 C 210.7386774681591 41 213.61707919034092 43.82060576 213.61707919034092 47.3 C 213.61707919034092 50.779394239999995 210.7386774681591 53.6 207.18798828125 53.6 C 203.6372990943409 53.6 200.7588973721591 50.779394239999995 200.7588973721591 47.3 Z" stroke-miterlimit="10"/></g><g transform="translate(-14,5) scale(1,1)"><path fill="none" stroke="#000000" d="M 207.18798828125 53.6 L 207.18798828125 66.4" stroke-miterlimit="10"/></g><g transform="translate(-14,5) scale(1,1)"><path fill="none" stroke="#000000" d="M 200.3807155539773 58.4 L 213.99526100852273 58.4" stroke-miterlimit="10"/></g><g transform="translate(-14,5) scale(1,1)"><path fill="none" stroke="#000000" d="M 207.18798828125 66.4 L 197.73344282670456 79" stroke-miterlimit="10"/></g><g transform="translate(-14,5) scale(1,1)"><path fill="none" stroke="#000000" d="M 207.18798828125 66.4 L 216.64253373579547 79" stroke-miterlimit="10"/></g><g transform="translate(-14,5) scale(1,1)"><g><path fill="none" stroke="none"/><text fill="#000000" stroke="none" font-family="Arial" font-size="13px" font-style="normal" font-weight="bold" text-decoration="none" x="161.68798828125" y="99.5">: Directeur CSC</text></g></g><g transform="translate(-14,5) scale(1,1)"><path fill="none" stroke="#000000" d="M 208.5 105 L 208.5 480" stroke-miterlimit="10" stroke-dasharray="3"/></g><g transform="translate(-14,5) scale(1,1)"><path fill="none" stroke="#000000" d="M 208 106 L 486 106" stroke-miterlimit="10"/></g><g transform="translate(-14,5) scale(1,1)"><path fill="#000000" stroke="none" d="M 475.83732514237585 110.20951775601598 L 486 106 L 475.83732514237585 101.79048224398402"/></g><g transform="translate(-14,5) scale(1,1)"><path fill="none" stroke="#000000" d="M 475.83732514237585 110.20951775601598 L 486 106 L 475.83732514237585 101.79048224398402 L 475.83732514237585 110.20951775601598" stroke-miterlimit="10"/></g><g transform="translate(-14,5) scale(1,1)"><g><path fill="none" stroke="none"/><text fill="#000000" stroke="none" font-family="Arial" font-size="13px" font-style="normal" font-weight="normal" text-decoration="none" x="280.074462890625" y="102.5">1 : Maintenir referentiel</text></g></g><g transform="translate(-14,5) scale(1,1)"><rect fill="#ffffff" stroke="none" x="486" y="106" width="13" height="28"/></g><g transform="translate(-14,5) scale(1,1)"><path fill="none" stroke="#000000" d="M 486 106 L 499 106 L 499 134 L 486 134 L 486 106 Z Z" stroke-miterlimit="10"/></g><g transform="translate(-14,5) scale(1,1)"><path fill="none" stroke="#000000" d="M 493 136 L 208 136" stroke-miterlimit="10" stroke-dasharray="3"/></g><g transform="translate(-14,5) scale(1,1)"><path fill="none" stroke="#000000" d="M 218.16267485762415 131.790482243984 L 208 136 L 218.16267485762415 140.209517756016" stroke-miterlimit="10"/></g><g transform="translate(-14,5) scale(1,1)"><g><path fill="none" stroke="none"/><text fill="#000000" stroke="none" font-family="Arial" font-size="13px" font-style="normal" font-weight="normal" text-decoration="none" x="281.474365234375" y="152.5">2 : Affichage formulaire</text></g></g><g transform="translate(-14,5) scale(1,1)"><path fill="none" stroke="#000000" d="M 208 184 L 486 184" stroke-miterlimit="10"/></g><g transform="translate(-14,5) scale(1,1)"><path fill="#000000" stroke="none" d="M 475.83732514237585 188.209517756016 L 486 184 L 475.83732514237585 179.790482243984"/></g><g transform="translate(-14,5) scale(1,1)"><path fill="none" stroke="#000000" d="M 475.83732514237585 188.209517756016 L 486 184 L 475.83732514237585 179.790482243984 L 475.83732514237585 188.209517756016" stroke-miterlimit="10"/></g><g transform="translate(-14,5) scale(1,1)"><g><path fill="none" stroke="none"/><text fill="#000000" stroke="none" font-family="Arial" font-size="13px" font-style="normal" font-weight="normal" text-decoration="none" x="282.08642578125" y="180.5">3 : Ajouter un véhicule</text></g></g><g transform="translate(-14,5) scale(1,1)"><rect fill="#ffffff" stroke="none" x="486" y="184" width="13" height="28"/></g><g transform="translate(-14,5) scale(1,1)"><path fill="none" stroke="#000000" d="M 486 184 L 499 184 L 499 212 L 486 212 L 486 184 Z Z" stroke-miterlimit="10"/></g><g transform="translate(-14,5) scale(1,1)"><path fill="none" stroke="#000000" d="M 493 216 L 208 216" stroke-miterlimit="10" stroke-dasharray="3"/></g><g transform="translate(-14,5) scale(1,1)"><path fill="none" stroke="#000000" d="M 218.16267485762415 211.790482243984 L 208 216 L 218.16267485762415 220.209517756016" stroke-miterlimit="10"/></g><g transform="translate(-14,5) scale(1,1)"><g><path fill="none" stroke="none"/><text fill="#000000" stroke="none" font-family="Arial" font-size="13px" font-style="normal" font-weight="normal" text-decoration="none" x="283.060791015625" y="232.5">4 : Formulaire vehicule</text></g></g><g transform="translate(-14,5) scale(1,1)"><path fill="none" stroke="#000000" d="M 208 256 L 486 256" stroke-miterlimit="10"/></g><g transform="translate(-14,5) scale(1,1)"><path fill="#000000" stroke="none" d="M 475.83732514237585 260.209517756016 L 486 256 L 475.83732514237585 251.790482243984"/></g><g transform="translate(-14,5) scale(1,1)"><path fill="none" stroke="#000000" d="M 475.83732514237585 260.209517756016 L 486 256 L 475.83732514237585 251.790482243984 L 475.83732514237585 260.209517756016" stroke-miterlimit="10"/></g><g transform="translate(-14,5) scale(1,1)"><g><path fill="none" stroke="none"/><text fill="#000000" stroke="none" font-family="Arial" font-size="13px" font-style="normal" font-weight="normal" text-decoration="none" x="287.201904296875" y="252.5">5 : Saisir information</text></g></g><g transform="translate(-14,5) scale(1,1)"><rect fill="#ffffff" stroke="none" x="486" y="256" width="13" height="28"/></g><g transform="translate(-14,5) scale(1,1)"><path fill="none" stroke="#000000" d="M 486 256 L 499 256 L 499 284 L 486 284 L 486 256 Z Z" stroke-miterlimit="10"/></g><g transform="translate(-14,5) scale(1,1)"><path fill="none" stroke="#000000" d="M 493 288 L 523 288 L 523 308 L 499 308" stroke-miterlimit="10"/></g><g transform="translate(-14,5) scale(1,1)"><path fill="#000000" stroke="none" d="M 509.16267485762415 303.790482243984 L 499 308 L 509.16267485762415 312.209517756016"/></g><g transform="translate(-14,5) scale(1,1)"><path fill="none" stroke="#000000" d="M 509.16267485762415 303.790482243984 L 499 308 L 509.16267485762415 312.209517756016 L 509.16267485762415 303.790482243984" stroke-miterlimit="10"/></g><g transform="translate(-14,5) scale(1,1)"><g><path fill="none" stroke="none"/><text fill="#000000" stroke="none" font-family="Arial" font-size="13px" font-style="normal" font-weight="normal" text-decoration="none" x="465.8203125" y="303.5">6 : controle information</text></g></g><g transform="translate(-14,5) scale(1,1)"><rect fill="#ffffff" stroke="none" x="486" y="308" width="13" height="28"/></g><g transform="translate(-14,5) scale(1,1)"><path fill="none" stroke="#000000" d="M 486 308 L 499 308 L 499 336 L 486 336 L 486 308 Z Z" stroke-miterlimit="10"/></g><g transform="translate(-14,5) scale(1,1)"><path fill="none" stroke="#000000" d="M 493 352 L 208 352" stroke-miterlimit="10" stroke-dasharray="3"/></g><g transform="translate(-14,5) scale(1,1)"><path fill="none" stroke="#000000" d="M 218.16267485762415 347.790482243984 L 208 352 L 218.16267485762415 356.209517756016" stroke-miterlimit="10"/></g><g transform="translate(-14,5) scale(1,1)"><g><path fill="none" stroke="none"/><text fill="#000000" stroke="none" font-family="Arial" font-size="13px" font-style="normal" font-weight="normal" text-decoration="none" x="265.972412109375" y="368.5">7 : Nouvelle liste de véhicule</text></g></g></g></svg>