<svg version="1.1" xmlns="http://www.w3.org/2000/svg" xmlns:xlink="http://www.w3.org/1999/xlink" width="883" height="491"><defs/><g><g transform="translate(-30,-62) scale(1,1)"><rect fill="#C0C0C0" stroke="none" x="47" y="279" width="120" height="44" opacity="0.2"/></g><g transform="translate(-30,-62) scale(1,1)"><rect fill="#ffffff" stroke="none" x="40" y="272" width="120" height="44"/></g><g transform="translate(-30,-62) scale(1,1)"><path fill="none" stroke="#000000" d="M 40 272 L 160 272 L 160 316 L 40 316 L 40 272 Z Z" stroke-miterlimit="10"/></g><g transform="translate(-30,-62) scale(1,1)"><path fill="none" stroke="#000000" d="M 40 297 L 160 297" stroke-miterlimit="10"/></g><g transform="translate(-30,-62) scale(1,1)"><path fill="none" stroke="#000000" d="M 40 307 L 160 307" stroke-miterlimit="10"/></g><g transform="translate(-30,-62) scale(1,1)"><g><path fill="none" stroke="none"/><text fill="#000000" stroke="none" font-family="Arial" font-size="13px" font-style="normal" font-weight="bold" text-decoration="none" x="48" y="291.5">delay-analysis.jsp</text></g></g><g transform="translate(-30,-62) scale(1,1)"><rect fill="#C0C0C0" stroke="none" x="231" y="263" width="290.06787109375" height="72" opacity="0.2"/></g><g transform="translate(-30,-62) scale(1,1)"><rect fill="#ffffff" stroke="none" x="224" y="256" width="290.06787109375" height="72"/></g><g transform="translate(-30,-62) scale(1,1)"><path fill="none" stroke="#000000" d="M 224 256 L 514.06787109375 256 L 514.06787109375 328 L 224 328 L 224 256 Z Z" stroke-miterlimit="10"/></g><g transform="translate(-30,-62) scale(1,1)"><path fill="none" stroke="#000000" d="M 224 281 L 514.06787109375 281" stroke-miterlimit="10"/></g><g transform="translate(-30,-62) scale(1,1)"><path fill="none" stroke="#000000" d="M 224 304 L 514.06787109375 304" stroke-miterlimit="10"/></g><g transform="translate(-30,-62) scale(1,1)"><g><path fill="none" stroke="none"/><text fill="#000000" stroke="none" font-family="Arial" font-size="13px" font-style="normal" font-weight="bold" text-decoration="none" x="325.033935546875" y="275.5">DelayController</text></g></g><g transform="translate(-30,-62) scale(1,1)"><g><path fill="none" stroke="none"/><text fill="#000000" stroke="none" font-family="Arial" font-size="13px" font-style="normal" font-weight="normal" text-decoration="none" x="229" y="298.5">-DelayService: delayService</text></g></g><g transform="translate(-30,-62) scale(1,1)"><g><path fill="none" stroke="none"/><text fill="#000000" stroke="none" font-family="Arial" font-size="13px" font-style="normal" font-weight="normal" text-decoration="none" x="229" y="321.5">+ModelAndView showDelayNumber()</text></g></g><g transform="translate(-30,-62) scale(1,1)"><rect fill="#C0C0C0" stroke="none" x="727" y="463" width="81" height="87" opacity="0.2"/></g><g transform="translate(-30,-62) scale(1,1)"><rect fill="#ffffff" stroke="none" x="720" y="456" width="81" height="87"/></g><g transform="translate(-30,-62) scale(1,1)"><path fill="none" stroke="#000000" d="M 720 456 L 801 456 L 801 543 L 720 543 L 720 456 Z Z" stroke-miterlimit="10"/></g><g transform="translate(-30,-62) scale(1,1)"><path fill="none" stroke="#000000" d="M 720 481 L 801 481" stroke-miterlimit="10"/></g><g transform="translate(-30,-62) scale(1,1)"><path fill="none" stroke="#000000" d="M 720 534 L 801 534" stroke-miterlimit="10"/></g><g transform="translate(-30,-62) scale(1,1)"><g><path fill="none" stroke="none"/><text fill="#000000" stroke="none" font-family="Arial" font-size="13px" font-style="normal" font-weight="bold" text-decoration="none" x="744" y="475.5">Delay</text></g></g><g transform="translate(-30,-62) scale(1,1)"><g><path fill="none" stroke="none"/><text fill="#000000" stroke="none" font-family="Arial" font-size="13px" font-style="normal" font-weight="normal" text-decoration="none" x="725" y="498.5">-id: int</text></g></g><g transform="translate(-30,-62) scale(1,1)"><g><path fill="none" stroke="none"/><text fill="#000000" stroke="none" font-family="Arial" font-size="13px" font-style="normal" font-weight="normal" text-decoration="none" x="725" y="513.5">-duration: int</text></g></g><g transform="translate(-30,-62) scale(1,1)"><g><path fill="none" stroke="none"/><text fill="#000000" stroke="none" font-family="Arial" font-size="13px" font-style="normal" font-weight="normal" text-decoration="none" x="725" y="528.5">-date: Date</text></g></g><g transform="translate(-30,-62) scale(1,1)"><rect fill="#C0C0C0" stroke="none" x="639" y="79" width="271" height="115" opacity="0.2"/></g><g transform="translate(-30,-62) scale(1,1)"><rect fill="#ffffff" stroke="none" x="632" y="72" width="271" height="115"/></g><g transform="translate(-30,-62) scale(1,1)"><path fill="none" stroke="#000000" d="M 632 72 L 903 72 L 903 187 L 632 187 L 632 72 Z Z" stroke-miterlimit="10"/></g><g transform="translate(-30,-62) scale(1,1)"><path fill="none" stroke="#000000" d="M 632 97 L 903 97" stroke-miterlimit="10"/></g><g transform="translate(-30,-62) scale(1,1)"><path fill="none" stroke="#000000" d="M 632 120 L 903 120" stroke-miterlimit="10"/></g><g transform="translate(-30,-62) scale(1,1)"><g><path fill="none" stroke="none"/><text fill="#000000" stroke="none" font-family="Arial" font-size="13px" font-style="normal" font-weight="bold" text-decoration="none" x="716.5" y="91.5">DelayServiceImpl</text></g></g><g transform="translate(-30,-62) scale(1,1)"><g><path fill="none" stroke="none"/><text fill="#000000" stroke="none" font-family="Arial" font-size="13px" font-style="normal" font-weight="normal" text-decoration="none" x="637" y="114.5">-DelayDAO: delayDAO</text></g></g><g transform="translate(-30,-62) scale(1,1)"><g><path fill="none" stroke="none"/><text fill="#000000" stroke="none" font-family="Arial" font-size="13px" font-style="normal" font-weight="normal" text-decoration="none" x="637" y="137.5">+int[] getDelayDistribution()</text></g></g><g transform="translate(-30,-62) scale(1,1)"><g><path fill="none" stroke="none"/><text fill="#000000" stroke="none" font-family="Arial" font-size="13px" font-style="normal" font-weight="normal" text-decoration="none" x="637" y="152.5">+int getDelayNumber()</text></g></g><g transform="translate(-30,-62) scale(1,1)"><g><path fill="none" stroke="none"/><text fill="#000000" stroke="none" font-family="Arial" font-size="13px" font-style="normal" font-weight="normal" text-decoration="none" x="637" y="167.5">-int getQuartile(int[] values, int lowerPercent)</text></g></g><g transform="translate(-30,-62) scale(1,1)"><g><path fill="none" stroke="none"/><text fill="#000000" stroke="none" font-family="Arial" font-size="13px" font-style="normal" font-weight="normal" text-decoration="none" x="637" y="182.5">-int[] getDelayValues(List&lt;Delay&gt; delays)()</text></g></g><g transform="translate(-30,-62) scale(1,1)"><rect fill="#C0C0C0" stroke="none" x="671" y="279" width="201" height="100" opacity="0.2"/></g><g transform="translate(-30,-62) scale(1,1)"><rect fill="#ffffff" stroke="none" x="664" y="272" width="201" height="100"/></g><g transform="translate(-30,-62) scale(1,1)"><path fill="none" stroke="#000000" d="M 664 272 L 865 272 L 865 372 L 664 372 L 664 272 Z Z" stroke-miterlimit="10"/></g><g transform="translate(-30,-62) scale(1,1)"><path fill="none" stroke="#000000" d="M 664 297 L 865 297" stroke-miterlimit="10"/></g><g transform="translate(-30,-62) scale(1,1)"><path fill="none" stroke="#000000" d="M 664 320 L 865 320" stroke-miterlimit="10"/></g><g transform="translate(-30,-62) scale(1,1)"><g><path fill="none" stroke="none"/><text fill="#000000" stroke="none" font-family="Arial" font-size="13px" font-style="normal" font-weight="bold" text-decoration="none" x="721.5" y="291.5">DelayDAOImpl</text></g></g><g transform="translate(-30,-62) scale(1,1)"><g><path fill="none" stroke="none"/><text fill="#000000" stroke="none" font-family="Arial" font-size="13px" font-style="normal" font-weight="normal" text-decoration="none" x="669" y="314.5">-SessionFactory: sessionFactory</text></g></g><g transform="translate(-30,-62) scale(1,1)"><g><path fill="none" stroke="none"/><text fill="#000000" stroke="none" font-family="Arial" font-size="13px" font-style="normal" font-weight="normal" text-decoration="none" x="669" y="337.5">-Session getCurrentSession()</text></g></g><g transform="translate(-30,-62) scale(1,1)"><g><path fill="none" stroke="none"/><text fill="#000000" stroke="none" font-family="Arial" font-size="13px" font-style="normal" font-weight="normal" text-decoration="none" x="669" y="352.5">+List&lt;Delay&gt; findAll()()</text></g></g><g transform="translate(-30,-62) scale(1,1)"><g><path fill="none" stroke="none"/><text fill="#000000" stroke="none" font-family="Arial" font-size="13px" font-style="normal" font-weight="normal" text-decoration="none" x="669" y="367.5">+int count()</text></g></g><g transform="translate(-30,-62) scale(1,1)"><path fill="none" stroke="#000000" d="M 161 294 L 223 293" stroke-miterlimit="10"/></g><g transform="translate(-30,-62) scale(1,1)"><g><path fill="none" stroke="none"/><text fill="#000000" stroke="none" font-family="Arial" font-size="13px" font-style="normal" font-weight="normal" text-decoration="none" x="178.5" y="312.5">1</text></g></g><g transform="translate(-30,-62) scale(1,1)"><g><path fill="none" stroke="none"/><text fill="#000000" stroke="none" font-family="Arial" font-size="13px" font-style="normal" font-weight="normal" text-decoration="none" x="197.5" y="311.5">1</text></g></g><g transform="translate(-30,-62) scale(1,1)"><path fill="none" stroke="#000000" d="M 459 255 L 631 185" stroke-miterlimit="10"/></g><g transform="translate(-30,-62) scale(1,1)"><g><path fill="none" stroke="none"/><text fill="#000000" stroke="none" font-family="Arial" font-size="13px" font-style="normal" font-weight="normal" text-decoration="none" x="497.5" y="212.5">+delayService</text></g></g><g transform="translate(-30,-62) scale(1,1)"><g><path fill="none" stroke="none"/><text fill="#000000" stroke="none" font-family="Arial" font-size="13px" font-style="normal" font-weight="normal" text-decoration="none" x="479.5" y="264.5">1</text></g></g><g transform="translate(-30,-62) scale(1,1)"><g><path fill="none" stroke="none"/><text fill="#000000" stroke="none" font-family="Arial" font-size="13px" font-style="normal" font-weight="normal" text-decoration="none" x="611.5" y="210.5">1</text></g></g><g transform="translate(-30,-62) scale(1,1)"><path fill="none" stroke="#000000" d="M 766 188 L 765 271" stroke-miterlimit="10"/></g><g transform="translate(-30,-62) scale(1,1)"><g><path fill="none" stroke="none"/><text fill="#000000" stroke="none" font-family="Arial" font-size="13px" font-style="normal" font-weight="normal" text-decoration="none" x="745.5" y="234.5">+delayDAO</text></g></g><g transform="translate(-30,-62) scale(1,1)"><g><path fill="none" stroke="none"/><text fill="#000000" stroke="none" font-family="Arial" font-size="13px" font-style="normal" font-weight="normal" text-decoration="none" x="749.5" y="215.5">1</text></g></g><g transform="translate(-30,-62) scale(1,1)"><g><path fill="none" stroke="none"/><text fill="#000000" stroke="none" font-family="Arial" font-size="13px" font-style="normal" font-weight="normal" text-decoration="none" x="748.5" y="255.5">1</text></g></g><g transform="translate(-30,-62) scale(1,1)"><path fill="none" stroke="#000000" d="M 763 373 L 761 455" stroke-miterlimit="10"/></g><g transform="translate(-30,-62) scale(1,1)"><g><path fill="none" stroke="none"/><text fill="#000000" stroke="none" font-family="Arial" font-size="13px" font-style="normal" font-weight="normal" text-decoration="none" x="752.5" y="420.5">+delays</text></g></g><g transform="translate(-30,-62) scale(1,1)"><g><path fill="none" stroke="none"/><text fill="#000000" stroke="none" font-family="Arial" font-size="13px" font-style="normal" font-weight="normal" text-decoration="none" x="745.5" y="400.5">1</text></g></g><g transform="translate(-30,-62) scale(1,1)"><g><path fill="none" stroke="none"/><text fill="#000000" stroke="none" font-family="Arial" font-size="13px" font-style="normal" font-weight="normal" text-decoration="none" x="738.5" y="439.5">0..*</text></g></g></g></svg>