<svg version="1.1" xmlns="http://www.w3.org/2000/svg" xmlns:xlink="http://www.w3.org/1999/xlink" width="1523.9150390625" height="500"><defs/><g><g transform="translate(-118,-62) scale(1,1)"><rect fill="#C0C0C0" stroke="none" x="135" y="367" width="206.640625" height="192" opacity="0.2"/></g><g transform="translate(-118,-62) scale(1,1)"><rect fill="#ffffff" stroke="none" x="128" y="360" width="206.640625" height="192"/></g><g transform="translate(-118,-62) scale(1,1)"><path fill="none" stroke="#000000" d="M 128 360 L 334.640625 360 L 334.640625 552 L 128 552 L 128 360 Z Z" stroke-miterlimit="10"/></g><g transform="translate(-118,-62) scale(1,1)"><path fill="none" stroke="#000000" d="M 128 385 L 334.640625 385" stroke-miterlimit="10"/></g><g transform="translate(-118,-62) scale(1,1)"><path fill="none" stroke="#000000" d="M 128 543 L 334.640625 543" stroke-miterlimit="10"/></g><g transform="translate(-118,-62) scale(1,1)"><g><path fill="none" stroke="none"/><text fill="#000000" stroke="none" font-family="Arial" font-size="13px" font-style="normal" font-weight="bold" text-decoration="none" x="180.0185546875" y="379.5">delay-analysis.jsp</text></g></g><g transform="translate(-118,-62) scale(1,1)"><g><path fill="none" stroke="none"/><text fill="#000000" stroke="none" font-family="Arial" font-size="13px" font-style="normal" font-weight="normal" text-decoration="none" x="133" y="402.5">+filtered: boolean</text></g></g><g transform="translate(-118,-62) scale(1,1)"><g><path fill="none" stroke="none"/><text fill="#000000" stroke="none" font-family="Arial" font-size="13px" font-style="normal" font-weight="normal" text-decoration="none" x="133" y="417.5">+searchPeriod: SearchPeriod</text></g></g><g transform="translate(-118,-62) scale(1,1)"><g><path fill="none" stroke="none"/><text fill="#000000" stroke="none" font-family="Arial" font-size="13px" font-style="normal" font-weight="normal" text-decoration="none" x="133" y="432.5">+delayNumber: int</text></g></g><g transform="translate(-118,-62) scale(1,1)"><g><path fill="none" stroke="none"/><text fill="#000000" stroke="none" font-family="Arial" font-size="13px" font-style="normal" font-weight="normal" text-decoration="none" x="133" y="447.5">+resultDate: String</text></g></g><g transform="translate(-118,-62) scale(1,1)"><g><path fill="none" stroke="none"/><text fill="#000000" stroke="none" font-family="Arial" font-size="13px" font-style="normal" font-weight="normal" text-decoration="none" x="133" y="462.5">+cleanDelayNumber: int</text></g></g><g transform="translate(-118,-62) scale(1,1)"><g><path fill="none" stroke="none"/><text fill="#000000" stroke="none" font-family="Arial" font-size="13px" font-style="normal" font-weight="normal" text-decoration="none" x="133" y="477.5">+cleanResultDate: String</text></g></g><g transform="translate(-118,-62) scale(1,1)"><g><path fill="none" stroke="none"/><text fill="#000000" stroke="none" font-family="Arial" font-size="13px" font-style="normal" font-weight="normal" text-decoration="none" x="133" y="492.5">+delayDistributionLabels: String[4]</text></g></g><g transform="translate(-118,-62) scale(1,1)"><g><path fill="none" stroke="none"/><text fill="#000000" stroke="none" font-family="Arial" font-size="13px" font-style="normal" font-weight="normal" text-decoration="none" x="133" y="507.5">+delayDistribution: int[4]</text></g></g><g transform="translate(-118,-62) scale(1,1)"><g><path fill="none" stroke="none"/><text fill="#000000" stroke="none" font-family="Arial" font-size="13px" font-style="normal" font-weight="normal" text-decoration="none" x="133" y="522.5">+cleanDelayDistributionLabels[4]</text></g></g><g transform="translate(-118,-62) scale(1,1)"><g><path fill="none" stroke="none"/><text fill="#000000" stroke="none" font-family="Arial" font-size="13px" font-style="normal" font-weight="normal" text-decoration="none" x="133" y="537.5">+cleanDelayDistribution[4]</text></g></g><g transform="translate(-118,-62) scale(1,1)"><rect fill="#C0C0C0" stroke="none" x="495" y="407" width="496.55712890625" height="117" opacity="0.2"/></g><g transform="translate(-118,-62) scale(1,1)"><rect fill="#ffffff" stroke="none" x="488" y="400" width="496.55712890625" height="117"/></g><g transform="translate(-118,-62) scale(1,1)"><path fill="none" stroke="#000000" d="M 488 400 L 984.55712890625 400 L 984.55712890625 517 L 488 517 L 488 400 Z Z" stroke-miterlimit="10"/></g><g transform="translate(-118,-62) scale(1,1)"><path fill="none" stroke="#000000" d="M 488 425 L 984.55712890625 425" stroke-miterlimit="10"/></g><g transform="translate(-118,-62) scale(1,1)"><path fill="none" stroke="#000000" d="M 488 435 L 984.55712890625 435" stroke-miterlimit="10"/></g><g transform="translate(-118,-62) scale(1,1)"><g><path fill="none" stroke="none"/><text fill="#000000" stroke="none" font-family="Arial" font-size="13px" font-style="normal" font-weight="bold" text-decoration="none" x="691.483154296875" y="419.5">DelayController</text></g></g><g transform="translate(-118,-62) scale(1,1)"><g><path fill="none" stroke="none"/><text fill="#000000" stroke="none" font-family="Arial" font-size="13px" font-style="normal" font-weight="normal" text-decoration="none" x="493" y="452.5">+ModelAndView showDelayNumber()</text></g></g><g transform="translate(-118,-62) scale(1,1)"><g><path fill="none" stroke="none"/><text fill="#000000" stroke="none" font-family="Arial" font-size="13px" font-style="normal" font-weight="normal" text-decoration="none" x="493" y="467.5">+String filterByDate(@ModelAttribute SearchPeriod searchPeriod, ModelMap model)</text></g></g><g transform="translate(-118,-62) scale(1,1)"><g><path fill="none" stroke="none"/><text fill="#000000" stroke="none" font-family="Arial" font-size="13px" font-style="normal" font-weight="normal" text-decoration="none" x="493" y="482.5">+String excludeAtypicalDelays(ModelMap model)</text></g></g><g transform="translate(-118,-62) scale(1,1)"><g><path fill="none" stroke="none"/><text fill="#000000" stroke="none" font-family="Arial" font-size="13px" font-style="normal" font-weight="normal" text-decoration="none" x="493" y="497.5">-Date getPreviousYearDate(Date date)</text></g></g><g transform="translate(-118,-62) scale(1,1)"><g><path fill="none" stroke="none"/><text fill="#000000" stroke="none" font-family="Arial" font-size="13px" font-style="normal" font-weight="normal" text-decoration="none" x="493" y="512.5">-String getResultDateString(Date dateStart, Date dateEnd)</text></g></g><g transform="translate(-118,-62) scale(1,1)"><rect fill="#C0C0C0" stroke="none" x="1431" y="303" width="81.26171875" height="87" opacity="0.2"/></g><g transform="translate(-118,-62) scale(1,1)"><rect fill="#ffffff" stroke="none" x="1424" y="296" width="81.26171875" height="87"/></g><g transform="translate(-118,-62) scale(1,1)"><path fill="none" stroke="#000000" d="M 1424 296 L 1505.26171875 296 L 1505.26171875 383 L 1424 383 L 1424 296 Z Z" stroke-miterlimit="10"/></g><g transform="translate(-118,-62) scale(1,1)"><path fill="none" stroke="#000000" d="M 1424 321 L 1505.26171875 321" stroke-miterlimit="10"/></g><g transform="translate(-118,-62) scale(1,1)"><path fill="none" stroke="#000000" d="M 1424 374 L 1505.26171875 374" stroke-miterlimit="10"/></g><g transform="translate(-118,-62) scale(1,1)"><g><path fill="none" stroke="none"/><text fill="#000000" stroke="none" font-family="Arial" font-size="13px" font-style="normal" font-weight="bold" text-decoration="none" x="1448.0126953125" y="315.5">Delay</text></g></g><g transform="translate(-118,-62) scale(1,1)"><g><path fill="none" stroke="none"/><text fill="#000000" stroke="none" font-family="Arial" font-size="13px" font-style="normal" font-weight="normal" text-decoration="none" x="1429" y="338.5">-id: int</text></g></g><g transform="translate(-118,-62) scale(1,1)"><g><path fill="none" stroke="none"/><text fill="#000000" stroke="none" font-family="Arial" font-size="13px" font-style="normal" font-weight="normal" text-decoration="none" x="1429" y="353.5">-duration: int</text></g></g><g transform="translate(-118,-62) scale(1,1)"><g><path fill="none" stroke="none"/><text fill="#000000" stroke="none" font-family="Arial" font-size="13px" font-style="normal" font-weight="normal" text-decoration="none" x="1429" y="368.5">-date: Date</text></g></g><g transform="translate(-118,-62) scale(1,1)"><rect fill="#C0C0C0" stroke="none" x="775" y="79" width="414.01220703125" height="132" opacity="0.2"/></g><g transform="translate(-118,-62) scale(1,1)"><rect fill="#ffffff" stroke="none" x="768" y="72" width="414.01220703125" height="132"/></g><g transform="translate(-118,-62) scale(1,1)"><path fill="none" stroke="#000000" d="M 768 72 L 1182.01220703125 72 L 1182.01220703125 204 L 768 204 L 768 72 Z Z" stroke-miterlimit="10"/></g><g transform="translate(-118,-62) scale(1,1)"><path fill="none" stroke="#000000" d="M 768 97 L 1182.01220703125 97" stroke-miterlimit="10"/></g><g transform="translate(-118,-62) scale(1,1)"><path fill="none" stroke="#000000" d="M 768 107 L 1182.01220703125 107" stroke-miterlimit="10"/></g><g transform="translate(-118,-62) scale(1,1)"><g><path fill="none" stroke="none"/><text fill="#000000" stroke="none" font-family="Arial" font-size="13px" font-style="normal" font-weight="bold" text-decoration="none" x="924.434326171875" y="91.5">DelayServiceImpl</text></g></g><g transform="translate(-118,-62) scale(1,1)"><g><path fill="none" stroke="none"/><text fill="#000000" stroke="none" font-family="Arial" font-size="13px" font-style="normal" font-weight="normal" text-decoration="none" x="773" y="124.5">+DelayDistribution getDelayDistribution(Date dateStart, Date dateEnd)</text></g></g><g transform="translate(-118,-62) scale(1,1)"><g><path fill="none" stroke="none"/><text fill="#000000" stroke="none" font-family="Arial" font-size="13px" font-style="normal" font-weight="normal" text-decoration="none" x="773" y="139.5">+int getDelayNumber(Date dateStart, Date dateEnd)</text></g></g><g transform="translate(-118,-62) scale(1,1)"><g><path fill="none" stroke="none"/><text fill="#000000" stroke="none" font-family="Arial" font-size="13px" font-style="normal" font-weight="normal" text-decoration="none" x="773" y="154.5">-String[] getQuartileLabels(int[] quartiles)</text></g></g><g transform="translate(-118,-62) scale(1,1)"><g><path fill="none" stroke="none"/><text fill="#000000" stroke="none" font-family="Arial" font-size="13px" font-style="normal" font-weight="normal" text-decoration="none" x="773" y="169.5">-int[] getDelayValues(List&lt;Delay&gt; delays)()</text></g></g><g transform="translate(-118,-62) scale(1,1)"><g><path fill="none" stroke="none"/><text fill="#000000" stroke="none" font-family="Arial" font-size="13px" font-style="normal" font-weight="normal" text-decoration="none" x="773" y="184.5">-int getQuartile(int[] values, int lowerPercent)</text></g></g><g transform="translate(-118,-62) scale(1,1)"><g><path fill="none" stroke="none"/><text fill="#000000" stroke="none" font-family="Arial" font-size="13px" font-style="normal" font-weight="normal" text-decoration="none" x="773" y="199.5">-double getStandardDeviation(int[] values)</text></g></g><g transform="translate(-118,-62) scale(1,1)"><rect fill="#C0C0C0" stroke="none" x="1295" y="79" width="343.9150390625" height="130" opacity="0.2"/></g><g transform="translate(-118,-62) scale(1,1)"><rect fill="#ffffff" stroke="none" x="1288" y="72" width="343.9150390625" height="130"/></g><g transform="translate(-118,-62) scale(1,1)"><path fill="none" stroke="#000000" d="M 1288 72 L 1631.9150390625 72 L 1631.9150390625 202 L 1288 202 L 1288 72 Z Z" stroke-miterlimit="10"/></g><g transform="translate(-118,-62) scale(1,1)"><path fill="none" stroke="#000000" d="M 1288 97 L 1631.9150390625 97" stroke-miterlimit="10"/></g><g transform="translate(-118,-62) scale(1,1)"><path fill="none" stroke="#000000" d="M 1288 120 L 1631.9150390625 120" stroke-miterlimit="10"/></g><g transform="translate(-118,-62) scale(1,1)"><g><path fill="none" stroke="none"/><text fill="#000000" stroke="none" font-family="Arial" font-size="13px" font-style="normal" font-weight="bold" text-decoration="none" x="1416.974365234375" y="91.5">DelayDAOImpl</text></g></g><g transform="translate(-118,-62) scale(1,1)"><g><path fill="none" stroke="none"/><text fill="#000000" stroke="none" font-family="Arial" font-size="13px" font-style="normal" font-weight="normal" text-decoration="none" x="1293" y="114.5">-SessionFactory: sessionFactory</text></g></g><g transform="translate(-118,-62) scale(1,1)"><g><path fill="none" stroke="none"/><text fill="#000000" stroke="none" font-family="Arial" font-size="13px" font-style="normal" font-weight="normal" text-decoration="none" x="1293" y="137.5">-Session getCurrentSession()</text></g></g><g transform="translate(-118,-62) scale(1,1)"><g><path fill="none" stroke="none"/><text fill="#000000" stroke="none" font-family="Arial" font-size="13px" font-style="normal" font-weight="normal" text-decoration="none" x="1293" y="152.5">+List&lt;Delay&gt; findAll()()</text></g></g><g transform="translate(-118,-62) scale(1,1)"><g><path fill="none" stroke="none"/><text fill="#000000" stroke="none" font-family="Arial" font-size="13px" font-style="normal" font-weight="normal" text-decoration="none" x="1293" y="167.5">+int count()</text></g></g><g transform="translate(-118,-62) scale(1,1)"><g><path fill="none" stroke="none"/><text fill="#000000" stroke="none" font-family="Arial" font-size="13px" font-style="normal" font-weight="normal" text-decoration="none" x="1293" y="182.5">+List&lt;Delay&gt; filterByDate(Date dateStart, Date dateEnd)()</text></g></g><g transform="translate(-118,-62) scale(1,1)"><g><path fill="none" stroke="none"/><text fill="#000000" stroke="none" font-family="Arial" font-size="13px" font-style="normal" font-weight="normal" text-decoration="none" x="1293" y="197.5">+int countByDate(Date dateStart, Date dateEnd)</text></g></g><g transform="translate(-118,-62) scale(1,1)"><path fill="none" stroke="#000000" d="M 336 456 L 487 457" stroke-miterlimit="10"/></g><g transform="translate(-118,-62) scale(1,1)"><g><path fill="none" stroke="none"/><text fill="#000000" stroke="none" font-family="Arial" font-size="13px" font-style="normal" font-weight="normal" text-decoration="none" x="353.5" y="474.5">1</text></g></g><g transform="translate(-118,-62) scale(1,1)"><g><path fill="none" stroke="none"/><text fill="#000000" stroke="none" font-family="Arial" font-size="13px" font-style="normal" font-weight="normal" text-decoration="none" x="461.5" y="475.5">1</text></g></g><g transform="translate(-118,-62) scale(1,1)"><path fill="none" stroke="#000000" d="M 780 399 L 925 205" stroke-miterlimit="10"/></g><g transform="translate(-118,-62) scale(1,1)"><g><path fill="none" stroke="none"/><text fill="#000000" stroke="none" font-family="Arial" font-size="13px" font-style="normal" font-weight="normal" text-decoration="none" x="769.5" y="298.5">-delayService</text></g></g><g transform="translate(-118,-62) scale(1,1)"><g><path fill="none" stroke="none"/><text fill="#000000" stroke="none" font-family="Arial" font-size="13px" font-style="normal" font-weight="normal" text-decoration="none" x="798.5" y="395.5">1</text></g></g><g transform="translate(-118,-62) scale(1,1)"><g><path fill="none" stroke="none"/><text fill="#000000" stroke="none" font-family="Arial" font-size="13px" font-style="normal" font-weight="normal" text-decoration="none" x="918.5" y="235.5">1</text></g></g><g transform="translate(-118,-62) scale(1,1)"><path fill="none" stroke="#000000" d="M 1183 138 L 1287 137" stroke-miterlimit="10"/></g><g transform="translate(-118,-62) scale(1,1)"><g><path fill="none" stroke="none"/><text fill="#000000" stroke="none" font-family="Arial" font-size="13px" font-style="normal" font-weight="normal" text-decoration="none" x="1203.5" y="128.5">-delayDAO</text></g></g><g transform="translate(-118,-62) scale(1,1)"><g><path fill="none" stroke="none"/><text fill="#000000" stroke="none" font-family="Arial" font-size="13px" font-style="normal" font-weight="normal" text-decoration="none" x="1200.5" y="156.5">1</text></g></g><g transform="translate(-118,-62) scale(1,1)"><g><path fill="none" stroke="none"/><text fill="#000000" stroke="none" font-family="Arial" font-size="13px" font-style="normal" font-weight="normal" text-decoration="none" x="1261.5" y="155.5">1</text></g></g><g transform="translate(-118,-62) scale(1,1)"><path fill="none" stroke="#000000" d="M 1461 203 L 1463 295" stroke-miterlimit="10"/></g><g transform="translate(-118,-62) scale(1,1)"><g><path fill="none" stroke="none"/><text fill="#000000" stroke="none" font-family="Arial" font-size="13px" font-style="normal" font-weight="normal" text-decoration="none" x="1473.5" y="252.5">-delays</text></g></g><g transform="translate(-118,-62) scale(1,1)"><g><path fill="none" stroke="none"/><text fill="#000000" stroke="none" font-family="Arial" font-size="13px" font-style="normal" font-weight="normal" text-decoration="none" x="1444.5" y="230.5">1</text></g></g><g transform="translate(-118,-62) scale(1,1)"><g><path fill="none" stroke="none"/><text fill="#000000" stroke="none" font-family="Arial" font-size="13px" font-style="normal" font-weight="normal" text-decoration="none" x="1440.5" y="279.5">0..*</text></g></g><g transform="translate(-118,-62) scale(1,1)"><rect fill="#C0C0C0" stroke="none" x="463" y="111" width="116.62451171875" height="72" opacity="0.2"/></g><g transform="translate(-118,-62) scale(1,1)"><rect fill="#ffffff" stroke="none" x="456" y="104" width="116.62451171875" height="72"/></g><g transform="translate(-118,-62) scale(1,1)"><path fill="none" stroke="#000000" d="M 456 104 L 572.62451171875 104 L 572.62451171875 176 L 456 176 L 456 104 Z Z" stroke-miterlimit="10"/></g><g transform="translate(-118,-62) scale(1,1)"><path fill="none" stroke="#000000" d="M 456 129 L 572.62451171875 129" stroke-miterlimit="10"/></g><g transform="translate(-118,-62) scale(1,1)"><path fill="none" stroke="#000000" d="M 456 167 L 572.62451171875 167" stroke-miterlimit="10"/></g><g transform="translate(-118,-62) scale(1,1)"><g><path fill="none" stroke="none"/><text fill="#000000" stroke="none" font-family="Arial" font-size="13px" font-style="normal" font-weight="bold" text-decoration="none" x="465.181396484375" y="123.5">DelayDistribution</text></g></g><g transform="translate(-118,-62) scale(1,1)"><g><path fill="none" stroke="none"/><text fill="#000000" stroke="none" font-family="Arial" font-size="13px" font-style="normal" font-weight="normal" text-decoration="none" x="461" y="146.5">-int[] values</text></g></g><g transform="translate(-118,-62) scale(1,1)"><g><path fill="none" stroke="none"/><text fill="#000000" stroke="none" font-family="Arial" font-size="13px" font-style="normal" font-weight="normal" text-decoration="none" x="461" y="161.5">-String[] labels</text></g></g><g transform="translate(-118,-62) scale(1,1)"><path fill="none" stroke="#000000" d="M 695 399 L 540 177" stroke-miterlimit="10"/></g><g transform="translate(-118,-62) scale(1,1)"><g><path fill="none" stroke="none"/><text fill="#000000" stroke="none" font-family="Arial" font-size="13px" font-style="normal" font-weight="normal" text-decoration="none" x="499.5" y="300.5">-delayDistribution</text></g></g><g transform="translate(-118,-62) scale(1,1)"><g><path fill="none" stroke="none"/><text fill="#000000" stroke="none" font-family="Arial" font-size="13px" font-style="normal" font-weight="normal" text-decoration="none" x="688.5" y="380.5">1</text></g></g><g transform="translate(-118,-62) scale(1,1)"><g><path fill="none" stroke="none"/><text fill="#000000" stroke="none" font-family="Arial" font-size="13px" font-style="normal" font-weight="normal" text-decoration="none" x="551.5" y="193.5">1..2</text></g></g><g transform="translate(-118,-62) scale(1,1)"><rect fill="#C0C0C0" stroke="none" x="1151" y="423" width="137.603515625" height="102" opacity="0.2"/></g><g transform="translate(-118,-62) scale(1,1)"><rect fill="#ffffff" stroke="none" x="1144" y="416" width="137.603515625" height="102"/></g><g transform="translate(-118,-62) scale(1,1)"><path fill="none" stroke="#000000" d="M 1144 416 L 1281.603515625 416 L 1281.603515625 518 L 1144 518 L 1144 416 Z Z" stroke-miterlimit="10"/></g><g transform="translate(-118,-62) scale(1,1)"><path fill="none" stroke="#000000" d="M 1144 441 L 1281.603515625 441" stroke-miterlimit="10"/></g><g transform="translate(-118,-62) scale(1,1)"><path fill="none" stroke="#000000" d="M 1144 509 L 1281.603515625 509" stroke-miterlimit="10"/></g><g transform="translate(-118,-62) scale(1,1)"><g><path fill="none" stroke="none"/><text fill="#000000" stroke="none" font-family="Arial" font-size="13px" font-style="normal" font-weight="bold" text-decoration="none" x="1173.417724609375" y="435.5">SearchPeriod</text></g></g><g transform="translate(-118,-62) scale(1,1)"><g><path fill="none" stroke="none"/><text fill="#000000" stroke="none" font-family="Arial" font-size="13px" font-style="normal" font-weight="normal" text-decoration="none" x="1149" y="458.5">-Date startDate</text></g></g><g transform="translate(-118,-62) scale(1,1)"><g><path fill="none" stroke="none"/><text fill="#000000" stroke="none" font-family="Arial" font-size="13px" font-style="normal" font-weight="normal" text-decoration="none" x="1149" y="473.5">-String startDateString</text></g></g><g transform="translate(-118,-62) scale(1,1)"><g><path fill="none" stroke="none"/><text fill="#000000" stroke="none" font-family="Arial" font-size="13px" font-style="normal" font-weight="normal" text-decoration="none" x="1149" y="488.5">-Date endDate</text></g></g><g transform="translate(-118,-62) scale(1,1)"><g><path fill="none" stroke="none"/><text fill="#000000" stroke="none" font-family="Arial" font-size="13px" font-style="normal" font-weight="normal" text-decoration="none" x="1149" y="503.5">-String endDateString</text></g></g><g transform="translate(-118,-62) scale(1,1)"><path fill="none" stroke="#000000" d="M 986 463 L 1143 466" stroke-miterlimit="10"/></g><g transform="translate(-118,-62) scale(1,1)"><g><path fill="none" stroke="none"/><text fill="#000000" stroke="none" font-family="Arial" font-size="13px" font-style="normal" font-weight="normal" text-decoration="none" x="1021.5" y="455.5">+searchPeriod</text></g></g><g transform="translate(-118,-62) scale(1,1)"><g><path fill="none" stroke="none"/><text fill="#000000" stroke="none" font-family="Arial" font-size="13px" font-style="normal" font-weight="normal" text-decoration="none" x="1003.5" y="481.5">1</text></g></g><g transform="translate(-118,-62) scale(1,1)"><g><path fill="none" stroke="none"/><text fill="#000000" stroke="none" font-family="Arial" font-size="13px" font-style="normal" font-weight="normal" text-decoration="none" x="1117.5" y="484.5">1</text></g></g><g transform="translate(-118,-62) scale(1,1)"><path fill="none" stroke="#000000" d="M 767 139 L 574 140" stroke-miterlimit="10"/></g><g transform="translate(-118,-62) scale(1,1)"><g><path fill="none" stroke="none"/><text fill="#000000" stroke="none" font-family="Arial" font-size="13px" font-style="normal" font-weight="normal" text-decoration="none" x="619.5" y="159.5">-delayDistribution</text></g></g></g></svg>