<svg version="1.1" xmlns="http://www.w3.org/2000/svg" xmlns:xlink="http://www.w3.org/1999/xlink" width="1526" height="540"><defs/><g><g transform="translate(-118,-30) scale(1,1)"><rect fill="#C0C0C0" stroke="none" x="135" y="367" width="208" height="192" opacity="0.2"/></g><g transform="translate(-118,-30) scale(1,1)"><rect fill="#ffffff" stroke="none" x="128" y="360" width="208" height="192"/></g><g transform="translate(-118,-30) scale(1,1)"><path fill="none" stroke="#000000" d="M 128 360 L 336 360 L 336 552 L 128 552 L 128 360 Z Z" stroke-miterlimit="10"/></g><g transform="translate(-118,-30) scale(1,1)"><path fill="none" stroke="#000000" d="M 128 385 L 336 385" stroke-miterlimit="10"/></g><g transform="translate(-118,-30) scale(1,1)"><path fill="none" stroke="#000000" d="M 128 543 L 336 543" stroke-miterlimit="10"/></g><g transform="translate(-118,-30) scale(1,1)"><g><path fill="none" stroke="none"/><text fill="#000000" stroke="none" font-family="Arial" font-size="13px" font-style="normal" font-weight="bold" text-decoration="none" x="180" y="379.5">delay-analysis.jsp</text></g></g><g transform="translate(-118,-30) scale(1,1)"><g><path fill="none" stroke="none"/><text fill="#000000" stroke="none" font-family="Arial" font-size="13px" font-style="normal" font-weight="normal" text-decoration="none" x="133" y="402.5">+filtered: boolean</text></g></g><g transform="translate(-118,-30) scale(1,1)"><g><path fill="none" stroke="none"/><text fill="#000000" stroke="none" font-family="Arial" font-size="13px" font-style="normal" font-weight="normal" text-decoration="none" x="133" y="417.5">+searchPeriod: SearchPeriod</text></g></g><g transform="translate(-118,-30) scale(1,1)"><g><path fill="none" stroke="none"/><text fill="#000000" stroke="none" font-family="Arial" font-size="13px" font-style="normal" font-weight="normal" text-decoration="none" x="133" y="432.5">+delayNumber: int</text></g></g><g transform="translate(-118,-30) scale(1,1)"><g><path fill="none" stroke="none"/><text fill="#000000" stroke="none" font-family="Arial" font-size="13px" font-style="normal" font-weight="normal" text-decoration="none" x="133" y="447.5">+resultDate: String</text></g></g><g transform="translate(-118,-30) scale(1,1)"><g><path fill="none" stroke="none"/><text fill="#000000" stroke="none" font-family="Arial" font-size="13px" font-style="normal" font-weight="normal" text-decoration="none" x="133" y="462.5">+cleanDelayNumber: int</text></g></g><g transform="translate(-118,-30) scale(1,1)"><g><path fill="none" stroke="none"/><text fill="#000000" stroke="none" font-family="Arial" font-size="13px" font-style="normal" font-weight="normal" text-decoration="none" x="133" y="477.5">+cleanResultDate: String</text></g></g><g transform="translate(-118,-30) scale(1,1)"><g><path fill="none" stroke="none"/><text fill="#000000" stroke="none" font-family="Arial" font-size="13px" font-style="normal" font-weight="normal" text-decoration="none" x="133" y="492.5">+delayDistributionLabels: String[4]</text></g></g><g transform="translate(-118,-30) scale(1,1)"><g><path fill="none" stroke="none"/><text fill="#000000" stroke="none" font-family="Arial" font-size="13px" font-style="normal" font-weight="normal" text-decoration="none" x="133" y="507.5">+delayDistribution: int[4]</text></g></g><g transform="translate(-118,-30) scale(1,1)"><g><path fill="none" stroke="none"/><text fill="#000000" stroke="none" font-family="Arial" font-size="13px" font-style="normal" font-weight="normal" text-decoration="none" x="133" y="522.5">+cleanDelayDistributionLabels[4]</text></g></g><g transform="translate(-118,-30) scale(1,1)"><g><path fill="none" stroke="none"/><text fill="#000000" stroke="none" font-family="Arial" font-size="13px" font-style="normal" font-weight="normal" text-decoration="none" x="133" y="537.5">+cleanDelayDistribution[4]</text></g></g><g transform="translate(-118,-30) scale(1,1)"><rect fill="#C0C0C0" stroke="none" x="495" y="407" width="570" height="160" opacity="0.2"/></g><g transform="translate(-118,-30) scale(1,1)"><rect fill="#ffffff" stroke="none" x="488" y="400" width="570" height="160"/></g><g transform="translate(-118,-30) scale(1,1)"><path fill="none" stroke="#000000" d="M 488 400 L 1058 400 L 1058 560 L 488 560 L 488 400 Z Z" stroke-miterlimit="10"/></g><g transform="translate(-118,-30) scale(1,1)"><path fill="none" stroke="#000000" d="M 488 425 L 1058 425" stroke-miterlimit="10"/></g><g transform="translate(-118,-30) scale(1,1)"><path fill="none" stroke="#000000" d="M 488 448 L 1058 448" stroke-miterlimit="10"/></g><g transform="translate(-118,-30) scale(1,1)"><g><path fill="none" stroke="none"/><text fill="#000000" stroke="none" font-family="Arial" font-size="13px" font-style="normal" font-weight="bold" text-decoration="none" x="729" y="419.5">DelayController</text></g></g><g transform="translate(-118,-30) scale(1,1)"><g><path fill="none" stroke="none"/><text fill="#000000" stroke="none" font-family="Arial" font-size="13px" font-style="normal" font-weight="normal" text-decoration="none" x="493" y="442.5">-DelayService delayService;</text></g></g><g transform="translate(-118,-30) scale(1,1)"><g><path fill="none" stroke="none"/><text fill="#000000" stroke="none" font-family="Arial" font-size="13px" font-style="normal" font-weight="normal" text-decoration="none" x="493" y="465.5">+ModelAndView showDelayNumber()</text></g></g><g transform="translate(-118,-30) scale(1,1)"><g><path fill="none" stroke="none"/><text fill="#000000" stroke="none" font-family="Arial" font-size="13px" font-style="normal" font-weight="normal" text-decoration="none" x="493" y="480.5">+String filterByDate(@ModelAttribute SearchPeriod searchPeriod, ModelMap model)</text></g></g><g transform="translate(-118,-30) scale(1,1)"><g><path fill="none" stroke="none"/><text fill="#000000" stroke="none" font-family="Arial" font-size="13px" font-style="normal" font-weight="normal" text-decoration="none" x="493" y="495.5">+String excludeAtypicalDelays(ModelMap model)</text></g></g><g transform="translate(-118,-30) scale(1,1)"><g><path fill="none" stroke="none"/><text fill="#000000" stroke="none" font-family="Arial" font-size="13px" font-style="normal" font-weight="normal" text-decoration="none" x="493" y="510.5">-Date getPreviousYearDate(Date date)</text></g></g><g transform="translate(-118,-30) scale(1,1)"><g><path fill="none" stroke="none"/><text fill="#000000" stroke="none" font-family="Arial" font-size="13px" font-style="normal" font-weight="normal" text-decoration="none" x="493" y="525.5">-String getResultDateString(Date dateStart, Date dateEnd)</text></g></g><g transform="translate(-118,-30) scale(1,1)"><g><path fill="none" stroke="none"/><text fill="#000000" stroke="none" font-family="Arial" font-size="13px" font-style="normal" font-weight="normal" text-decoration="none" x="493" y="540.5">-SearchPeriod formatPeriod(SearchPeriod searchPeriod)</text></g></g><g transform="translate(-118,-30) scale(1,1)"><g><path fill="none" stroke="none"/><text fill="#000000" stroke="none" font-family="Arial" font-size="13px" font-style="normal" font-weight="normal" text-decoration="none" x="493" y="555.5">+String filterCleanValuesByDate(@ModelAttribute SearchPeriod searchPeriod, ModelMap model)</text></g></g><g transform="translate(-118,-30) scale(1,1)"><rect fill="#C0C0C0" stroke="none" x="1431" y="303" width="81" height="87" opacity="0.2"/></g><g transform="translate(-118,-30) scale(1,1)"><rect fill="#ffffff" stroke="none" x="1424" y="296" width="81" height="87"/></g><g transform="translate(-118,-30) scale(1,1)"><path fill="none" stroke="#000000" d="M 1424 296 L 1505 296 L 1505 383 L 1424 383 L 1424 296 Z Z" stroke-miterlimit="10"/></g><g transform="translate(-118,-30) scale(1,1)"><path fill="none" stroke="#000000" d="M 1424 321 L 1505 321" stroke-miterlimit="10"/></g><g transform="translate(-118,-30) scale(1,1)"><path fill="none" stroke="#000000" d="M 1424 374 L 1505 374" stroke-miterlimit="10"/></g><g transform="translate(-118,-30) scale(1,1)"><g><path fill="none" stroke="none"/><text fill="#000000" stroke="none" font-family="Arial" font-size="13px" font-style="normal" font-weight="bold" text-decoration="none" x="1448" y="315.5">Delay</text></g></g><g transform="translate(-118,-30) scale(1,1)"><g><path fill="none" stroke="none"/><text fill="#000000" stroke="none" font-family="Arial" font-size="13px" font-style="normal" font-weight="normal" text-decoration="none" x="1429" y="338.5">-id: int</text></g></g><g transform="translate(-118,-30) scale(1,1)"><g><path fill="none" stroke="none"/><text fill="#000000" stroke="none" font-family="Arial" font-size="13px" font-style="normal" font-weight="normal" text-decoration="none" x="1429" y="353.5">-duration: int</text></g></g><g transform="translate(-118,-30) scale(1,1)"><g><path fill="none" stroke="none"/><text fill="#000000" stroke="none" font-family="Arial" font-size="13px" font-style="normal" font-weight="normal" text-decoration="none" x="1429" y="368.5">-date: Date</text></g></g><g transform="translate(-118,-30) scale(1,1)"><rect fill="#C0C0C0" stroke="none" x="767" y="47" width="414" height="190" opacity="0.2"/></g><g transform="translate(-118,-30) scale(1,1)"><rect fill="#ffffff" stroke="none" x="760" y="40" width="414" height="190"/></g><g transform="translate(-118,-30) scale(1,1)"><path fill="none" stroke="#000000" d="M 760 40 L 1174 40 L 1174 230 L 760 230 L 760 40 Z Z" stroke-miterlimit="10"/></g><g transform="translate(-118,-30) scale(1,1)"><path fill="none" stroke="#000000" d="M 760 65 L 1174 65" stroke-miterlimit="10"/></g><g transform="translate(-118,-30) scale(1,1)"><path fill="none" stroke="#000000" d="M 760 88 L 1174 88" stroke-miterlimit="10"/></g><g transform="translate(-118,-30) scale(1,1)"><g><path fill="none" stroke="none"/><text fill="#000000" stroke="none" font-family="Arial" font-size="13px" font-style="normal" font-weight="bold" text-decoration="none" x="916" y="59.5">DelayServiceImpl</text></g></g><g transform="translate(-118,-30) scale(1,1)"><g><path fill="none" stroke="none"/><text fill="#000000" stroke="none" font-family="Arial" font-size="13px" font-style="normal" font-weight="normal" text-decoration="none" x="765" y="82.5">-DelayDAO delayDAO;</text></g></g><g transform="translate(-118,-30) scale(1,1)"><g><path fill="none" stroke="none"/><text fill="#000000" stroke="none" font-family="Arial" font-size="13px" font-style="normal" font-weight="normal" text-decoration="none" x="765" y="105.5">+DelayDistribution getDelayDistribution(Date dateStart, Date dateEnd)</text></g></g><g transform="translate(-118,-30) scale(1,1)"><g><path fill="none" stroke="none"/><text fill="#000000" stroke="none" font-family="Arial" font-size="13px" font-style="normal" font-weight="normal" text-decoration="none" x="765" y="120.5">+int getDelayNumber(Date dateStart, Date dateEnd)</text></g></g><g transform="translate(-118,-30) scale(1,1)"><g><path fill="none" stroke="none"/><text fill="#000000" stroke="none" font-family="Arial" font-size="13px" font-style="normal" font-weight="normal" text-decoration="none" x="765" y="135.5">-String[] getQuartileLabels(int[] quartiles)</text></g></g><g transform="translate(-118,-30) scale(1,1)"><g><path fill="none" stroke="none"/><text fill="#000000" stroke="none" font-family="Arial" font-size="13px" font-style="normal" font-weight="normal" text-decoration="none" x="765" y="150.5">-int[] getDelayValues(List&lt;Delay&gt; delays)()</text></g></g><g transform="translate(-118,-30) scale(1,1)"><g><path fill="none" stroke="none"/><text fill="#000000" stroke="none" font-family="Arial" font-size="13px" font-style="normal" font-weight="normal" text-decoration="none" x="765" y="165.5">-int getQuartile(int[] values, int lowerPercent)</text></g></g><g transform="translate(-118,-30) scale(1,1)"><g><path fill="none" stroke="none"/><text fill="#000000" stroke="none" font-family="Arial" font-size="13px" font-style="normal" font-weight="normal" text-decoration="none" x="765" y="180.5">-double getStandardDeviation(int[] values)</text></g></g><g transform="translate(-118,-30) scale(1,1)"><g><path fill="none" stroke="none"/><text fill="#000000" stroke="none" font-family="Arial" font-size="13px" font-style="normal" font-weight="normal" text-decoration="none" x="765" y="195.5">-double getMean(int[] values)</text></g></g><g transform="translate(-118,-30) scale(1,1)"><g><path fill="none" stroke="none"/><text fill="#000000" stroke="none" font-family="Arial" font-size="13px" font-style="normal" font-weight="normal" text-decoration="none" x="765" y="210.5">-double getVariance(int[] values)</text></g></g><g transform="translate(-118,-30) scale(1,1)"><g><path fill="none" stroke="none"/><text fill="#000000" stroke="none" font-family="Arial" font-size="13px" font-style="normal" font-weight="normal" text-decoration="none" x="765" y="225.5">-int[] getCleanValues(int[] values)</text></g></g><g transform="translate(-118,-30) scale(1,1)"><rect fill="#C0C0C0" stroke="none" x="1295" y="87" width="346" height="130" opacity="0.2"/></g><g transform="translate(-118,-30) scale(1,1)"><rect fill="#ffffff" stroke="none" x="1288" y="80" width="346" height="130"/></g><g transform="translate(-118,-30) scale(1,1)"><path fill="none" stroke="#000000" d="M 1288 80 L 1634 80 L 1634 210 L 1288 210 L 1288 80 Z Z" stroke-miterlimit="10"/></g><g transform="translate(-118,-30) scale(1,1)"><path fill="none" stroke="#000000" d="M 1288 105 L 1634 105" stroke-miterlimit="10"/></g><g transform="translate(-118,-30) scale(1,1)"><path fill="none" stroke="#000000" d="M 1288 128 L 1634 128" stroke-miterlimit="10"/></g><g transform="translate(-118,-30) scale(1,1)"><g><path fill="none" stroke="none"/><text fill="#000000" stroke="none" font-family="Arial" font-size="13px" font-style="normal" font-weight="bold" text-decoration="none" x="1418" y="99.5">DelayDAOImpl</text></g></g><g transform="translate(-118,-30) scale(1,1)"><g><path fill="none" stroke="none"/><text fill="#000000" stroke="none" font-family="Arial" font-size="13px" font-style="normal" font-weight="normal" text-decoration="none" x="1293" y="122.5">-SessionFactory: sessionFactory</text></g></g><g transform="translate(-118,-30) scale(1,1)"><g><path fill="none" stroke="none"/><text fill="#000000" stroke="none" font-family="Arial" font-size="13px" font-style="normal" font-weight="normal" text-decoration="none" x="1293" y="145.5">-Session getCurrentSession()</text></g></g><g transform="translate(-118,-30) scale(1,1)"><g><path fill="none" stroke="none"/><text fill="#000000" stroke="none" font-family="Arial" font-size="13px" font-style="normal" font-weight="normal" text-decoration="none" x="1293" y="160.5">+List&lt;Delay&gt; findAll()()</text></g></g><g transform="translate(-118,-30) scale(1,1)"><g><path fill="none" stroke="none"/><text fill="#000000" stroke="none" font-family="Arial" font-size="13px" font-style="normal" font-weight="normal" text-decoration="none" x="1293" y="175.5">+int count()</text></g></g><g transform="translate(-118,-30) scale(1,1)"><g><path fill="none" stroke="none"/><text fill="#000000" stroke="none" font-family="Arial" font-size="13px" font-style="normal" font-weight="normal" text-decoration="none" x="1293" y="190.5">+List&lt;Delay&gt; filterByDate(Date dateStart, Date dateEnd)()</text></g></g><g transform="translate(-118,-30) scale(1,1)"><g><path fill="none" stroke="none"/><text fill="#000000" stroke="none" font-family="Arial" font-size="13px" font-style="normal" font-weight="normal" text-decoration="none" x="1293" y="205.5">+int countByDate(Date dateStart, Date dateEnd)</text></g></g><g transform="translate(-118,-30) scale(1,1)"><path fill="none" stroke="#000000" d="M 337 461 L 487 467" stroke-miterlimit="10"/></g><g transform="translate(-118,-30) scale(1,1)"><g><path fill="none" stroke="none"/><text fill="#000000" stroke="none" font-family="Arial" font-size="13px" font-style="normal" font-weight="normal" text-decoration="none" x="354.5" y="480.5">1</text></g></g><g transform="translate(-118,-30) scale(1,1)"><g><path fill="none" stroke="none"/><text fill="#000000" stroke="none" font-family="Arial" font-size="13px" font-style="normal" font-weight="normal" text-decoration="none" x="460.5" y="484.5">1</text></g></g><g transform="translate(-118,-30) scale(1,1)"><path fill="none" stroke="#000000" d="M 819 399 L 913 231" stroke-miterlimit="10"/></g><g transform="translate(-118,-30) scale(1,1)"><g><path fill="none" stroke="none"/><text fill="#000000" stroke="none" font-family="Arial" font-size="13px" font-style="normal" font-weight="normal" text-decoration="none" x="783.5" y="316.5">-delayService</text></g></g><g transform="translate(-118,-30) scale(1,1)"><g><path fill="none" stroke="none"/><text fill="#000000" stroke="none" font-family="Arial" font-size="13px" font-style="normal" font-weight="normal" text-decoration="none" x="836.5" y="392.5">1</text></g></g><g transform="translate(-118,-30) scale(1,1)"><g><path fill="none" stroke="none"/><text fill="#000000" stroke="none" font-family="Arial" font-size="13px" font-style="normal" font-weight="normal" text-decoration="none" x="909.5" y="261.5">1</text></g></g><g transform="translate(-118,-30) scale(1,1)"><path fill="none" stroke="#000000" d="M 1175 139 L 1287 141" stroke-miterlimit="10"/></g><g transform="translate(-118,-30) scale(1,1)"><g><path fill="none" stroke="none"/><text fill="#000000" stroke="none" font-family="Arial" font-size="13px" font-style="normal" font-weight="normal" text-decoration="none" x="1199.5" y="131.5">-delayDAO</text></g></g><g transform="translate(-118,-30) scale(1,1)"><g><path fill="none" stroke="none"/><text fill="#000000" stroke="none" font-family="Arial" font-size="13px" font-style="normal" font-weight="normal" text-decoration="none" x="1192.5" y="157.5">1</text></g></g><g transform="translate(-118,-30) scale(1,1)"><g><path fill="none" stroke="none"/><text fill="#000000" stroke="none" font-family="Arial" font-size="13px" font-style="normal" font-weight="normal" text-decoration="none" x="1261.5" y="159.5">1</text></g></g><g transform="translate(-118,-30) scale(1,1)"><path fill="none" stroke="#000000" d="M 1462 211 L 1463 295" stroke-miterlimit="10"/></g><g transform="translate(-118,-30) scale(1,1)"><g><path fill="none" stroke="none"/><text fill="#000000" stroke="none" font-family="Arial" font-size="13px" font-style="normal" font-weight="normal" text-decoration="none" x="1472.5" y="256.5">-delays</text></g></g><g transform="translate(-118,-30) scale(1,1)"><g><path fill="none" stroke="none"/><text fill="#000000" stroke="none" font-family="Arial" font-size="13px" font-style="normal" font-weight="normal" text-decoration="none" x="1445.5" y="238.5">1</text></g></g><g transform="translate(-118,-30) scale(1,1)"><g><path fill="none" stroke="none"/><text fill="#000000" stroke="none" font-family="Arial" font-size="13px" font-style="normal" font-weight="normal" text-decoration="none" x="1439.5" y="279.5">0..*</text></g></g><g transform="translate(-118,-30) scale(1,1)"><rect fill="#C0C0C0" stroke="none" x="463" y="111" width="116" height="72" opacity="0.2"/></g><g transform="translate(-118,-30) scale(1,1)"><rect fill="#ffffff" stroke="none" x="456" y="104" width="116" height="72"/></g><g transform="translate(-118,-30) scale(1,1)"><path fill="none" stroke="#000000" d="M 456 104 L 572 104 L 572 176 L 456 176 L 456 104 Z Z" stroke-miterlimit="10"/></g><g transform="translate(-118,-30) scale(1,1)"><path fill="none" stroke="#000000" d="M 456 129 L 572 129" stroke-miterlimit="10"/></g><g transform="translate(-118,-30) scale(1,1)"><path fill="none" stroke="#000000" d="M 456 167 L 572 167" stroke-miterlimit="10"/></g><g transform="translate(-118,-30) scale(1,1)"><g><path fill="none" stroke="none"/><text fill="#000000" stroke="none" font-family="Arial" font-size="13px" font-style="normal" font-weight="bold" text-decoration="none" x="465" y="123.5">DelayDistribution</text></g></g><g transform="translate(-118,-30) scale(1,1)"><g><path fill="none" stroke="none"/><text fill="#000000" stroke="none" font-family="Arial" font-size="13px" font-style="normal" font-weight="normal" text-decoration="none" x="461" y="146.5">-int[] values</text></g></g><g transform="translate(-118,-30) scale(1,1)"><g><path fill="none" stroke="none"/><text fill="#000000" stroke="none" font-family="Arial" font-size="13px" font-style="normal" font-weight="normal" text-decoration="none" x="461" y="161.5">-String[] labels</text></g></g><g transform="translate(-118,-30) scale(1,1)"><path fill="none" stroke="#000000" d="M 711 399 L 542 177" stroke-miterlimit="10"/></g><g transform="translate(-118,-30) scale(1,1)"><g><path fill="none" stroke="none"/><text fill="#000000" stroke="none" font-family="Arial" font-size="13px" font-style="normal" font-weight="normal" text-decoration="none" x="509.5" y="305.5">-delayDistribution</text></g></g><g transform="translate(-118,-30) scale(1,1)"><g><path fill="none" stroke="none"/><text fill="#000000" stroke="none" font-family="Arial" font-size="13px" font-style="normal" font-weight="normal" text-decoration="none" x="703.5" y="380.5">1</text></g></g><g transform="translate(-118,-30) scale(1,1)"><g><path fill="none" stroke="none"/><text fill="#000000" stroke="none" font-family="Arial" font-size="13px" font-style="normal" font-weight="normal" text-decoration="none" x="561.5" y="192.5">1</text></g></g><g transform="translate(-118,-30) scale(1,1)"><rect fill="#C0C0C0" stroke="none" x="1255" y="431" width="138" height="102" opacity="0.2"/></g><g transform="translate(-118,-30) scale(1,1)"><rect fill="#ffffff" stroke="none" x="1248" y="424" width="138" height="102"/></g><g transform="translate(-118,-30) scale(1,1)"><path fill="none" stroke="#000000" d="M 1248 424 L 1386 424 L 1386 526 L 1248 526 L 1248 424 Z Z" stroke-miterlimit="10"/></g><g transform="translate(-118,-30) scale(1,1)"><path fill="none" stroke="#000000" d="M 1248 449 L 1386 449" stroke-miterlimit="10"/></g><g transform="translate(-118,-30) scale(1,1)"><path fill="none" stroke="#000000" d="M 1248 517 L 1386 517" stroke-miterlimit="10"/></g><g transform="translate(-118,-30) scale(1,1)"><g><path fill="none" stroke="none"/><text fill="#000000" stroke="none" font-family="Arial" font-size="13px" font-style="normal" font-weight="bold" text-decoration="none" x="1278" y="443.5">SearchPeriod</text></g></g><g transform="translate(-118,-30) scale(1,1)"><g><path fill="none" stroke="none"/><text fill="#000000" stroke="none" font-family="Arial" font-size="13px" font-style="normal" font-weight="normal" text-decoration="none" x="1253" y="466.5">-Date startDate</text></g></g><g transform="translate(-118,-30) scale(1,1)"><g><path fill="none" stroke="none"/><text fill="#000000" stroke="none" font-family="Arial" font-size="13px" font-style="normal" font-weight="normal" text-decoration="none" x="1253" y="481.5">-String startDateString</text></g></g><g transform="translate(-118,-30) scale(1,1)"><g><path fill="none" stroke="none"/><text fill="#000000" stroke="none" font-family="Arial" font-size="13px" font-style="normal" font-weight="normal" text-decoration="none" x="1253" y="496.5">-Date endDate</text></g></g><g transform="translate(-118,-30) scale(1,1)"><g><path fill="none" stroke="none"/><text fill="#000000" stroke="none" font-family="Arial" font-size="13px" font-style="normal" font-weight="normal" text-decoration="none" x="1253" y="511.5">-String endDateString</text></g></g><g transform="translate(-118,-30) scale(1,1)"><path fill="none" stroke="#000000" d="M 1059 477 L 1247 476" stroke-miterlimit="10"/></g><g transform="translate(-118,-30) scale(1,1)"><g><path fill="none" stroke="none"/><text fill="#000000" stroke="none" font-family="Arial" font-size="13px" font-style="normal" font-weight="normal" text-decoration="none" x="1110.5" y="467.5">+searchPeriod</text></g></g><g transform="translate(-118,-30) scale(1,1)"><g><path fill="none" stroke="none"/><text fill="#000000" stroke="none" font-family="Arial" font-size="13px" font-style="normal" font-weight="normal" text-decoration="none" x="1076.5" y="495.5">1</text></g></g><g transform="translate(-118,-30) scale(1,1)"><g><path fill="none" stroke="none"/><text fill="#000000" stroke="none" font-family="Arial" font-size="13px" font-style="normal" font-weight="normal" text-decoration="none" x="1221.5" y="494.5">1</text></g></g><g transform="translate(-118,-30) scale(1,1)"><path fill="none" stroke="#000000" d="M 759 137 L 573 139" stroke-miterlimit="10"/></g><g transform="translate(-118,-30) scale(1,1)"><g><path fill="none" stroke="none"/><text fill="#000000" stroke="none" font-family="Arial" font-size="13px" font-style="normal" font-weight="normal" text-decoration="none" x="615.5" y="158.5">-delayDistribution</text></g></g></g></svg>