<svg version="1.1" xmlns="http://www.w3.org/2000/svg" xmlns:xlink="http://www.w3.org/1999/xlink" width="101" height="107"><defs/><g><g transform="translate(-174,-118) scale(1,1)"><rect fill="#C0C0C0" stroke="none" x="191" y="135" width="81" height="87" opacity="0.2"/></g><g transform="translate(-174,-118) scale(1,1)"><rect fill="#ffffff" stroke="none" x="184" y="128" width="81" height="87"/></g><g transform="translate(-174,-118) scale(1,1)"><path fill="none" stroke="#000000" d="M 184 128 L 265 128 L 265 215 L 184 215 L 184 128 Z Z" stroke-miterlimit="10"/></g><g transform="translate(-174,-118) scale(1,1)"><path fill="none" stroke="#000000" d="M 184 153 L 265 153" stroke-miterlimit="10"/></g><g transform="translate(-174,-118) scale(1,1)"><path fill="none" stroke="#000000" d="M 184 206 L 265 206" stroke-miterlimit="10"/></g><g transform="translate(-174,-118) scale(1,1)"><g><path fill="none" stroke="none"/><text fill="#000000" stroke="none" font-family="Arial" font-size="13px" font-style="normal" font-weight="bold" text-decoration="none" x="208" y="147.5">Delay</text></g></g><g transform="translate(-174,-118) scale(1,1)"><g><path fill="none" stroke="none"/><text fill="#000000" stroke="none" font-family="Arial" font-size="13px" font-style="normal" font-weight="normal" text-decoration="none" x="189" y="170.5">-id: int</text></g></g><g transform="translate(-174,-118) scale(1,1)"><g><path fill="none" stroke="none"/><text fill="#000000" stroke="none" font-family="Arial" font-size="13px" font-style="normal" font-weight="normal" text-decoration="none" x="189" y="185.5">-duration: int</text></g></g><g transform="translate(-174,-118) scale(1,1)"><g><path fill="none" stroke="none"/><text fill="#000000" stroke="none" font-family="Arial" font-size="13px" font-style="normal" font-weight="normal" text-decoration="none" x="189" y="200.5">-date: Date</text></g></g></g></svg>