<svg version="1.1" xmlns="http://www.w3.org/2000/svg" xmlns:xlink="http://www.w3.org/1999/xlink" width="1085" height="444"><defs/><g><g transform="translate(-198,-94) scale(1,1)"><rect fill="#C0C0C0" stroke="none" x="215" y="343" width="208" height="192" opacity="0.2"/></g><g transform="translate(-198,-94) scale(1,1)"><rect fill="#ffffff" stroke="none" x="208" y="336" width="208" height="192"/></g><g transform="translate(-198,-94) scale(1,1)"><path fill="none" stroke="#000000" d="M 208 336 L 416 336 L 416 528 L 208 528 L 208 336 Z Z" stroke-miterlimit="10"/></g><g transform="translate(-198,-94) scale(1,1)"><path fill="none" stroke="#000000" d="M 208 361 L 416 361" stroke-miterlimit="10"/></g><g transform="translate(-198,-94) scale(1,1)"><path fill="none" stroke="#000000" d="M 208 519 L 416 519" stroke-miterlimit="10"/></g><g transform="translate(-198,-94) scale(1,1)"><g><path fill="none" stroke="none"/><text fill="#000000" stroke="none" font-family="Arial" font-size="13px" font-style="normal" font-weight="bold" text-decoration="none" x="260" y="355.5">delay-analysis.jsp</text></g></g><g transform="translate(-198,-94) scale(1,1)"><g><path fill="none" stroke="none"/><text fill="#000000" stroke="none" font-family="Arial" font-size="13px" font-style="normal" font-weight="normal" text-decoration="none" x="213" y="378.5">+filtered: boolean</text></g></g><g transform="translate(-198,-94) scale(1,1)"><g><path fill="none" stroke="none"/><text fill="#000000" stroke="none" font-family="Arial" font-size="13px" font-style="normal" font-weight="normal" text-decoration="none" x="213" y="393.5">+searchPeriod: SearchPeriod</text></g></g><g transform="translate(-198,-94) scale(1,1)"><g><path fill="none" stroke="none"/><text fill="#000000" stroke="none" font-family="Arial" font-size="13px" font-style="normal" font-weight="normal" text-decoration="none" x="213" y="408.5">+delayNumber: int</text></g></g><g transform="translate(-198,-94) scale(1,1)"><g><path fill="none" stroke="none"/><text fill="#000000" stroke="none" font-family="Arial" font-size="13px" font-style="normal" font-weight="normal" text-decoration="none" x="213" y="423.5">+resultDate: String</text></g></g><g transform="translate(-198,-94) scale(1,1)"><g><path fill="none" stroke="none"/><text fill="#000000" stroke="none" font-family="Arial" font-size="13px" font-style="normal" font-weight="normal" text-decoration="none" x="213" y="438.5">+cleanDelayNumber: int</text></g></g><g transform="translate(-198,-94) scale(1,1)"><g><path fill="none" stroke="none"/><text fill="#000000" stroke="none" font-family="Arial" font-size="13px" font-style="normal" font-weight="normal" text-decoration="none" x="213" y="453.5">+cleanResultDate: String</text></g></g><g transform="translate(-198,-94) scale(1,1)"><g><path fill="none" stroke="none"/><text fill="#000000" stroke="none" font-family="Arial" font-size="13px" font-style="normal" font-weight="normal" text-decoration="none" x="213" y="468.5">+delayDistributionLabels: String[4]</text></g></g><g transform="translate(-198,-94) scale(1,1)"><g><path fill="none" stroke="none"/><text fill="#000000" stroke="none" font-family="Arial" font-size="13px" font-style="normal" font-weight="normal" text-decoration="none" x="213" y="483.5">+delayDistribution: int[4]</text></g></g><g transform="translate(-198,-94) scale(1,1)"><g><path fill="none" stroke="none"/><text fill="#000000" stroke="none" font-family="Arial" font-size="13px" font-style="normal" font-weight="normal" text-decoration="none" x="213" y="498.5">+cleanDelayDistributionLabels[4]</text></g></g><g transform="translate(-198,-94) scale(1,1)"><g><path fill="none" stroke="none"/><text fill="#000000" stroke="none" font-family="Arial" font-size="13px" font-style="normal" font-weight="normal" text-decoration="none" x="213" y="513.5">+cleanDelayDistribution[4]</text></g></g><g transform="translate(-198,-94) scale(1,1)"><rect fill="#C0C0C0" stroke="none" x="583" y="415" width="173" height="57" opacity="0.2"/></g><g transform="translate(-198,-94) scale(1,1)"><rect fill="#ffffff" stroke="none" x="576" y="408" width="173" height="57"/></g><g transform="translate(-198,-94) scale(1,1)"><path fill="none" stroke="#000000" d="M 576 408 L 749 408 L 749 465 L 576 465 L 576 408 Z Z" stroke-miterlimit="10"/></g><g transform="translate(-198,-94) scale(1,1)"><path fill="none" stroke="#000000" d="M 576 433 L 749 433" stroke-miterlimit="10"/></g><g transform="translate(-198,-94) scale(1,1)"><path fill="none" stroke="#000000" d="M 576 456 L 749 456" stroke-miterlimit="10"/></g><g transform="translate(-198,-94) scale(1,1)"><g><path fill="none" stroke="none"/><text fill="#000000" stroke="none" font-family="Arial" font-size="13px" font-style="normal" font-weight="bold" text-decoration="none" x="618.5" y="427.5">DelayController</text></g></g><g transform="translate(-198,-94) scale(1,1)"><g><path fill="none" stroke="none"/><text fill="#000000" stroke="none" font-family="Arial" font-size="13px" font-style="normal" font-weight="normal" text-decoration="none" x="581" y="450.5">-DelayService delayService;</text></g></g><g transform="translate(-198,-94) scale(1,1)"><rect fill="#C0C0C0" stroke="none" x="1143" y="295" width="81" height="87" opacity="0.2"/></g><g transform="translate(-198,-94) scale(1,1)"><rect fill="#ffffff" stroke="none" x="1136" y="288" width="81" height="87"/></g><g transform="translate(-198,-94) scale(1,1)"><path fill="none" stroke="#000000" d="M 1136 288 L 1217 288 L 1217 375 L 1136 375 L 1136 288 Z Z" stroke-miterlimit="10"/></g><g transform="translate(-198,-94) scale(1,1)"><path fill="none" stroke="#000000" d="M 1136 313 L 1217 313" stroke-miterlimit="10"/></g><g transform="translate(-198,-94) scale(1,1)"><path fill="none" stroke="#000000" d="M 1136 366 L 1217 366" stroke-miterlimit="10"/></g><g transform="translate(-198,-94) scale(1,1)"><g><path fill="none" stroke="none"/><text fill="#000000" stroke="none" font-family="Arial" font-size="13px" font-style="normal" font-weight="bold" text-decoration="none" x="1160" y="307.5">Delay</text></g></g><g transform="translate(-198,-94) scale(1,1)"><g><path fill="none" stroke="none"/><text fill="#000000" stroke="none" font-family="Arial" font-size="13px" font-style="normal" font-weight="normal" text-decoration="none" x="1141" y="330.5">-id: int</text></g></g><g transform="translate(-198,-94) scale(1,1)"><g><path fill="none" stroke="none"/><text fill="#000000" stroke="none" font-family="Arial" font-size="13px" font-style="normal" font-weight="normal" text-decoration="none" x="1141" y="345.5">-duration: int</text></g></g><g transform="translate(-198,-94) scale(1,1)"><g><path fill="none" stroke="none"/><text fill="#000000" stroke="none" font-family="Arial" font-size="13px" font-style="normal" font-weight="normal" text-decoration="none" x="1141" y="360.5">-date: Date</text></g></g><g transform="translate(-198,-94) scale(1,1)"><rect fill="#C0C0C0" stroke="none" x="751" y="119" width="141" height="57" opacity="0.2"/></g><g transform="translate(-198,-94) scale(1,1)"><rect fill="#ffffff" stroke="none" x="744" y="112" width="141" height="57"/></g><g transform="translate(-198,-94) scale(1,1)"><path fill="none" stroke="#000000" d="M 744 112 L 885 112 L 885 169 L 744 169 L 744 112 Z Z" stroke-miterlimit="10"/></g><g transform="translate(-198,-94) scale(1,1)"><path fill="none" stroke="#000000" d="M 744 137 L 885 137" stroke-miterlimit="10"/></g><g transform="translate(-198,-94) scale(1,1)"><path fill="none" stroke="#000000" d="M 744 160 L 885 160" stroke-miterlimit="10"/></g><g transform="translate(-198,-94) scale(1,1)"><g><path fill="none" stroke="none"/><text fill="#000000" stroke="none" font-family="Arial" font-size="13px" font-style="normal" font-weight="bold" text-decoration="none" x="763.5" y="131.5">DelayServiceImpl</text></g></g><g transform="translate(-198,-94) scale(1,1)"><g><path fill="none" stroke="none"/><text fill="#000000" stroke="none" font-family="Arial" font-size="13px" font-style="normal" font-weight="normal" text-decoration="none" x="749" y="154.5">-DelayDAO delayDAO;</text></g></g><g transform="translate(-198,-94) scale(1,1)"><rect fill="#C0C0C0" stroke="none" x="1079" y="119" width="201" height="57" opacity="0.2"/></g><g transform="translate(-198,-94) scale(1,1)"><rect fill="#ffffff" stroke="none" x="1072" y="112" width="201" height="57"/></g><g transform="translate(-198,-94) scale(1,1)"><path fill="none" stroke="#000000" d="M 1072 112 L 1273 112 L 1273 169 L 1072 169 L 1072 112 Z Z" stroke-miterlimit="10"/></g><g transform="translate(-198,-94) scale(1,1)"><path fill="none" stroke="#000000" d="M 1072 137 L 1273 137" stroke-miterlimit="10"/></g><g transform="translate(-198,-94) scale(1,1)"><path fill="none" stroke="#000000" d="M 1072 160 L 1273 160" stroke-miterlimit="10"/></g><g transform="translate(-198,-94) scale(1,1)"><g><path fill="none" stroke="none"/><text fill="#000000" stroke="none" font-family="Arial" font-size="13px" font-style="normal" font-weight="bold" text-decoration="none" x="1129.5" y="131.5">DelayDAOImpl</text></g></g><g transform="translate(-198,-94) scale(1,1)"><g><path fill="none" stroke="none"/><text fill="#000000" stroke="none" font-family="Arial" font-size="13px" font-style="normal" font-weight="normal" text-decoration="none" x="1077" y="154.5">-SessionFactory: sessionFactory</text></g></g><g transform="translate(-198,-94) scale(1,1)"><path fill="none" stroke="#000000" d="M 417 433 L 575 435" stroke-miterlimit="10"/></g><g transform="translate(-198,-94) scale(1,1)"><g><path fill="none" stroke="none"/><text fill="#000000" stroke="none" font-family="Arial" font-size="13px" font-style="normal" font-weight="normal" text-decoration="none" x="434.5" y="451.5">1</text></g></g><g transform="translate(-198,-94) scale(1,1)"><g><path fill="none" stroke="none"/><text fill="#000000" stroke="none" font-family="Arial" font-size="13px" font-style="normal" font-weight="normal" text-decoration="none" x="549.5" y="453.5">1</text></g></g><g transform="translate(-198,-94) scale(1,1)"><path fill="none" stroke="#000000" d="M 677 407 L 799 170" stroke-miterlimit="10"/></g><g transform="translate(-198,-94) scale(1,1)"><g><path fill="none" stroke="none"/><text fill="#000000" stroke="none" font-family="Arial" font-size="13px" font-style="normal" font-weight="normal" text-decoration="none" x="654.5" y="291.5">-delayService</text></g></g><g transform="translate(-198,-94) scale(1,1)"><g><path fill="none" stroke="none"/><text fill="#000000" stroke="none" font-family="Arial" font-size="13px" font-style="normal" font-weight="normal" text-decoration="none" x="694.5" y="399.5">1</text></g></g><g transform="translate(-198,-94) scale(1,1)"><g><path fill="none" stroke="none"/><text fill="#000000" stroke="none" font-family="Arial" font-size="13px" font-style="normal" font-weight="normal" text-decoration="none" x="796.5" y="200.5">1</text></g></g><g transform="translate(-198,-94) scale(1,1)"><path fill="none" stroke="#000000" d="M 886 140 L 1071 140" stroke-miterlimit="10"/></g><g transform="translate(-198,-94) scale(1,1)"><g><path fill="none" stroke="none"/><text fill="#000000" stroke="none" font-family="Arial" font-size="13px" font-style="normal" font-weight="normal" text-decoration="none" x="946.5" y="131.5">-delayDAO</text></g></g><g transform="translate(-198,-94) scale(1,1)"><g><path fill="none" stroke="none"/><text fill="#000000" stroke="none" font-family="Arial" font-size="13px" font-style="normal" font-weight="normal" text-decoration="none" x="903.5" y="158.5">1</text></g></g><g transform="translate(-198,-94) scale(1,1)"><g><path fill="none" stroke="none"/><text fill="#000000" stroke="none" font-family="Arial" font-size="13px" font-style="normal" font-weight="normal" text-decoration="none" x="1045.5" y="158.5">1</text></g></g><g transform="translate(-198,-94) scale(1,1)"><path fill="none" stroke="#000000" d="M 1173 170 L 1175 287" stroke-miterlimit="10"/></g><g transform="translate(-198,-94) scale(1,1)"><g><path fill="none" stroke="none"/><text fill="#000000" stroke="none" font-family="Arial" font-size="13px" font-style="normal" font-weight="normal" text-decoration="none" x="1184.5" y="231.5">-delays</text></g></g><g transform="translate(-198,-94) scale(1,1)"><g><path fill="none" stroke="none"/><text fill="#000000" stroke="none" font-family="Arial" font-size="13px" font-style="normal" font-weight="normal" text-decoration="none" x="1156.5" y="197.5">1</text></g></g><g transform="translate(-198,-94) scale(1,1)"><g><path fill="none" stroke="none"/><text fill="#000000" stroke="none" font-family="Arial" font-size="13px" font-style="normal" font-weight="normal" text-decoration="none" x="1151.5" y="271.5">0..*</text></g></g><g transform="translate(-198,-94) scale(1,1)"><rect fill="#C0C0C0" stroke="none" x="463" y="111" width="116" height="72" opacity="0.2"/></g><g transform="translate(-198,-94) scale(1,1)"><rect fill="#ffffff" stroke="none" x="456" y="104" width="116" height="72"/></g><g transform="translate(-198,-94) scale(1,1)"><path fill="none" stroke="#000000" d="M 456 104 L 572 104 L 572 176 L 456 176 L 456 104 Z Z" stroke-miterlimit="10"/></g><g transform="translate(-198,-94) scale(1,1)"><path fill="none" stroke="#000000" d="M 456 129 L 572 129" stroke-miterlimit="10"/></g><g transform="translate(-198,-94) scale(1,1)"><path fill="none" stroke="#000000" d="M 456 167 L 572 167" stroke-miterlimit="10"/></g><g transform="translate(-198,-94) scale(1,1)"><g><path fill="none" stroke="none"/><text fill="#000000" stroke="none" font-family="Arial" font-size="13px" font-style="normal" font-weight="bold" text-decoration="none" x="465" y="123.5">DelayDistribution</text></g></g><g transform="translate(-198,-94) scale(1,1)"><g><path fill="none" stroke="none"/><text fill="#000000" stroke="none" font-family="Arial" font-size="13px" font-style="normal" font-weight="normal" text-decoration="none" x="461" y="146.5">-int[] values</text></g></g><g transform="translate(-198,-94) scale(1,1)"><g><path fill="none" stroke="none"/><text fill="#000000" stroke="none" font-family="Arial" font-size="13px" font-style="normal" font-weight="normal" text-decoration="none" x="461" y="161.5">-String[] labels</text></g></g><g transform="translate(-198,-94) scale(1,1)"><path fill="none" stroke="#000000" d="M 648 407 L 533 177" stroke-miterlimit="10"/></g><g transform="translate(-198,-94) scale(1,1)"><g><path fill="none" stroke="none"/><text fill="#000000" stroke="none" font-family="Arial" font-size="13px" font-style="normal" font-weight="normal" text-decoration="none" x="472.5" y="296.5">-delayDistribution</text></g></g><g transform="translate(-198,-94) scale(1,1)"><g><path fill="none" stroke="none"/><text fill="#000000" stroke="none" font-family="Arial" font-size="13px" font-style="normal" font-weight="normal" text-decoration="none" x="645.5" y="388.5">1</text></g></g><g transform="translate(-198,-94) scale(1,1)"><g><path fill="none" stroke="none"/><text fill="#000000" stroke="none" font-family="Arial" font-size="13px" font-style="normal" font-weight="normal" text-decoration="none" x="549.5" y="196.5">1</text></g></g><g transform="translate(-198,-94) scale(1,1)"><rect fill="#C0C0C0" stroke="none" x="927" y="391" width="138" height="102" opacity="0.2"/></g><g transform="translate(-198,-94) scale(1,1)"><rect fill="#ffffff" stroke="none" x="920" y="384" width="138" height="102"/></g><g transform="translate(-198,-94) scale(1,1)"><path fill="none" stroke="#000000" d="M 920 384 L 1058 384 L 1058 486 L 920 486 L 920 384 Z Z" stroke-miterlimit="10"/></g><g transform="translate(-198,-94) scale(1,1)"><path fill="none" stroke="#000000" d="M 920 409 L 1058 409" stroke-miterlimit="10"/></g><g transform="translate(-198,-94) scale(1,1)"><path fill="none" stroke="#000000" d="M 920 477 L 1058 477" stroke-miterlimit="10"/></g><g transform="translate(-198,-94) scale(1,1)"><g><path fill="none" stroke="none"/><text fill="#000000" stroke="none" font-family="Arial" font-size="13px" font-style="normal" font-weight="bold" text-decoration="none" x="950" y="403.5">SearchPeriod</text></g></g><g transform="translate(-198,-94) scale(1,1)"><g><path fill="none" stroke="none"/><text fill="#000000" stroke="none" font-family="Arial" font-size="13px" font-style="normal" font-weight="normal" text-decoration="none" x="925" y="426.5">-Date startDate</text></g></g><g transform="translate(-198,-94) scale(1,1)"><g><path fill="none" stroke="none"/><text fill="#000000" stroke="none" font-family="Arial" font-size="13px" font-style="normal" font-weight="normal" text-decoration="none" x="925" y="441.5">-String startDateString</text></g></g><g transform="translate(-198,-94) scale(1,1)"><g><path fill="none" stroke="none"/><text fill="#000000" stroke="none" font-family="Arial" font-size="13px" font-style="normal" font-weight="normal" text-decoration="none" x="925" y="456.5">-Date endDate</text></g></g><g transform="translate(-198,-94) scale(1,1)"><g><path fill="none" stroke="none"/><text fill="#000000" stroke="none" font-family="Arial" font-size="13px" font-style="normal" font-weight="normal" text-decoration="none" x="925" y="471.5">-String endDateString</text></g></g><g transform="translate(-198,-94) scale(1,1)"><path fill="none" stroke="#000000" d="M 750 436 L 919 435" stroke-miterlimit="10"/></g><g transform="translate(-198,-94) scale(1,1)"><g><path fill="none" stroke="none"/><text fill="#000000" stroke="none" font-family="Arial" font-size="13px" font-style="normal" font-weight="normal" text-decoration="none" x="791.5" y="426.5">+searchPeriod</text></g></g><g transform="translate(-198,-94) scale(1,1)"><g><path fill="none" stroke="none"/><text fill="#000000" stroke="none" font-family="Arial" font-size="13px" font-style="normal" font-weight="normal" text-decoration="none" x="767.5" y="454.5">1</text></g></g><g transform="translate(-198,-94) scale(1,1)"><g><path fill="none" stroke="none"/><text fill="#000000" stroke="none" font-family="Arial" font-size="13px" font-style="normal" font-weight="normal" text-decoration="none" x="893.5" y="453.5">1</text></g></g><g transform="translate(-198,-94) scale(1,1)"><path fill="none" stroke="#000000" d="M 743 140 L 573 140" stroke-miterlimit="10"/></g><g transform="translate(-198,-94) scale(1,1)"><g><path fill="none" stroke="none"/><text fill="#000000" stroke="none" font-family="Arial" font-size="13px" font-style="normal" font-weight="normal" text-decoration="none" x="606.5" y="161.5">-delayDistribution</text></g></g></g></svg>