<svg version="1.1" xmlns="http://www.w3.org/2000/svg" xmlns:xlink="http://www.w3.org/1999/xlink" width="1286" height="556"><defs/><g><g transform="translate(-334,-22) scale(1,1)"><rect fill="#C0C0C0" stroke="none" x="1407" y="271" width="81.26171875" height="87" opacity="0.2"/></g><g transform="translate(-334,-22) scale(1,1)"><rect fill="#ffffff" stroke="none" x="1400" y="264" width="81.26171875" height="87"/></g><g transform="translate(-334,-22) scale(1,1)"><path fill="none" stroke="#000000" d="M 1400 264 L 1481.26171875 264 L 1481.26171875 351 L 1400 351 L 1400 264 Z Z" stroke-miterlimit="10"/></g><g transform="translate(-334,-22) scale(1,1)"><path fill="none" stroke="#000000" d="M 1400 289 L 1481.26171875 289" stroke-miterlimit="10"/></g><g transform="translate(-334,-22) scale(1,1)"><path fill="none" stroke="#000000" d="M 1400 342 L 1481.26171875 342" stroke-miterlimit="10"/></g><g transform="translate(-334,-22) scale(1,1)"><g><path fill="none" stroke="none"/><text fill="#000000" stroke="none" font-family="Arial" font-size="13px" font-style="normal" font-weight="bold" text-decoration="none" x="1424.0126953125" y="283.5">Delay</text></g></g><g transform="translate(-334,-22) scale(1,1)"><g><path fill="none" stroke="none"/><text fill="#000000" stroke="none" font-family="Arial" font-size="13px" font-style="normal" font-weight="normal" text-decoration="none" x="1405" y="306.5">-id: int</text></g></g><g transform="translate(-334,-22) scale(1,1)"><g><path fill="none" stroke="none"/><text fill="#000000" stroke="none" font-family="Arial" font-size="13px" font-style="normal" font-weight="normal" text-decoration="none" x="1405" y="321.5">-duration: int</text></g></g><g transform="translate(-334,-22) scale(1,1)"><g><path fill="none" stroke="none"/><text fill="#000000" stroke="none" font-family="Arial" font-size="13px" font-style="normal" font-weight="normal" text-decoration="none" x="1405" y="336.5">-date: Date</text></g></g><g transform="translate(-334,-22) scale(1,1)"><rect fill="#C0C0C0" stroke="none" x="687" y="287" width="497" height="130" opacity="0.2"/></g><g transform="translate(-334,-22) scale(1,1)"><rect fill="#ffffff" stroke="none" x="680" y="280" width="497" height="130"/></g><g transform="translate(-334,-22) scale(1,1)"><path fill="none" stroke="#000000" d="M 680 280 L 1177 280 L 1177 410 L 680 410 L 680 280 Z Z" stroke-miterlimit="10"/></g><g transform="translate(-334,-22) scale(1,1)"><path fill="none" stroke="#000000" d="M 680 305 L 1177 305" stroke-miterlimit="10"/></g><g transform="translate(-334,-22) scale(1,1)"><path fill="none" stroke="#000000" d="M 680 315 L 1177 315" stroke-miterlimit="10"/></g><g transform="translate(-334,-22) scale(1,1)"><g><path fill="none" stroke="none"/><text fill="#000000" stroke="none" font-family="Arial" font-size="13px" font-style="normal" font-weight="bold" text-decoration="none" x="883.70458984375" y="299.5">DelayController</text></g></g><g transform="translate(-334,-22) scale(1,1)"><g><path fill="none" stroke="none"/><text fill="#000000" stroke="none" font-family="Arial" font-size="13px" font-style="normal" font-weight="normal" text-decoration="none" x="685" y="332.5">+ModelAndView showDelayNumber()</text></g></g><g transform="translate(-334,-22) scale(1,1)"><g><path fill="none" stroke="none"/><text fill="#000000" stroke="none" font-family="Arial" font-size="13px" font-style="normal" font-weight="normal" text-decoration="none" x="685" y="347.5">+String filterByDate(@ModelAttribute SearchPeriod searchPeriod, ModelMap model)</text></g></g><g transform="translate(-334,-22) scale(1,1)"><g><path fill="none" stroke="none"/><text fill="#000000" stroke="none" font-family="Arial" font-size="13px" font-style="normal" font-weight="normal" text-decoration="none" x="685" y="362.5">+String excludeAtypicalDelays(ModelMap model)</text></g></g><g transform="translate(-334,-22) scale(1,1)"><g><path fill="none" stroke="none"/><text fill="#000000" stroke="none" font-family="Arial" font-size="13px" font-style="normal" font-weight="normal" text-decoration="none" x="685" y="377.5">-Date getPreviousYearDate(Date date)</text></g></g><g transform="translate(-334,-22) scale(1,1)"><g><path fill="none" stroke="none"/><text fill="#000000" stroke="none" font-family="Arial" font-size="13px" font-style="normal" font-weight="normal" text-decoration="none" x="685" y="392.5">-String getResultDateString(Date dateStart, Date dateEnd)</text></g></g><g transform="translate(-334,-22) scale(1,1)"><path fill="none" stroke="#000000" d="M 1438 171 L 1439 263" stroke-miterlimit="10"/></g><g transform="translate(-334,-22) scale(1,1)"><g><path fill="none" stroke="none"/><text fill="#000000" stroke="none" font-family="Arial" font-size="13px" font-style="normal" font-weight="normal" text-decoration="none" x="1438.04638671875" y="222.5">-delays</text></g></g><g transform="translate(-334,-22) scale(1,1)"><g><path fill="none" stroke="none"/><text fill="#000000" stroke="none" font-family="Arial" font-size="13px" font-style="normal" font-weight="normal" text-decoration="none" x="1420.885009765625" y="198.5">1</text></g></g><g transform="translate(-334,-22) scale(1,1)"><g><path fill="none" stroke="none"/><text fill="#000000" stroke="none" font-family="Arial" font-size="13px" font-style="normal" font-weight="normal" text-decoration="none" x="1415.74365234375" y="247.5">0..*</text></g></g><g transform="translate(-334,-22) scale(1,1)"><rect fill="#C0C0C0" stroke="none" x="351" y="255" width="206.640625" height="192" opacity="0.2"/></g><g transform="translate(-334,-22) scale(1,1)"><rect fill="#ffffff" stroke="none" x="344" y="248" width="206.640625" height="192"/></g><g transform="translate(-334,-22) scale(1,1)"><path fill="none" stroke="#000000" d="M 344 248 L 550.640625 248 L 550.640625 440 L 344 440 L 344 248 Z Z" stroke-miterlimit="10"/></g><g transform="translate(-334,-22) scale(1,1)"><path fill="none" stroke="#000000" d="M 344 273 L 550.640625 273" stroke-miterlimit="10"/></g><g transform="translate(-334,-22) scale(1,1)"><path fill="none" stroke="#000000" d="M 344 431 L 550.640625 431" stroke-miterlimit="10"/></g><g transform="translate(-334,-22) scale(1,1)"><g><path fill="none" stroke="none"/><text fill="#000000" stroke="none" font-family="Arial" font-size="13px" font-style="normal" font-weight="bold" text-decoration="none" x="396.0185546875" y="267.5">delay-analysis.jsp</text></g></g><g transform="translate(-334,-22) scale(1,1)"><g><path fill="none" stroke="none"/><text fill="#000000" stroke="none" font-family="Arial" font-size="13px" font-style="normal" font-weight="normal" text-decoration="none" x="349" y="290.5">+filtered: boolean</text></g></g><g transform="translate(-334,-22) scale(1,1)"><g><path fill="none" stroke="none"/><text fill="#000000" stroke="none" font-family="Arial" font-size="13px" font-style="normal" font-weight="normal" text-decoration="none" x="349" y="305.5">+searchPeriod: SearchPeriod</text></g></g><g transform="translate(-334,-22) scale(1,1)"><g><path fill="none" stroke="none"/><text fill="#000000" stroke="none" font-family="Arial" font-size="13px" font-style="normal" font-weight="normal" text-decoration="none" x="349" y="320.5">+delayNumber: int</text></g></g><g transform="translate(-334,-22) scale(1,1)"><g><path fill="none" stroke="none"/><text fill="#000000" stroke="none" font-family="Arial" font-size="13px" font-style="normal" font-weight="normal" text-decoration="none" x="349" y="335.5">+resultDate: String</text></g></g><g transform="translate(-334,-22) scale(1,1)"><g><path fill="none" stroke="none"/><text fill="#000000" stroke="none" font-family="Arial" font-size="13px" font-style="normal" font-weight="normal" text-decoration="none" x="349" y="350.5">+cleanDelayNumber: int</text></g></g><g transform="translate(-334,-22) scale(1,1)"><g><path fill="none" stroke="none"/><text fill="#000000" stroke="none" font-family="Arial" font-size="13px" font-style="normal" font-weight="normal" text-decoration="none" x="349" y="365.5">+cleanResultDate: String</text></g></g><g transform="translate(-334,-22) scale(1,1)"><g><path fill="none" stroke="none"/><text fill="#000000" stroke="none" font-family="Arial" font-size="13px" font-style="normal" font-weight="normal" text-decoration="none" x="349" y="380.5">+delayDistributionLabels: String[4]</text></g></g><g transform="translate(-334,-22) scale(1,1)"><g><path fill="none" stroke="none"/><text fill="#000000" stroke="none" font-family="Arial" font-size="13px" font-style="normal" font-weight="normal" text-decoration="none" x="349" y="395.5">+delayDistribution: int[4]</text></g></g><g transform="translate(-334,-22) scale(1,1)"><g><path fill="none" stroke="none"/><text fill="#000000" stroke="none" font-family="Arial" font-size="13px" font-style="normal" font-weight="normal" text-decoration="none" x="349" y="410.5">+cleanDelayDistributionLabels[4]</text></g></g><g transform="translate(-334,-22) scale(1,1)"><g><path fill="none" stroke="none"/><text fill="#000000" stroke="none" font-family="Arial" font-size="13px" font-style="normal" font-weight="normal" text-decoration="none" x="349" y="425.5">+cleanDelayDistribution[4]</text></g></g><g transform="translate(-334,-22) scale(1,1)"><path fill="none" stroke="#000000" d="M 552 344 L 679 344" stroke-miterlimit="10"/></g><g transform="translate(-334,-22) scale(1,1)"><g><path fill="none" stroke="none"/><text fill="#000000" stroke="none" font-family="Arial" font-size="13px" font-style="normal" font-weight="normal" text-decoration="none" x="568.885009765625" y="362.5">1</text></g></g><g transform="translate(-334,-22) scale(1,1)"><g><path fill="none" stroke="none"/><text fill="#000000" stroke="none" font-family="Arial" font-size="13px" font-style="normal" font-weight="normal" text-decoration="none" x="652.885009765625" y="362.5">1</text></g></g><g transform="translate(-334,-22) scale(1,1)"><rect fill="#C0C0C0" stroke="none" x="727" y="39" width="414.01220703125" height="145" opacity="0.2"/></g><g transform="translate(-334,-22) scale(1,1)"><rect fill="#ffffff" stroke="none" x="720" y="32" width="414.01220703125" height="145"/></g><g transform="translate(-334,-22) scale(1,1)"><path fill="none" stroke="#000000" d="M 720 32 L 1134.01220703125 32 L 1134.01220703125 177 L 720 177 L 720 32 Z Z" stroke-miterlimit="10"/></g><g transform="translate(-334,-22) scale(1,1)"><path fill="none" stroke="#000000" d="M 720 57 L 1134.01220703125 57" stroke-miterlimit="10"/></g><g transform="translate(-334,-22) scale(1,1)"><path fill="none" stroke="#000000" d="M 720 67 L 1134.01220703125 67" stroke-miterlimit="10"/></g><g transform="translate(-334,-22) scale(1,1)"><g><path fill="none" stroke="none"/><text fill="#000000" stroke="none" font-family="Arial" font-size="13px" font-style="normal" font-weight="bold" text-decoration="none" x="876.434326171875" y="51.5">DelayServiceImpl</text></g></g><g transform="translate(-334,-22) scale(1,1)"><g><path fill="none" stroke="none"/><text fill="#000000" stroke="none" font-family="Arial" font-size="13px" font-style="normal" font-weight="normal" text-decoration="none" x="725" y="84.5">+DelayDistribution getDelayDistribution(Date dateStart, Date dateEnd)</text></g></g><g transform="translate(-334,-22) scale(1,1)"><g><path fill="none" stroke="none"/><text fill="#000000" stroke="none" font-family="Arial" font-size="13px" font-style="normal" font-weight="normal" text-decoration="none" x="725" y="99.5">+int getDelayNumber(Date dateStart, Date dateEnd)</text></g></g><g transform="translate(-334,-22) scale(1,1)"><g><path fill="none" stroke="none"/><text fill="#000000" stroke="none" font-family="Arial" font-size="13px" font-style="normal" font-weight="normal" text-decoration="none" x="725" y="114.5">-String[] getQuartileLabels(int[] quartiles)</text></g></g><g transform="translate(-334,-22) scale(1,1)"><g><path fill="none" stroke="none"/><text fill="#000000" stroke="none" font-family="Arial" font-size="13px" font-style="normal" font-weight="normal" text-decoration="none" x="725" y="129.5">-int[] getDelayValues(List&lt;Delay&gt; delays)()</text></g></g><g transform="translate(-334,-22) scale(1,1)"><g><path fill="none" stroke="none"/><text fill="#000000" stroke="none" font-family="Arial" font-size="13px" font-style="normal" font-weight="normal" text-decoration="none" x="725" y="144.5">-int getQuartile(int[] values, int lowerPercent)</text></g></g><g transform="translate(-334,-22) scale(1,1)"><g><path fill="none" stroke="none"/><text fill="#000000" stroke="none" font-family="Arial" font-size="13px" font-style="normal" font-weight="normal" text-decoration="none" x="725" y="159.5">-double getStandardDeviation(int[] values)</text></g></g><g transform="translate(-334,-22) scale(1,1)"><path fill="none" stroke="#000000" d="M 928 279 L 927 178" stroke-miterlimit="10"/></g><g transform="translate(-334,-22) scale(1,1)"><g><path fill="none" stroke="none"/><text fill="#000000" stroke="none" font-family="Arial" font-size="13px" font-style="normal" font-weight="normal" text-decoration="none" x="839.622314453125" y="244.5">-delayService</text></g></g><g transform="translate(-334,-22) scale(1,1)"><g><path fill="none" stroke="none"/><text fill="#000000" stroke="none" font-family="Arial" font-size="13px" font-style="normal" font-weight="normal" text-decoration="none" x="935.885009765625" y="263.5">1</text></g></g><g transform="translate(-334,-22) scale(1,1)"><g><path fill="none" stroke="none"/><text fill="#000000" stroke="none" font-family="Arial" font-size="13px" font-style="normal" font-weight="normal" text-decoration="none" x="934.885009765625" y="205.5">1</text></g></g><g transform="translate(-334,-22) scale(1,1)"><rect fill="#C0C0C0" stroke="none" x="1271" y="47" width="346" height="130" opacity="0.2"/></g><g transform="translate(-334,-22) scale(1,1)"><rect fill="#ffffff" stroke="none" x="1264" y="40" width="346" height="130"/></g><g transform="translate(-334,-22) scale(1,1)"><path fill="none" stroke="#000000" d="M 1264 40 L 1610 40 L 1610 170 L 1264 170 L 1264 40 Z Z" stroke-miterlimit="10"/></g><g transform="translate(-334,-22) scale(1,1)"><path fill="none" stroke="#000000" d="M 1264 65 L 1610 65" stroke-miterlimit="10"/></g><g transform="translate(-334,-22) scale(1,1)"><path fill="none" stroke="#000000" d="M 1264 88 L 1610 88" stroke-miterlimit="10"/></g><g transform="translate(-334,-22) scale(1,1)"><g><path fill="none" stroke="none"/><text fill="#000000" stroke="none" font-family="Arial" font-size="13px" font-style="normal" font-weight="bold" text-decoration="none" x="1394.016845703125" y="59.5">DelayDAOImpl</text></g></g><g transform="translate(-334,-22) scale(1,1)"><g><path fill="none" stroke="none"/><text fill="#000000" stroke="none" font-family="Arial" font-size="13px" font-style="normal" font-weight="normal" text-decoration="none" x="1269" y="82.5">-SessionFactory: sessionFactory</text></g></g><g transform="translate(-334,-22) scale(1,1)"><g><path fill="none" stroke="none"/><text fill="#000000" stroke="none" font-family="Arial" font-size="13px" font-style="normal" font-weight="normal" text-decoration="none" x="1269" y="105.5">-Session getCurrentSession()</text></g></g><g transform="translate(-334,-22) scale(1,1)"><g><path fill="none" stroke="none"/><text fill="#000000" stroke="none" font-family="Arial" font-size="13px" font-style="normal" font-weight="normal" text-decoration="none" x="1269" y="120.5">+List&lt;Delay&gt; findAll()()</text></g></g><g transform="translate(-334,-22) scale(1,1)"><g><path fill="none" stroke="none"/><text fill="#000000" stroke="none" font-family="Arial" font-size="13px" font-style="normal" font-weight="normal" text-decoration="none" x="1269" y="135.5">+int count()</text></g></g><g transform="translate(-334,-22) scale(1,1)"><g><path fill="none" stroke="none"/><text fill="#000000" stroke="none" font-family="Arial" font-size="13px" font-style="normal" font-weight="normal" text-decoration="none" x="1269" y="150.5">+List&lt;Delay&gt; filterByDate(Date dateStart, Date dateEnd)()</text></g></g><g transform="translate(-334,-22) scale(1,1)"><g><path fill="none" stroke="none"/><text fill="#000000" stroke="none" font-family="Arial" font-size="13px" font-style="normal" font-weight="normal" text-decoration="none" x="1269" y="165.5">+int countByDate(Date dateStart, Date dateEnd)</text></g></g><g transform="translate(-334,-22) scale(1,1)"><path fill="none" stroke="#000000" d="M 1263 105 L 1135 104" stroke-miterlimit="10"/></g><g transform="translate(-334,-22) scale(1,1)"><g><path fill="none" stroke="none"/><text fill="#000000" stroke="none" font-family="Arial" font-size="13px" font-style="normal" font-weight="normal" text-decoration="none" x="1153.2109375" y="132.5">-delayDAO</text></g></g><g transform="translate(-334,-22) scale(1,1)"><g><path fill="none" stroke="none"/><text fill="#000000" stroke="none" font-family="Arial" font-size="13px" font-style="normal" font-weight="normal" text-decoration="none" x="1236.885009765625" y="98.5">1</text></g></g><g transform="translate(-334,-22) scale(1,1)"><g><path fill="none" stroke="none"/><text fill="#000000" stroke="none" font-family="Arial" font-size="13px" font-style="normal" font-weight="normal" text-decoration="none" x="1151.885009765625" y="97.5">1</text></g></g><g transform="translate(-334,-22) scale(1,1)"><rect fill="#C0C0C0" stroke="none" x="879" y="503" width="116.62451171875" height="72" opacity="0.2"/></g><g transform="translate(-334,-22) scale(1,1)"><rect fill="#ffffff" stroke="none" x="872" y="496" width="116.62451171875" height="72"/></g><g transform="translate(-334,-22) scale(1,1)"><path fill="none" stroke="#000000" d="M 872 496 L 988.62451171875 496 L 988.62451171875 568 L 872 568 L 872 496 Z Z" stroke-miterlimit="10"/></g><g transform="translate(-334,-22) scale(1,1)"><path fill="none" stroke="#000000" d="M 872 521 L 988.62451171875 521" stroke-miterlimit="10"/></g><g transform="translate(-334,-22) scale(1,1)"><path fill="none" stroke="#000000" d="M 872 559 L 988.62451171875 559" stroke-miterlimit="10"/></g><g transform="translate(-334,-22) scale(1,1)"><g><path fill="none" stroke="none"/><text fill="#000000" stroke="none" font-family="Arial" font-size="13px" font-style="normal" font-weight="bold" text-decoration="none" x="881.181396484375" y="515.5">DelayDistribution</text></g></g><g transform="translate(-334,-22) scale(1,1)"><g><path fill="none" stroke="none"/><text fill="#000000" stroke="none" font-family="Arial" font-size="13px" font-style="normal" font-weight="normal" text-decoration="none" x="877" y="538.5">-int[] values</text></g></g><g transform="translate(-334,-22) scale(1,1)"><g><path fill="none" stroke="none"/><text fill="#000000" stroke="none" font-family="Arial" font-size="13px" font-style="normal" font-weight="normal" text-decoration="none" x="877" y="553.5">-String[] labels</text></g></g><g transform="translate(-334,-22) scale(1,1)"><path fill="none" stroke="#000000" d="M 929 411 L 930 495" stroke-miterlimit="10"/></g><g transform="translate(-334,-22) scale(1,1)"><g><path fill="none" stroke="none"/><text fill="#000000" stroke="none" font-family="Arial" font-size="13px" font-style="normal" font-weight="normal" text-decoration="none" x="936.28369140625" y="457.5">-delayDistribution</text></g></g><g transform="translate(-334,-22) scale(1,1)"><g><path fill="none" stroke="none"/><text fill="#000000" stroke="none" font-family="Arial" font-size="13px" font-style="normal" font-weight="normal" text-decoration="none" x="911.885009765625" y="438.5">1</text></g></g><g transform="translate(-334,-22) scale(1,1)"><g><path fill="none" stroke="none"/><text fill="#000000" stroke="none" font-family="Arial" font-size="13px" font-style="normal" font-weight="normal" text-decoration="none" x="887.5" y="478.5">1..2</text></g></g></g></svg>