<svg version="1.1" xmlns="http://www.w3.org/2000/svg" xmlns:xlink="http://www.w3.org/1999/xlink" width="1362.548828125" height="702"><defs/><g><g transform="translate(-54,-53) scale(1,1)"><path fill="#C0C0C0" stroke="none" d="M 71 91 C 71 84.3725824 77.0441552 79 84.5 79 C 91.9558448 79 98 84.3725824 98 91 C 98 97.6274176 91.9558448 103 84.5 103 C 77.0441552 103 71 97.6274176 71 91 Z" opacity="0.2"/></g><g transform="translate(-54,-53) scale(1,1)"><path fill="#000000" stroke="none" d="M 64 84 C 64 77.3725824 70.0441552 72 77.5 72 C 84.9558448 72 91 77.3725824 91 84 C 91 90.6274176 84.9558448 96 77.5 96 C 70.0441552 96 64 90.6274176 64 84 Z"/></g><g transform="translate(-54,-53) scale(1,1)"><path fill="#C0C0C0" stroke="none" d="M 185 71 L 376.52197265625 71 Q 386.52197265625 71 386.52197265625 81 L 386.52197265625 101 Q 386.52197265625 111 376.52197265625 111 L 185 111 Q 175 111 175 101 L 175 81 Q 175 71 185 71 Z" opacity="0.2"/></g><g transform="translate(-54,-53) scale(1,1)"><path fill="#ffffff" stroke="none" d="M 178 64 L 369.52197265625 64 Q 379.52197265625 64 379.52197265625 74 L 379.52197265625 94 Q 379.52197265625 104 369.52197265625 104 L 178 104 Q 168 104 168 94 L 168 74 Q 168 64 178 64 Z"/></g><g transform="translate(-54,-53) scale(1,1)"><path fill="none" stroke="#000000" d="M 178 64 L 369.52197265625 64 Q 379.52197265625 64 379.52197265625 74 L 379.52197265625 94 Q 379.52197265625 104 369.52197265625 104 L 178 104 Q 168 104 168 94 L 168 74 Q 168 64 178 64 Z" stroke-miterlimit="10"/></g><g transform="translate(-54,-53) scale(1,1)"><g><path fill="none" stroke="none"/><text fill="#000000" stroke="none" font-family="Arial" font-size="13px" font-style="normal" font-weight="bold" text-decoration="none" x="182.28173828125" y="83.5">L'utilisateur clique sur "Retards"</text></g></g><g transform="translate(-54,-53) scale(1,1)"><path fill="none" stroke="#000000" d="M 92 84 L 167 84" stroke-miterlimit="10"/></g><g transform="translate(-54,-53) scale(1,1)"><path fill="none" stroke="#000000" d="M 156.83732514237585 88.20951775601598 L 167 84 L 156.83732514237585 79.79048224398402" stroke-miterlimit="10"/></g><g transform="translate(-54,-53) scale(1,1)"><path fill="#C0C0C0" stroke="none" d="M 481 71 L 649 71 Q 659 71 659 81 L 659 101 Q 659 111 649 111 L 481 111 Q 471 111 471 101 L 471 81 Q 471 71 481 71 Z" opacity="0.2"/></g><g transform="translate(-54,-53) scale(1,1)"><path fill="#ffffff" stroke="none" d="M 474 64 L 642 64 Q 652 64 652 74 L 652 94 Q 652 104 642 104 L 474 104 Q 464 104 464 94 L 464 74 Q 464 64 474 64 Z"/></g><g transform="translate(-54,-53) scale(1,1)"><path fill="none" stroke="#000000" d="M 474 64 L 642 64 Q 652 64 652 74 L 652 94 Q 652 104 642 104 L 474 104 Q 464 104 464 94 L 464 74 Q 464 64 474 64 Z" stroke-miterlimit="10"/></g><g transform="translate(-54,-53) scale(1,1)"><g><path fill="none" stroke="none"/><text fill="#000000" stroke="none" font-family="Arial" font-size="13px" font-style="normal" font-weight="bold" text-decoration="none" x="479.596923828125" y="83.5">s.u.d affiche les indicateurs</text></g></g><g transform="translate(-54,-53) scale(1,1)"><path fill="none" stroke="#000000" d="M 381 84 L 463 84" stroke-miterlimit="10"/></g><g transform="translate(-54,-53) scale(1,1)"><path fill="none" stroke="#000000" d="M 452.83732514237585 88.20951775601598 L 463 84 L 452.83732514237585 79.79048224398402" stroke-miterlimit="10"/></g><g transform="translate(-54,-53) scale(1,1)"><path fill="#C0C0C0" stroke="none" d="M 975 91.5 L 991.5 79 L 1007 91.5 L 991.5 103 L 975 91.5" opacity="0.2"/></g><g transform="translate(-54,-53) scale(1,1)"><path fill="#ffffff" stroke="none" d="M 968 84 L 984 72 L 1000 84 L 984 96 L 968 84"/></g><g transform="translate(-54,-53) scale(1,1)"><path fill="none" stroke="#000000" d="M 968 84 L 984 72 L 1000 84 L 984 96 L 968 84 L 968 84" stroke-miterlimit="10"/></g><g transform="translate(-54,-53) scale(1,1)"><path fill="none" stroke="#000000" d="M 653 84 L 967 84" stroke-miterlimit="10"/></g><g transform="translate(-54,-53) scale(1,1)"><path fill="none" stroke="#000000" d="M 956.8373251423759 88.20951775601598 L 967 84 L 956.8373251423758 79.79048224398402" stroke-miterlimit="10"/></g><g transform="translate(-54,-53) scale(1,1)"><g><path fill="none" stroke="none"/><text fill="#000000" stroke="none" font-family="Arial" font-size="13px" font-style="normal" font-weight="normal" text-decoration="none" x="737.5" y="75.5">Sélectionner une période</text></g></g><g transform="translate(-54,-53) scale(1,1)"><path fill="#C0C0C0" stroke="none" d="M 705 287 L 950 287 Q 960 287 960 297 L 960 317 Q 960 327 950 327 L 705 327 Q 695 327 695 317 L 695 297 Q 695 287 705 287 Z" opacity="0.2"/></g><g transform="translate(-54,-53) scale(1,1)"><path fill="#ffffff" stroke="none" d="M 698 280 L 943 280 Q 953 280 953 290 L 953 310 Q 953 320 943 320 L 698 320 Q 688 320 688 310 L 688 290 Q 688 280 698 280 Z"/></g><g transform="translate(-54,-53) scale(1,1)"><path fill="none" stroke="#000000" d="M 698 280 L 943 280 Q 953 280 953 290 L 953 310 Q 953 320 943 320 L 698 320 Q 688 320 688 310 L 688 290 Q 688 280 698 280 Z" stroke-miterlimit="10"/></g><g transform="translate(-54,-53) scale(1,1)"><g><path fill="none" stroke="none"/><text fill="#000000" stroke="none" font-family="Arial" font-size="13px" font-style="normal" font-weight="bold" text-decoration="none" x="702.70654296875" y="299.5">s.u.d affiche les indicateurs de la période</text></g></g><g transform="translate(-54,-53) scale(1,1)"><path fill="#C0C0C0" stroke="none" d="M 1081 287 L 1230 287 Q 1240 287 1240 297 L 1240 317 Q 1240 327 1230 327 L 1081 327 Q 1071 327 1071 317 L 1071 297 Q 1071 287 1081 287 Z" opacity="0.2"/></g><g transform="translate(-54,-53) scale(1,1)"><path fill="#ffffff" stroke="none" d="M 1074 280 L 1223 280 Q 1233 280 1233 290 L 1233 310 Q 1233 320 1223 320 L 1074 320 Q 1064 320 1064 310 L 1064 290 Q 1064 280 1074 280 Z"/></g><g transform="translate(-54,-53) scale(1,1)"><path fill="none" stroke="#000000" d="M 1074 280 L 1223 280 Q 1233 280 1233 290 L 1233 310 Q 1233 320 1223 320 L 1074 320 Q 1064 320 1064 310 L 1064 290 Q 1064 280 1074 280 Z" stroke-miterlimit="10"/></g><g transform="translate(-54,-53) scale(1,1)"><g><path fill="none" stroke="none"/><text fill="#000000" stroke="none" font-family="Arial" font-size="13px" font-style="normal" font-weight="bold" text-decoration="none" x="1074.267333984375" y="299.5">pas de changement d'ihm</text></g></g><g transform="translate(-54,-53) scale(1,1)"><path fill="none" stroke="#000000" d="M 974 97 L 836 279" stroke-miterlimit="10"/></g><g transform="translate(-54,-53) scale(1,1)"><path fill="none" stroke="#000000" d="M 838.7859374629077 268.3586395393837 L 836 279 L 845.4945334147358 273.4453771292315" stroke-miterlimit="10"/></g><g transform="translate(-54,-53) scale(1,1)"><g><path fill="none" stroke="none"/><text fill="#000000" stroke="none" font-family="Arial" font-size="13px" font-style="normal" font-weight="normal" text-decoration="none" x="905.5" y="203.5">Oui</text></g></g><g transform="translate(-54,-53) scale(1,1)"><path fill="none" stroke="#000000" d="M 994 97 L 1132 279" stroke-miterlimit="10"/></g><g transform="translate(-54,-53) scale(1,1)"><path fill="none" stroke="#000000" d="M 1122.5054665852642 273.4453771292315 L 1132 279 L 1129.2140625370923 268.3586395393837" stroke-miterlimit="10"/></g><g transform="translate(-54,-53) scale(1,1)"><g><path fill="none" stroke="none"/><text fill="#000000" stroke="none" font-family="Arial" font-size="13px" font-style="normal" font-weight="normal" text-decoration="none" x="1063.5" y="184.5">non</text></g></g><g transform="translate(-54,-53) scale(1,1)"><path fill="#C0C0C0" stroke="none" d="M 551 472.5 L 562.5 463 L 573 472.5 L 562.5 481 L 551 472.5" opacity="0.2"/></g><g transform="translate(-54,-53) scale(1,1)"><path fill="#ffffff" stroke="none" d="M 544 465 L 555 456 L 566 465 L 555 474 L 544 465"/></g><g transform="translate(-54,-53) scale(1,1)"><path fill="none" stroke="#000000" d="M 544 465 L 555 456 L 566 465 L 555 474 L 544 465 L 544 465" stroke-miterlimit="10"/></g><g transform="translate(-54,-53) scale(1,1)"><path fill="none" stroke="#000000" d="M 558 105 L 555 455" stroke-miterlimit="10"/></g><g transform="translate(-54,-53) scale(1,1)"><path fill="none" stroke="#000000" d="M 550.8777423127137 444.8016181891631 L 555 455 L 559.2964685710939 444.8737786999492" stroke-miterlimit="10"/></g><g transform="translate(-54,-53) scale(1,1)"><g><path fill="none" stroke="none"/><text fill="#000000" stroke="none" font-family="Arial" font-size="13px" font-style="normal" font-weight="normal" text-decoration="none" x="374.241455078125" y="280.5">Eliminer les retards atypiques</text></g></g><g transform="translate(-54,-53) scale(1,1)"><path fill="none" stroke="#000000" d="M 786 321 L 567 458" stroke-miterlimit="10"/></g><g transform="translate(-54,-53) scale(1,1)"><path fill="none" stroke="#000000" d="M 573.3832156001557 449.04150913368056 L 567 458 L 577.8482246774181 456.1790053958737" stroke-miterlimit="10"/></g><g transform="translate(-54,-53) scale(1,1)"><g><path fill="none" stroke="none"/><text fill="#000000" stroke="none" font-family="Arial" font-size="13px" font-style="normal" font-weight="normal" text-decoration="none" x="558.241455078125" y="368.5">Eliminer les retards atypiques</text></g></g><g transform="translate(-54,-53) scale(1,1)"><path fill="none" stroke="#000000" d="M 1073 321 L 567 462" stroke-miterlimit="10"/></g><g transform="translate(-54,-53) scale(1,1)"><path fill="none" stroke="#000000" d="M 575.6597407222679 455.2170146231106 L 567 462 L 577.9196563447206 463.3270664313452" stroke-miterlimit="10"/></g><g transform="translate(-54,-53) scale(1,1)"><g><path fill="none" stroke="none"/><text fill="#000000" stroke="none" font-family="Arial" font-size="13px" font-style="normal" font-weight="normal" text-decoration="none" x="795.241455078125" y="413.5">Eliminer les retards atypiques</text></g></g><g transform="translate(-54,-53) scale(1,1)"><path fill="#C0C0C0" stroke="none" d="M 975 227.5 C 975 220.59644 980.59644 215 987.5 215 C 994.40356 215 1000 220.59644 1000 227.5 C 1000 234.40356 994.40356 240 987.5 240 C 980.59644 240 975 234.40356 975 227.5 Z" opacity="0.2"/></g><g transform="translate(-54,-53) scale(1,1)"><path fill="none" stroke="#000000" d="M 968 220.5 C 968 213.59644 973.59644 208 980.5 208 C 987.40356 208 993 213.59644 993 220.5 C 993 227.40356 987.40356 233 980.5 233 C 973.59644 233 968 227.40356 968 220.5 Z" stroke-miterlimit="10"/></g><g transform="translate(-54,-53) scale(1,1)"><path fill="#000000" stroke="none" d="M 973 220.5 C 973 216.357864 976.357864 213 980.5 213 C 984.642136 213 988 216.357864 988 220.5 C 988 224.642136 984.642136 228 980.5 228 C 976.357864 228 973 224.642136 973 220.5 Z"/></g><g transform="translate(-54,-53) scale(1,1)"><path fill="none" stroke="#000000" d="M 1104 279 L 994 227" stroke-miterlimit="10"/></g><g transform="translate(-54,-53) scale(1,1)"><path fill="none" stroke="#000000" d="M 1004.9868545781609 227.53761182868809 L 994 227 L 1001.3887304064166 235.14902834583947" stroke-miterlimit="10"/></g><g transform="translate(-54,-53) scale(1,1)"><path fill="none" stroke="#000000" d="M 862 279 L 967 227" stroke-miterlimit="10"/></g><g transform="translate(-54,-53) scale(1,1)"><path fill="none" stroke="#000000" d="M 959.7611160401102 235.28242470628325 L 967 227 L 956.0247773892596 227.73789473821932" stroke-miterlimit="10"/></g><g transform="translate(-54,-53) scale(1,1)"><path fill="#C0C0C0" stroke="none" d="M 239 171.5 C 239 164.59644 244.59644 159 251.5 159 C 258.40356 159 264 164.59644 264 171.5 C 264 178.40356 258.40356 184 251.5 184 C 244.59644 184 239 178.40356 239 171.5 Z" opacity="0.2"/></g><g transform="translate(-54,-53) scale(1,1)"><path fill="none" stroke="#000000" d="M 232 164.5 C 232 157.59644 237.59644 152 244.5 152 C 251.40356 152 257 157.59644 257 164.5 C 257 171.40356 251.40356 177 244.5 177 C 237.59644 177 232 171.40356 232 164.5 Z" stroke-miterlimit="10"/></g><g transform="translate(-54,-53) scale(1,1)"><path fill="#000000" stroke="none" d="M 237 164.5 C 237 160.357864 240.357864 157 244.5 157 C 248.642136 157 252 160.357864 252 164.5 C 252 168.642136 248.642136 172 244.5 172 C 240.357864 172 237 168.642136 237 164.5 Z"/></g><g transform="translate(-54,-53) scale(1,1)"><path fill="none" stroke="#000000" d="M 476 105 L 258 160" stroke-miterlimit="10"/></g><g transform="translate(-54,-53) scale(1,1)"><path fill="none" stroke="#000000" d="M 266.82413555810274 153.4323039311927 L 258 160 L 268.88366851826964 161.59554366421793" stroke-miterlimit="10"/></g><g transform="translate(-54,-53) scale(1,1)"><path fill="#C0C0C0" stroke="none" d="M 289 575 L 513 575 Q 523 575 523 585 L 523 605 Q 523 615 513 615 L 289 615 Q 279 615 279 605 L 279 585 Q 279 575 289 575 Z" opacity="0.2"/></g><g transform="translate(-54,-53) scale(1,1)"><path fill="#ffffff" stroke="none" d="M 282 568 L 506 568 Q 516 568 516 578 L 516 598 Q 516 608 506 608 L 282 608 Q 272 608 272 598 L 272 578 Q 272 568 282 568 Z"/></g><g transform="translate(-54,-53) scale(1,1)"><path fill="none" stroke="#000000" d="M 282 568 L 506 568 Q 516 568 516 578 L 516 598 Q 516 608 506 608 L 282 608 Q 272 608 272 598 L 272 578 Q 272 568 282 568 Z" stroke-miterlimit="10"/></g><g transform="translate(-54,-53) scale(1,1)"><g><path fill="none" stroke="none"/><text fill="#000000" stroke="none" font-family="Arial" font-size="13px" font-style="normal" font-weight="bold" text-decoration="none" x="285.60107421875" y="587.5">s.u.d affiche les nouveaux indicateurs</text></g></g><g transform="translate(-54,-53) scale(1,1)"><path fill="none" stroke="#000000" d="M 543 474 L 421 567" stroke-miterlimit="10"/></g><g transform="translate(-54,-53) scale(1,1)"><path fill="none" stroke="#000000" d="M 426.53021659080645 557.4912301290457 L 421 567 L 431.6341693092837 564.1867379962954" stroke-miterlimit="10"/></g><g transform="translate(-54,-53) scale(1,1)"><g><path fill="none" stroke="none"/><text fill="#000000" stroke="none" font-family="Arial" font-size="13px" font-style="normal" font-weight="normal" text-decoration="none" x="480.5" y="537.5">Oui</text></g></g><g transform="translate(-54,-53) scale(1,1)"><path fill="#C0C0C0" stroke="none" d="M 641 575 L 791 575 Q 801 575 801 585 L 801 605 Q 801 615 791 615 L 641 615 Q 631 615 631 605 L 631 585 Q 631 575 641 575 Z" opacity="0.2"/></g><g transform="translate(-54,-53) scale(1,1)"><path fill="#ffffff" stroke="none" d="M 634 568 L 784 568 Q 794 568 794 578 L 794 598 Q 794 608 784 608 L 634 608 Q 624 608 624 598 L 624 578 Q 624 568 634 568 Z"/></g><g transform="translate(-54,-53) scale(1,1)"><path fill="none" stroke="#000000" d="M 634 568 L 784 568 Q 794 568 794 578 L 794 598 Q 794 608 784 608 L 634 608 Q 624 608 624 598 L 624 578 Q 624 568 634 568 Z" stroke-miterlimit="10"/></g><g transform="translate(-54,-53) scale(1,1)"><g><path fill="none" stroke="none"/><text fill="#000000" stroke="none" font-family="Arial" font-size="13px" font-style="normal" font-weight="bold" text-decoration="none" x="632.60595703125" y="587.5">Pas de changement d'IHM</text></g></g><g transform="translate(-54,-53) scale(1,1)"><path fill="none" stroke="#000000" d="M 567 475 L 683 567" stroke-miterlimit="10"/></g><g transform="translate(-54,-53) scale(1,1)"><path fill="none" stroke="#000000" d="M 672.4217957662524 563.9831149857636 L 683 567 L 677.6533399051674 557.3868202019141" stroke-miterlimit="10"/></g><g transform="translate(-54,-53) scale(1,1)"><g><path fill="none" stroke="none"/><text fill="#000000" stroke="none" font-family="Arial" font-size="13px" font-style="normal" font-weight="normal" text-decoration="none" x="631.5" y="524.5">Non</text></g></g><g transform="translate(-54,-53) scale(1,1)"><path fill="#C0C0C0" stroke="none" d="M 559 739.5 C 559 732.59644 564.59644 727 571.5 727 C 578.40356 727 584 732.59644 584 739.5 C 584 746.40356 578.40356 752 571.5 752 C 564.59644 752 559 746.40356 559 739.5 Z" opacity="0.2"/></g><g transform="translate(-54,-53) scale(1,1)"><path fill="none" stroke="#000000" d="M 552 732.5 C 552 725.59644 557.59644 720 564.5 720 C 571.40356 720 577 725.59644 577 732.5 C 577 739.40356 571.40356 745 564.5 745 C 557.59644 745 552 739.40356 552 732.5 Z" stroke-miterlimit="10"/></g><g transform="translate(-54,-53) scale(1,1)"><path fill="#000000" stroke="none" d="M 557 732.5 C 557 728.357864 560.357864 725 564.5 725 C 568.642136 725 572 728.357864 572 732.5 C 572 736.642136 568.642136 740 564.5 740 C 560.357864 740 557 736.642136 557 732.5 Z"/></g><g transform="translate(-54,-53) scale(1,1)"><path fill="none" stroke="#000000" d="M 419 609 L 551 721" stroke-miterlimit="10"/></g><g transform="translate(-54,-53) scale(1,1)"><path fill="none" stroke="#000000" d="M 540.5274045253191 717.634774298254 L 551 721 L 545.9743306371573 711.2151828093017" stroke-miterlimit="10"/></g><g transform="translate(-54,-53) scale(1,1)"><path fill="none" stroke="#000000" d="M 688 609 L 577 719" stroke-miterlimit="10"/></g><g transform="translate(-54,-53) scale(1,1)"><path fill="none" stroke="#000000" d="M 581.2554591459312 708.8564765757992 L 577 719 L 587.1816182175273 714.8365098207734" stroke-miterlimit="10"/></g><g transform="translate(-54,-53) scale(1,1)"><path fill="none" stroke="#000000" d="M 709 568 L 709 544 L 1262 544 L 1262 84 L 1000 84" stroke-miterlimit="10"/></g><g transform="translate(-54,-53) scale(1,1)"><path fill="none" stroke="#000000" d="M 1010.1626748576241 79.79048224398402 L 1000 84 L 1010.1626748576241 88.20951775601598" stroke-miterlimit="10"/></g><g transform="translate(-54,-53) scale(1,1)"><g><path fill="none" stroke="none"/><text fill="#000000" stroke="none" font-family="Arial" font-size="13px" font-style="normal" font-weight="normal" text-decoration="none" x="1262.5" y="456.5">Sélectionner une période</text></g></g></g></svg>