<svg version="1.1" xmlns="http://www.w3.org/2000/svg" xmlns:xlink="http://www.w3.org/1999/xlink" width="517" height="437"><defs/><g><g transform="translate(-22,-54) scale(1,1)"><path fill="#C0C0C0" stroke="none" d="M 71 91 C 71 84.3725824 77.0441552 79 84.5 79 C 91.9558448 79 98 84.3725824 98 91 C 98 97.6274176 91.9558448 103 84.5 103 C 77.0441552 103 71 97.6274176 71 91 Z" opacity="0.2"/></g><g transform="translate(-22,-54) scale(1,1)"><path fill="#000000" stroke="none" d="M 64 84 C 64 77.3725824 70.0441552 72 77.5 72 C 84.9558448 72 91 77.3725824 91 84 C 91 90.6274176 84.9558448 96 77.5 96 C 70.0441552 96 64 90.6274176 64 84 Z"/></g><g transform="translate(-22,-54) scale(1,1)"><path fill="#C0C0C0" stroke="none" d="M 225 71 L 416 71 Q 426 71 426 81 L 426 101 Q 426 111 416 111 L 225 111 Q 215 111 215 101 L 215 81 Q 215 71 225 71 Z" opacity="0.2"/></g><g transform="translate(-22,-54) scale(1,1)"><path fill="#ffffff" stroke="none" d="M 218 64 L 409 64 Q 419 64 419 74 L 419 94 Q 419 104 409 104 L 218 104 Q 208 104 208 94 L 208 74 Q 208 64 218 64 Z"/></g><g transform="translate(-22,-54) scale(1,1)"><path fill="none" stroke="#000000" d="M 218 64 L 409 64 Q 419 64 419 74 L 419 94 Q 419 104 409 104 L 218 104 Q 208 104 208 94 L 208 74 Q 208 64 218 64 Z" stroke-miterlimit="10"/></g><g transform="translate(-22,-54) scale(1,1)"><g><path fill="none" stroke="none"/><text fill="#000000" stroke="none" font-family="Arial" font-size="13px" font-style="normal" font-weight="bold" text-decoration="none" x="221.5" y="83.5">L'utilisateur clique sur "Retards"</text></g></g><g transform="translate(-22,-54) scale(1,1)"><path fill="none" stroke="#000000" d="M 92 84 L 207 84" stroke-miterlimit="10"/></g><g transform="translate(-22,-54) scale(1,1)"><path fill="none" stroke="#000000" d="M 196.83732514237585 88.20951775601598 L 207 84 L 196.83732514237585 79.79048224398402" stroke-miterlimit="10"/></g><g transform="translate(-22,-54) scale(1,1)"><path fill="#C0C0C0" stroke="none" d="M 233 191 L 401 191 Q 411 191 411 201 L 411 221 Q 411 231 401 231 L 233 231 Q 223 231 223 221 L 223 201 Q 223 191 233 191 Z" opacity="0.2"/></g><g transform="translate(-22,-54) scale(1,1)"><path fill="#ffffff" stroke="none" d="M 226 184 L 394 184 Q 404 184 404 194 L 404 214 Q 404 224 394 224 L 226 224 Q 216 224 216 214 L 216 194 Q 216 184 226 184 Z"/></g><g transform="translate(-22,-54) scale(1,1)"><path fill="none" stroke="#000000" d="M 226 184 L 394 184 Q 404 184 404 194 L 404 214 Q 404 224 394 224 L 226 224 Q 216 224 216 214 L 216 194 Q 216 184 226 184 Z" stroke-miterlimit="10"/></g><g transform="translate(-22,-54) scale(1,1)"><g><path fill="none" stroke="none"/><text fill="#000000" stroke="none" font-family="Arial" font-size="13px" font-style="normal" font-weight="bold" text-decoration="none" x="230" y="203.5">s.u.d affiche les indicateurs</text></g></g><g transform="translate(-22,-54) scale(1,1)"><path fill="none" stroke="#000000" d="M 312 105 L 311 183" stroke-miterlimit="10"/></g><g transform="translate(-22,-54) scale(1,1)"><path fill="none" stroke="#000000" d="M 306.92110814816283 172.78419649459642 L 311 183 L 315.33945184577954 172.8921239778992" stroke-miterlimit="10"/></g><g transform="translate(-22,-54) scale(1,1)"><path fill="#C0C0C0" stroke="none" d="M 303 315.5 L 319.5 303 L 335 315.5 L 319.5 327 L 303 315.5" opacity="0.2"/></g><g transform="translate(-22,-54) scale(1,1)"><path fill="#ffffff" stroke="none" d="M 296 308 L 312 296 L 328 308 L 312 320 L 296 308"/></g><g transform="translate(-22,-54) scale(1,1)"><path fill="none" stroke="#000000" d="M 296 308 L 312 296 L 328 308 L 312 320 L 296 308 L 296 308" stroke-miterlimit="10"/></g><g transform="translate(-22,-54) scale(1,1)"><path fill="none" stroke="#000000" d="M 310 225 L 312 295" stroke-miterlimit="10"/></g><g transform="translate(-22,-54) scale(1,1)"><path fill="none" stroke="#000000" d="M 307.5019556671291 284.96169351038094 L 312 295 L 315.9175569405878 284.7212477597107" stroke-miterlimit="10"/></g><g transform="translate(-22,-54) scale(1,1)"><g><path fill="none" stroke="none"/><text fill="#000000" stroke="none" font-family="Arial" font-size="13px" font-style="normal" font-weight="normal" text-decoration="none" x="253.5" y="265.5">Sélectionner une période</text></g></g><g transform="translate(-22,-54) scale(1,1)"><path fill="#C0C0C0" stroke="none" d="M 49 367 L 294 367 Q 304 367 304 377 L 304 397 Q 304 407 294 407 L 49 407 Q 39 407 39 397 L 39 377 Q 39 367 49 367 Z" opacity="0.2"/></g><g transform="translate(-22,-54) scale(1,1)"><path fill="#ffffff" stroke="none" d="M 42 360 L 287 360 Q 297 360 297 370 L 297 390 Q 297 400 287 400 L 42 400 Q 32 400 32 390 L 32 370 Q 32 360 42 360 Z"/></g><g transform="translate(-22,-54) scale(1,1)"><path fill="none" stroke="#000000" d="M 42 360 L 287 360 Q 297 360 297 370 L 297 390 Q 297 400 287 400 L 42 400 Q 32 400 32 390 L 32 370 Q 32 360 42 360 Z" stroke-miterlimit="10"/></g><g transform="translate(-22,-54) scale(1,1)"><g><path fill="none" stroke="none"/><text fill="#000000" stroke="none" font-family="Arial" font-size="13px" font-style="normal" font-weight="bold" text-decoration="none" x="45.5" y="379.5">s.u.d affiche les indicateurs de la période</text></g></g><g transform="translate(-22,-54) scale(1,1)"><path fill="#C0C0C0" stroke="none" d="M 377 367 L 526 367 Q 536 367 536 377 L 536 397 Q 536 407 526 407 L 377 407 Q 367 407 367 397 L 367 377 Q 367 367 377 367 Z" opacity="0.2"/></g><g transform="translate(-22,-54) scale(1,1)"><path fill="#ffffff" stroke="none" d="M 370 360 L 519 360 Q 529 360 529 370 L 529 390 Q 529 400 519 400 L 370 400 Q 360 400 360 390 L 360 370 Q 360 360 370 360 Z"/></g><g transform="translate(-22,-54) scale(1,1)"><path fill="none" stroke="#000000" d="M 370 360 L 519 360 Q 529 360 529 370 L 529 390 Q 529 400 519 400 L 370 400 Q 360 400 360 390 L 360 370 Q 360 360 370 360 Z" stroke-miterlimit="10"/></g><g transform="translate(-22,-54) scale(1,1)"><g><path fill="none" stroke="none"/><text fill="#000000" stroke="none" font-family="Arial" font-size="13px" font-style="normal" font-weight="bold" text-decoration="none" x="370.5" y="379.5">pas de changement d'ihm</text></g></g><g transform="translate(-22,-54) scale(1,1)"><path fill="none" stroke="#000000" d="M 295 316 L 207 359" stroke-miterlimit="10"/></g><g transform="translate(-22,-54) scale(1,1)"><path fill="none" stroke="#000000" d="M 214.28280581594058 350.75616961314086 L 207 359 L 217.97898974801623 358.3204530090166" stroke-miterlimit="10"/></g><g transform="translate(-22,-54) scale(1,1)"><g><path fill="none" stroke="none"/><text fill="#000000" stroke="none" font-family="Arial" font-size="13px" font-style="normal" font-weight="normal" text-decoration="none" x="246.5" y="356.5">Oui</text></g></g><g transform="translate(-22,-54) scale(1,1)"><path fill="none" stroke="#000000" d="M 329 317 L 406 359" stroke-miterlimit="10"/></g><g transform="translate(-22,-54) scale(1,1)"><path fill="none" stroke="#000000" d="M 395.0624961869175 357.8290984931237 L 406 359 L 399.0939692801294 350.43806448890183" stroke-miterlimit="10"/></g><g transform="translate(-22,-54) scale(1,1)"><g><path fill="none" stroke="none"/><text fill="#000000" stroke="none" font-family="Arial" font-size="13px" font-style="normal" font-weight="normal" text-decoration="none" x="363.5" y="330.5">non</text></g></g><g transform="translate(-22,-54) scale(1,1)"><path fill="#C0C0C0" stroke="none" d="M 303 475.5 C 303 468.59644 308.59644 463 315.5 463 C 322.40356 463 328 468.59644 328 475.5 C 328 482.40356 322.40356 488 315.5 488 C 308.59644 488 303 482.40356 303 475.5 Z" opacity="0.2"/></g><g transform="translate(-22,-54) scale(1,1)"><path fill="none" stroke="#000000" d="M 296 468.5 C 296 461.59644 301.59644 456 308.5 456 C 315.40356 456 321 461.59644 321 468.5 C 321 475.40356 315.40356 481 308.5 481 C 301.59644 481 296 475.40356 296 468.5 Z" stroke-miterlimit="10"/></g><g transform="translate(-22,-54) scale(1,1)"><path fill="#000000" stroke="none" d="M 301 468.5 C 301 464.357864 304.357864 461 308.5 461 C 312.642136 461 316 464.357864 316 468.5 C 316 472.642136 312.642136 476 308.5 476 C 304.357864 476 301 472.642136 301 468.5 Z"/></g><g transform="translate(-22,-54) scale(1,1)"><path fill="none" stroke="#000000" d="M 198 401 L 295 460" stroke-miterlimit="10"/></g><g transform="translate(-22,-54) scale(1,1)"><path fill="none" stroke="#000000" d="M 284.1297802224125 458.3152679777052 L 295 460 L 288.5048793197265 451.122308444833" stroke-miterlimit="10"/></g><g transform="translate(-22,-54) scale(1,1)"><path fill="none" stroke="#000000" d="M 412 401 L 322 459" stroke-miterlimit="10"/></g><g transform="translate(-22,-54) scale(1,1)"><path fill="none" stroke="#000000" d="M 328.2621487416118 449.9564667779717 L 322 459 L 332.82275150717453 457.03326417281045" stroke-miterlimit="10"/></g></g></svg>