<svg version="1.1" xmlns="http://www.w3.org/2000/svg" xmlns:xlink="http://www.w3.org/1999/xlink" width="2254" height="1044"><defs/><g><g transform="translate(20,10) scale(1,1)"><path fill="none" stroke="#000000" d="M 0 0 L 2224 0 L 2224 1024 L 0 1024 L 0 0" stroke-miterlimit="10"/></g><g transform="translate(20,10) scale(1,1)"><path fill="#ffffff" stroke="none" d="M 0 0 L 0 22 L 204 22 L 215 11 L 215 0 L 0 0"/></g><g transform="translate(20,10) scale(1,1)"><path fill="none" stroke="#000000" d="M 0 0 L 0 22 L 204 22 L 215 11 L 215 0 L 0 0 L 0 0" stroke-miterlimit="10"/></g><g transform="translate(20,10) scale(1,1)"><g><path fill="none" stroke="none"/><text fill="#000000" stroke="none" font-family="Arial" font-size="13px" font-style="normal" font-weight="normal" text-decoration="none" x="71" y="17.5">DSCPAnalyseRetards</text></g></g><g transform="translate(20,10) scale(1,1)"><g><path fill="none" stroke="none"/><text fill="#000000" stroke="none" font-family="Arial" font-size="13px" font-style="normal" font-weight="bold" text-decoration="none" x="5" y="17.5">interaction</text></g></g><g transform="translate(20,10) scale(1,1)"><rect fill="#C0C0C0" stroke="none" x="31" y="47" width="78" height="39" opacity="0.2"/></g><g transform="translate(20,10) scale(1,1)"><rect fill="#ffffff" stroke="none" x="24" y="40" width="78" height="39"/></g><g transform="translate(20,10) scale(1,1)"><path fill="none" stroke="#000000" d="M 24 40 L 102 40 L 102 79 L 24 79 L 24 40 Z Z" stroke-miterlimit="10"/></g><g transform="translate(20,10) scale(1,1)"><g><path fill="none" stroke="none"/><text fill="#000000" stroke="none" font-family="Arial" font-size="13px" font-style="normal" font-weight="normal" text-decoration="none" x="37" y="57.5">«Acteur»</text></g></g><g transform="translate(20,10) scale(1,1)"><g><path fill="none" stroke="none"/><text fill="#000000" stroke="none" font-family="Arial" font-size="13px" font-style="normal" font-weight="bold" text-decoration="none" x="34.5" y="72.5">Agent BO</text></g></g><g transform="translate(20,10) scale(1,1)"><path fill="none" stroke="#000000" d="M 64.5 80 L 64.5 1016" stroke-miterlimit="10" stroke-dasharray="3"/></g><g transform="translate(20,10) scale(1,1)"><rect fill="#C0C0C0" stroke="none" x="223" y="47" width="145" height="39" opacity="0.2"/></g><g transform="translate(20,10) scale(1,1)"><rect fill="#ffffff" stroke="none" x="216" y="40" width="145" height="39"/></g><g transform="translate(20,10) scale(1,1)"><path fill="none" stroke="#000000" d="M 216 40 L 361 40 L 361 79 L 216 79 L 216 40 Z Z" stroke-miterlimit="10"/></g><g transform="translate(20,10) scale(1,1)"><g><path fill="none" stroke="none"/><text fill="#000000" stroke="none" font-family="Arial" font-size="13px" font-style="normal" font-weight="bold" text-decoration="none" x="229" y="59.5">: delays-analysis.jsp</text></g></g><g transform="translate(20,10) scale(1,1)"><path fill="none" stroke="#000000" d="M 289.5 80 L 289.5 1008" stroke-miterlimit="10" stroke-dasharray="3"/></g><g transform="translate(20,10) scale(1,1)"><rect fill="#C0C0C0" stroke="none" x="551" y="47" width="123" height="39" opacity="0.2"/></g><g transform="translate(20,10) scale(1,1)"><rect fill="#ffffff" stroke="none" x="544" y="40" width="123" height="39"/></g><g transform="translate(20,10) scale(1,1)"><path fill="none" stroke="#000000" d="M 544 40 L 667 40 L 667 79 L 544 79 L 544 40 Z Z" stroke-miterlimit="10"/></g><g transform="translate(20,10) scale(1,1)"><g><path fill="none" stroke="none"/><text fill="#000000" stroke="none" font-family="Arial" font-size="13px" font-style="normal" font-weight="bold" text-decoration="none" x="557.5" y="59.5">: DelayController</text></g></g><g transform="translate(20,10) scale(1,1)"><path fill="none" stroke="#000000" d="M 606.5 80 L 606.5 1008" stroke-miterlimit="10" stroke-dasharray="3"/></g><g transform="translate(20,10) scale(1,1)"><rect fill="#C0C0C0" stroke="none" x="1519" y="47" width="135" height="39" opacity="0.2"/></g><g transform="translate(20,10) scale(1,1)"><rect fill="#ffffff" stroke="none" x="1512" y="40" width="135" height="39"/></g><g transform="translate(20,10) scale(1,1)"><path fill="none" stroke="#000000" d="M 1512 40 L 1647 40 L 1647 79 L 1512 79 L 1512 40 Z Z" stroke-miterlimit="10"/></g><g transform="translate(20,10) scale(1,1)"><g><path fill="none" stroke="none"/><text fill="#000000" stroke="none" font-family="Arial" font-size="13px" font-style="normal" font-weight="bold" text-decoration="none" x="1524.5" y="59.5">: DelayServiceImpl</text></g></g><g transform="translate(20,10) scale(1,1)"><path fill="none" stroke="#000000" d="M 1580.5 80 L 1580.5 1016" stroke-miterlimit="10" stroke-dasharray="3"/></g><g transform="translate(20,10) scale(1,1)"><rect fill="#C0C0C0" stroke="none" x="1855" y="47" width="117" height="39" opacity="0.2"/></g><g transform="translate(20,10) scale(1,1)"><rect fill="#ffffff" stroke="none" x="1848" y="40" width="117" height="39"/></g><g transform="translate(20,10) scale(1,1)"><path fill="none" stroke="#000000" d="M 1848 40 L 1965 40 L 1965 79 L 1848 79 L 1848 40 Z Z" stroke-miterlimit="10"/></g><g transform="translate(20,10) scale(1,1)"><g><path fill="none" stroke="none"/><text fill="#000000" stroke="none" font-family="Arial" font-size="13px" font-style="normal" font-weight="bold" text-decoration="none" x="1859.5" y="59.5">: DelayDAOImpl</text></g></g><g transform="translate(20,10) scale(1,1)"><path fill="none" stroke="#000000" d="M 1907.5 80 L 1907.5 1016" stroke-miterlimit="10" stroke-dasharray="3"/></g><g transform="translate(20,10) scale(1,1)"><rect fill="#C0C0C0" stroke="none" x="2159" y="47" width="72" height="39" opacity="0.2"/></g><g transform="translate(20,10) scale(1,1)"><rect fill="#ffffff" stroke="none" x="2152" y="40" width="72" height="39"/></g><g transform="translate(20,10) scale(1,1)"><path fill="none" stroke="#000000" d="M 2152 40 L 2224 40 L 2224 79 L 2152 79 L 2152 40 Z Z" stroke-miterlimit="10"/></g><g transform="translate(20,10) scale(1,1)"><g><path fill="none" stroke="none"/><text fill="#000000" stroke="none" font-family="Arial" font-size="13px" font-style="normal" font-weight="bold" text-decoration="none" x="2167.5" y="59.5">: Delay</text></g></g><g transform="translate(20,10) scale(1,1)"><path fill="none" stroke="#000000" d="M 2189.5 80 L 2189.5 1016" stroke-miterlimit="10" stroke-dasharray="3"/></g><g transform="translate(20,10) scale(1,1)"><rect fill="#C0C0C0" stroke="none" x="895" y="47" width="134" height="39" opacity="0.2"/></g><g transform="translate(20,10) scale(1,1)"><rect fill="#ffffff" stroke="none" x="888" y="40" width="134" height="39"/></g><g transform="translate(20,10) scale(1,1)"><path fill="none" stroke="#000000" d="M 888 40 L 1022 40 L 1022 79 L 888 79 L 888 40 Z Z" stroke-miterlimit="10"/></g><g transform="translate(20,10) scale(1,1)"><g><path fill="none" stroke="none"/><text fill="#000000" stroke="none" font-family="Arial" font-size="13px" font-style="normal" font-weight="bold" text-decoration="none" x="902" y="59.5">: DelayDistribution</text></g></g><g transform="translate(20,10) scale(1,1)"><path fill="none" stroke="#000000" d="M 956.5 80 L 956.5 1016" stroke-miterlimit="10" stroke-dasharray="3"/></g><g transform="translate(20,10) scale(1,1)"><rect fill="#C0C0C0" stroke="none" x="1287" y="47" width="103" height="39" opacity="0.2"/></g><g transform="translate(20,10) scale(1,1)"><rect fill="#ffffff" stroke="none" x="1280" y="40" width="103" height="39"/></g><g transform="translate(20,10) scale(1,1)"><path fill="none" stroke="#000000" d="M 1280 40 L 1383 40 L 1383 79 L 1280 79 L 1280 40 Z Z" stroke-miterlimit="10"/></g><g transform="translate(20,10) scale(1,1)"><g><path fill="none" stroke="none"/><text fill="#000000" stroke="none" font-family="Arial" font-size="13px" font-style="normal" font-weight="bold" text-decoration="none" x="1292.5" y="59.5">SearchPeriod</text></g></g><g transform="translate(20,10) scale(1,1)"><path fill="none" stroke="#000000" d="M 1332.5 80 L 1332.5 1016" stroke-miterlimit="10" stroke-dasharray="3"/></g><g transform="translate(20,10) scale(1,1)"><path fill="none" stroke="#000000" d="M 64 104 L 282 104" stroke-miterlimit="10"/></g><g transform="translate(20,10) scale(1,1)"><path fill="#000000" stroke="none" d="M 271.83732514237585 108.20951775601598 L 282 104 L 271.83732514237585 99.79048224398402"/></g><g transform="translate(20,10) scale(1,1)"><path fill="none" stroke="#000000" d="M 271.83732514237585 108.20951775601598 L 282 104 L 271.83732514237585 99.79048224398402 L 271.83732514237585 108.20951775601598" stroke-miterlimit="10"/></g><g transform="translate(20,10) scale(1,1)"><g><path fill="none" stroke="none"/><text fill="#000000" stroke="none" font-family="Arial" font-size="13px" font-style="normal" font-weight="normal" text-decoration="none" x="106.5" y="100.5">1 : Cliquer sur "Retard"</text></g></g><g transform="translate(20,10) scale(1,1)"><rect fill="#ffffff" stroke="none" x="282" y="104" width="13" height="800"/></g><g transform="translate(20,10) scale(1,1)"><path fill="none" stroke="#000000" d="M 282 104 L 295 104 L 295 904 L 282 904 L 282 104 Z Z" stroke-miterlimit="10"/></g><g transform="translate(20,10) scale(1,1)"><path fill="none" stroke="#000000" d="M 295 120 L 599 120" stroke-miterlimit="10"/></g><g transform="translate(20,10) scale(1,1)"><path fill="#000000" stroke="none" d="M 588.8373251423759 124.20951775601598 L 599 120 L 588.8373251423758 115.79048224398402"/></g><g transform="translate(20,10) scale(1,1)"><path fill="none" stroke="#000000" d="M 588.8373251423759 124.20951775601598 L 599 120 L 588.8373251423758 115.79048224398402 L 588.8373251423759 124.20951775601598" stroke-miterlimit="10"/></g><g transform="translate(20,10) scale(1,1)"><g><path fill="none" stroke="none"/><text fill="#000000" stroke="none" font-family="Arial" font-size="13px" font-style="normal" font-weight="normal" text-decoration="none" x="416.5" y="116.5">2 : /delays</text></g></g><g transform="translate(20,10) scale(1,1)"><rect fill="#ffffff" stroke="none" x="599" y="120" width="13" height="28"/></g><g transform="translate(20,10) scale(1,1)"><path fill="none" stroke="#000000" d="M 599 120 L 612 120 L 612 148 L 599 148 L 599 120 Z Z" stroke-miterlimit="10"/></g><g transform="translate(20,10) scale(1,1)"><path fill="none" stroke="#000000" d="M 612 144 L 1573 144" stroke-miterlimit="10"/></g><g transform="translate(20,10) scale(1,1)"><path fill="#000000" stroke="none" d="M 1562.837325142376 148.209517756016 L 1573 144 L 1562.837325142376 139.790482243984"/></g><g transform="translate(20,10) scale(1,1)"><path fill="none" stroke="#000000" d="M 1562.837325142376 148.209517756016 L 1573 144 L 1562.837325142376 139.790482243984 L 1562.837325142376 148.209517756016" stroke-miterlimit="10"/></g><g transform="translate(20,10) scale(1,1)"><g><path fill="none" stroke="none"/><text fill="#000000" stroke="none" font-family="Arial" font-size="13px" font-style="normal" font-weight="normal" text-decoration="none" x="979.160400390625" y="140.5">3 : ModelAndView showDelayNumber()</text></g></g><g transform="translate(20,10) scale(1,1)"><rect fill="#ffffff" stroke="none" x="1573" y="144" width="13" height="28"/></g><g transform="translate(20,10) scale(1,1)"><path fill="none" stroke="#000000" d="M 1573 144 L 1586 144 L 1586 172 L 1573 172 L 1573 144 Z Z" stroke-miterlimit="10"/></g><g transform="translate(20,10) scale(1,1)"><path fill="none" stroke="#000000" d="M 1586 168 L 1900 168" stroke-miterlimit="10"/></g><g transform="translate(20,10) scale(1,1)"><path fill="#000000" stroke="none" d="M 1889.837325142376 172.209517756016 L 1900 168 L 1889.837325142376 163.790482243984"/></g><g transform="translate(20,10) scale(1,1)"><path fill="none" stroke="#000000" d="M 1889.837325142376 172.209517756016 L 1900 168 L 1889.837325142376 163.790482243984 L 1889.837325142376 172.209517756016" stroke-miterlimit="10"/></g><g transform="translate(20,10) scale(1,1)"><g><path fill="none" stroke="none"/><text fill="#000000" stroke="none" font-family="Arial" font-size="13px" font-style="normal" font-weight="normal" text-decoration="none" x="1681.5" y="164.5">4 : getDelayNumber()</text></g></g><g transform="translate(20,10) scale(1,1)"><rect fill="#ffffff" stroke="none" x="1900" y="168" width="13" height="28"/></g><g transform="translate(20,10) scale(1,1)"><path fill="none" stroke="#000000" d="M 1900 168 L 1913 168 L 1913 196 L 1900 196 L 1900 168 Z Z" stroke-miterlimit="10"/></g><g transform="translate(20,10) scale(1,1)"><path fill="none" stroke="#000000" d="M 1913 185 L 2182 185" stroke-miterlimit="10"/></g><g transform="translate(20,10) scale(1,1)"><path fill="#000000" stroke="none" d="M 2171.837325142376 189.209517756016 L 2182 185 L 2171.837325142376 180.790482243984"/></g><g transform="translate(20,10) scale(1,1)"><path fill="none" stroke="#000000" d="M 2171.837325142376 189.209517756016 L 2182 185 L 2171.837325142376 180.790482243984 L 2171.837325142376 189.209517756016" stroke-miterlimit="10"/></g><g transform="translate(20,10) scale(1,1)"><g><path fill="none" stroke="none"/><text fill="#000000" stroke="none" font-family="Arial" font-size="13px" font-style="normal" font-weight="normal" text-decoration="none" x="1995.5" y="181.5">5 : countByDate()</text></g></g><g transform="translate(20,10) scale(1,1)"><rect fill="#ffffff" stroke="none" x="2182" y="185" width="13" height="231"/></g><g transform="translate(20,10) scale(1,1)"><path fill="none" stroke="#000000" d="M 2182 185 L 2195 185 L 2195 416 L 2182 416 L 2182 185 Z Z" stroke-miterlimit="10"/></g><g transform="translate(20,10) scale(1,1)"><path fill="none" stroke="#000000" d="M 64 200 L 289 200" stroke-miterlimit="10"/></g><g transform="translate(20,10) scale(1,1)"><path fill="#000000" stroke="none" d="M 278.83732514237585 204.209517756016 L 289 200 L 278.83732514237585 195.790482243984"/></g><g transform="translate(20,10) scale(1,1)"><path fill="none" stroke="#000000" d="M 278.83732514237585 204.209517756016 L 289 200 L 278.83732514237585 195.790482243984 L 278.83732514237585 204.209517756016" stroke-miterlimit="10"/></g><g transform="translate(20,10) scale(1,1)"><g><path fill="none" stroke="none"/><text fill="#000000" stroke="none" font-family="Arial" font-size="13px" font-style="normal" font-weight="normal" text-decoration="none" x="85.5" y="196.5">6 : Choisir un intervalle de date</text></g></g><g transform="translate(20,10) scale(1,1)"><rect fill="#ffffff" stroke="none" x="289" y="200" width="13" height="28"/></g><g transform="translate(20,10) scale(1,1)"><path fill="none" stroke="#000000" d="M 289 200 L 302 200 L 302 228 L 289 228 L 289 200 Z Z" stroke-miterlimit="10"/></g><g transform="translate(20,10) scale(1,1)"><path fill="none" stroke="#000000" d="M 302 216 L 599 216" stroke-miterlimit="10"/></g><g transform="translate(20,10) scale(1,1)"><path fill="#000000" stroke="none" d="M 588.8373251423759 220.209517756016 L 599 216 L 588.8373251423758 211.790482243984"/></g><g transform="translate(20,10) scale(1,1)"><path fill="none" stroke="#000000" d="M 588.8373251423759 220.209517756016 L 599 216 L 588.8373251423758 211.790482243984 L 588.8373251423759 220.209517756016" stroke-miterlimit="10"/></g><g transform="translate(20,10) scale(1,1)"><g><path fill="none" stroke="none"/><text fill="#000000" stroke="none" font-family="Arial" font-size="13px" font-style="normal" font-weight="normal" text-decoration="none" x="419.5" y="212.5">7 : /delays</text></g></g><g transform="translate(20,10) scale(1,1)"><rect fill="#ffffff" stroke="none" x="599" y="216" width="13" height="88"/></g><g transform="translate(20,10) scale(1,1)"><path fill="none" stroke="#000000" d="M 599 216 L 612 216 L 612 304 L 599 304 L 599 216 Z Z" stroke-miterlimit="10"/></g><g transform="translate(20,10) scale(1,1)"><path fill="none" stroke="#000000" d="M 612 224 L 949 224" stroke-miterlimit="10"/></g><g transform="translate(20,10) scale(1,1)"><path fill="#000000" stroke="none" d="M 938.8373251423759 228.209517756016 L 949 224 L 938.8373251423758 219.790482243984"/></g><g transform="translate(20,10) scale(1,1)"><path fill="none" stroke="#000000" d="M 938.8373251423759 228.209517756016 L 949 224 L 938.8373251423758 219.790482243984 L 938.8373251423759 228.209517756016" stroke-miterlimit="10"/></g><g transform="translate(20,10) scale(1,1)"><g><path fill="none" stroke="none"/><text fill="#000000" stroke="none" font-family="Arial" font-size="13px" font-style="normal" font-weight="normal" text-decoration="none" x="634" y="220.5">8 : modelAndView.addObject("delayDistribution", delayDistribution.getValues())</text></g></g><g transform="translate(20,10) scale(1,1)"><rect fill="#ffffff" stroke="none" x="949" y="224" width="13" height="28"/></g><g transform="translate(20,10) scale(1,1)"><path fill="none" stroke="#000000" d="M 949 224 L 962 224 L 962 252 L 949 252 L 949 224 Z Z" stroke-miterlimit="10"/></g><g transform="translate(20,10) scale(1,1)"><path fill="none" stroke="#000000" d="M 612 264 L 1325 264" stroke-miterlimit="10"/></g><g transform="translate(20,10) scale(1,1)"><path fill="#000000" stroke="none" d="M 1314.837325142376 268.209517756016 L 1325 264 L 1314.837325142376 259.790482243984"/></g><g transform="translate(20,10) scale(1,1)"><path fill="none" stroke="#000000" d="M 1314.837325142376 268.209517756016 L 1325 264 L 1314.837325142376 259.790482243984 L 1314.837325142376 268.209517756016" stroke-miterlimit="10"/></g><g transform="translate(20,10) scale(1,1)"><g><path fill="none" stroke="none"/><text fill="#000000" stroke="none" font-family="Arial" font-size="13px" font-style="normal" font-weight="normal" text-decoration="none" x="776" y="260.5">9 : modelAndView.addObject("searchPeriod", new SearchPeriod())</text></g></g><g transform="translate(20,10) scale(1,1)"><rect fill="#ffffff" stroke="none" x="1325" y="264" width="13" height="28"/></g><g transform="translate(20,10) scale(1,1)"><path fill="none" stroke="#000000" d="M 1325 264 L 1338 264 L 1338 292 L 1325 292 L 1325 264 Z Z" stroke-miterlimit="10"/></g><g transform="translate(20,10) scale(1,1)"><path fill="none" stroke="#000000" d="M 612 296 L 1573 296" stroke-miterlimit="10"/></g><g transform="translate(20,10) scale(1,1)"><path fill="#000000" stroke="none" d="M 1562.837325142376 300.209517756016 L 1573 296 L 1562.837325142376 291.790482243984"/></g><g transform="translate(20,10) scale(1,1)"><path fill="none" stroke="#000000" d="M 1562.837325142376 300.209517756016 L 1573 296 L 1562.837325142376 291.790482243984 L 1562.837325142376 300.209517756016" stroke-miterlimit="10"/></g><g transform="translate(20,10) scale(1,1)"><g><path fill="none" stroke="none"/><text fill="#000000" stroke="none" font-family="Arial" font-size="13px" font-style="normal" font-weight="normal" text-decoration="none" x="1019" y="292.5">10 : ModelAndView showDelayNumber()</text></g></g><g transform="translate(20,10) scale(1,1)"><rect fill="#ffffff" stroke="none" x="1573" y="296" width="13" height="28"/></g><g transform="translate(20,10) scale(1,1)"><path fill="none" stroke="#000000" d="M 1573 296 L 1586 296 L 1586 324 L 1573 324 L 1573 296 Z Z" stroke-miterlimit="10"/></g><g transform="translate(20,10) scale(1,1)"><path fill="none" stroke="#000000" d="M 1586 320 L 1900 320" stroke-miterlimit="10"/></g><g transform="translate(20,10) scale(1,1)"><path fill="#000000" stroke="none" d="M 1889.837325142376 324.209517756016 L 1900 320 L 1889.837325142376 315.790482243984"/></g><g transform="translate(20,10) scale(1,1)"><path fill="none" stroke="#000000" d="M 1889.837325142376 324.209517756016 L 1900 320 L 1889.837325142376 315.790482243984 L 1889.837325142376 324.209517756016" stroke-miterlimit="10"/></g><g transform="translate(20,10) scale(1,1)"><g><path fill="none" stroke="none"/><text fill="#000000" stroke="none" font-family="Arial" font-size="13px" font-style="normal" font-weight="normal" text-decoration="none" x="1667.5" y="316.5">11 : getDelayDistribution()</text></g></g><g transform="translate(20,10) scale(1,1)"><rect fill="#ffffff" stroke="none" x="1900" y="320" width="13" height="28"/></g><g transform="translate(20,10) scale(1,1)"><path fill="none" stroke="#000000" d="M 1900 320 L 1913 320 L 1913 348 L 1900 348 L 1900 320 Z Z" stroke-miterlimit="10"/></g><g transform="translate(20,10) scale(1,1)"><path fill="none" stroke="#000000" d="M 1913 328 L 2189 328" stroke-miterlimit="10"/></g><g transform="translate(20,10) scale(1,1)"><path fill="#000000" stroke="none" d="M 2178.837325142376 332.209517756016 L 2189 328 L 2178.837325142376 323.790482243984"/></g><g transform="translate(20,10) scale(1,1)"><path fill="none" stroke="#000000" d="M 2178.837325142376 332.209517756016 L 2189 328 L 2178.837325142376 323.790482243984 L 2178.837325142376 332.209517756016" stroke-miterlimit="10"/></g><g transform="translate(20,10) scale(1,1)"><g><path fill="none" stroke="none"/><text fill="#000000" stroke="none" font-family="Arial" font-size="13px" font-style="normal" font-weight="normal" text-decoration="none" x="2003.5" y="324.5">12 : filterByDate</text></g></g><g transform="translate(20,10) scale(1,1)"><rect fill="#ffffff" stroke="none" x="2189" y="328" width="13" height="28"/></g><g transform="translate(20,10) scale(1,1)"><path fill="none" stroke="#000000" d="M 2189 328 L 2202 328 L 2202 356 L 2189 356 L 2189 328 Z Z" stroke-miterlimit="10"/></g><g transform="translate(20,10) scale(1,1)"><path fill="none" stroke="#000000" d="M 2182 384 L 295 384" stroke-miterlimit="10" stroke-dasharray="3"/></g><g transform="translate(20,10) scale(1,1)"><path fill="none" stroke="#000000" d="M 305.16267485762415 379.790482243984 L 295 384 L 305.16267485762415 388.209517756016" stroke-miterlimit="10"/></g><g transform="translate(20,10) scale(1,1)"><g><path fill="none" stroke="none"/><text fill="#000000" stroke="none" font-family="Arial" font-size="13px" font-style="normal" font-weight="normal" text-decoration="none" x="1162.791259765625" y="400.5">13 : return modelAndView</text></g></g><g transform="translate(20,10) scale(1,1)"><path fill="none" stroke="#000000" d="M 64 480 L 289 480" stroke-miterlimit="10"/></g><g transform="translate(20,10) scale(1,1)"><path fill="#000000" stroke="none" d="M 278.83732514237585 484.209517756016 L 289 480 L 278.83732514237585 475.790482243984"/></g><g transform="translate(20,10) scale(1,1)"><path fill="none" stroke="#000000" d="M 278.83732514237585 484.209517756016 L 289 480 L 278.83732514237585 475.790482243984 L 278.83732514237585 484.209517756016" stroke-miterlimit="10"/></g><g transform="translate(20,10) scale(1,1)"><g><path fill="none" stroke="none"/><text fill="#000000" stroke="none" font-family="Arial" font-size="13px" font-style="normal" font-weight="normal" text-decoration="none" x="41.5" y="476.5">14 : Cliquer sur "Eliminer les retards atypiques</text></g></g><g transform="translate(20,10) scale(1,1)"><rect fill="#ffffff" stroke="none" x="289" y="480" width="13" height="28"/></g><g transform="translate(20,10) scale(1,1)"><path fill="none" stroke="#000000" d="M 289 480 L 302 480 L 302 508 L 289 508 L 289 480 Z Z" stroke-miterlimit="10"/></g><g transform="translate(20,10) scale(1,1)"><path fill="none" stroke="#000000" d="M 302 480 L 599 480" stroke-miterlimit="10"/></g><g transform="translate(20,10) scale(1,1)"><path fill="#000000" stroke="none" d="M 588.8373251423759 484.209517756016 L 599 480 L 588.8373251423758 475.790482243984"/></g><g transform="translate(20,10) scale(1,1)"><path fill="none" stroke="#000000" d="M 588.8373251423759 484.209517756016 L 599 480 L 588.8373251423758 475.790482243984 L 588.8373251423759 484.209517756016" stroke-miterlimit="10"/></g><g transform="translate(20,10) scale(1,1)"><g><path fill="none" stroke="none"/><text fill="#000000" stroke="none" font-family="Arial" font-size="13px" font-style="normal" font-weight="normal" text-decoration="none" x="415.5" y="476.5">15 : /delays</text></g></g><g transform="translate(20,10) scale(1,1)"><rect fill="#ffffff" stroke="none" x="599" y="480" width="13" height="28"/></g><g transform="translate(20,10) scale(1,1)"><path fill="none" stroke="#000000" d="M 599 480 L 612 480 L 612 508 L 599 508 L 599 480 Z Z" stroke-miterlimit="10"/></g><g transform="translate(20,10) scale(1,1)"><path fill="none" stroke="#000000" d="M 612 501 L 1573 501" stroke-miterlimit="10"/></g><g transform="translate(20,10) scale(1,1)"><path fill="#000000" stroke="none" d="M 1562.837325142376 505.209517756016 L 1573 501 L 1562.837325142376 496.790482243984"/></g><g transform="translate(20,10) scale(1,1)"><path fill="none" stroke="#000000" d="M 1562.837325142376 505.209517756016 L 1573 501 L 1562.837325142376 496.790482243984 L 1562.837325142376 505.209517756016" stroke-miterlimit="10"/></g><g transform="translate(20,10) scale(1,1)"><g><path fill="none" stroke="none"/><text fill="#000000" stroke="none" font-family="Arial" font-size="13px" font-style="normal" font-weight="normal" text-decoration="none" x="975.5" y="492.5">16 : String excludeAtypicalDelays(ModelMap model)</text></g></g><g transform="translate(20,10) scale(1,1)"><rect fill="#ffffff" stroke="none" x="1573" y="501" width="13" height="99"/></g><g transform="translate(20,10) scale(1,1)"><path fill="none" stroke="#000000" d="M 1573 501 L 1586 501 L 1586 600 L 1573 600 L 1573 501 Z Z" stroke-miterlimit="10"/></g><g transform="translate(20,10) scale(1,1)"><path fill="none" stroke="#000000" d="M 1913 512 L 2182 512" stroke-miterlimit="10"/></g><g transform="translate(20,10) scale(1,1)"><path fill="#000000" stroke="none" d="M 2171.837325142376 516.209517756016 L 2182 512 L 2171.837325142376 507.790482243984"/></g><g transform="translate(20,10) scale(1,1)"><path fill="none" stroke="#000000" d="M 2171.837325142376 516.209517756016 L 2182 512 L 2171.837325142376 507.790482243984 L 2171.837325142376 516.209517756016" stroke-miterlimit="10"/></g><g transform="translate(20,10) scale(1,1)"><g><path fill="none" stroke="none"/><text fill="#000000" stroke="none" font-family="Arial" font-size="13px" font-style="normal" font-weight="normal" text-decoration="none" x="1991.5" y="508.5">18 : CountByDate()</text></g></g><g transform="translate(20,10) scale(1,1)"><rect fill="#ffffff" stroke="none" x="2182" y="512" width="13" height="107"/></g><g transform="translate(20,10) scale(1,1)"><path fill="none" stroke="#000000" d="M 2182 512 L 2195 512 L 2195 619 L 2182 619 L 2182 512 Z Z" stroke-miterlimit="10"/></g><g transform="translate(20,10) scale(1,1)"><path fill="none" stroke="#000000" d="M 1586 506 L 1900 506" stroke-miterlimit="10"/></g><g transform="translate(20,10) scale(1,1)"><path fill="#000000" stroke="none" d="M 1889.837325142376 510.209517756016 L 1900 506 L 1889.837325142376 501.790482243984"/></g><g transform="translate(20,10) scale(1,1)"><path fill="none" stroke="#000000" d="M 1889.837325142376 510.209517756016 L 1900 506 L 1889.837325142376 501.790482243984 L 1889.837325142376 510.209517756016" stroke-miterlimit="10"/></g><g transform="translate(20,10) scale(1,1)"><g><path fill="none" stroke="none"/><text fill="#000000" stroke="none" font-family="Arial" font-size="13px" font-style="normal" font-weight="normal" text-decoration="none" x="1667.5" y="502.5">17 : getDelayDistribution()</text></g></g><g transform="translate(20,10) scale(1,1)"><rect fill="#ffffff" stroke="none" x="1900" y="506" width="13" height="28"/></g><g transform="translate(20,10) scale(1,1)"><path fill="none" stroke="#000000" d="M 1900 506 L 1913 506 L 1913 534 L 1900 534 L 1900 506 Z Z" stroke-miterlimit="10"/></g><g transform="translate(20,10) scale(1,1)"><path fill="none" stroke="#000000" d="M 1586 552 L 1900 552" stroke-miterlimit="10"/></g><g transform="translate(20,10) scale(1,1)"><path fill="#000000" stroke="none" d="M 1889.837325142376 556.209517756016 L 1900 552 L 1889.837325142376 547.790482243984"/></g><g transform="translate(20,10) scale(1,1)"><path fill="none" stroke="#000000" d="M 1889.837325142376 556.209517756016 L 1900 552 L 1889.837325142376 547.790482243984 L 1889.837325142376 556.209517756016" stroke-miterlimit="10"/></g><g transform="translate(20,10) scale(1,1)"><g><path fill="none" stroke="none"/><text fill="#000000" stroke="none" font-family="Arial" font-size="13px" font-style="normal" font-weight="normal" text-decoration="none" x="1677.5" y="548.5">19 : getDelayNumber()</text></g></g><g transform="translate(20,10) scale(1,1)"><rect fill="#ffffff" stroke="none" x="1900" y="552" width="13" height="28"/></g><g transform="translate(20,10) scale(1,1)"><path fill="none" stroke="#000000" d="M 1900 552 L 1913 552 L 1913 580 L 1900 580 L 1900 552 Z Z" stroke-miterlimit="10"/></g><g transform="translate(20,10) scale(1,1)"><path fill="none" stroke="#000000" d="M 1913 560 L 2189 560" stroke-miterlimit="10"/></g><g transform="translate(20,10) scale(1,1)"><path fill="#000000" stroke="none" d="M 2178.837325142376 564.209517756016 L 2189 560 L 2178.837325142376 555.790482243984"/></g><g transform="translate(20,10) scale(1,1)"><path fill="none" stroke="#000000" d="M 2178.837325142376 564.209517756016 L 2189 560 L 2178.837325142376 555.790482243984 L 2178.837325142376 564.209517756016" stroke-miterlimit="10"/></g><g transform="translate(20,10) scale(1,1)"><g><path fill="none" stroke="none"/><text fill="#000000" stroke="none" font-family="Arial" font-size="13px" font-style="normal" font-weight="normal" text-decoration="none" x="1999.5" y="556.5">20 : filterByDate()</text></g></g><g transform="translate(20,10) scale(1,1)"><rect fill="#ffffff" stroke="none" x="2189" y="560" width="13" height="56"/></g><g transform="translate(20,10) scale(1,1)"><path fill="none" stroke="#000000" d="M 2189 560 L 2202 560 L 2202 616 L 2189 616 L 2189 560 Z Z" stroke-miterlimit="10"/></g><g transform="translate(20,10) scale(1,1)"><path fill="none" stroke="#000000" d="M 2189 615 L 295 615" stroke-miterlimit="10" stroke-dasharray="3"/></g><g transform="translate(20,10) scale(1,1)"><path fill="none" stroke="#000000" d="M 305.16267485762415 610.790482243984 L 295 615 L 305.16267485762415 619.209517756016" stroke-miterlimit="10"/></g><g transform="translate(20,10) scale(1,1)"><g><path fill="none" stroke="none"/><text fill="#000000" stroke="none" font-family="Arial" font-size="13px" font-style="normal" font-weight="normal" text-decoration="none" x="1114" y="631.5">21 : return delay-analysis</text></g></g><g transform="translate(20,10) scale(1,1)"><path fill="none" stroke="#000000" d="M 64 704 L 289 704" stroke-miterlimit="10"/></g><g transform="translate(20,10) scale(1,1)"><path fill="#000000" stroke="none" d="M 278.83732514237585 708.209517756016 L 289 704 L 278.83732514237585 699.790482243984"/></g><g transform="translate(20,10) scale(1,1)"><path fill="none" stroke="#000000" d="M 278.83732514237585 708.209517756016 L 289 704 L 278.83732514237585 699.790482243984 L 278.83732514237585 708.209517756016" stroke-miterlimit="10"/></g><g transform="translate(20,10) scale(1,1)"><g><path fill="none" stroke="none"/><text fill="#000000" stroke="none" font-family="Arial" font-size="13px" font-style="normal" font-weight="normal" text-decoration="none" x="-10.5" y="700.5">22 : Cliquer sur "Eliminer les retards atypiques" et filtrer par date</text></g></g><g transform="translate(20,10) scale(1,1)"><rect fill="#ffffff" stroke="none" x="289" y="704" width="13" height="28"/></g><g transform="translate(20,10) scale(1,1)"><path fill="none" stroke="#000000" d="M 289 704 L 302 704 L 302 732 L 289 732 L 289 704 Z Z" stroke-miterlimit="10"/></g><g transform="translate(20,10) scale(1,1)"><path fill="none" stroke="#000000" d="M 302 712 L 599 712" stroke-miterlimit="10"/></g><g transform="translate(20,10) scale(1,1)"><path fill="#000000" stroke="none" d="M 588.8373251423759 716.209517756016 L 599 712 L 588.8373251423758 707.790482243984"/></g><g transform="translate(20,10) scale(1,1)"><path fill="none" stroke="#000000" d="M 588.8373251423759 716.209517756016 L 599 712 L 588.8373251423758 707.790482243984 L 588.8373251423759 716.209517756016" stroke-miterlimit="10"/></g><g transform="translate(20,10) scale(1,1)"><g><path fill="none" stroke="none"/><text fill="#000000" stroke="none" font-family="Arial" font-size="13px" font-style="normal" font-weight="normal" text-decoration="none" x="415.5" y="708.5">23 : /delays</text></g></g><g transform="translate(20,10) scale(1,1)"><rect fill="#ffffff" stroke="none" x="599" y="712" width="13" height="40"/></g><g transform="translate(20,10) scale(1,1)"><path fill="none" stroke="#000000" d="M 599 712 L 612 712 L 612 752 L 599 752 L 599 712 Z Z" stroke-miterlimit="10"/></g><g transform="translate(20,10) scale(1,1)"><path fill="none" stroke="#000000" d="M 612 712 L 1573 712" stroke-miterlimit="10"/></g><g transform="translate(20,10) scale(1,1)"><path fill="#000000" stroke="none" d="M 1562.837325142376 716.209517756016 L 1573 712 L 1562.837325142376 707.790482243984"/></g><g transform="translate(20,10) scale(1,1)"><path fill="none" stroke="#000000" d="M 1562.837325142376 716.209517756016 L 1573 712 L 1562.837325142376 707.790482243984 L 1562.837325142376 716.209517756016" stroke-miterlimit="10"/></g><g transform="translate(20,10) scale(1,1)"><g><path fill="none" stroke="none"/><text fill="#000000" stroke="none" font-family="Arial" font-size="13px" font-style="normal" font-weight="normal" text-decoration="none" x="802.5" y="708.5">24 : String filterCleanValuesByDate(@ModelAttribute SearchPeriod searchPeriod, ModelMap model)</text></g></g><g transform="translate(20,10) scale(1,1)"><rect fill="#ffffff" stroke="none" x="1573" y="712" width="13" height="56"/></g><g transform="translate(20,10) scale(1,1)"><path fill="none" stroke="#000000" d="M 1573 712 L 1586 712 L 1586 768 L 1573 768 L 1573 712 Z Z" stroke-miterlimit="10"/></g><g transform="translate(20,10) scale(1,1)"><path fill="none" stroke="#000000" d="M 1586 712 L 1900 712" stroke-miterlimit="10"/></g><g transform="translate(20,10) scale(1,1)"><path fill="#000000" stroke="none" d="M 1889.837325142376 716.209517756016 L 1900 712 L 1889.837325142376 707.790482243984"/></g><g transform="translate(20,10) scale(1,1)"><path fill="none" stroke="#000000" d="M 1889.837325142376 716.209517756016 L 1900 712 L 1889.837325142376 707.790482243984 L 1889.837325142376 716.209517756016" stroke-miterlimit="10"/></g><g transform="translate(20,10) scale(1,1)"><g><path fill="none" stroke="none"/><text fill="#000000" stroke="none" font-family="Arial" font-size="13px" font-style="normal" font-weight="normal" text-decoration="none" x="1667.5" y="708.5">25 : getDelayDistribution()</text></g></g><g transform="translate(20,10) scale(1,1)"><rect fill="#ffffff" stroke="none" x="1900" y="712" width="13" height="28"/></g><g transform="translate(20,10) scale(1,1)"><path fill="none" stroke="#000000" d="M 1900 712 L 1913 712 L 1913 740 L 1900 740 L 1900 712 Z Z" stroke-miterlimit="10"/></g><g transform="translate(20,10) scale(1,1)"><path fill="none" stroke="#000000" d="M 1913 720 L 2182 720" stroke-miterlimit="10"/></g><g transform="translate(20,10) scale(1,1)"><path fill="#000000" stroke="none" d="M 2171.837325142376 724.209517756016 L 2182 720 L 2171.837325142376 715.790482243984"/></g><g transform="translate(20,10) scale(1,1)"><path fill="none" stroke="#000000" d="M 2171.837325142376 724.209517756016 L 2182 720 L 2171.837325142376 715.790482243984 L 2171.837325142376 724.209517756016" stroke-miterlimit="10"/></g><g transform="translate(20,10) scale(1,1)"><g><path fill="none" stroke="none"/><text fill="#000000" stroke="none" font-family="Arial" font-size="13px" font-style="normal" font-weight="normal" text-decoration="none" x="1991.5" y="716.5">26 : CountByDate()</text></g></g><g transform="translate(20,10) scale(1,1)"><rect fill="#ffffff" stroke="none" x="2182" y="720" width="13" height="72"/></g><g transform="translate(20,10) scale(1,1)"><path fill="none" stroke="#000000" d="M 2182 720 L 2195 720 L 2195 792 L 2182 792 L 2182 720 Z Z" stroke-miterlimit="10"/></g><g transform="translate(20,10) scale(1,1)"><path fill="none" stroke="#000000" d="M 612 736 L 1325 736" stroke-miterlimit="10"/></g><g transform="translate(20,10) scale(1,1)"><path fill="#000000" stroke="none" d="M 1314.837325142376 740.209517756016 L 1325 736 L 1314.837325142376 731.790482243984"/></g><g transform="translate(20,10) scale(1,1)"><path fill="none" stroke="#000000" d="M 1314.837325142376 740.209517756016 L 1325 736 L 1314.837325142376 731.790482243984 L 1314.837325142376 740.209517756016" stroke-miterlimit="10"/></g><g transform="translate(20,10) scale(1,1)"><g><path fill="none" stroke="none"/><text fill="#000000" stroke="none" font-family="Arial" font-size="13px" font-style="normal" font-weight="normal" text-decoration="none" x="678.5" y="732.5">27 : String filterCleanValuesByDate(@ModelAttribute SearchPeriod searchPeriod, ModelMap model)</text></g></g><g transform="translate(20,10) scale(1,1)"><rect fill="#ffffff" stroke="none" x="1325" y="736" width="13" height="28"/></g><g transform="translate(20,10) scale(1,1)"><path fill="none" stroke="#000000" d="M 1325 736 L 1338 736 L 1338 764 L 1325 764 L 1325 736 Z Z" stroke-miterlimit="10"/></g><g transform="translate(20,10) scale(1,1)"><path fill="none" stroke="#000000" d="M 1586 741 L 1900 741" stroke-miterlimit="10"/></g><g transform="translate(20,10) scale(1,1)"><path fill="#000000" stroke="none" d="M 1889.837325142376 745.209517756016 L 1900 741 L 1889.837325142376 736.790482243984"/></g><g transform="translate(20,10) scale(1,1)"><path fill="none" stroke="#000000" d="M 1889.837325142376 745.209517756016 L 1900 741 L 1889.837325142376 736.790482243984 L 1889.837325142376 745.209517756016" stroke-miterlimit="10"/></g><g transform="translate(20,10) scale(1,1)"><g><path fill="none" stroke="none"/><text fill="#000000" stroke="none" font-family="Arial" font-size="13px" font-style="normal" font-weight="normal" text-decoration="none" x="1677.5" y="737.5">28 : getDelayNumber()</text></g></g><g transform="translate(20,10) scale(1,1)"><rect fill="#ffffff" stroke="none" x="1900" y="741" width="13" height="28"/></g><g transform="translate(20,10) scale(1,1)"><path fill="none" stroke="#000000" d="M 1900 741 L 1913 741 L 1913 769 L 1900 769 L 1900 741 Z Z" stroke-miterlimit="10"/></g><g transform="translate(20,10) scale(1,1)"><path fill="none" stroke="#000000" d="M 1913 752 L 2189 752" stroke-miterlimit="10"/></g><g transform="translate(20,10) scale(1,1)"><path fill="#000000" stroke="none" d="M 2178.837325142376 756.209517756016 L 2189 752 L 2178.837325142376 747.790482243984"/></g><g transform="translate(20,10) scale(1,1)"><path fill="none" stroke="#000000" d="M 2178.837325142376 756.209517756016 L 2189 752 L 2178.837325142376 747.790482243984 L 2178.837325142376 756.209517756016" stroke-miterlimit="10"/></g><g transform="translate(20,10) scale(1,1)"><g><path fill="none" stroke="none"/><text fill="#000000" stroke="none" font-family="Arial" font-size="13px" font-style="normal" font-weight="normal" text-decoration="none" x="1999.5" y="748.5">29 : filterByDate()</text></g></g><g transform="translate(20,10) scale(1,1)"><rect fill="#ffffff" stroke="none" x="2189" y="752" width="13" height="28"/></g><g transform="translate(20,10) scale(1,1)"><path fill="none" stroke="#000000" d="M 2189 752 L 2202 752 L 2202 780 L 2189 780 L 2189 752 Z Z" stroke-miterlimit="10"/></g><g transform="translate(20,10) scale(1,1)"><path fill="none" stroke="#000000" d="M 2182 781 L 295 781" stroke-miterlimit="10" stroke-dasharray="3"/></g><g transform="translate(20,10) scale(1,1)"><path fill="none" stroke="#000000" d="M 305.16267485762415 776.790482243984 L 295 781 L 305.16267485762415 785.209517756016" stroke-miterlimit="10"/></g><g transform="translate(20,10) scale(1,1)"><g><path fill="none" stroke="none"/><text fill="#000000" stroke="none" font-family="Arial" font-size="13px" font-style="normal" font-weight="normal" text-decoration="none" x="1163.5" y="797.5">30 : return delay-analysis</text></g></g></g></svg>