<svg version="1.1" xmlns="http://www.w3.org/2000/svg" xmlns:xlink="http://www.w3.org/1999/xlink" width="831" height="639"><defs/><g><g transform="translate(5,5) scale(1,1)"><path fill="none" stroke="#000000" d="M 5 5 L 816 5 L 816 624 L 5 624 L 5 5" stroke-miterlimit="10"/></g><g transform="translate(5,5) scale(1,1)"><path fill="#ffffff" stroke="none" d="M 5 5 L 5 27 L 199.47705078125 27 L 210.47705078125 16 L 210.47705078125 5 L 5 5"/></g><g transform="translate(5,5) scale(1,1)"><path fill="none" stroke="#000000" d="M 5 5 L 5 27 L 199.47705078125 27 L 210.47705078125 16 L 210.47705078125 5 L 5 5 L 5 5" stroke-miterlimit="10"/></g><g transform="translate(5,5) scale(1,1)"><g><path fill="none" stroke="none"/><text fill="#000000" stroke="none" font-family="Arial" font-size="13px" font-style="normal" font-weight="normal" text-decoration="none" x="75.97900390625" y="22.5">DSSAnalyseRetards</text></g></g><g transform="translate(5,5) scale(1,1)"><g><path fill="none" stroke="none"/><text fill="#000000" stroke="none" font-family="Arial" font-size="13px" font-style="normal" font-weight="bold" text-decoration="none" x="10" y="22.5">interaction</text></g></g><g transform="translate(5,5) scale(1,1)"><rect fill="#C0C0C0" stroke="none" x="567" y="47" width="85" height="39" opacity="0.2"/></g><g transform="translate(5,5) scale(1,1)"><rect fill="#ffffff" stroke="none" x="560" y="40" width="85" height="39"/></g><g transform="translate(5,5) scale(1,1)"><path fill="none" stroke="#000000" d="M 560 40 L 645 40 L 645 79 L 560 79 L 560 40 Z Z" stroke-miterlimit="10"/></g><g transform="translate(5,5) scale(1,1)"><g><path fill="none" stroke="none"/><text fill="#000000" stroke="none" font-family="Arial" font-size="13px" font-style="normal" font-weight="normal" text-decoration="none" x="569.984130859375" y="57.5">«Système»</text></g></g><g transform="translate(5,5) scale(1,1)"><g><path fill="none" stroke="none"/><text fill="#000000" stroke="none" font-family="Arial" font-size="13px" font-style="normal" font-weight="bold" text-decoration="none" x="577.214111328125" y="72.5">Système</text></g></g><g transform="translate(5,5) scale(1,1)"><path fill="none" stroke="#000000" d="M 603.5 80 L 603.5 616" stroke-miterlimit="10" stroke-dasharray="3"/></g><g transform="translate(5,5) scale(1,1)"><path fill="none" stroke="#000000" d="M 24 232 L 800 232 L 800 520 L 24 520 L 24 232" stroke-miterlimit="10"/></g><g transform="translate(5,5) scale(1,1)"><path fill="#ffffff" stroke="none" d="M 24 232 L 24 254 L 86.9599609375 254 L 97.9599609375 243 L 97.9599609375 232 L 24 232"/></g><g transform="translate(5,5) scale(1,1)"><path fill="none" stroke="#000000" d="M 24 232 L 24 254 L 86.9599609375 254 L 97.9599609375 243 L 97.9599609375 232 L 24 232 L 24 232" stroke-miterlimit="10"/></g><g transform="translate(5,5) scale(1,1)"><g><path fill="none" stroke="none"/><text fill="#000000" stroke="none" font-family="Arial" font-size="13px" font-style="normal" font-weight="normal" text-decoration="none" x="53.07177734375" y="249.5">Filtre</text></g></g><g transform="translate(5,5) scale(1,1)"><g><path fill="none" stroke="none"/><text fill="#000000" stroke="none" font-family="Arial" font-size="13px" font-style="normal" font-weight="bold" text-decoration="none" x="29" y="249.5">opt</text></g></g><g transform="translate(5,5) scale(1,1)"><path fill="none" stroke="#000000" d="M 24 377 L 800 377" stroke-miterlimit="10" stroke-dasharray="10,3"/></g><g transform="translate(5,5) scale(1,1)"><path fill="#ffffff" stroke="none" d="M 186.3799911221591 47.3 C 186.3799911221591 43.82060576 189.2583928443409 41 192.80908203125 41 C 196.3597712181591 41 199.23817294034092 43.82060576 199.23817294034092 47.3 C 199.23817294034092 50.779394239999995 196.3597712181591 53.6 192.80908203125 53.6 C 189.2583928443409 53.6 186.3799911221591 50.779394239999995 186.3799911221591 47.3 Z"/></g><g transform="translate(5,5) scale(1,1)"><path fill="none" stroke="#000000" d="M 186.3799911221591 47.3 C 186.3799911221591 43.82060576 189.2583928443409 41 192.80908203125 41 C 196.3597712181591 41 199.23817294034092 43.82060576 199.23817294034092 47.3 C 199.23817294034092 50.779394239999995 196.3597712181591 53.6 192.80908203125 53.6 C 189.2583928443409 53.6 186.3799911221591 50.779394239999995 186.3799911221591 47.3 Z" stroke-miterlimit="10"/></g><g transform="translate(5,5) scale(1,1)"><path fill="none" stroke="#000000" d="M 192.80908203125 53.6 L 192.80908203125 66.4" stroke-miterlimit="10"/></g><g transform="translate(5,5) scale(1,1)"><path fill="none" stroke="#000000" d="M 186.0018093039773 58.4 L 199.61635475852273 58.4" stroke-miterlimit="10"/></g><g transform="translate(5,5) scale(1,1)"><path fill="none" stroke="#000000" d="M 192.80908203125 66.4 L 183.35453657670456 79" stroke-miterlimit="10"/></g><g transform="translate(5,5) scale(1,1)"><path fill="none" stroke="#000000" d="M 192.80908203125 66.4 L 202.26362748579547 79" stroke-miterlimit="10"/></g><g transform="translate(5,5) scale(1,1)"><g><path fill="none" stroke="none"/><text fill="#000000" stroke="none" font-family="Arial" font-size="13px" font-style="normal" font-weight="bold" text-decoration="none" x="161.013671875" y="99.5">: Agent BO</text></g></g><g transform="translate(5,5) scale(1,1)"><path fill="none" stroke="#000000" d="M 193.5 105 L 193.5 568" stroke-miterlimit="10" stroke-dasharray="3"/></g><g transform="translate(5,5) scale(1,1)"><path fill="none" stroke="#000000" d="M 193 120 L 596 120" stroke-miterlimit="10"/></g><g transform="translate(5,5) scale(1,1)"><path fill="#000000" stroke="none" d="M 585.8373251423759 124.20951775601598 L 596 120 L 585.8373251423758 115.79048224398402"/></g><g transform="translate(5,5) scale(1,1)"><path fill="none" stroke="#000000" d="M 585.8373251423759 124.20951775601598 L 596 120 L 585.8373251423758 115.79048224398402 L 585.8373251423759 124.20951775601598" stroke-miterlimit="10"/></g><g transform="translate(5,5) scale(1,1)"><g><path fill="none" stroke="none"/><text fill="#000000" stroke="none" font-family="Arial" font-size="13px" font-style="normal" font-weight="normal" text-decoration="none" x="289.679443359375" y="116.5">1 : Cliquer sur "Analyser les retards"</text></g></g><g transform="translate(5,5) scale(1,1)"><rect fill="#ffffff" stroke="none" x="596" y="120" width="13" height="212"/></g><g transform="translate(5,5) scale(1,1)"><path fill="none" stroke="#000000" d="M 596 120 L 609 120 L 609 332 L 596 332 L 596 120 Z Z" stroke-miterlimit="10"/></g><g transform="translate(5,5) scale(1,1)"><path fill="none" stroke="#000000" d="M 609 128 L 639 128 L 639 148 L 616 148" stroke-miterlimit="10"/></g><g transform="translate(5,5) scale(1,1)"><path fill="#000000" stroke="none" d="M 626.1626748576241 143.790482243984 L 616 148 L 626.1626748576241 152.209517756016"/></g><g transform="translate(5,5) scale(1,1)"><path fill="none" stroke="#000000" d="M 626.1626748576241 143.790482243984 L 616 148 L 626.1626748576241 152.209517756016 L 626.1626748576241 143.790482243984" stroke-miterlimit="10"/></g><g transform="translate(5,5) scale(1,1)"><g><path fill="none" stroke="none"/><text fill="#000000" stroke="none" font-family="Arial" font-size="13px" font-style="normal" font-weight="normal" text-decoration="none" x="645.379638671875" y="156.5">2 : Calcul des indicateurs</text></g></g><g transform="translate(5,5) scale(1,1)"><rect fill="#ffffff" stroke="none" x="603" y="148" width="13" height="181"/></g><g transform="translate(5,5) scale(1,1)"><path fill="none" stroke="#000000" d="M 603 148 L 616 148 L 616 329 L 603 329 L 603 148 Z Z" stroke-miterlimit="10"/></g><g transform="translate(5,5) scale(1,1)"><path fill="none" stroke="#000000" d="M 603 152 L 193 152" stroke-miterlimit="10" stroke-dasharray="3"/></g><g transform="translate(5,5) scale(1,1)"><path fill="none" stroke="#000000" d="M 203.16267485762415 147.790482243984 L 193 152 L 203.16267485762415 156.209517756016" stroke-miterlimit="10"/></g><g transform="translate(5,5) scale(1,1)"><g><path fill="none" stroke="none"/><text fill="#000000" stroke="none" font-family="Arial" font-size="13px" font-style="normal" font-weight="normal" text-decoration="none" x="270.045166015625" y="168.5">3 : Affichage des indicateurs et diagrammes</text></g></g><g transform="translate(5,5) scale(1,1)"><path fill="none" stroke="#000000" d="M 616 256 L 646 256 L 646 276 L 630 276" stroke-miterlimit="10"/></g><g transform="translate(5,5) scale(1,1)"><path fill="#000000" stroke="none" d="M 640.1626748576241 271.790482243984 L 630 276 L 640.1626748576241 280.209517756016"/></g><g transform="translate(5,5) scale(1,1)"><path fill="none" stroke="#000000" d="M 640.1626748576241 271.790482243984 L 630 276 L 640.1626748576241 280.209517756016 L 640.1626748576241 271.790482243984" stroke-miterlimit="10"/></g><g transform="translate(5,5) scale(1,1)"><g><path fill="none" stroke="none"/><text fill="#000000" stroke="none" font-family="Arial" font-size="13px" font-style="normal" font-weight="normal" text-decoration="none" x="647.379638671875" y="271.5">4 : Calcul des indicateurs</text></g></g><g transform="translate(5,5) scale(1,1)"><rect fill="#ffffff" stroke="none" x="617" y="276" width="13" height="31"/></g><g transform="translate(5,5) scale(1,1)"><path fill="none" stroke="#000000" d="M 617 276 L 630 276 L 630 307 L 617 307 L 617 276 Z Z" stroke-miterlimit="10"/></g><g transform="translate(5,5) scale(1,1)"><path fill="none" stroke="#000000" d="M 193 264 L 610 264" stroke-miterlimit="10"/></g><g transform="translate(5,5) scale(1,1)"><path fill="#000000" stroke="none" d="M 599.8373251423759 268.209517756016 L 610 264 L 599.8373251423758 259.790482243984"/></g><g transform="translate(5,5) scale(1,1)"><path fill="none" stroke="#000000" d="M 599.8373251423759 268.209517756016 L 610 264 L 599.8373251423758 259.790482243984 L 599.8373251423759 268.209517756016" stroke-miterlimit="10"/></g><g transform="translate(5,5) scale(1,1)"><g><path fill="none" stroke="none"/><text fill="#000000" stroke="none" font-family="Arial" font-size="13px" font-style="normal" font-weight="normal" text-decoration="none" x="349.701416015625" y="260.5">5 : Filtrer par date</text></g></g><g transform="translate(5,5) scale(1,1)"><rect fill="#ffffff" stroke="none" x="610" y="264" width="13" height="54"/></g><g transform="translate(5,5) scale(1,1)"><path fill="none" stroke="#000000" d="M 610 264 L 623 264 L 623 318 L 610 318 L 610 264 Z Z" stroke-miterlimit="10"/></g><g transform="translate(5,5) scale(1,1)"><path fill="none" stroke="#000000" d="M 603 320 L 193 320" stroke-miterlimit="10" stroke-dasharray="3"/></g><g transform="translate(5,5) scale(1,1)"><path fill="none" stroke="#000000" d="M 203.16267485762415 315.790482243984 L 193 320 L 203.16267485762415 324.209517756016" stroke-miterlimit="10"/></g><g transform="translate(5,5) scale(1,1)"><g><path fill="none" stroke="none"/><text fill="#000000" stroke="none" font-family="Arial" font-size="13px" font-style="normal" font-weight="normal" text-decoration="none" x="270.045166015625" y="336.5">6 : Affichage des indicateurs et diagrammes</text></g></g><g transform="translate(5,5) scale(1,1)"><path fill="none" stroke="#000000" d="M 193 424 L 596 424" stroke-miterlimit="10"/></g><g transform="translate(5,5) scale(1,1)"><path fill="#000000" stroke="none" d="M 585.8373251423759 428.209517756016 L 596 424 L 585.8373251423758 419.790482243984"/></g><g transform="translate(5,5) scale(1,1)"><path fill="none" stroke="#000000" d="M 585.8373251423759 428.209517756016 L 596 424 L 585.8373251423758 419.790482243984 L 585.8373251423759 428.209517756016" stroke-miterlimit="10"/></g><g transform="translate(5,5) scale(1,1)"><g><path fill="none" stroke="none"/><text fill="#000000" stroke="none" font-family="Arial" font-size="13px" font-style="normal" font-weight="normal" text-decoration="none" x="306.576904296875" y="420.5">7 : Filtrer les retards atypiques</text></g></g><g transform="translate(5,5) scale(1,1)"><rect fill="#ffffff" stroke="none" x="596" y="424" width="13" height="70"/></g><g transform="translate(5,5) scale(1,1)"><path fill="none" stroke="#000000" d="M 596 424 L 609 424 L 609 494 L 596 494 L 596 424 Z Z" stroke-miterlimit="10"/></g><g transform="translate(5,5) scale(1,1)"><path fill="none" stroke="#000000" d="M 609 432 L 639 432 L 639 452 L 616 452" stroke-miterlimit="10"/></g><g transform="translate(5,5) scale(1,1)"><path fill="#000000" stroke="none" d="M 626.1626748576241 447.790482243984 L 616 452 L 626.1626748576241 456.209517756016"/></g><g transform="translate(5,5) scale(1,1)"><path fill="none" stroke="#000000" d="M 626.1626748576241 447.790482243984 L 616 452 L 626.1626748576241 456.209517756016 L 626.1626748576241 447.790482243984" stroke-miterlimit="10"/></g><g transform="translate(5,5) scale(1,1)"><g><path fill="none" stroke="none"/><text fill="#000000" stroke="none" font-family="Arial" font-size="13px" font-style="normal" font-weight="normal" text-decoration="none" x="631.379638671875" y="476.5">8 : Calcul des indicateurs</text></g></g><g transform="translate(5,5) scale(1,1)"><rect fill="#ffffff" stroke="none" x="603" y="452" width="13" height="31"/></g><g transform="translate(5,5) scale(1,1)"><path fill="none" stroke="#000000" d="M 603 452 L 616 452 L 616 483 L 603 483 L 603 452 Z Z" stroke-miterlimit="10"/></g><g transform="translate(5,5) scale(1,1)"><path fill="none" stroke="#000000" d="M 603 472 L 193 472" stroke-miterlimit="10" stroke-dasharray="3"/></g><g transform="translate(5,5) scale(1,1)"><path fill="none" stroke="#000000" d="M 203.16267485762415 467.790482243984 L 193 472 L 203.16267485762415 476.209517756016" stroke-miterlimit="10"/></g><g transform="translate(5,5) scale(1,1)"><g><path fill="none" stroke="none"/><text fill="#000000" stroke="none" font-family="Arial" font-size="13px" font-style="normal" font-weight="normal" text-decoration="none" x="273.28564453125" y="488.5">9 : Affichage des données brutes et filtrées</text></g></g></g></svg>