<svg version="1.1" xmlns="http://www.w3.org/2000/svg" xmlns:xlink="http://www.w3.org/1999/xlink" width="668" height="252"><defs/><g><g transform="translate(-14,-46) scale(1,1)"><rect fill="#C0C0C0" stroke="none" x="175" y="63" width="504" height="232" opacity="0.2"/></g><g transform="translate(-14,-46) scale(1,1)"><rect fill="#ffffff" stroke="none" x="168" y="56" width="504" height="232"/></g><g transform="translate(-14,-46) scale(1,1)"><path fill="none" stroke="#000000" d="M 168 56 L 672 56 L 672 288 L 168 288 L 168 56 Z Z" stroke-miterlimit="10"/></g><g transform="translate(-14,-46) scale(1,1)"><g><path fill="none" stroke="none"/><text fill="#000000" stroke="none" font-family="Arial" font-size="13px" font-style="normal" font-weight="bold" text-decoration="none" x="362" y="75.5">Analyse des retards</text></g></g><g transform="translate(-14,-46) scale(1,1)"><path fill="#ffffff" stroke="none" d="M 49.32072727272727 193.68 C 49.32072727272727 188.886167936 53.206569597672726 185 58 185 C 62.793430402327274 185 66.67927272727273 188.886167936 66.67927272727273 193.68 C 66.67927272727273 198.47383206400002 62.793430402327274 202.36 58 202.36 C 53.206569597672726 202.36 49.32072727272727 198.47383206400002 49.32072727272727 193.68 Z"/></g><g transform="translate(-14,-46) scale(1,1)"><path fill="none" stroke="#000000" d="M 49.32072727272727 193.68 C 49.32072727272727 188.886167936 53.206569597672726 185 58 185 C 62.793430402327274 185 66.67927272727273 188.886167936 66.67927272727273 193.68 C 66.67927272727273 198.47383206400002 62.793430402327274 202.36 58 202.36 C 53.206569597672726 202.36 49.32072727272727 198.47383206400002 49.32072727272727 193.68 Z" stroke-miterlimit="10"/></g><g transform="translate(-14,-46) scale(1,1)"><path fill="none" stroke="#000000" d="M 58 202.36 L 58 219.64" stroke-miterlimit="10"/></g><g transform="translate(-14,-46) scale(1,1)"><path fill="none" stroke="#000000" d="M 48.81018181818182 208.84 L 67.18981818181818 208.84" stroke-miterlimit="10"/></g><g transform="translate(-14,-46) scale(1,1)"><path fill="none" stroke="#000000" d="M 58 219.64 L 45.236363636363635 237" stroke-miterlimit="10"/></g><g transform="translate(-14,-46) scale(1,1)"><path fill="none" stroke="#000000" d="M 58 219.64 L 70.76363636363637 237" stroke-miterlimit="10"/></g><g transform="translate(-14,-46) scale(1,1)"><g><path fill="none" stroke="none"/><text fill="#000000" stroke="none" font-family="Arial" font-size="13px" font-style="normal" font-weight="bold" text-decoration="none" x="29.5" y="257.5">Agent BO</text></g></g><g transform="translate(-14,-46) scale(1,1)"><path fill="#C0C0C0" stroke="none" d="M 223 232 C 223 222.6111584 274.93496319999997 215 339 215 C 403.06503680000003 215 455 222.6111584 455 232 C 455 241.3888416 403.06503680000003 249 339 249 C 274.93496319999997 249 223 241.3888416 223 232 Z" opacity="0.2"/></g><g transform="translate(-14,-46) scale(1,1)"><path fill="#ffffff" stroke="none" d="M 216 225 C 216 215.6111584 267.93496319999997 208 332 208 C 396.06503680000003 208 448 215.6111584 448 225 C 448 234.3888416 396.06503680000003 242 332 242 C 267.93496319999997 242 216 234.3888416 216 225 Z"/></g><g transform="translate(-14,-46) scale(1,1)"><path fill="none" stroke="#000000" d="M 216 225 C 216 215.6111584 267.93496319999997 208 332 208 C 396.06503680000003 208 448 215.6111584 448 225 C 448 234.3888416 396.06503680000003 242 332 242 C 267.93496319999997 242 216 234.3888416 216 225 Z" stroke-miterlimit="10"/></g><g transform="translate(-14,-46) scale(1,1)"><g><path fill="none" stroke="none"/><text fill="#000000" stroke="none" font-family="Arial" font-size="13px" font-style="normal" font-weight="bold" text-decoration="none" x="260.5" y="232">Consulter les indicateurs</text></g></g><g transform="translate(-14,-46) scale(1,1)"><path fill="none" stroke="#000000" d="M 93 223 L 215 224" stroke-miterlimit="10"/></g><g transform="translate(-14,-46) scale(1,1)"><path fill="#C0C0C0" stroke="none" d="M 391 144 C 391 134.6111584 452.3369824 127 528 127 C 603.6630176 127 665 134.6111584 665 144 C 665 153.3888416 603.6630176 161 528 161 C 452.3369824 161 391 153.3888416 391 144 Z" opacity="0.2"/></g><g transform="translate(-14,-46) scale(1,1)"><path fill="#ffffff" stroke="none" d="M 384 137 C 384 127.6111584 445.3369824 120 521 120 C 596.6630176 120 658 127.6111584 658 137 C 658 146.3888416 596.6630176 154 521 154 C 445.3369824 154 384 146.3888416 384 137 Z"/></g><g transform="translate(-14,-46) scale(1,1)"><path fill="none" stroke="#000000" d="M 384 137 C 384 127.6111584 445.3369824 120 521 120 C 596.6630176 120 658 127.6111584 658 137 C 658 146.3888416 596.6630176 154 521 154 C 445.3369824 154 384 146.3888416 384 137 Z" stroke-miterlimit="10"/></g><g transform="translate(-14,-46) scale(1,1)"><g><path fill="none" stroke="none"/><text fill="#000000" stroke="none" font-family="Arial" font-size="13px" font-style="normal" font-weight="bold" text-decoration="none" x="436.5" y="144">Choisir une période d'analyse</text></g></g><g transform="translate(-14,-46) scale(1,1)"><path fill="none" stroke="#000000" d="M 482 155 L 371 207" stroke-miterlimit="10"/></g><g transform="translate(-14,-46) scale(1,1)"><path fill="#FFFFFF" stroke="none" d="M 385.83419637582756 190.75356599485954 L 371 207 L 392.97732450593514 206.00139719566604"/></g><g transform="translate(-14,-46) scale(1,1)"><path fill="none" stroke="#000000" d="M 385.83419637582756 190.75356599485954 L 371 207 L 392.97732450593514 206.00139719566604 L 385.83419637582756 190.75356599485954" stroke-miterlimit="10"/></g></g></svg>