<svg version="1.1" xmlns="http://www.w3.org/2000/svg" xmlns:xlink="http://www.w3.org/1999/xlink" width="692" height="340"><defs/><g><g transform="translate(-14,-46) scale(1,1)"><rect fill="#C0C0C0" stroke="none" x="175" y="63" width="528" height="320" opacity="0.2"/></g><g transform="translate(-14,-46) scale(1,1)"><rect fill="#ffffff" stroke="none" x="168" y="56" width="528" height="320"/></g><g transform="translate(-14,-46) scale(1,1)"><path fill="none" stroke="#000000" d="M 168 56 L 696 56 L 696 376 L 168 376 L 168 56 Z Z" stroke-miterlimit="10"/></g><g transform="translate(-14,-46) scale(1,1)"><g><path fill="none" stroke="none"/><text fill="#000000" stroke="none" font-family="Arial" font-size="13px" font-style="normal" font-weight="bold" text-decoration="none" x="374.5537109375" y="75.5">Analyse des retards</text></g></g><g transform="translate(-14,-46) scale(1,1)"><path fill="#ffffff" stroke="none" d="M 49.79118625710227 193.68 C 49.79118625710227 188.886167936 53.677028582047726 185 58.470458984375 185 C 63.263889386702274 185 67.14973171164773 188.886167936 67.14973171164773 193.68 C 67.14973171164773 198.47383206400002 63.263889386702274 202.36 58.470458984375 202.36 C 53.677028582047726 202.36 49.79118625710227 198.47383206400002 49.79118625710227 193.68 Z"/></g><g transform="translate(-14,-46) scale(1,1)"><path fill="none" stroke="#000000" d="M 49.79118625710227 193.68 C 49.79118625710227 188.886167936 53.677028582047726 185 58.470458984375 185 C 63.263889386702274 185 67.14973171164773 188.886167936 67.14973171164773 193.68 C 67.14973171164773 198.47383206400002 63.263889386702274 202.36 58.470458984375 202.36 C 53.677028582047726 202.36 49.79118625710227 198.47383206400002 49.79118625710227 193.68 Z" stroke-miterlimit="10"/></g><g transform="translate(-14,-46) scale(1,1)"><path fill="none" stroke="#000000" d="M 58.470458984375 202.36 L 58.470458984375 219.64" stroke-miterlimit="10"/></g><g transform="translate(-14,-46) scale(1,1)"><path fill="none" stroke="#000000" d="M 49.28064080255682 208.84 L 67.66027716619318 208.84" stroke-miterlimit="10"/></g><g transform="translate(-14,-46) scale(1,1)"><path fill="none" stroke="#000000" d="M 58.470458984375 219.64 L 45.706822620738635 237" stroke-miterlimit="10"/></g><g transform="translate(-14,-46) scale(1,1)"><path fill="none" stroke="#000000" d="M 58.470458984375 219.64 L 71.23409534801137 237" stroke-miterlimit="10"/></g><g transform="translate(-14,-46) scale(1,1)"><g><path fill="none" stroke="none"/><text fill="#000000" stroke="none" font-family="Arial" font-size="13px" font-style="normal" font-weight="bold" text-decoration="none" x="30.286865234375" y="257.5">Agent BO</text></g></g><g transform="translate(-14,-46) scale(1,1)"><path fill="#C0C0C0" stroke="none" d="M 223 232 C 223 222.6111584 274.93496319999997 215 339 215 C 403.06503680000003 215 455 222.6111584 455 232 C 455 241.3888416 403.06503680000003 249 339 249 C 274.93496319999997 249 223 241.3888416 223 232 Z" opacity="0.2"/></g><g transform="translate(-14,-46) scale(1,1)"><path fill="#ffffff" stroke="none" d="M 216 225 C 216 215.6111584 267.93496319999997 208 332 208 C 396.06503680000003 208 448 215.6111584 448 225 C 448 234.3888416 396.06503680000003 242 332 242 C 267.93496319999997 242 216 234.3888416 216 225 Z"/></g><g transform="translate(-14,-46) scale(1,1)"><path fill="none" stroke="#000000" d="M 216 225 C 216 215.6111584 267.93496319999997 208 332 208 C 396.06503680000003 208 448 215.6111584 448 225 C 448 234.3888416 396.06503680000003 242 332 242 C 267.93496319999997 242 216 234.3888416 216 225 Z" stroke-miterlimit="10"/></g><g transform="translate(-14,-46) scale(1,1)"><g><path fill="none" stroke="none"/><text fill="#000000" stroke="none" font-family="Arial" font-size="13px" font-style="normal" font-weight="bold" text-decoration="none" x="260.826904296875" y="232">Consulter les indicateurs</text></g></g><g transform="translate(-14,-46) scale(1,1)"><path fill="none" stroke="#000000" d="M 94 223 L 215 224" stroke-miterlimit="10"/></g><g transform="translate(-14,-46) scale(1,1)"><path fill="#C0C0C0" stroke="none" d="M 391 144 C 391 134.6111584 452.3369824 127 528 127 C 603.6630176 127 665 134.6111584 665 144 C 665 153.3888416 603.6630176 161 528 161 C 452.3369824 161 391 153.3888416 391 144 Z" opacity="0.2"/></g><g transform="translate(-14,-46) scale(1,1)"><path fill="#ffffff" stroke="none" d="M 384 137 C 384 127.6111584 445.3369824 120 521 120 C 596.6630176 120 658 127.6111584 658 137 C 658 146.3888416 596.6630176 154 521 154 C 445.3369824 154 384 146.3888416 384 137 Z"/></g><g transform="translate(-14,-46) scale(1,1)"><path fill="none" stroke="#000000" d="M 384 137 C 384 127.6111584 445.3369824 120 521 120 C 596.6630176 120 658 127.6111584 658 137 C 658 146.3888416 596.6630176 154 521 154 C 445.3369824 154 384 146.3888416 384 137 Z" stroke-miterlimit="10"/></g><g transform="translate(-14,-46) scale(1,1)"><g><path fill="none" stroke="none"/><text fill="#000000" stroke="none" font-family="Arial" font-size="13px" font-style="normal" font-weight="bold" text-decoration="none" x="435.56689453125" y="144">Choisir une période d'analyse</text></g></g><g transform="translate(-14,-46) scale(1,1)"><path fill="none" stroke="#000000" d="M 482 155 L 371 207" stroke-miterlimit="10"/></g><g transform="translate(-14,-46) scale(1,1)"><path fill="#FFFFFF" stroke="none" d="M 385.83419637582756 190.75356599485954 L 371 207 L 392.97732450593514 206.00139719566604"/></g><g transform="translate(-14,-46) scale(1,1)"><path fill="none" stroke="#000000" d="M 385.83419637582756 190.75356599485954 L 371 207 L 392.97732450593514 206.00139719566604 L 385.83419637582756 190.75356599485954" stroke-miterlimit="10"/></g><g transform="translate(-14,-46) scale(1,1)"><path fill="#C0C0C0" stroke="none" d="M 399 344 C 399 334.6111584 460.7846976 327 537 327 C 613.2153024 327 675 334.6111584 675 344 C 675 353.3888416 613.2153024 361 537 361 C 460.7846976 361 399 353.3888416 399 344 Z" opacity="0.2"/></g><g transform="translate(-14,-46) scale(1,1)"><path fill="#ffffff" stroke="none" d="M 392 337 C 392 327.6111584 453.7846976 320 530 320 C 606.2153024 320 668 327.6111584 668 337 C 668 346.3888416 606.2153024 354 530 354 C 453.7846976 354 392 346.3888416 392 337 Z"/></g><g transform="translate(-14,-46) scale(1,1)"><path fill="none" stroke="#000000" d="M 392 337 C 392 327.6111584 453.7846976 320 530 320 C 606.2153024 320 668 327.6111584 668 337 C 668 346.3888416 606.2153024 354 530 354 C 453.7846976 354 392 346.3888416 392 337 Z" stroke-miterlimit="10"/></g><g transform="translate(-14,-46) scale(1,1)"><g><path fill="none" stroke="none"/><text fill="#000000" stroke="none" font-family="Arial" font-size="13px" font-style="normal" font-weight="bold" text-decoration="none" x="444.741455078125" y="344">Eliminer les retards atypiques</text></g></g><g transform="translate(-14,-46) scale(1,1)"><path fill="none" stroke="#000000" d="M 498 319 L 364 243" stroke-miterlimit="10"/></g><g transform="translate(-14,-46) scale(1,1)"><path fill="#FFFFFF" stroke="none" d="M 385.83317896671144 245.70412577509785 L 364 243 L 377.52628322946816 260.35049457497416"/></g><g transform="translate(-14,-46) scale(1,1)"><path fill="none" stroke="#000000" d="M 385.83317896671144 245.70412577509785 L 364 243 L 377.52628322946816 260.35049457497416 L 385.83317896671144 245.70412577509785" stroke-miterlimit="10"/></g></g></svg>