<svg version="1.1" xmlns="http://www.w3.org/2000/svg" xmlns:xlink="http://www.w3.org/1999/xlink" width="684" height="444"><defs/><g><g transform="translate(-22,-46) scale(1,1)"><rect fill="#C0C0C0" stroke="none" x="167" y="63" width="536" height="424" opacity="0.2"/></g><g transform="translate(-22,-46) scale(1,1)"><rect fill="#ffffff" stroke="none" x="160" y="56" width="536" height="424"/></g><g transform="translate(-22,-46) scale(1,1)"><path fill="none" stroke="#000000" d="M 160 56 L 696 56 L 696 480 L 160 480 L 160 56 Z Z" stroke-miterlimit="10"/></g><g transform="translate(-22,-46) scale(1,1)"><g><path fill="none" stroke="none"/><text fill="#000000" stroke="none" font-family="Arial" font-size="13px" font-style="normal" font-weight="bold" text-decoration="none" x="416.4345703125" y="75.5">Sud</text></g></g><g transform="translate(-22,-46) scale(1,1)"><path fill="#ffffff" stroke="none" d="M 71.88933078835227 193.68 C 71.88933078835227 188.886167936 75.77517311329773 185 80.568603515625 185 C 85.36203391795227 185 89.24787624289773 188.886167936 89.24787624289773 193.68 C 89.24787624289773 198.47383206400002 85.36203391795227 202.36 80.568603515625 202.36 C 75.77517311329773 202.36 71.88933078835227 198.47383206400002 71.88933078835227 193.68 Z"/></g><g transform="translate(-22,-46) scale(1,1)"><path fill="none" stroke="#000000" d="M 71.88933078835227 193.68 C 71.88933078835227 188.886167936 75.77517311329773 185 80.568603515625 185 C 85.36203391795227 185 89.24787624289773 188.886167936 89.24787624289773 193.68 C 89.24787624289773 198.47383206400002 85.36203391795227 202.36 80.568603515625 202.36 C 75.77517311329773 202.36 71.88933078835227 198.47383206400002 71.88933078835227 193.68 Z" stroke-miterlimit="10"/></g><g transform="translate(-22,-46) scale(1,1)"><path fill="none" stroke="#000000" d="M 80.568603515625 202.36 L 80.568603515625 219.64" stroke-miterlimit="10"/></g><g transform="translate(-22,-46) scale(1,1)"><path fill="none" stroke="#000000" d="M 71.37878533380682 208.84 L 89.75842169744318 208.84" stroke-miterlimit="10"/></g><g transform="translate(-22,-46) scale(1,1)"><path fill="none" stroke="#000000" d="M 80.568603515625 219.64 L 67.80496715198863 237" stroke-miterlimit="10"/></g><g transform="translate(-22,-46) scale(1,1)"><path fill="none" stroke="#000000" d="M 80.568603515625 219.64 L 93.33223987926137 237" stroke-miterlimit="10"/></g><g transform="translate(-22,-46) scale(1,1)"><g><path fill="none" stroke="none"/><text fill="#000000" stroke="none" font-family="Arial" font-size="13px" font-style="normal" font-weight="bold" text-decoration="none" x="38.6708984375" y="257.5">Directeur CSC</text></g></g><g transform="translate(-22,-46) scale(1,1)"><path fill="#C0C0C0" stroke="none" d="M 279 248 C 279 238.6111584 353.992296 231 446.5 231 C 539.007704 231 614 238.6111584 614 248 C 614 257.3888416 539.007704 265 446.5 265 C 353.992296 265 279 257.3888416 279 248 Z" opacity="0.2"/></g><g transform="translate(-22,-46) scale(1,1)"><path fill="#ffffff" stroke="none" d="M 272 241 C 272 231.6111584 346.992296 224 439.5 224 C 532.007704 224 607 231.6111584 607 241 C 607 250.3888416 532.007704 258 439.5 258 C 346.992296 258 272 250.3888416 272 241 Z"/></g><g transform="translate(-22,-46) scale(1,1)"><path fill="none" stroke="#000000" d="M 272 241 C 272 231.6111584 346.992296 224 439.5 224 C 532.007704 224 607 231.6111584 607 241 C 607 250.3888416 532.007704 258 439.5 258 C 346.992296 258 272 250.3888416 272 241 Z" stroke-miterlimit="10"/></g><g transform="translate(-22,-46) scale(1,1)"><g><path fill="none" stroke="none"/><text fill="#000000" stroke="none" font-family="Arial" font-size="13px" font-style="normal" font-weight="bold" text-decoration="none" x="334.001953125" y="248">Maintenir le référentiel des véhicules</text></g></g><g transform="translate(-22,-46) scale(1,1)"><path fill="none" stroke="#000000" d="M 130 226 L 271 233" stroke-miterlimit="10"/></g><g transform="translate(-22,-46) scale(1,1)"><path fill="#C0C0C0" stroke="none" d="M 175 384 C 175 374.6111584 215.9659408 367 266.5 367 C 317.0340592 367 358 374.6111584 358 384 C 358 393.3888416 317.0340592 401 266.5 401 C 215.9659408 401 175 393.3888416 175 384 Z" opacity="0.2"/></g><g transform="translate(-22,-46) scale(1,1)"><path fill="#ffffff" stroke="none" d="M 168 377 C 168 367.6111584 208.9659408 360 259.5 360 C 310.0340592 360 351 367.6111584 351 377 C 351 386.3888416 310.0340592 394 259.5 394 C 208.9659408 394 168 386.3888416 168 377 Z"/></g><g transform="translate(-22,-46) scale(1,1)"><path fill="none" stroke="#000000" d="M 168 377 C 168 367.6111584 208.9659408 360 259.5 360 C 310.0340592 360 351 367.6111584 351 377 C 351 386.3888416 310.0340592 394 259.5 394 C 208.9659408 394 168 386.3888416 168 377 Z" stroke-miterlimit="10"/></g><g transform="translate(-22,-46) scale(1,1)"><g><path fill="none" stroke="none"/><text fill="#000000" stroke="none" font-family="Arial" font-size="13px" font-style="normal" font-weight="bold" text-decoration="none" x="204.215087890625" y="384">Ajouter un véhicule</text></g></g><g transform="translate(-22,-46) scale(1,1)"><path fill="none" stroke="#000000" d="M 283 359 L 415 259" stroke-miterlimit="10" stroke-dasharray="3"/></g><g transform="translate(-22,-46) scale(1,1)"><path fill="none" stroke="#000000" d="M 409.4413613264693 268.49218289420975 L 415 259 L 404.3574620070219 261.7814357925393" stroke-miterlimit="10"/></g><g transform="translate(-22,-46) scale(1,1)"><g><path fill="none" stroke="none"/><text fill="#000000" stroke="none" font-family="Arial" font-size="13px" font-style="normal" font-weight="normal" text-decoration="none" x="303.5" y="291.5">«extend»</text></g></g><g transform="translate(-22,-46) scale(1,1)"><path fill="#C0C0C0" stroke="none" d="M 343 440 C 343 430.6111584 385.532944 423 438 423 C 490.467056 423 533 430.6111584 533 440 C 533 449.3888416 490.467056 457 438 457 C 385.532944 457 343 449.3888416 343 440 Z" opacity="0.2"/></g><g transform="translate(-22,-46) scale(1,1)"><path fill="#ffffff" stroke="none" d="M 336 433 C 336 423.6111584 378.532944 416 431 416 C 483.467056 416 526 423.6111584 526 433 C 526 442.3888416 483.467056 450 431 450 C 378.532944 450 336 442.3888416 336 433 Z"/></g><g transform="translate(-22,-46) scale(1,1)"><path fill="none" stroke="#000000" d="M 336 433 C 336 423.6111584 378.532944 416 431 416 C 483.467056 416 526 423.6111584 526 433 C 526 442.3888416 483.467056 450 431 450 C 378.532944 450 336 442.3888416 336 433 Z" stroke-miterlimit="10"/></g><g transform="translate(-22,-46) scale(1,1)"><g><path fill="none" stroke="none"/><text fill="#000000" stroke="none" font-family="Arial" font-size="13px" font-style="normal" font-weight="bold" text-decoration="none" x="372.830078125" y="440">Modifer  un véhicule</text></g></g><g transform="translate(-22,-46) scale(1,1)"><path fill="none" stroke="#000000" d="M 432 415 L 438 259" stroke-miterlimit="10" stroke-dasharray="3"/></g><g transform="translate(-22,-46) scale(1,1)"><path fill="none" stroke="#000000" d="M 441.81582433383 269.31695132552977 L 438 259 L 433.4030090188142 268.9933815057215" stroke-miterlimit="10"/></g><g transform="translate(-22,-46) scale(1,1)"><g><path fill="none" stroke="none"/><text fill="#000000" stroke="none" font-family="Arial" font-size="13px" font-style="normal" font-weight="normal" text-decoration="none" x="378.5" y="341.5">«extend»</text></g></g><g transform="translate(-22,-46) scale(1,1)"><path fill="#C0C0C0" stroke="none" d="M 471 368 C 471 358.6111584 521.36796 351 583.5 351 C 645.63204 351 696 358.6111584 696 368 C 696 377.3888416 645.63204 385 583.5 385 C 521.36796 385 471 377.3888416 471 368 Z" opacity="0.2"/></g><g transform="translate(-22,-46) scale(1,1)"><path fill="#ffffff" stroke="none" d="M 464 361 C 464 351.6111584 514.36796 344 576.5 344 C 638.63204 344 689 351.6111584 689 361 C 689 370.3888416 638.63204 378 576.5 378 C 514.36796 378 464 370.3888416 464 361 Z"/></g><g transform="translate(-22,-46) scale(1,1)"><path fill="none" stroke="#000000" d="M 464 361 C 464 351.6111584 514.36796 344 576.5 344 C 638.63204 344 689 351.6111584 689 361 C 689 370.3888416 638.63204 378 576.5 378 C 514.36796 378 464 370.3888416 464 361 Z" stroke-miterlimit="10"/></g><g transform="translate(-22,-46) scale(1,1)"><g><path fill="none" stroke="none"/><text fill="#000000" stroke="none" font-family="Arial" font-size="13px" font-style="normal" font-weight="bold" text-decoration="none" x="506.406005859375" y="368">Rechercher  un véhicule</text></g></g><g transform="translate(-22,-46) scale(1,1)"><path fill="none" stroke="#000000" d="M 555 343 L 460 259" stroke-miterlimit="10" stroke-dasharray="3"/></g><g transform="translate(-22,-46) scale(1,1)"><path fill="none" stroke="#000000" d="M 470.40173819243154 262.5782457400395 L 460 259 L 464.82493778446167 268.88534143952927" stroke-miterlimit="10"/></g><g transform="translate(-22,-46) scale(1,1)"><g><path fill="none" stroke="none"/><text fill="#000000" stroke="none" font-family="Arial" font-size="13px" font-style="normal" font-weight="normal" text-decoration="none" x="527.5" y="315.5">«extend»</text></g></g><g transform="translate(-22,-46) scale(1,1)"><path fill="#C0C0C0" stroke="none" d="M 199 144 C 199 134.6111584 247.3532416 127 307 127 C 366.6467584 127 415 134.6111584 415 144 C 415 153.3888416 366.6467584 161 307 161 C 247.3532416 161 199 153.3888416 199 144 Z" opacity="0.2"/></g><g transform="translate(-22,-46) scale(1,1)"><path fill="#ffffff" stroke="none" d="M 192 137 C 192 127.6111584 240.3532416 120 300 120 C 359.6467584 120 408 127.6111584 408 137 C 408 146.3888416 359.6467584 154 300 154 C 240.3532416 154 192 146.3888416 192 137 Z"/></g><g transform="translate(-22,-46) scale(1,1)"><path fill="none" stroke="#000000" d="M 192 137 C 192 127.6111584 240.3532416 120 300 120 C 359.6467584 120 408 127.6111584 408 137 C 408 146.3888416 359.6467584 154 300 154 C 240.3532416 154 192 146.3888416 192 137 Z" stroke-miterlimit="10"/></g><g transform="translate(-22,-46) scale(1,1)"><g><path fill="none" stroke="none"/><text fill="#000000" stroke="none" font-family="Arial" font-size="13px" font-style="normal" font-weight="bold" text-decoration="none" x="233.52099609375" y="144">Supprimer  un véhicule</text></g></g><g transform="translate(-22,-46) scale(1,1)"><path fill="none" stroke="#000000" d="M 324 155 L 415 223" stroke-miterlimit="10" stroke-dasharray="3"/></g><g transform="translate(-22,-46) scale(1,1)"><path fill="none" stroke="#000000" d="M 404.3393596603782 220.2887737923169 L 415 223 L 409.37891536084595 213.54466248727914" stroke-miterlimit="10"/></g><g transform="translate(-22,-46) scale(1,1)"><g><path fill="none" stroke="none"/><text fill="#000000" stroke="none" font-family="Arial" font-size="13px" font-style="normal" font-weight="normal" text-decoration="none" x="359.5" y="170.5">«extend»</text></g></g><g transform="translate(-22,-46) scale(1,1)"><path fill="#C0C0C0" stroke="none" d="M 495 144 C 495 134.6111584 537.0852288 127 589 127 C 640.9147712 127 683 134.6111584 683 144 C 683 153.3888416 640.9147712 161 589 161 C 537.0852288 161 495 153.3888416 495 144 Z" opacity="0.2"/></g><g transform="translate(-22,-46) scale(1,1)"><path fill="#ffffff" stroke="none" d="M 488 137 C 488 127.6111584 530.0852288 120 582 120 C 633.9147712 120 676 127.6111584 676 137 C 676 146.3888416 633.9147712 154 582 154 C 530.0852288 154 488 146.3888416 488 137 Z"/></g><g transform="translate(-22,-46) scale(1,1)"><path fill="none" stroke="#000000" d="M 488 137 C 488 127.6111584 530.0852288 120 582 120 C 633.9147712 120 676 127.6111584 676 137 C 676 146.3888416 633.9147712 154 582 154 C 530.0852288 154 488 146.3888416 488 137 Z" stroke-miterlimit="10"/></g><g transform="translate(-22,-46) scale(1,1)"><g><path fill="none" stroke="none"/><text fill="#000000" stroke="none" font-family="Arial" font-size="13px" font-style="normal" font-weight="bold" text-decoration="none" x="524.91552734375" y="144">Lister des véhicules</text></g></g><g transform="translate(-22,-46) scale(1,1)"><path fill="none" stroke="#000000" d="M 557 155 L 464 223" stroke-miterlimit="10" stroke-dasharray="3"/></g><g transform="translate(-22,-46) scale(1,1)"><path fill="none" stroke="#000000" d="M 469.71903563044947 213.60358411639578 L 464 223 L 474.6882382662838 220.39969948599278" stroke-miterlimit="10"/></g><g transform="translate(-22,-46) scale(1,1)"><g><path fill="none" stroke="none"/><text fill="#000000" stroke="none" font-family="Arial" font-size="13px" font-style="normal" font-weight="normal" text-decoration="none" x="535.5" y="188.5">«extend»</text></g></g></g></svg>