<svg version="1.1" xmlns="http://www.w3.org/2000/svg" xmlns:xlink="http://www.w3.org/1999/xlink" width="952.1142578125" height="940"><defs/><g><g transform="translate(-206,-22) scale(1,1)"><rect fill="#C0C0C0" stroke="none" x="223" y="183" width="184" height="128" opacity="0.2"/></g><g transform="translate(-206,-22) scale(1,1)"><rect fill="#ffffff" stroke="none" x="216" y="176" width="184" height="128"/></g><g transform="translate(-206,-22) scale(1,1)"><path fill="none" stroke="#000000" d="M 216 176 L 400 176 L 400 304 L 216 304 L 216 176 Z Z" stroke-miterlimit="10"/></g><g transform="translate(-206,-22) scale(1,1)"><path fill="none" stroke="#000000" d="M 216 216 L 400 216" stroke-miterlimit="10"/></g><g transform="translate(-206,-22) scale(1,1)"><path fill="none" stroke="#000000" d="M 216 284 L 400 284" stroke-miterlimit="10"/></g><g transform="translate(-206,-22) scale(1,1)"><g><path fill="none" stroke="none"/><text fill="#000000" stroke="none" font-family="Arial" font-size="13px" font-style="normal" font-weight="bold" text-decoration="none" x="266.819580078125" y="195.5">CarAvailability</text></g></g><g transform="translate(-206,-22) scale(1,1)"><g><path fill="none" stroke="none"/><text fill="#000000" stroke="none" font-family="Arial" font-size="13px" font-style="normal" font-weight="normal" text-decoration="none" x="271.161376953125" y="210.5">(from model)</text></g></g><g transform="translate(-206,-22) scale(1,1)"><g><path fill="none" stroke="none"/><text fill="#000000" stroke="none" font-family="Arial" font-size="13px" font-style="normal" font-weight="normal" text-decoration="none" x="221" y="233.5">-id: Integer</text></g></g><g transform="translate(-206,-22) scale(1,1)"><g><path fill="none" stroke="none"/><text fill="#000000" stroke="none" font-family="Arial" font-size="13px" font-style="normal" font-weight="normal" text-decoration="none" x="221" y="248.5">-id_car: Integer</text></g></g><g transform="translate(-206,-22) scale(1,1)"><g><path fill="none" stroke="none"/><text fill="#000000" stroke="none" font-family="Arial" font-size="13px" font-style="normal" font-weight="normal" text-decoration="none" x="221" y="263.5">-id_parking_spots: Integer</text></g></g><g transform="translate(-206,-22) scale(1,1)"><g><path fill="none" stroke="none"/><text fill="#000000" stroke="none" font-family="Arial" font-size="13px" font-style="normal" font-weight="normal" text-decoration="none" x="221" y="278.5">-available: String</text></g></g><g transform="translate(-206,-22) scale(1,1)"><rect fill="#C0C0C0" stroke="none" x="951" y="375" width="204.1142578125" height="147" opacity="0.2"/></g><g transform="translate(-206,-22) scale(1,1)"><rect fill="#ffffff" stroke="none" x="944" y="368" width="204.1142578125" height="147"/></g><g transform="translate(-206,-22) scale(1,1)"><path fill="none" stroke="#000000" d="M 944 368 L 1148.1142578125 368 L 1148.1142578125 515 L 944 515 L 944 368 Z Z" stroke-miterlimit="10"/></g><g transform="translate(-206,-22) scale(1,1)"><path fill="none" stroke="#000000" d="M 944 408 L 1148.1142578125 408" stroke-miterlimit="10"/></g><g transform="translate(-206,-22) scale(1,1)"><path fill="none" stroke="#000000" d="M 944 506 L 1148.1142578125 506" stroke-miterlimit="10"/></g><g transform="translate(-206,-22) scale(1,1)"><g><path fill="none" stroke="none"/><text fill="#000000" stroke="none" font-family="Arial" font-size="13px" font-style="normal" font-weight="bold" text-decoration="none" x="993.314453125" y="387.5">ReservationPrices</text></g></g><g transform="translate(-206,-22) scale(1,1)"><g><path fill="none" stroke="none"/><text fill="#000000" stroke="none" font-family="Arial" font-size="13px" font-style="normal" font-weight="normal" text-decoration="none" x="1009.218505859375" y="402.5">(from model)</text></g></g><g transform="translate(-206,-22) scale(1,1)"><g><path fill="none" stroke="none"/><text fill="#000000" stroke="none" font-family="Arial" font-size="13px" font-style="normal" font-weight="normal" text-decoration="none" x="949" y="425.5">-id: Integer</text></g></g><g transform="translate(-206,-22) scale(1,1)"><g><path fill="none" stroke="none"/><text fill="#000000" stroke="none" font-family="Arial" font-size="13px" font-style="normal" font-weight="normal" text-decoration="none" x="949" y="440.5">-id_car_type: Integer</text></g></g><g transform="translate(-206,-22) scale(1,1)"><g><path fill="none" stroke="none"/><text fill="#000000" stroke="none" font-family="Arial" font-size="13px" font-style="normal" font-weight="normal" text-decoration="none" x="949" y="455.5">-id_fuel_type: Integer</text></g></g><g transform="translate(-206,-22) scale(1,1)"><g><path fill="none" stroke="none"/><text fill="#000000" stroke="none" font-family="Arial" font-size="13px" font-style="normal" font-weight="normal" text-decoration="none" x="949" y="470.5">-pricing_minute_standard: Double</text></g></g><g transform="translate(-206,-22) scale(1,1)"><g><path fill="none" stroke="none"/><text fill="#000000" stroke="none" font-family="Arial" font-size="13px" font-style="normal" font-weight="normal" text-decoration="none" x="949" y="485.5">-pricing_minute_premium: Double</text></g></g><g transform="translate(-206,-22) scale(1,1)"><g><path fill="none" stroke="none"/><text fill="#000000" stroke="none" font-family="Arial" font-size="13px" font-style="normal" font-weight="normal" text-decoration="none" x="949" y="500.5">-pricing_minute_pro: Double</text></g></g><g transform="translate(-206,-22) scale(1,1)"><rect fill="#C0C0C0" stroke="none" x="599" y="351" width="159.3125" height="177" opacity="0.2"/></g><g transform="translate(-206,-22) scale(1,1)"><rect fill="#ffffff" stroke="none" x="592" y="344" width="159.3125" height="177"/></g><g transform="translate(-206,-22) scale(1,1)"><path fill="none" stroke="#000000" d="M 592 344 L 751.3125 344 L 751.3125 521 L 592 521 L 592 344 Z Z" stroke-miterlimit="10"/></g><g transform="translate(-206,-22) scale(1,1)"><path fill="none" stroke="#000000" d="M 592 384 L 751.3125 384" stroke-miterlimit="10"/></g><g transform="translate(-206,-22) scale(1,1)"><path fill="none" stroke="#000000" d="M 592 512 L 751.3125 512" stroke-miterlimit="10"/></g><g transform="translate(-206,-22) scale(1,1)"><g><path fill="none" stroke="none"/><text fill="#000000" stroke="none" font-family="Arial" font-size="13px" font-style="normal" font-weight="bold" text-decoration="none" x="636.97265625" y="363.5">Reservation</text></g></g><g transform="translate(-206,-22) scale(1,1)"><g><path fill="none" stroke="none"/><text fill="#000000" stroke="none" font-family="Arial" font-size="13px" font-style="normal" font-weight="normal" text-decoration="none" x="634.817626953125" y="378.5">(from model)</text></g></g><g transform="translate(-206,-22) scale(1,1)"><g><path fill="none" stroke="none"/><text fill="#000000" stroke="none" font-family="Arial" font-size="13px" font-style="normal" font-weight="normal" text-decoration="none" x="597" y="401.5">-id: Integer</text></g></g><g transform="translate(-206,-22) scale(1,1)"><g><path fill="none" stroke="none"/><text fill="#000000" stroke="none" font-family="Arial" font-size="13px" font-style="normal" font-weight="normal" text-decoration="none" x="597" y="416.5">-id_user: Integer</text></g></g><g transform="translate(-206,-22) scale(1,1)"><g><path fill="none" stroke="none"/><text fill="#000000" stroke="none" font-family="Arial" font-size="13px" font-style="normal" font-weight="normal" text-decoration="none" x="597" y="431.5">-id_car: Integer</text></g></g><g transform="translate(-206,-22) scale(1,1)"><g><path fill="none" stroke="none"/><text fill="#000000" stroke="none" font-family="Arial" font-size="13px" font-style="normal" font-weight="normal" text-decoration="none" x="597" y="446.5">-id_parking_spots: Integer</text></g></g><g transform="translate(-206,-22) scale(1,1)"><g><path fill="none" stroke="none"/><text fill="#000000" stroke="none" font-family="Arial" font-size="13px" font-style="normal" font-weight="normal" text-decoration="none" x="597" y="461.5">-start_time: Timestamp</text></g></g><g transform="translate(-206,-22) scale(1,1)"><g><path fill="none" stroke="none"/><text fill="#000000" stroke="none" font-family="Arial" font-size="13px" font-style="normal" font-weight="normal" text-decoration="none" x="597" y="476.5">-end_time: Timestamp</text></g></g><g transform="translate(-206,-22) scale(1,1)"><g><path fill="none" stroke="none"/><text fill="#000000" stroke="none" font-family="Arial" font-size="13px" font-style="normal" font-weight="normal" text-decoration="none" x="597" y="491.5">-place_back: Integer</text></g></g><g transform="translate(-206,-22) scale(1,1)"><g><path fill="none" stroke="none"/><text fill="#000000" stroke="none" font-family="Arial" font-size="13px" font-style="normal" font-weight="normal" text-decoration="none" x="597" y="506.5">-id_pricing: Integer</text></g></g><g transform="translate(-206,-22) scale(1,1)"><rect fill="#C0C0C0" stroke="none" x="927" y="231" width="159.3125" height="87" opacity="0.2"/></g><g transform="translate(-206,-22) scale(1,1)"><rect fill="#ffffff" stroke="none" x="920" y="224" width="159.3125" height="87"/></g><g transform="translate(-206,-22) scale(1,1)"><path fill="none" stroke="#000000" d="M 920 224 L 1079.3125 224 L 1079.3125 311 L 920 311 L 920 224 Z Z" stroke-miterlimit="10"/></g><g transform="translate(-206,-22) scale(1,1)"><path fill="none" stroke="#000000" d="M 920 264 L 1079.3125 264" stroke-miterlimit="10"/></g><g transform="translate(-206,-22) scale(1,1)"><path fill="none" stroke="#000000" d="M 920 302 L 1079.3125 302" stroke-miterlimit="10"/></g><g transform="translate(-206,-22) scale(1,1)"><g><path fill="none" stroke="none"/><text fill="#000000" stroke="none" font-family="Arial" font-size="13px" font-style="normal" font-weight="bold" text-decoration="none" x="959.9072265625" y="243.5">SpotAvailable</text></g></g><g transform="translate(-206,-22) scale(1,1)"><g><path fill="none" stroke="none"/><text fill="#000000" stroke="none" font-family="Arial" font-size="13px" font-style="normal" font-weight="normal" text-decoration="none" x="962.817626953125" y="258.5">(from model)</text></g></g><g transform="translate(-206,-22) scale(1,1)"><g><path fill="none" stroke="none"/><text fill="#000000" stroke="none" font-family="Arial" font-size="13px" font-style="normal" font-weight="normal" text-decoration="none" x="925" y="281.5">-id_parking_spots: Integer</text></g></g><g transform="translate(-206,-22) scale(1,1)"><g><path fill="none" stroke="none"/><text fill="#000000" stroke="none" font-family="Arial" font-size="13px" font-style="normal" font-weight="normal" text-decoration="none" x="925" y="296.5">-available: String</text></g></g><g transform="translate(-206,-22) scale(1,1)"><rect fill="#C0C0C0" stroke="none" x="639" y="39" width="128" height="192" opacity="0.2"/></g><g transform="translate(-206,-22) scale(1,1)"><rect fill="#ffffff" stroke="none" x="632" y="32" width="128" height="192"/></g><g transform="translate(-206,-22) scale(1,1)"><path fill="none" stroke="#000000" d="M 632 32 L 760 32 L 760 224 L 632 224 L 632 32 Z Z" stroke-miterlimit="10"/></g><g transform="translate(-206,-22) scale(1,1)"><path fill="none" stroke="#000000" d="M 632 72 L 760 72" stroke-miterlimit="10"/></g><g transform="translate(-206,-22) scale(1,1)"><path fill="none" stroke="#000000" d="M 632 215 L 760 215" stroke-miterlimit="10"/></g><g transform="translate(-206,-22) scale(1,1)"><g><path fill="none" stroke="none"/><text fill="#000000" stroke="none" font-family="Arial" font-size="13px" font-style="normal" font-weight="bold" text-decoration="none" x="660.589599609375" y="51.5">ParkingSpot</text></g></g><g transform="translate(-206,-22) scale(1,1)"><g><path fill="none" stroke="none"/><text fill="#000000" stroke="none" font-family="Arial" font-size="13px" font-style="normal" font-weight="normal" text-decoration="none" x="659.161376953125" y="66.5">(from model)</text></g></g><g transform="translate(-206,-22) scale(1,1)"><g><path fill="none" stroke="none"/><text fill="#000000" stroke="none" font-family="Arial" font-size="13px" font-style="normal" font-weight="normal" text-decoration="none" x="637" y="89.5">-id: Integer</text></g></g><g transform="translate(-206,-22) scale(1,1)"><g><path fill="none" stroke="none"/><text fill="#000000" stroke="none" font-family="Arial" font-size="13px" font-style="normal" font-weight="normal" text-decoration="none" x="637" y="104.5">-nbSpot: Integer</text></g></g><g transform="translate(-206,-22) scale(1,1)"><g><path fill="none" stroke="none"/><text fill="#000000" stroke="none" font-family="Arial" font-size="13px" font-style="normal" font-weight="normal" text-decoration="none" x="637" y="119.5">-nbParking: String</text></g></g><g transform="translate(-206,-22) scale(1,1)"><g><path fill="none" stroke="none"/><text fill="#000000" stroke="none" font-family="Arial" font-size="13px" font-style="normal" font-weight="normal" text-decoration="none" x="637" y="134.5">-plug: boolean</text></g></g><g transform="translate(-206,-22) scale(1,1)"><g><path fill="none" stroke="none"/><text fill="#000000" stroke="none" font-family="Arial" font-size="13px" font-style="normal" font-weight="normal" text-decoration="none" x="637" y="149.5">-location: String</text></g></g><g transform="translate(-206,-22) scale(1,1)"><g><path fill="none" stroke="none"/><text fill="#000000" stroke="none" font-family="Arial" font-size="13px" font-style="normal" font-weight="normal" text-decoration="none" x="637" y="164.5">-longitude: float</text></g></g><g transform="translate(-206,-22) scale(1,1)"><g><path fill="none" stroke="none"/><text fill="#000000" stroke="none" font-family="Arial" font-size="13px" font-style="normal" font-weight="normal" text-decoration="none" x="637" y="179.5">-latitude: float</text></g></g><g transform="translate(-206,-22) scale(1,1)"><g><path fill="none" stroke="none"/><text fill="#000000" stroke="none" font-family="Arial" font-size="13px" font-style="normal" font-weight="normal" text-decoration="none" x="637" y="194.5">-length: Integer</text></g></g><g transform="translate(-206,-22) scale(1,1)"><g><path fill="none" stroke="none"/><text fill="#000000" stroke="none" font-family="Arial" font-size="13px" font-style="normal" font-weight="normal" text-decoration="none" x="637" y="209.5">-width: Integer</text></g></g><g transform="translate(-206,-22) scale(1,1)"><rect fill="#C0C0C0" stroke="none" x="271" y="511" width="176" height="240" opacity="0.2"/></g><g transform="translate(-206,-22) scale(1,1)"><rect fill="#ffffff" stroke="none" x="264" y="504" width="176" height="240"/></g><g transform="translate(-206,-22) scale(1,1)"><path fill="none" stroke="#000000" d="M 264 504 L 440 504 L 440 744 L 264 744 L 264 504 Z Z" stroke-miterlimit="10"/></g><g transform="translate(-206,-22) scale(1,1)"><path fill="none" stroke="#000000" d="M 264 544 L 440 544" stroke-miterlimit="10"/></g><g transform="translate(-206,-22) scale(1,1)"><path fill="none" stroke="#000000" d="M 264 732 L 440 732" stroke-miterlimit="10"/></g><g transform="translate(-206,-22) scale(1,1)"><g><path fill="none" stroke="none"/><text fill="#000000" stroke="none" font-family="Arial" font-size="13px" font-style="normal" font-weight="bold" text-decoration="none" x="341.5263671875" y="523.5">Car</text></g></g><g transform="translate(-206,-22) scale(1,1)"><g><path fill="none" stroke="none"/><text fill="#000000" stroke="none" font-family="Arial" font-size="13px" font-style="normal" font-weight="normal" text-decoration="none" x="315.161376953125" y="538.5">(from model)</text></g></g><g transform="translate(-206,-22) scale(1,1)"><g><path fill="none" stroke="none"/><text fill="#000000" stroke="none" font-family="Arial" font-size="13px" font-style="normal" font-weight="normal" text-decoration="none" x="269" y="561.5">-id: Integer</text></g></g><g transform="translate(-206,-22) scale(1,1)"><g><path fill="none" stroke="none"/><text fill="#000000" stroke="none" font-family="Arial" font-size="13px" font-style="normal" font-weight="normal" text-decoration="none" x="269" y="576.5">-registrationNumber: String</text></g></g><g transform="translate(-206,-22) scale(1,1)"><g><path fill="none" stroke="none"/><text fill="#000000" stroke="none" font-family="Arial" font-size="13px" font-style="normal" font-weight="normal" text-decoration="none" x="269" y="591.5">-brandName: String</text></g></g><g transform="translate(-206,-22) scale(1,1)"><g><path fill="none" stroke="none"/><text fill="#000000" stroke="none" font-family="Arial" font-size="13px" font-style="normal" font-weight="normal" text-decoration="none" x="269" y="606.5">-modelName: String</text></g></g><g transform="translate(-206,-22) scale(1,1)"><g><path fill="none" stroke="none"/><text fill="#000000" stroke="none" font-family="Arial" font-size="13px" font-style="normal" font-weight="normal" text-decoration="none" x="269" y="621.5">-transmission: Integer</text></g></g><g transform="translate(-206,-22) scale(1,1)"><g><path fill="none" stroke="none"/><text fill="#000000" stroke="none" font-family="Arial" font-size="13px" font-style="normal" font-weight="normal" text-decoration="none" x="269" y="636.5">-seatNumber: Integer</text></g></g><g transform="translate(-206,-22) scale(1,1)"><g><path fill="none" stroke="none"/><text fill="#000000" stroke="none" font-family="Arial" font-size="13px" font-style="normal" font-weight="normal" text-decoration="none" x="269" y="651.5">-doorNumber: Integer</text></g></g><g transform="translate(-206,-22) scale(1,1)"><g><path fill="none" stroke="none"/><text fill="#000000" stroke="none" font-family="Arial" font-size="13px" font-style="normal" font-weight="normal" text-decoration="none" x="269" y="666.5">-type: Integer</text></g></g><g transform="translate(-206,-22) scale(1,1)"><g><path fill="none" stroke="none"/><text fill="#000000" stroke="none" font-family="Arial" font-size="13px" font-style="normal" font-weight="normal" text-decoration="none" x="269" y="681.5">-kilometers: Integer</text></g></g><g transform="translate(-206,-22) scale(1,1)"><g><path fill="none" stroke="none"/><text fill="#000000" stroke="none" font-family="Arial" font-size="13px" font-style="normal" font-weight="normal" text-decoration="none" x="269" y="696.5">-releaseDate: String</text></g></g><g transform="translate(-206,-22) scale(1,1)"><g><path fill="none" stroke="none"/><text fill="#000000" stroke="none" font-family="Arial" font-size="13px" font-style="normal" font-weight="normal" text-decoration="none" x="269" y="711.5">-comfort: Integer</text></g></g><g transform="translate(-206,-22) scale(1,1)"><g><path fill="none" stroke="none"/><text fill="#000000" stroke="none" font-family="Arial" font-size="13px" font-style="normal" font-weight="normal" text-decoration="none" x="269" y="726.5">-fuelType: Integer</text></g></g><g transform="translate(-206,-22) scale(1,1)"><rect fill="#C0C0C0" stroke="none" x="591" y="647" width="224" height="312" opacity="0.2"/></g><g transform="translate(-206,-22) scale(1,1)"><rect fill="#ffffff" stroke="none" x="584" y="640" width="224" height="312"/></g><g transform="translate(-206,-22) scale(1,1)"><path fill="none" stroke="#000000" d="M 584 640 L 808 640 L 808 952 L 584 952 L 584 640 Z Z" stroke-miterlimit="10"/></g><g transform="translate(-206,-22) scale(1,1)"><path fill="none" stroke="#000000" d="M 584 680 L 808 680" stroke-miterlimit="10"/></g><g transform="translate(-206,-22) scale(1,1)"><path fill="none" stroke="#000000" d="M 584 928 L 808 928" stroke-miterlimit="10"/></g><g transform="translate(-206,-22) scale(1,1)"><g><path fill="none" stroke="none"/><text fill="#000000" stroke="none" font-family="Arial" font-size="13px" font-style="normal" font-weight="bold" text-decoration="none" x="682.2763671875" y="659.5">User</text></g></g><g transform="translate(-206,-22) scale(1,1)"><g><path fill="none" stroke="none"/><text fill="#000000" stroke="none" font-family="Arial" font-size="13px" font-style="normal" font-weight="normal" text-decoration="none" x="659.161376953125" y="674.5">(from model)</text></g></g><g transform="translate(-206,-22) scale(1,1)"><g><path fill="none" stroke="none"/><text fill="#000000" stroke="none" font-family="Arial" font-size="13px" font-style="normal" font-weight="normal" text-decoration="none" x="589" y="697.5">-id: int</text></g></g><g transform="translate(-206,-22) scale(1,1)"><g><path fill="none" stroke="none"/><text fill="#000000" stroke="none" font-family="Arial" font-size="13px" font-style="normal" font-weight="normal" text-decoration="none" x="589" y="712.5">-gender: String</text></g></g><g transform="translate(-206,-22) scale(1,1)"><g><path fill="none" stroke="none"/><text fill="#000000" stroke="none" font-family="Arial" font-size="13px" font-style="normal" font-weight="normal" text-decoration="none" x="589" y="727.5">-firstName: String</text></g></g><g transform="translate(-206,-22) scale(1,1)"><g><path fill="none" stroke="none"/><text fill="#000000" stroke="none" font-family="Arial" font-size="13px" font-style="normal" font-weight="normal" text-decoration="none" x="589" y="742.5">-lastName: String</text></g></g><g transform="translate(-206,-22) scale(1,1)"><g><path fill="none" stroke="none"/><text fill="#000000" stroke="none" font-family="Arial" font-size="13px" font-style="normal" font-weight="normal" text-decoration="none" x="589" y="757.5">-email: String</text></g></g><g transform="translate(-206,-22) scale(1,1)"><g><path fill="none" stroke="none"/><text fill="#000000" stroke="none" font-family="Arial" font-size="13px" font-style="normal" font-weight="normal" text-decoration="none" x="589" y="772.5">-password: String</text></g></g><g transform="translate(-206,-22) scale(1,1)"><g><path fill="none" stroke="none"/><text fill="#000000" stroke="none" font-family="Arial" font-size="13px" font-style="normal" font-weight="normal" text-decoration="none" x="589" y="787.5">-passwordConfirm: String</text></g></g><g transform="translate(-206,-22) scale(1,1)"><g><path fill="none" stroke="none"/><text fill="#000000" stroke="none" font-family="Arial" font-size="13px" font-style="normal" font-weight="normal" text-decoration="none" x="589" y="802.5">-addressLine1: String</text></g></g><g transform="translate(-206,-22) scale(1,1)"><g><path fill="none" stroke="none"/><text fill="#000000" stroke="none" font-family="Arial" font-size="13px" font-style="normal" font-weight="normal" text-decoration="none" x="589" y="817.5">-addressLine2: String</text></g></g><g transform="translate(-206,-22) scale(1,1)"><g><path fill="none" stroke="none"/><text fill="#000000" stroke="none" font-family="Arial" font-size="13px" font-style="normal" font-weight="normal" text-decoration="none" x="589" y="832.5">-zipCode: String</text></g></g><g transform="translate(-206,-22) scale(1,1)"><g><path fill="none" stroke="none"/><text fill="#000000" stroke="none" font-family="Arial" font-size="13px" font-style="normal" font-weight="normal" text-decoration="none" x="589" y="847.5">-city: String</text></g></g><g transform="translate(-206,-22) scale(1,1)"><g><path fill="none" stroke="none"/><text fill="#000000" stroke="none" font-family="Arial" font-size="13px" font-style="normal" font-weight="normal" text-decoration="none" x="589" y="862.5">-phoneNumber: String</text></g></g><g transform="translate(-206,-22) scale(1,1)"><g><path fill="none" stroke="none"/><text fill="#000000" stroke="none" font-family="Arial" font-size="13px" font-style="normal" font-weight="normal" text-decoration="none" x="589" y="877.5">-birthdate: Date</text></g></g><g transform="translate(-206,-22) scale(1,1)"><g><path fill="none" stroke="none"/><text fill="#000000" stroke="none" font-family="Arial" font-size="13px" font-style="normal" font-weight="normal" text-decoration="none" x="589" y="892.5">-birthdateString: String</text></g></g><g transform="translate(-206,-22) scale(1,1)"><g><path fill="none" stroke="none"/><text fill="#000000" stroke="none" font-family="Arial" font-size="13px" font-style="normal" font-weight="normal" text-decoration="none" x="589" y="907.5">-signUpDate: Date</text></g></g><g transform="translate(-206,-22) scale(1,1)"><g><path fill="none" stroke="none"/><text fill="#000000" stroke="none" font-family="Arial" font-size="13px" font-style="normal" font-weight="normal" text-decoration="none" x="589" y="922.5">-numberOfCommercialGesture: int</text></g></g><g transform="translate(-206,-22) scale(1,1)"><path fill="none" stroke="#000000" d="M 685 639 L 677 522" stroke-miterlimit="10"/></g><g transform="translate(-206,-22) scale(1,1)"><g><path fill="none" stroke="none"/><text fill="#000000" stroke="none" font-family="Arial" font-size="13px" font-style="normal" font-weight="normal" text-decoration="none" x="645.621337890625" y="587.5">+utilise</text></g></g><g transform="translate(-206,-22) scale(1,1)"><g><path fill="none" stroke="none"/><text fill="#000000" stroke="none" font-family="Arial" font-size="13px" font-style="normal" font-weight="normal" text-decoration="none" x="691.5" y="622.5">1</text></g></g><g transform="translate(-206,-22) scale(1,1)"><g><path fill="none" stroke="none"/><text fill="#000000" stroke="none" font-family="Arial" font-size="13px" font-style="normal" font-weight="normal" text-decoration="none" x="686.5" y="548.5">1</text></g></g><g transform="translate(-206,-22) scale(1,1)"><path fill="none" stroke="#000000" d="M 441 563 L 496 525 L 591 475" stroke-miterlimit="10"/></g><g transform="translate(-206,-22) scale(1,1)"><g><path fill="none" stroke="none"/><text fill="#000000" stroke="none" font-family="Arial" font-size="13px" font-style="normal" font-weight="normal" text-decoration="none" x="468.621337890625" y="517.5">+utilise</text></g></g><g transform="translate(-206,-22) scale(1,1)"><g><path fill="none" stroke="none"/><text fill="#000000" stroke="none" font-family="Arial" font-size="13px" font-style="normal" font-weight="normal" text-decoration="none" x="461.5" y="566.5">1</text></g></g><g transform="translate(-206,-22) scale(1,1)"><g><path fill="none" stroke="none"/><text fill="#000000" stroke="none" font-family="Arial" font-size="13px" font-style="normal" font-weight="normal" text-decoration="none" x="573.5" y="502.5">1</text></g></g><g transform="translate(-206,-22) scale(1,1)"><path fill="none" stroke="#000000" d="M 919 307 L 752 391" stroke-miterlimit="10"/></g><g transform="translate(-206,-22) scale(1,1)"><g><path fill="none" stroke="none"/><text fill="#000000" stroke="none" font-family="Arial" font-size="13px" font-style="normal" font-weight="normal" text-decoration="none" x="820.621337890625" y="368.5">+utilise</text></g></g><g transform="translate(-206,-22) scale(1,1)"><g><path fill="none" stroke="none"/><text fill="#000000" stroke="none" font-family="Arial" font-size="13px" font-style="normal" font-weight="normal" text-decoration="none" x="890.5" y="311.5">1</text></g></g><g transform="translate(-206,-22) scale(1,1)"><g><path fill="none" stroke="none"/><text fill="#000000" stroke="none" font-family="Arial" font-size="13px" font-style="normal" font-weight="normal" text-decoration="none" x="761.5" y="376.5">1</text></g></g><g transform="translate(-206,-22) scale(1,1)"><path fill="none" stroke="#000000" d="M 688 225 L 678 343" stroke-miterlimit="10"/></g><g transform="translate(-206,-22) scale(1,1)"><g><path fill="none" stroke="none"/><text fill="#000000" stroke="none" font-family="Arial" font-size="13px" font-style="normal" font-weight="normal" text-decoration="none" x="676.621337890625" y="291.5">+utilise</text></g></g><g transform="translate(-206,-22) scale(1,1)"><g><path fill="none" stroke="none"/><text fill="#000000" stroke="none" font-family="Arial" font-size="13px" font-style="normal" font-weight="normal" text-decoration="none" x="669.5" y="251.5">1</text></g></g><g transform="translate(-206,-22) scale(1,1)"><g><path fill="none" stroke="none"/><text fill="#000000" stroke="none" font-family="Arial" font-size="13px" font-style="normal" font-weight="normal" text-decoration="none" x="663.5" y="326.5">1</text></g></g><g transform="translate(-206,-22) scale(1,1)"><path fill="none" stroke="#000000" d="M 943 439 L 752 434" stroke-miterlimit="10"/></g><g transform="translate(-206,-22) scale(1,1)"><g><path fill="none" stroke="none"/><text fill="#000000" stroke="none" font-family="Arial" font-size="13px" font-style="normal" font-weight="normal" text-decoration="none" x="825.621337890625" y="456.5">+utilise</text></g></g><g transform="translate(-206,-22) scale(1,1)"><g><path fill="none" stroke="none"/><text fill="#000000" stroke="none" font-family="Arial" font-size="13px" font-style="normal" font-weight="normal" text-decoration="none" x="917.5" y="431.5">1</text></g></g><g transform="translate(-206,-22) scale(1,1)"><g><path fill="none" stroke="none"/><text fill="#000000" stroke="none" font-family="Arial" font-size="13px" font-style="normal" font-weight="normal" text-decoration="none" x="769.5" y="428.5">1</text></g></g><g transform="translate(-206,-22) scale(1,1)"><path fill="none" stroke="#000000" d="M 401 289 L 591 390" stroke-miterlimit="10"/></g><g transform="translate(-206,-22) scale(1,1)"><g><path fill="none" stroke="none"/><text fill="#000000" stroke="none" font-family="Arial" font-size="13px" font-style="normal" font-weight="normal" text-decoration="none" x="482.621337890625" y="331.5">+utilise</text></g></g><g transform="translate(-206,-22) scale(1,1)"><g><path fill="none" stroke="none"/><text fill="#000000" stroke="none" font-family="Arial" font-size="13px" font-style="normal" font-weight="normal" text-decoration="none" x="410.5" y="316.5">1</text></g></g><g transform="translate(-206,-22) scale(1,1)"><g><path fill="none" stroke="none"/><text fill="#000000" stroke="none" font-family="Arial" font-size="13px" font-style="normal" font-weight="normal" text-decoration="none" x="562.5" y="396.5">1</text></g></g><g transform="translate(-206,-22) scale(1,1)"><path fill="none" stroke="#000000" d="M 315 305 L 338 503" stroke-miterlimit="10"/></g><g transform="translate(-206,-22) scale(1,1)"><g><path fill="none" stroke="none"/><text fill="#000000" stroke="none" font-family="Arial" font-size="13px" font-style="normal" font-weight="normal" text-decoration="none" x="308.5" y="408.5">+reference</text></g></g><g transform="translate(-206,-22) scale(1,1)"><g><path fill="none" stroke="none"/><text fill="#000000" stroke="none" font-family="Arial" font-size="13px" font-style="normal" font-weight="normal" text-decoration="none" x="301.5" y="333.5">1</text></g></g><g transform="translate(-206,-22) scale(1,1)"><g><path fill="none" stroke="none"/><text fill="#000000" stroke="none" font-family="Arial" font-size="13px" font-style="normal" font-weight="normal" text-decoration="none" x="319.5" y="488.5">1</text></g></g><g transform="translate(-206,-22) scale(1,1)"><path fill="none" stroke="#000000" d="M 401 213 L 631 147" stroke-miterlimit="10"/></g><g transform="translate(-206,-22) scale(1,1)"><g><path fill="none" stroke="none"/><text fill="#000000" stroke="none" font-family="Arial" font-size="13px" font-style="normal" font-weight="normal" text-decoration="none" x="479.5" y="171.5">+reference</text></g></g><g transform="translate(-206,-22) scale(1,1)"><g><path fill="none" stroke="none"/><text fill="#000000" stroke="none" font-family="Arial" font-size="13px" font-style="normal" font-weight="normal" text-decoration="none" x="421.5" y="225.5">1</text></g></g><g transform="translate(-206,-22) scale(1,1)"><g><path fill="none" stroke="none"/><text fill="#000000" stroke="none" font-family="Arial" font-size="13px" font-style="normal" font-weight="normal" text-decoration="none" x="609.5" y="170.5">1</text></g></g></g></svg>