<svg version="1.1" xmlns="http://www.w3.org/2000/svg" xmlns:xlink="http://www.w3.org/1999/xlink" width="1668" height="1243"><defs/><g><g transform="translate(-182,-166) scale(1,1)"><rect fill="#C0C0C0" stroke="none" x="895" y="215" width="269.08251953125" height="152" opacity="0.2"/></g><g transform="translate(-182,-166) scale(1,1)"><rect fill="#ffffff" stroke="none" x="888" y="208" width="269.08251953125" height="152"/></g><g transform="translate(-182,-166) scale(1,1)"><path fill="none" stroke="#000000" d="M 888 208 L 1157.08251953125 208 L 1157.08251953125 360 L 888 360 L 888 208 Z Z" stroke-miterlimit="10"/></g><g transform="translate(-182,-166) scale(1,1)"><path fill="none" stroke="#000000" d="M 888 248 L 1157.08251953125 248" stroke-miterlimit="10"/></g><g transform="translate(-182,-166) scale(1,1)"><path fill="none" stroke="#000000" d="M 888 346 L 1157.08251953125 346" stroke-miterlimit="10"/></g><g transform="translate(-182,-166) scale(1,1)"><g><path fill="none" stroke="none"/><text fill="#000000" stroke="none" font-family="Arial" font-size="13px" font-style="normal" font-weight="bold" text-decoration="none" x="970.87451171875" y="227.5">BookingController</text></g></g><g transform="translate(-182,-166) scale(1,1)"><g><path fill="none" stroke="none"/><text fill="#000000" stroke="none" font-family="Arial" font-size="13px" font-style="normal" font-weight="normal" text-decoration="none" x="976.673095703125" y="242.5">(from controller)</text></g></g><g transform="translate(-182,-166) scale(1,1)"><g><path fill="none" stroke="none"/><text fill="#000000" stroke="none" font-family="Arial" font-size="13px" font-style="normal" font-weight="normal" text-decoration="none" x="893" y="265.5">-carAvailabilityService: CarAvailabilityService</text></g></g><g transform="translate(-182,-166) scale(1,1)"><g><path fill="none" stroke="none"/><text fill="#000000" stroke="none" font-family="Arial" font-size="13px" font-style="normal" font-weight="normal" text-decoration="none" x="893" y="280.5">-carTypeService: CarTypeService</text></g></g><g transform="translate(-182,-166) scale(1,1)"><g><path fill="none" stroke="none"/><text fill="#000000" stroke="none" font-family="Arial" font-size="13px" font-style="normal" font-weight="normal" text-decoration="none" x="893" y="295.5">-parkingSpotService: ParkingSpotService</text></g></g><g transform="translate(-182,-166) scale(1,1)"><g><path fill="none" stroke="none"/><text fill="#000000" stroke="none" font-family="Arial" font-size="13px" font-style="normal" font-weight="normal" text-decoration="none" x="893" y="310.5">-reservationService: ReservationService</text></g></g><g transform="translate(-182,-166) scale(1,1)"><g><path fill="none" stroke="none"/><text fill="#000000" stroke="none" font-family="Arial" font-size="13px" font-style="normal" font-weight="normal" text-decoration="none" x="893" y="325.5">-spotAvailableService: SpotAvailableService</text></g></g><g transform="translate(-182,-166) scale(1,1)"><g><path fill="none" stroke="none"/><text fill="#000000" stroke="none" font-family="Arial" font-size="13px" font-style="normal" font-weight="normal" text-decoration="none" x="893" y="340.5">-potentialBooking: List</text></g></g><g transform="translate(-182,-166) scale(1,1)"><rect fill="#C0C0C0" stroke="none" x="503" y="463" width="264" height="104" opacity="0.2"/></g><g transform="translate(-182,-166) scale(1,1)"><rect fill="#ffffff" stroke="none" x="496" y="456" width="264" height="104"/></g><g transform="translate(-182,-166) scale(1,1)"><path fill="none" stroke="#000000" d="M 496 456 L 760 456 L 760 560 L 496 560 L 496 456 Z Z" stroke-miterlimit="10"/></g><g transform="translate(-182,-166) scale(1,1)"><path fill="none" stroke="#000000" d="M 496 496 L 760 496" stroke-miterlimit="10"/></g><g transform="translate(-182,-166) scale(1,1)"><path fill="none" stroke="#000000" d="M 496 549 L 760 549" stroke-miterlimit="10"/></g><g transform="translate(-182,-166) scale(1,1)"><g><path fill="none" stroke="none"/><text fill="#000000" stroke="none" font-family="Arial" font-size="13px" font-style="normal" font-weight="bold" text-decoration="none" x="552.865966796875" y="475.5">CarAvailabilityServiceImpl</text></g></g><g transform="translate(-182,-166) scale(1,1)"><g><path fill="none" stroke="none"/><text fill="#000000" stroke="none" font-family="Arial" font-size="13px" font-style="normal" font-weight="normal" text-decoration="none" x="588.2763671875" y="490.5">(from service)</text></g></g><g transform="translate(-182,-166) scale(1,1)"><g><path fill="none" stroke="none"/><text fill="#000000" stroke="none" font-family="Arial" font-size="13px" font-style="normal" font-weight="normal" text-decoration="none" x="501" y="513.5">-carAvailabilityDAO: CarAvailabilityDAO</text></g></g><g transform="translate(-182,-166) scale(1,1)"><g><path fill="none" stroke="none"/><text fill="#000000" stroke="none" font-family="Arial" font-size="13px" font-style="normal" font-weight="normal" text-decoration="none" x="501" y="528.5">-parkingSpotDAO: ParkingSpotDAO</text></g></g><g transform="translate(-182,-166) scale(1,1)"><g><path fill="none" stroke="none"/><text fill="#000000" stroke="none" font-family="Arial" font-size="13px" font-style="normal" font-weight="normal" text-decoration="none" x="501" y="543.5">-carDAO: CarDAO</text></g></g><g transform="translate(-182,-166) scale(1,1)"><path fill="none" stroke="#000000" d="M 721 455 L 887 361" stroke-miterlimit="10"/></g><g transform="translate(-182,-166) scale(1,1)"><g><path fill="none" stroke="none"/><text fill="#000000" stroke="none" font-family="Arial" font-size="13px" font-style="normal" font-weight="normal" text-decoration="none" x="732.5" y="400.5">-carAvailabilityService</text></g></g><g transform="translate(-182,-166) scale(1,1)"><rect fill="#C0C0C0" stroke="none" x="871" y="559" width="248" height="72" opacity="0.2"/></g><g transform="translate(-182,-166) scale(1,1)"><rect fill="#ffffff" stroke="none" x="864" y="552" width="248" height="72"/></g><g transform="translate(-182,-166) scale(1,1)"><path fill="none" stroke="#000000" d="M 864 552 L 1112 552 L 1112 624 L 864 624 L 864 552 Z Z" stroke-miterlimit="10"/></g><g transform="translate(-182,-166) scale(1,1)"><path fill="none" stroke="#000000" d="M 864 592 L 1112 592" stroke-miterlimit="10"/></g><g transform="translate(-182,-166) scale(1,1)"><path fill="none" stroke="#000000" d="M 864 615 L 1112 615" stroke-miterlimit="10"/></g><g transform="translate(-182,-166) scale(1,1)"><g><path fill="none" stroke="none"/><text fill="#000000" stroke="none" font-family="Arial" font-size="13px" font-style="normal" font-weight="bold" text-decoration="none" x="919.36279296875" y="571.5">ReservationServiceImpl</text></g></g><g transform="translate(-182,-166) scale(1,1)"><g><path fill="none" stroke="none"/><text fill="#000000" stroke="none" font-family="Arial" font-size="13px" font-style="normal" font-weight="normal" text-decoration="none" x="948.2763671875" y="586.5">(from service)</text></g></g><g transform="translate(-182,-166) scale(1,1)"><g><path fill="none" stroke="none"/><text fill="#000000" stroke="none" font-family="Arial" font-size="13px" font-style="normal" font-weight="normal" text-decoration="none" x="869" y="609.5">-reservationDAO: ReservationDAO</text></g></g><g transform="translate(-182,-166) scale(1,1)"><path fill="none" stroke="#000000" d="M 992 551 L 1013 361" stroke-miterlimit="10"/></g><g transform="translate(-182,-166) scale(1,1)"><g><path fill="none" stroke="none"/><text fill="#000000" stroke="none" font-family="Arial" font-size="13px" font-style="normal" font-weight="normal" text-decoration="none" x="931.13134765625" y="460.5">-reservationService</text></g></g><g transform="translate(-182,-166) scale(1,1)"><rect fill="#C0C0C0" stroke="none" x="1223" y="551" width="231.8916015625" height="80" opacity="0.2"/></g><g transform="translate(-182,-166) scale(1,1)"><rect fill="#ffffff" stroke="none" x="1216" y="544" width="231.8916015625" height="80"/></g><g transform="translate(-182,-166) scale(1,1)"><path fill="none" stroke="#000000" d="M 1216 544 L 1447.8916015625 544 L 1447.8916015625 624 L 1216 624 L 1216 544 Z Z" stroke-miterlimit="10"/></g><g transform="translate(-182,-166) scale(1,1)"><path fill="none" stroke="#000000" d="M 1216 584 L 1447.8916015625 584" stroke-miterlimit="10"/></g><g transform="translate(-182,-166) scale(1,1)"><path fill="none" stroke="#000000" d="M 1216 607 L 1447.8916015625 607" stroke-miterlimit="10"/></g><g transform="translate(-182,-166) scale(1,1)"><g><path fill="none" stroke="none"/><text fill="#000000" stroke="none" font-family="Arial" font-size="13px" font-style="normal" font-weight="bold" text-decoration="none" x="1273.068115234375" y="563.5">CarTypeServiceImpl</text></g></g><g transform="translate(-182,-166) scale(1,1)"><g><path fill="none" stroke="none"/><text fill="#000000" stroke="none" font-family="Arial" font-size="13px" font-style="normal" font-weight="normal" text-decoration="none" x="1292.22216796875" y="578.5">(from service)</text></g></g><g transform="translate(-182,-166) scale(1,1)"><g><path fill="none" stroke="none"/><text fill="#000000" stroke="none" font-family="Arial" font-size="13px" font-style="normal" font-weight="normal" text-decoration="none" x="1221" y="601.5">-carTypeDAO: CarTypeDAO</text></g></g><g transform="translate(-182,-166) scale(1,1)"><path fill="none" stroke="#000000" d="M 1289 543 L 1101 361" stroke-miterlimit="10"/></g><g transform="translate(-182,-166) scale(1,1)"><g><path fill="none" stroke="none"/><text fill="#000000" stroke="none" font-family="Arial" font-size="13px" font-style="normal" font-weight="normal" text-decoration="none" x="1136.5" y="468.5">-carTypeService</text></g></g><g transform="translate(-182,-166) scale(1,1)"><rect fill="#C0C0C0" stroke="none" x="1591" y="247" width="256" height="112" opacity="0.2"/></g><g transform="translate(-182,-166) scale(1,1)"><rect fill="#ffffff" stroke="none" x="1584" y="240" width="256" height="112"/></g><g transform="translate(-182,-166) scale(1,1)"><path fill="none" stroke="#000000" d="M 1584 240 L 1840 240 L 1840 352 L 1584 352 L 1584 240 Z Z" stroke-miterlimit="10"/></g><g transform="translate(-182,-166) scale(1,1)"><path fill="none" stroke="#000000" d="M 1584 280 L 1840 280" stroke-miterlimit="10"/></g><g transform="translate(-182,-166) scale(1,1)"><path fill="none" stroke="#000000" d="M 1584 318 L 1840 318" stroke-miterlimit="10"/></g><g transform="translate(-182,-166) scale(1,1)"><g><path fill="none" stroke="none"/><text fill="#000000" stroke="none" font-family="Arial" font-size="13px" font-style="normal" font-weight="bold" text-decoration="none" x="1638.29736328125" y="259.5">SpotAvailableServiceImpl</text></g></g><g transform="translate(-182,-166) scale(1,1)"><g><path fill="none" stroke="none"/><text fill="#000000" stroke="none" font-family="Arial" font-size="13px" font-style="normal" font-weight="normal" text-decoration="none" x="1672.2763671875" y="274.5">(from service)</text></g></g><g transform="translate(-182,-166) scale(1,1)"><g><path fill="none" stroke="none"/><text fill="#000000" stroke="none" font-family="Arial" font-size="13px" font-style="normal" font-weight="normal" text-decoration="none" x="1589" y="297.5">-spotAvailableDAO: SpotAvailableDAO</text></g></g><g transform="translate(-182,-166) scale(1,1)"><g><path fill="none" stroke="none"/><text fill="#000000" stroke="none" font-family="Arial" font-size="13px" font-style="normal" font-weight="normal" text-decoration="none" x="1589" y="312.5">-parkingSpotDAO: ParkingSpotDAO</text></g></g><g transform="translate(-182,-166) scale(1,1)"><path fill="none" stroke="#000000" d="M 1158 286 L 1583 294" stroke-miterlimit="10"/></g><g transform="translate(-182,-166) scale(1,1)"><g><path fill="none" stroke="none"/><text fill="#000000" stroke="none" font-family="Arial" font-size="13px" font-style="normal" font-weight="normal" text-decoration="none" x="1490.5" y="284.5">+-spotAvailableService</text></g></g><g transform="translate(-182,-166) scale(1,1)"><rect fill="#C0C0C0" stroke="none" x="559" y="807" width="280" height="72" opacity="0.2"/></g><g transform="translate(-182,-166) scale(1,1)"><rect fill="#ffffff" stroke="none" x="552" y="800" width="280" height="72"/></g><g transform="translate(-182,-166) scale(1,1)"><path fill="none" stroke="#000000" d="M 552 800 L 832 800 L 832 872 L 552 872 L 552 800 Z Z" stroke-miterlimit="10"/></g><g transform="translate(-182,-166) scale(1,1)"><path fill="none" stroke="#000000" d="M 552 840 L 832 840" stroke-miterlimit="10"/></g><g transform="translate(-182,-166) scale(1,1)"><path fill="none" stroke="#000000" d="M 552 863 L 832 863" stroke-miterlimit="10"/></g><g transform="translate(-182,-166) scale(1,1)"><g><path fill="none" stroke="none"/><text fill="#000000" stroke="none" font-family="Arial" font-size="13px" font-style="normal" font-weight="bold" text-decoration="none" x="624.45458984375" y="819.5">CarAvailabilityDAOImpl</text></g></g><g transform="translate(-182,-166) scale(1,1)"><g><path fill="none" stroke="none"/><text fill="#000000" stroke="none" font-family="Arial" font-size="13px" font-style="normal" font-weight="normal" text-decoration="none" x="662.02001953125" y="834.5">(from dao)</text></g></g><g transform="translate(-182,-166) scale(1,1)"><g><path fill="none" stroke="none"/><text fill="#000000" stroke="none" font-family="Arial" font-size="13px" font-style="normal" font-weight="normal" text-decoration="none" x="557" y="857.5">-sessionFactory: SessionFactory</text></g></g><g transform="translate(-182,-166) scale(1,1)"><rect fill="#C0C0C0" stroke="none" x="999" y="799" width="224" height="96" opacity="0.2"/></g><g transform="translate(-182,-166) scale(1,1)"><rect fill="#ffffff" stroke="none" x="992" y="792" width="224" height="96"/></g><g transform="translate(-182,-166) scale(1,1)"><path fill="none" stroke="#000000" d="M 992 792 L 1216 792 L 1216 888 L 992 888 L 992 792 Z Z" stroke-miterlimit="10"/></g><g transform="translate(-182,-166) scale(1,1)"><path fill="none" stroke="#000000" d="M 992 832 L 1216 832" stroke-miterlimit="10"/></g><g transform="translate(-182,-166) scale(1,1)"><path fill="none" stroke="#000000" d="M 992 855 L 1216 855" stroke-miterlimit="10"/></g><g transform="translate(-182,-166) scale(1,1)"><g><path fill="none" stroke="none"/><text fill="#000000" stroke="none" font-family="Arial" font-size="13px" font-style="normal" font-weight="bold" text-decoration="none" x="1042.951416015625" y="811.5">ReservationDAOImpl</text></g></g><g transform="translate(-182,-166) scale(1,1)"><g><path fill="none" stroke="none"/><text fill="#000000" stroke="none" font-family="Arial" font-size="13px" font-style="normal" font-weight="normal" text-decoration="none" x="1074.02001953125" y="826.5">(from dao)</text></g></g><g transform="translate(-182,-166) scale(1,1)"><g><path fill="none" stroke="none"/><text fill="#000000" stroke="none" font-family="Arial" font-size="13px" font-style="normal" font-weight="normal" text-decoration="none" x="997" y="849.5">-sessionFactory: SessionFactory</text></g></g><g transform="translate(-182,-166) scale(1,1)"><rect fill="#C0C0C0" stroke="none" x="807" y="991" width="216" height="88" opacity="0.2"/></g><g transform="translate(-182,-166) scale(1,1)"><rect fill="#ffffff" stroke="none" x="800" y="984" width="216" height="88"/></g><g transform="translate(-182,-166) scale(1,1)"><path fill="none" stroke="#000000" d="M 800 984 L 1016 984 L 1016 1072 L 800 1072 L 800 984 Z Z" stroke-miterlimit="10"/></g><g transform="translate(-182,-166) scale(1,1)"><path fill="none" stroke="#000000" d="M 800 1024 L 1016 1024" stroke-miterlimit="10"/></g><g transform="translate(-182,-166) scale(1,1)"><path fill="none" stroke="#000000" d="M 800 1047 L 1016 1047" stroke-miterlimit="10"/></g><g transform="translate(-182,-166) scale(1,1)"><g><path fill="none" stroke="none"/><text fill="#000000" stroke="none" font-family="Arial" font-size="13px" font-style="normal" font-weight="bold" text-decoration="none" x="828.892333984375" y="1003.5">ReservationPricesDAOImpl</text></g></g><g transform="translate(-182,-166) scale(1,1)"><g><path fill="none" stroke="none"/><text fill="#000000" stroke="none" font-family="Arial" font-size="13px" font-style="normal" font-weight="normal" text-decoration="none" x="878.02001953125" y="1018.5">(from dao)</text></g></g><g transform="translate(-182,-166) scale(1,1)"><g><path fill="none" stroke="none"/><text fill="#000000" stroke="none" font-family="Arial" font-size="13px" font-style="normal" font-weight="normal" text-decoration="none" x="805" y="1041.5">-sessionFactory: SessionFactory</text></g></g><g transform="translate(-182,-166) scale(1,1)"><rect fill="#C0C0C0" stroke="none" x="1375" y="775" width="231.8916015625" height="76" opacity="0.2"/></g><g transform="translate(-182,-166) scale(1,1)"><rect fill="#ffffff" stroke="none" x="1368" y="768" width="231.8916015625" height="76"/></g><g transform="translate(-182,-166) scale(1,1)"><path fill="none" stroke="#000000" d="M 1368 768 L 1599.8916015625 768 L 1599.8916015625 844 L 1368 844 L 1368 768 Z Z" stroke-miterlimit="10"/></g><g transform="translate(-182,-166) scale(1,1)"><path fill="none" stroke="#000000" d="M 1368 808 L 1599.8916015625 808" stroke-miterlimit="10"/></g><g transform="translate(-182,-166) scale(1,1)"><path fill="none" stroke="#000000" d="M 1368 831 L 1599.8916015625 831" stroke-miterlimit="10"/></g><g transform="translate(-182,-166) scale(1,1)"><g><path fill="none" stroke="none"/><text fill="#000000" stroke="none" font-family="Arial" font-size="13px" font-style="normal" font-weight="bold" text-decoration="none" x="1432.65673828125" y="787.5">CarTypeDAOImpl</text></g></g><g transform="translate(-182,-166) scale(1,1)"><g><path fill="none" stroke="none"/><text fill="#000000" stroke="none" font-family="Arial" font-size="13px" font-style="normal" font-weight="normal" text-decoration="none" x="1453.9658203125" y="802.5">(from dao)</text></g></g><g transform="translate(-182,-166) scale(1,1)"><g><path fill="none" stroke="none"/><text fill="#000000" stroke="none" font-family="Arial" font-size="13px" font-style="normal" font-weight="normal" text-decoration="none" x="1373" y="825.5">-sessionFactory: SessionFactory</text></g></g><g transform="translate(-182,-166) scale(1,1)"><rect fill="#C0C0C0" stroke="none" x="1551" y="527" width="208" height="72" opacity="0.2"/></g><g transform="translate(-182,-166) scale(1,1)"><rect fill="#ffffff" stroke="none" x="1544" y="520" width="208" height="72"/></g><g transform="translate(-182,-166) scale(1,1)"><path fill="none" stroke="#000000" d="M 1544 520 L 1752 520 L 1752 592 L 1544 592 L 1544 520 Z Z" stroke-miterlimit="10"/></g><g transform="translate(-182,-166) scale(1,1)"><path fill="none" stroke="#000000" d="M 1544 560 L 1752 560" stroke-miterlimit="10"/></g><g transform="translate(-182,-166) scale(1,1)"><path fill="none" stroke="#000000" d="M 1544 583 L 1752 583" stroke-miterlimit="10"/></g><g transform="translate(-182,-166) scale(1,1)"><g><path fill="none" stroke="none"/><text fill="#000000" stroke="none" font-family="Arial" font-size="13px" font-style="normal" font-weight="bold" text-decoration="none" x="1581.885986328125" y="539.5">SpotAvailableDAOImpl</text></g></g><g transform="translate(-182,-166) scale(1,1)"><g><path fill="none" stroke="none"/><text fill="#000000" stroke="none" font-family="Arial" font-size="13px" font-style="normal" font-weight="normal" text-decoration="none" x="1618.02001953125" y="554.5">(from dao)</text></g></g><g transform="translate(-182,-166) scale(1,1)"><g><path fill="none" stroke="none"/><text fill="#000000" stroke="none" font-family="Arial" font-size="13px" font-style="normal" font-weight="normal" text-decoration="none" x="1549" y="577.5">-sessionFactory: SessionFactory</text></g></g><g transform="translate(-182,-166) scale(1,1)"><path fill="none" stroke="#000000" d="M 1698 353 L 1657 519" stroke-miterlimit="10"/></g><g transform="translate(-182,-166) scale(1,1)"><g><path fill="none" stroke="none"/><text fill="#000000" stroke="none" font-family="Arial" font-size="13px" font-style="normal" font-weight="normal" text-decoration="none" x="1655.5" y="445.5">+fait appel à</text></g></g><g transform="translate(-182,-166) scale(1,1)"><path fill="none" stroke="#000000" d="M 1456 767 L 1359 625" stroke-miterlimit="10"/></g><g transform="translate(-182,-166) scale(1,1)"><g><path fill="none" stroke="none"/><text fill="#000000" stroke="none" font-family="Arial" font-size="13px" font-style="normal" font-weight="normal" text-decoration="none" x="1358.75" y="710.5">+fait appel à</text></g></g><g transform="translate(-182,-166) scale(1,1)"><path fill="none" stroke="#000000" d="M 1005 625 L 1081 791" stroke-miterlimit="10"/></g><g transform="translate(-182,-166) scale(1,1)"><g><path fill="none" stroke="none"/><text fill="#000000" stroke="none" font-family="Arial" font-size="13px" font-style="normal" font-weight="normal" text-decoration="none" x="1020.5" y="707.5">+fait appel à</text></g></g><g transform="translate(-182,-166) scale(1,1)"><path fill="none" stroke="#000000" d="M 638 561 L 685 799" stroke-miterlimit="10"/></g><g transform="translate(-182,-166) scale(1,1)"><g><path fill="none" stroke="none"/><text fill="#000000" stroke="none" font-family="Arial" font-size="13px" font-style="normal" font-weight="normal" text-decoration="none" x="639.5" y="683.5">+fait appel à</text></g></g><g transform="translate(-182,-166) scale(1,1)"><path fill="none" stroke="#000000" d="M 857 983 L 734 873" stroke-miterlimit="10"/></g><g transform="translate(-182,-166) scale(1,1)"><g><path fill="none" stroke="none"/><text fill="#000000" stroke="none" font-family="Arial" font-size="13px" font-style="normal" font-weight="normal" text-decoration="none" x="763.5" y="945.5">+utilise</text></g></g><g transform="translate(-182,-166) scale(1,1)"><rect fill="#C0C0C0" stroke="none" x="247" y="183" width="168.31982421875" height="282" opacity="0.2"/></g><g transform="translate(-182,-166) scale(1,1)"><rect fill="#ffffff" stroke="none" x="240" y="176" width="168.31982421875" height="282"/></g><g transform="translate(-182,-166) scale(1,1)"><path fill="none" stroke="#000000" d="M 240 176 L 408.31982421875 176 L 408.31982421875 458 L 240 458 L 240 176 Z Z" stroke-miterlimit="10"/></g><g transform="translate(-182,-166) scale(1,1)"><path fill="none" stroke="#000000" d="M 240 216 L 408.31982421875 216" stroke-miterlimit="10"/></g><g transform="translate(-182,-166) scale(1,1)"><path fill="none" stroke="#000000" d="M 240 449 L 408.31982421875 449" stroke-miterlimit="10"/></g><g transform="translate(-182,-166) scale(1,1)"><g><path fill="none" stroke="none"/><text fill="#000000" stroke="none" font-family="Arial" font-size="13px" font-style="normal" font-weight="bold" text-decoration="none" x="278.99951171875" y="195.5">ReservationOdt</text></g></g><g transform="translate(-182,-166) scale(1,1)"><g><path fill="none" stroke="none"/><text fill="#000000" stroke="none" font-family="Arial" font-size="13px" font-style="normal" font-weight="normal" text-decoration="none" x="295.989013671875" y="210.5">(from odt)</text></g></g><g transform="translate(-182,-166) scale(1,1)"><g><path fill="none" stroke="none"/><text fill="#000000" stroke="none" font-family="Arial" font-size="13px" font-style="normal" font-weight="normal" text-decoration="none" x="245" y="233.5">~idCar: int</text></g></g><g transform="translate(-182,-166) scale(1,1)"><g><path fill="none" stroke="none"/><text fill="#000000" stroke="none" font-family="Arial" font-size="13px" font-style="normal" font-weight="normal" text-decoration="none" x="245" y="248.5">~registrationNumber: String</text></g></g><g transform="translate(-182,-166) scale(1,1)"><g><path fill="none" stroke="none"/><text fill="#000000" stroke="none" font-family="Arial" font-size="13px" font-style="normal" font-weight="normal" text-decoration="none" x="245" y="263.5">~mark: String</text></g></g><g transform="translate(-182,-166) scale(1,1)"><g><path fill="none" stroke="none"/><text fill="#000000" stroke="none" font-family="Arial" font-size="13px" font-style="normal" font-weight="normal" text-decoration="none" x="245" y="278.5">~model: String</text></g></g><g transform="translate(-182,-166) scale(1,1)"><g><path fill="none" stroke="none"/><text fill="#000000" stroke="none" font-family="Arial" font-size="13px" font-style="normal" font-weight="normal" text-decoration="none" x="245" y="293.5">~nbDoors: int</text></g></g><g transform="translate(-182,-166) scale(1,1)"><g><path fill="none" stroke="none"/><text fill="#000000" stroke="none" font-family="Arial" font-size="13px" font-style="normal" font-weight="normal" text-decoration="none" x="245" y="308.5">~placeBack: String</text></g></g><g transform="translate(-182,-166) scale(1,1)"><g><path fill="none" stroke="none"/><text fill="#000000" stroke="none" font-family="Arial" font-size="13px" font-style="normal" font-weight="normal" text-decoration="none" x="245" y="323.5">~idPlaceBack: int</text></g></g><g transform="translate(-182,-166) scale(1,1)"><g><path fill="none" stroke="none"/><text fill="#000000" stroke="none" font-family="Arial" font-size="13px" font-style="normal" font-weight="normal" text-decoration="none" x="245" y="338.5">~addressParking: String</text></g></g><g transform="translate(-182,-166) scale(1,1)"><g><path fill="none" stroke="none"/><text fill="#000000" stroke="none" font-family="Arial" font-size="13px" font-style="normal" font-weight="normal" text-decoration="none" x="245" y="353.5">~city: String</text></g></g><g transform="translate(-182,-166) scale(1,1)"><g><path fill="none" stroke="none"/><text fill="#000000" stroke="none" font-family="Arial" font-size="13px" font-style="normal" font-weight="normal" text-decoration="none" x="245" y="368.5">~price: Double</text></g></g><g transform="translate(-182,-166) scale(1,1)"><g><path fill="none" stroke="none"/><text fill="#000000" stroke="none" font-family="Arial" font-size="13px" font-style="normal" font-weight="normal" text-decoration="none" x="245" y="383.5">~idPrice: int</text></g></g><g transform="translate(-182,-166) scale(1,1)"><g><path fill="none" stroke="none"/><text fill="#000000" stroke="none" font-family="Arial" font-size="13px" font-style="normal" font-weight="normal" text-decoration="none" x="245" y="398.5">~startTime: String</text></g></g><g transform="translate(-182,-166) scale(1,1)"><g><path fill="none" stroke="none"/><text fill="#000000" stroke="none" font-family="Arial" font-size="13px" font-style="normal" font-weight="normal" text-decoration="none" x="245" y="413.5">~endTime: String</text></g></g><g transform="translate(-182,-166) scale(1,1)"><g><path fill="none" stroke="none"/><text fill="#000000" stroke="none" font-family="Arial" font-size="13px" font-style="normal" font-weight="normal" text-decoration="none" x="245" y="428.5">~idParkingSpot: int</text></g></g><g transform="translate(-182,-166) scale(1,1)"><g><path fill="none" stroke="none"/><text fill="#000000" stroke="none" font-family="Arial" font-size="13px" font-style="normal" font-weight="normal" text-decoration="none" x="245" y="443.5">~nbSpot: int</text></g></g><g transform="translate(-182,-166) scale(1,1)"><path fill="none" stroke="#000000" d="M 409 313 L 887 290" stroke-miterlimit="10"/></g><g transform="translate(-182,-166) scale(1,1)"><g><path fill="none" stroke="none"/><text fill="#000000" stroke="none" font-family="Arial" font-size="13px" font-style="normal" font-weight="normal" text-decoration="none" x="839.5" y="282.5">+utilise</text></g></g><g transform="translate(-182,-166) scale(1,1)"><rect fill="#C0C0C0" stroke="none" x="551" y="1047" width="159.3125" height="117" opacity="0.2"/></g><g transform="translate(-182,-166) scale(1,1)"><rect fill="#ffffff" stroke="none" x="544" y="1040" width="159.3125" height="117"/></g><g transform="translate(-182,-166) scale(1,1)"><path fill="none" stroke="#000000" d="M 544 1040 L 703.3125 1040 L 703.3125 1157 L 544 1157 L 544 1040 Z Z" stroke-miterlimit="10"/></g><g transform="translate(-182,-166) scale(1,1)"><path fill="none" stroke="#000000" d="M 544 1080 L 703.3125 1080" stroke-miterlimit="10"/></g><g transform="translate(-182,-166) scale(1,1)"><path fill="none" stroke="#000000" d="M 544 1148 L 703.3125 1148" stroke-miterlimit="10"/></g><g transform="translate(-182,-166) scale(1,1)"><g><path fill="none" stroke="none"/><text fill="#000000" stroke="none" font-family="Arial" font-size="13px" font-style="normal" font-weight="bold" text-decoration="none" x="582.475830078125" y="1059.5">CarAvailability</text></g></g><g transform="translate(-182,-166) scale(1,1)"><g><path fill="none" stroke="none"/><text fill="#000000" stroke="none" font-family="Arial" font-size="13px" font-style="normal" font-weight="normal" text-decoration="none" x="586.817626953125" y="1074.5">(from model)</text></g></g><g transform="translate(-182,-166) scale(1,1)"><g><path fill="none" stroke="none"/><text fill="#000000" stroke="none" font-family="Arial" font-size="13px" font-style="normal" font-weight="normal" text-decoration="none" x="549" y="1097.5">-id: Integer</text></g></g><g transform="translate(-182,-166) scale(1,1)"><g><path fill="none" stroke="none"/><text fill="#000000" stroke="none" font-family="Arial" font-size="13px" font-style="normal" font-weight="normal" text-decoration="none" x="549" y="1112.5">-id_car: Integer</text></g></g><g transform="translate(-182,-166) scale(1,1)"><g><path fill="none" stroke="none"/><text fill="#000000" stroke="none" font-family="Arial" font-size="13px" font-style="normal" font-weight="normal" text-decoration="none" x="549" y="1127.5">-id_parking_spots: Integer</text></g></g><g transform="translate(-182,-166) scale(1,1)"><g><path fill="none" stroke="none"/><text fill="#000000" stroke="none" font-family="Arial" font-size="13px" font-style="normal" font-weight="normal" text-decoration="none" x="549" y="1142.5">-available: String</text></g></g><g transform="translate(-182,-166) scale(1,1)"><rect fill="#C0C0C0" stroke="none" x="1255" y="1095" width="159.3125" height="177" opacity="0.2"/></g><g transform="translate(-182,-166) scale(1,1)"><rect fill="#ffffff" stroke="none" x="1248" y="1088" width="159.3125" height="177"/></g><g transform="translate(-182,-166) scale(1,1)"><path fill="none" stroke="#000000" d="M 1248 1088 L 1407.3125 1088 L 1407.3125 1265 L 1248 1265 L 1248 1088 Z Z" stroke-miterlimit="10"/></g><g transform="translate(-182,-166) scale(1,1)"><path fill="none" stroke="#000000" d="M 1248 1128 L 1407.3125 1128" stroke-miterlimit="10"/></g><g transform="translate(-182,-166) scale(1,1)"><path fill="none" stroke="#000000" d="M 1248 1256 L 1407.3125 1256" stroke-miterlimit="10"/></g><g transform="translate(-182,-166) scale(1,1)"><g><path fill="none" stroke="none"/><text fill="#000000" stroke="none" font-family="Arial" font-size="13px" font-style="normal" font-weight="bold" text-decoration="none" x="1292.97265625" y="1107.5">Reservation</text></g></g><g transform="translate(-182,-166) scale(1,1)"><g><path fill="none" stroke="none"/><text fill="#000000" stroke="none" font-family="Arial" font-size="13px" font-style="normal" font-weight="normal" text-decoration="none" x="1290.817626953125" y="1122.5">(from model)</text></g></g><g transform="translate(-182,-166) scale(1,1)"><g><path fill="none" stroke="none"/><text fill="#000000" stroke="none" font-family="Arial" font-size="13px" font-style="normal" font-weight="normal" text-decoration="none" x="1253" y="1145.5">-id: Integer</text></g></g><g transform="translate(-182,-166) scale(1,1)"><g><path fill="none" stroke="none"/><text fill="#000000" stroke="none" font-family="Arial" font-size="13px" font-style="normal" font-weight="normal" text-decoration="none" x="1253" y="1160.5">-id_user: Integer</text></g></g><g transform="translate(-182,-166) scale(1,1)"><g><path fill="none" stroke="none"/><text fill="#000000" stroke="none" font-family="Arial" font-size="13px" font-style="normal" font-weight="normal" text-decoration="none" x="1253" y="1175.5">-id_car: Integer</text></g></g><g transform="translate(-182,-166) scale(1,1)"><g><path fill="none" stroke="none"/><text fill="#000000" stroke="none" font-family="Arial" font-size="13px" font-style="normal" font-weight="normal" text-decoration="none" x="1253" y="1190.5">-id_parking_spots: Integer</text></g></g><g transform="translate(-182,-166) scale(1,1)"><g><path fill="none" stroke="none"/><text fill="#000000" stroke="none" font-family="Arial" font-size="13px" font-style="normal" font-weight="normal" text-decoration="none" x="1253" y="1205.5">-start_time: Timestamp</text></g></g><g transform="translate(-182,-166) scale(1,1)"><g><path fill="none" stroke="none"/><text fill="#000000" stroke="none" font-family="Arial" font-size="13px" font-style="normal" font-weight="normal" text-decoration="none" x="1253" y="1220.5">-end_time: Timestamp</text></g></g><g transform="translate(-182,-166) scale(1,1)"><g><path fill="none" stroke="none"/><text fill="#000000" stroke="none" font-family="Arial" font-size="13px" font-style="normal" font-weight="normal" text-decoration="none" x="1253" y="1235.5">-place_back: Integer</text></g></g><g transform="translate(-182,-166) scale(1,1)"><g><path fill="none" stroke="none"/><text fill="#000000" stroke="none" font-family="Arial" font-size="13px" font-style="normal" font-weight="normal" text-decoration="none" x="1253" y="1250.5">-id_pricing: Integer</text></g></g><g transform="translate(-182,-166) scale(1,1)"><rect fill="#C0C0C0" stroke="none" x="831" y="1135" width="204.1142578125" height="147" opacity="0.2"/></g><g transform="translate(-182,-166) scale(1,1)"><rect fill="#ffffff" stroke="none" x="824" y="1128" width="204.1142578125" height="147"/></g><g transform="translate(-182,-166) scale(1,1)"><path fill="none" stroke="#000000" d="M 824 1128 L 1028.1142578125 1128 L 1028.1142578125 1275 L 824 1275 L 824 1128 Z Z" stroke-miterlimit="10"/></g><g transform="translate(-182,-166) scale(1,1)"><path fill="none" stroke="#000000" d="M 824 1168 L 1028.1142578125 1168" stroke-miterlimit="10"/></g><g transform="translate(-182,-166) scale(1,1)"><path fill="none" stroke="#000000" d="M 824 1266 L 1028.1142578125 1266" stroke-miterlimit="10"/></g><g transform="translate(-182,-166) scale(1,1)"><g><path fill="none" stroke="none"/><text fill="#000000" stroke="none" font-family="Arial" font-size="13px" font-style="normal" font-weight="bold" text-decoration="none" x="873.314453125" y="1147.5">ReservationPrices</text></g></g><g transform="translate(-182,-166) scale(1,1)"><g><path fill="none" stroke="none"/><text fill="#000000" stroke="none" font-family="Arial" font-size="13px" font-style="normal" font-weight="normal" text-decoration="none" x="889.218505859375" y="1162.5">(from model)</text></g></g><g transform="translate(-182,-166) scale(1,1)"><g><path fill="none" stroke="none"/><text fill="#000000" stroke="none" font-family="Arial" font-size="13px" font-style="normal" font-weight="normal" text-decoration="none" x="829" y="1185.5">-id: Integer</text></g></g><g transform="translate(-182,-166) scale(1,1)"><g><path fill="none" stroke="none"/><text fill="#000000" stroke="none" font-family="Arial" font-size="13px" font-style="normal" font-weight="normal" text-decoration="none" x="829" y="1200.5">-id_car_type: Integer</text></g></g><g transform="translate(-182,-166) scale(1,1)"><g><path fill="none" stroke="none"/><text fill="#000000" stroke="none" font-family="Arial" font-size="13px" font-style="normal" font-weight="normal" text-decoration="none" x="829" y="1215.5">-id_fuel_type: Integer</text></g></g><g transform="translate(-182,-166) scale(1,1)"><g><path fill="none" stroke="none"/><text fill="#000000" stroke="none" font-family="Arial" font-size="13px" font-style="normal" font-weight="normal" text-decoration="none" x="829" y="1230.5">-pricing_minute_standard: Double</text></g></g><g transform="translate(-182,-166) scale(1,1)"><g><path fill="none" stroke="none"/><text fill="#000000" stroke="none" font-family="Arial" font-size="13px" font-style="normal" font-weight="normal" text-decoration="none" x="829" y="1245.5">-pricing_minute_premium: Double</text></g></g><g transform="translate(-182,-166) scale(1,1)"><g><path fill="none" stroke="none"/><text fill="#000000" stroke="none" font-family="Arial" font-size="13px" font-style="normal" font-weight="normal" text-decoration="none" x="829" y="1260.5">-pricing_minute_pro: Double</text></g></g><g transform="translate(-182,-166) scale(1,1)"><rect fill="#C0C0C0" stroke="none" x="1583" y="1055" width="128" height="88" opacity="0.2"/></g><g transform="translate(-182,-166) scale(1,1)"><rect fill="#ffffff" stroke="none" x="1576" y="1048" width="128" height="88"/></g><g transform="translate(-182,-166) scale(1,1)"><path fill="none" stroke="#000000" d="M 1576 1048 L 1704 1048 L 1704 1136 L 1576 1136 L 1576 1048 Z Z" stroke-miterlimit="10"/></g><g transform="translate(-182,-166) scale(1,1)"><path fill="none" stroke="#000000" d="M 1576 1088 L 1704 1088" stroke-miterlimit="10"/></g><g transform="translate(-182,-166) scale(1,1)"><path fill="none" stroke="#000000" d="M 1576 1126 L 1704 1126" stroke-miterlimit="10"/></g><g transform="translate(-182,-166) scale(1,1)"><g><path fill="none" stroke="none"/><text fill="#000000" stroke="none" font-family="Arial" font-size="13px" font-style="normal" font-weight="bold" text-decoration="none" x="1615.075927734375" y="1067.5">CarType</text></g></g><g transform="translate(-182,-166) scale(1,1)"><g><path fill="none" stroke="none"/><text fill="#000000" stroke="none" font-family="Arial" font-size="13px" font-style="normal" font-weight="normal" text-decoration="none" x="1603.161376953125" y="1082.5">(from model)</text></g></g><g transform="translate(-182,-166) scale(1,1)"><g><path fill="none" stroke="none"/><text fill="#000000" stroke="none" font-family="Arial" font-size="13px" font-style="normal" font-weight="normal" text-decoration="none" x="1581" y="1105.5">-id: Integer</text></g></g><g transform="translate(-182,-166) scale(1,1)"><g><path fill="none" stroke="none"/><text fill="#000000" stroke="none" font-family="Arial" font-size="13px" font-style="normal" font-weight="normal" text-decoration="none" x="1581" y="1120.5">-name: String</text></g></g><g transform="translate(-182,-166) scale(1,1)"><path fill="none" stroke="#000000" d="M 1137 889 L 1268 1087" stroke-miterlimit="10"/></g><g transform="translate(-182,-166) scale(1,1)"><g><path fill="none" stroke="none"/><text fill="#000000" stroke="none" font-family="Arial" font-size="13px" font-style="normal" font-weight="normal" text-decoration="none" x="1245.5" y="1063.5">+utilise</text></g></g><g transform="translate(-182,-166) scale(1,1)"><path fill="none" stroke="#000000" d="M 1615 1047 L 1504 845" stroke-miterlimit="10"/></g><g transform="translate(-182,-166) scale(1,1)"><g><path fill="none" stroke="none"/><text fill="#000000" stroke="none" font-family="Arial" font-size="13px" font-style="normal" font-weight="normal" text-decoration="none" x="1524.5" y="959.5">+utilise</text></g></g><g transform="translate(-182,-166) scale(1,1)"><path fill="none" stroke="#000000" d="M 682 873 L 639 1039" stroke-miterlimit="10"/></g><g transform="translate(-182,-166) scale(1,1)"><g><path fill="none" stroke="none"/><text fill="#000000" stroke="none" font-family="Arial" font-size="13px" font-style="normal" font-weight="normal" text-decoration="none" x="653.5" y="965.5">+utilise</text></g></g><g transform="translate(-182,-166) scale(1,1)"><rect fill="#C0C0C0" stroke="none" x="199" y="695" width="232" height="80" opacity="0.2"/></g><g transform="translate(-182,-166) scale(1,1)"><rect fill="#ffffff" stroke="none" x="192" y="688" width="232" height="80"/></g><g transform="translate(-182,-166) scale(1,1)"><path fill="none" stroke="#000000" d="M 192 688 L 424 688 L 424 768 L 192 768 L 192 688 Z Z" stroke-miterlimit="10"/></g><g transform="translate(-182,-166) scale(1,1)"><path fill="none" stroke="#000000" d="M 192 728 L 424 728" stroke-miterlimit="10"/></g><g transform="translate(-182,-166) scale(1,1)"><path fill="none" stroke="#000000" d="M 192 751 L 424 751" stroke-miterlimit="10"/></g><g transform="translate(-182,-166) scale(1,1)"><g><path fill="none" stroke="none"/><text fill="#000000" stroke="none" font-family="Arial" font-size="13px" font-style="normal" font-weight="bold" text-decoration="none" x="246.224609375" y="707.5">ParkingSpotDAOImpl</text></g></g><g transform="translate(-182,-166) scale(1,1)"><g><path fill="none" stroke="none"/><text fill="#000000" stroke="none" font-family="Arial" font-size="13px" font-style="normal" font-weight="normal" text-decoration="none" x="278.02001953125" y="722.5">(from dao)</text></g></g><g transform="translate(-182,-166) scale(1,1)"><g><path fill="none" stroke="none"/><text fill="#000000" stroke="none" font-family="Arial" font-size="13px" font-style="normal" font-weight="normal" text-decoration="none" x="197" y="745.5">-sessionFactory: SessionFactory</text></g></g><g transform="translate(-182,-166) scale(1,1)"><path fill="none" stroke="#000000" d="M 368 687 L 551 561" stroke-miterlimit="10"/></g><g transform="translate(-182,-166) scale(1,1)"><g><path fill="none" stroke="none"/><text fill="#000000" stroke="none" font-family="Arial" font-size="13px" font-style="normal" font-weight="normal" text-decoration="none" x="414.5" y="617.5">+fait appel à</text></g></g><g transform="translate(-182,-166) scale(1,1)"><path fill="none" stroke="#000000" d="M 913 1073 L 918 1127" stroke-miterlimit="10"/></g><g transform="translate(-182,-166) scale(1,1)"><g><path fill="none" stroke="none"/><text fill="#000000" stroke="none" font-family="Arial" font-size="13px" font-style="normal" font-weight="normal" text-decoration="none" x="908.5" y="1104.5">+utilise</text></g></g><g transform="translate(-182,-166) scale(1,1)"><rect fill="#C0C0C0" stroke="none" x="287" y="999" width="113.05078125" height="192" opacity="0.2"/></g><g transform="translate(-182,-166) scale(1,1)"><rect fill="#ffffff" stroke="none" x="280" y="992" width="113.05078125" height="192"/></g><g transform="translate(-182,-166) scale(1,1)"><path fill="none" stroke="#000000" d="M 280 992 L 393.05078125 992 L 393.05078125 1184 L 280 1184 L 280 992 Z Z" stroke-miterlimit="10"/></g><g transform="translate(-182,-166) scale(1,1)"><path fill="none" stroke="#000000" d="M 280 1032 L 393.05078125 1032" stroke-miterlimit="10"/></g><g transform="translate(-182,-166) scale(1,1)"><path fill="none" stroke="#000000" d="M 280 1175 L 393.05078125 1175" stroke-miterlimit="10"/></g><g transform="translate(-182,-166) scale(1,1)"><g><path fill="none" stroke="none"/><text fill="#000000" stroke="none" font-family="Arial" font-size="13px" font-style="normal" font-weight="bold" text-decoration="none" x="301.114990234375" y="1011.5">ParkingSpot</text></g></g><g transform="translate(-182,-166) scale(1,1)"><g><path fill="none" stroke="none"/><text fill="#000000" stroke="none" font-family="Arial" font-size="13px" font-style="normal" font-weight="normal" text-decoration="none" x="299.686767578125" y="1026.5">(from model)</text></g></g><g transform="translate(-182,-166) scale(1,1)"><g><path fill="none" stroke="none"/><text fill="#000000" stroke="none" font-family="Arial" font-size="13px" font-style="normal" font-weight="normal" text-decoration="none" x="285" y="1049.5">-id: Integer</text></g></g><g transform="translate(-182,-166) scale(1,1)"><g><path fill="none" stroke="none"/><text fill="#000000" stroke="none" font-family="Arial" font-size="13px" font-style="normal" font-weight="normal" text-decoration="none" x="285" y="1064.5">-nbSpot: Integer</text></g></g><g transform="translate(-182,-166) scale(1,1)"><g><path fill="none" stroke="none"/><text fill="#000000" stroke="none" font-family="Arial" font-size="13px" font-style="normal" font-weight="normal" text-decoration="none" x="285" y="1079.5">-nbParking: String</text></g></g><g transform="translate(-182,-166) scale(1,1)"><g><path fill="none" stroke="none"/><text fill="#000000" stroke="none" font-family="Arial" font-size="13px" font-style="normal" font-weight="normal" text-decoration="none" x="285" y="1094.5">-plug: boolean</text></g></g><g transform="translate(-182,-166) scale(1,1)"><g><path fill="none" stroke="none"/><text fill="#000000" stroke="none" font-family="Arial" font-size="13px" font-style="normal" font-weight="normal" text-decoration="none" x="285" y="1109.5">-location: String</text></g></g><g transform="translate(-182,-166) scale(1,1)"><g><path fill="none" stroke="none"/><text fill="#000000" stroke="none" font-family="Arial" font-size="13px" font-style="normal" font-weight="normal" text-decoration="none" x="285" y="1124.5">-longitude: float</text></g></g><g transform="translate(-182,-166) scale(1,1)"><g><path fill="none" stroke="none"/><text fill="#000000" stroke="none" font-family="Arial" font-size="13px" font-style="normal" font-weight="normal" text-decoration="none" x="285" y="1139.5">-latitude: float</text></g></g><g transform="translate(-182,-166) scale(1,1)"><g><path fill="none" stroke="none"/><text fill="#000000" stroke="none" font-family="Arial" font-size="13px" font-style="normal" font-weight="normal" text-decoration="none" x="285" y="1154.5">-length: Integer</text></g></g><g transform="translate(-182,-166) scale(1,1)"><g><path fill="none" stroke="none"/><text fill="#000000" stroke="none" font-family="Arial" font-size="13px" font-style="normal" font-weight="normal" text-decoration="none" x="285" y="1169.5">-width: Integer</text></g></g><g transform="translate(-182,-166) scale(1,1)"><path fill="none" stroke="#000000" d="M 311 769 L 328 991" stroke-miterlimit="10"/></g><g transform="translate(-182,-166) scale(1,1)"><g><path fill="none" stroke="none"/><text fill="#000000" stroke="none" font-family="Arial" font-size="13px" font-style="normal" font-weight="normal" text-decoration="none" x="312.5" y="884.5">+utilise</text></g></g><g transform="translate(-182,-166) scale(1,1)"><rect fill="#C0C0C0" stroke="none" x="1479" y="1319" width="159.3125" height="87" opacity="0.2"/></g><g transform="translate(-182,-166) scale(1,1)"><rect fill="#ffffff" stroke="none" x="1472" y="1312" width="159.3125" height="87"/></g><g transform="translate(-182,-166) scale(1,1)"><path fill="none" stroke="#000000" d="M 1472 1312 L 1631.3125 1312 L 1631.3125 1399 L 1472 1399 L 1472 1312 Z Z" stroke-miterlimit="10"/></g><g transform="translate(-182,-166) scale(1,1)"><path fill="none" stroke="#000000" d="M 1472 1352 L 1631.3125 1352" stroke-miterlimit="10"/></g><g transform="translate(-182,-166) scale(1,1)"><path fill="none" stroke="#000000" d="M 1472 1390 L 1631.3125 1390" stroke-miterlimit="10"/></g><g transform="translate(-182,-166) scale(1,1)"><g><path fill="none" stroke="none"/><text fill="#000000" stroke="none" font-family="Arial" font-size="13px" font-style="normal" font-weight="bold" text-decoration="none" x="1511.9072265625" y="1331.5">SpotAvailable</text></g></g><g transform="translate(-182,-166) scale(1,1)"><g><path fill="none" stroke="none"/><text fill="#000000" stroke="none" font-family="Arial" font-size="13px" font-style="normal" font-weight="normal" text-decoration="none" x="1514.817626953125" y="1346.5">(from model)</text></g></g><g transform="translate(-182,-166) scale(1,1)"><g><path fill="none" stroke="none"/><text fill="#000000" stroke="none" font-family="Arial" font-size="13px" font-style="normal" font-weight="normal" text-decoration="none" x="1477" y="1369.5">-id_parking_spots: Integer</text></g></g><g transform="translate(-182,-166) scale(1,1)"><g><path fill="none" stroke="none"/><text fill="#000000" stroke="none" font-family="Arial" font-size="13px" font-style="normal" font-weight="normal" text-decoration="none" x="1477" y="1384.5">-available: String</text></g></g><g transform="translate(-182,-166) scale(1,1)"><path fill="none" stroke="#000000" d="M 1496 1311 L 1408 1241" stroke-miterlimit="10"/></g><g transform="translate(-182,-166) scale(1,1)"><g><path fill="none" stroke="none"/><text fill="#000000" stroke="none" font-family="Arial" font-size="13px" font-style="normal" font-weight="normal" text-decoration="none" x="1421.5" y="1293.5">+utilise</text></g></g><g transform="translate(-182,-166) scale(1,1)"><g><path fill="none" stroke="none"/><text fill="#000000" stroke="none" font-family="Arial" font-size="13px" font-style="normal" font-weight="normal" text-decoration="none" x="1482.5" y="1293.5">1</text></g></g><g transform="translate(-182,-166) scale(1,1)"><g><path fill="none" stroke="none"/><text fill="#000000" stroke="none" font-family="Arial" font-size="13px" font-style="normal" font-weight="normal" text-decoration="none" x="1428.5" y="1250.5">1</text></g></g></g></svg>