<svg version="1.1" xmlns="http://www.w3.org/2000/svg" xmlns:xlink="http://www.w3.org/1999/xlink" width="739.2265625" height="436"><defs/><g><g transform="translate(-102,-102) scale(1,1)"><path fill="#C0C0C0" stroke="none" d="M 311 128.5 C 311 123.2532944 315.2532944 119 320.5 119 C 325.7467056 119 330 123.2532944 330 128.5 C 330 133.7467056 325.7467056 138 320.5 138 C 315.2532944 138 311 133.7467056 311 128.5 Z" opacity="0.2"/></g><g transform="translate(-102,-102) scale(1,1)"><path fill="#000000" stroke="none" d="M 304 121.5 C 304 116.2532944 308.2532944 112 313.5 112 C 318.7467056 112 323 116.2532944 323 121.5 C 323 126.7467056 318.7467056 131 313.5 131 C 308.2532944 131 304 126.7467056 304 121.5 Z"/></g><g transform="translate(-102,-102) scale(1,1)"><path fill="#C0C0C0" stroke="none" d="M 129 183 L 525 183 Q 535 183 535 193 L 535 213 Q 535 223 525 223 L 129 223 Q 119 223 119 213 L 119 193 Q 119 183 129 183 Z" opacity="0.2"/></g><g transform="translate(-102,-102) scale(1,1)"><path fill="#ffffff" stroke="none" d="M 122 176 L 518 176 Q 528 176 528 186 L 528 206 Q 528 216 518 216 L 122 216 Q 112 216 112 206 L 112 186 Q 112 176 122 176 Z"/></g><g transform="translate(-102,-102) scale(1,1)"><path fill="none" stroke="#000000" d="M 122 176 L 518 176 Q 528 176 528 186 L 528 206 Q 528 216 518 216 L 122 216 Q 112 216 112 206 L 112 186 Q 112 176 122 176 Z" stroke-miterlimit="10"/></g><g transform="translate(-102,-102) scale(1,1)"><g><path fill="none" stroke="none"/><text fill="#000000" stroke="none" font-family="Arial" font-size="13px" font-style="normal" font-weight="bold" text-decoration="none" x="141.557861328125" y="195.5">l'utilisateur se rend sur la page de réservation  depuis l'accueil</text></g></g><g transform="translate(-102,-102) scale(1,1)"><path fill="none" stroke="#000000" d="M 314 132 L 318 175" stroke-miterlimit="10"/></g><g transform="translate(-102,-102) scale(1,1)"><path fill="none" stroke="#000000" d="M 312.86727686894625 165.27091200266202 L 318 175 L 321.25012076575723 164.49111257040053" stroke-miterlimit="10"/></g><g transform="translate(-102,-102) scale(1,1)"><path fill="#C0C0C0" stroke="none" d="M 201 287 L 484.23291015625 287 Q 494.23291015625 287 494.23291015625 297 L 494.23291015625 317 Q 494.23291015625 327 484.23291015625 327 L 201 327 Q 191 327 191 317 L 191 297 Q 191 287 201 287 Z" opacity="0.2"/></g><g transform="translate(-102,-102) scale(1,1)"><path fill="#ffffff" stroke="none" d="M 194 280 L 477.23291015625 280 Q 487.23291015625 280 487.23291015625 290 L 487.23291015625 310 Q 487.23291015625 320 477.23291015625 320 L 194 320 Q 184 320 184 310 L 184 290 Q 184 280 194 280 Z"/></g><g transform="translate(-102,-102) scale(1,1)"><path fill="none" stroke="#000000" d="M 194 280 L 477.23291015625 280 Q 487.23291015625 280 487.23291015625 290 L 487.23291015625 310 Q 487.23291015625 320 477.23291015625 320 L 194 320 Q 184 320 184 310 L 184 290 Q 184 280 194 280 Z" stroke-miterlimit="10"/></g><g transform="translate(-102,-102) scale(1,1)"><g><path fill="none" stroke="none"/><text fill="#000000" stroke="none" font-family="Arial" font-size="13px" font-style="normal" font-weight="bold" text-decoration="none" x="201.068359375" y="299.5">L'utilisateur remplit le formulaire de réservation</text></g></g><g transform="translate(-102,-102) scale(1,1)"><path fill="none" stroke="#000000" d="M 323 217 L 332 279" stroke-miterlimit="10"/></g><g transform="translate(-102,-102) scale(1,1)"><path fill="none" stroke="#000000" d="M 326.3742189176515 269.5474560454082 L 332 279 L 334.70592997695616 268.33801411744463" stroke-miterlimit="10"/></g><g transform="translate(-102,-102) scale(1,1)"><path fill="#C0C0C0" stroke="none" d="M 649 279 L 828.2265625 279 Q 838.2265625 279 838.2265625 289 L 838.2265625 309 Q 838.2265625 319 828.2265625 319 L 649 319 Q 639 319 639 309 L 639 289 Q 639 279 649 279 Z" opacity="0.2"/></g><g transform="translate(-102,-102) scale(1,1)"><path fill="#ffffff" stroke="none" d="M 642 272 L 821.2265625 272 Q 831.2265625 272 831.2265625 282 L 831.2265625 302 Q 831.2265625 312 821.2265625 312 L 642 312 Q 632 312 632 302 L 632 282 Q 632 272 642 272 Z"/></g><g transform="translate(-102,-102) scale(1,1)"><path fill="none" stroke="#000000" d="M 642 272 L 821.2265625 272 Q 831.2265625 272 831.2265625 282 L 831.2265625 302 Q 831.2265625 312 821.2265625 312 L 642 312 Q 632 312 632 302 L 632 282 Q 632 272 642 272 Z" stroke-miterlimit="10"/></g><g transform="translate(-102,-102) scale(1,1)"><g><path fill="none" stroke="none"/><text fill="#000000" stroke="none" font-family="Arial" font-size="13px" font-style="normal" font-weight="bold" text-decoration="none" x="644.018798828125" y="291.5">L'utilisateur lance la recherche</text></g></g><g transform="translate(-102,-102) scale(1,1)"><path fill="none" stroke="#000000" d="M 488 297 L 631 294" stroke-miterlimit="10"/></g><g transform="translate(-102,-102) scale(1,1)"><path fill="none" stroke="#000000" d="M 620.9278529331316 298.4217477837812 L 631 294 L 620.7512686653009 290.0045643505174" stroke-miterlimit="10"/></g><g transform="translate(-102,-102) scale(1,1)"><path fill="#C0C0C0" stroke="none" d="M 383 400.5 L 394.5 391 L 405 400.5 L 394.5 409 L 383 400.5" opacity="0.2"/></g><g transform="translate(-102,-102) scale(1,1)"><path fill="#ffffff" stroke="none" d="M 376 393 L 387 384 L 398 393 L 387 402 L 376 393"/></g><g transform="translate(-102,-102) scale(1,1)"><path fill="none" stroke="#000000" d="M 376 393 L 387 384 L 398 393 L 387 402 L 376 393 L 376 393" stroke-miterlimit="10"/></g><g transform="translate(-102,-102) scale(1,1)"><path fill="none" stroke="#000000" d="M 659 313 L 399 389" stroke-miterlimit="10"/></g><g transform="translate(-102,-102) scale(1,1)"><path fill="none" stroke="#000000" d="M 407.57343365475947 382.108248744518 L 399 389 L 409.93553712233563 390.18912902833114" stroke-miterlimit="10"/></g><g transform="translate(-102,-102) scale(1,1)"><path fill="none" stroke="#000000" d="M 381 383 L 347 321" stroke-miterlimit="10"/></g><g transform="translate(-102,-102) scale(1,1)"><path fill="none" stroke="#000000" d="M 355.5775028916347 327.8866860059101 L 347 321 L 348.19558808564057 331.93483283500365" stroke-miterlimit="10"/></g><g transform="translate(-102,-102) scale(1,1)"><g><path fill="none" stroke="none"/><text fill="#000000" stroke="none" font-family="Arial" font-size="13px" font-style="normal" font-weight="normal" text-decoration="none" x="274.5" y="365.5">Aucun véhicule disponible</text></g></g><g transform="translate(-102,-102) scale(1,1)"><path fill="#C0C0C0" stroke="none" d="M 281 495 L 524.53466796875 495 Q 534.53466796875 495 534.53466796875 505 L 534.53466796875 525 Q 534.53466796875 535 524.53466796875 535 L 281 535 Q 271 535 271 525 L 271 505 Q 271 495 281 495 Z" opacity="0.2"/></g><g transform="translate(-102,-102) scale(1,1)"><path fill="#ffffff" stroke="none" d="M 274 488 L 517.53466796875 488 Q 527.53466796875 488 527.53466796875 498 L 527.53466796875 518 Q 527.53466796875 528 517.53466796875 528 L 274 528 Q 264 528 264 518 L 264 498 Q 264 488 274 488 Z"/></g><g transform="translate(-102,-102) scale(1,1)"><path fill="none" stroke="#000000" d="M 274 488 L 517.53466796875 488 Q 527.53466796875 488 527.53466796875 498 L 527.53466796875 518 Q 527.53466796875 528 517.53466796875 528 L 274 528 Q 264 528 264 518 L 264 498 Q 264 488 274 488 Z" stroke-miterlimit="10"/></g><g transform="translate(-102,-102) scale(1,1)"><g><path fill="none" stroke="none"/><text fill="#000000" stroke="none" font-family="Arial" font-size="13px" font-style="normal" font-weight="bold" text-decoration="none" x="279.2783203125" y="507.5">L'utilisateur choisit le véhicule à réserver</text></g></g><g transform="translate(-102,-102) scale(1,1)"><path fill="none" stroke="#000000" d="M 388 403 L 394 487" stroke-miterlimit="10"/></g><g transform="translate(-102,-102) scale(1,1)"><path fill="none" stroke="#000000" d="M 389.0771192885779 477.16306727169956 L 394 487 L 397.4747595042381 476.5632358277239" stroke-miterlimit="10"/></g><g transform="translate(-102,-102) scale(1,1)"><g><path fill="none" stroke="none"/><text fill="#000000" stroke="none" font-family="Arial" font-size="13px" font-style="normal" font-weight="normal" text-decoration="none" x="342.5" y="449.5">Véhicules disponibles</text></g></g><g transform="translate(-102,-102) scale(1,1)"><path fill="#C0C0C0" stroke="none" d="M 687 507.5 C 687 500.59644 692.59644 495 699.5 495 C 706.40356 495 712 500.59644 712 507.5 C 712 514.40356 706.40356 520 699.5 520 C 692.59644 520 687 514.40356 687 507.5 Z" opacity="0.2"/></g><g transform="translate(-102,-102) scale(1,1)"><path fill="none" stroke="#000000" d="M 680 500.5 C 680 493.59644 685.59644 488 692.5 488 C 699.40356 488 705 493.59644 705 500.5 C 705 507.40356 699.40356 513 692.5 513 C 685.59644 513 680 507.40356 680 500.5 Z" stroke-miterlimit="10"/></g><g transform="translate(-102,-102) scale(1,1)"><path fill="#000000" stroke="none" d="M 685 500.5 C 685 496.357864 688.357864 493 692.5 493 C 696.642136 493 700 496.357864 700 500.5 C 700 504.642136 696.642136 508 692.5 508 C 688.357864 508 685 504.642136 685 500.5 Z"/></g><g transform="translate(-102,-102) scale(1,1)"><path fill="none" stroke="#000000" d="M 529 504 L 679 500" stroke-miterlimit="10"/></g><g transform="translate(-102,-102) scale(1,1)"><path fill="none" stroke="#000000" d="M 668.9531505275143 504.47893019338477 L 679 500 L 668.7287226962413 496.0628865206484" stroke-miterlimit="10"/></g></g></svg>