<svg version="1.1" xmlns="http://www.w3.org/2000/svg" xmlns:xlink="http://www.w3.org/1999/xlink" width="932" height="740"><defs/><g><g transform="translate(-126,10) scale(1,1)"><path fill="none" stroke="#000000" d="M 136 0 L 1048 0 L 1048 720 L 136 720 L 136 0" stroke-miterlimit="10"/></g><g transform="translate(-126,10) scale(1,1)"><path fill="#ffffff" stroke="none" d="M 136 0 L 136 22 L 308.076171875 22 L 319.076171875 11 L 319.076171875 0 L 136 0"/></g><g transform="translate(-126,10) scale(1,1)"><path fill="none" stroke="#000000" d="M 136 0 L 136 22 L 308.076171875 22 L 319.076171875 11 L 319.076171875 0 L 136 0 L 136 0" stroke-miterlimit="10"/></g><g transform="translate(-126,10) scale(1,1)"><g><path fill="none" stroke="none"/><text fill="#000000" stroke="none" font-family="Arial" font-size="13px" font-style="normal" font-weight="normal" text-decoration="none" x="206.97900390625" y="17.5">DSSReservation</text></g></g><g transform="translate(-126,10) scale(1,1)"><g><path fill="none" stroke="none"/><text fill="#000000" stroke="none" font-family="Arial" font-size="13px" font-style="normal" font-weight="bold" text-decoration="none" x="141" y="17.5">interaction</text></g></g><g transform="translate(-126,10) scale(1,1)"><rect fill="#C0C0C0" stroke="none" x="287" y="47" width="78.94091796875" height="39" opacity="0.2"/></g><g transform="translate(-126,10) scale(1,1)"><rect fill="#ffffff" stroke="none" x="280" y="40" width="78.94091796875" height="39"/></g><g transform="translate(-126,10) scale(1,1)"><path fill="none" stroke="#000000" d="M 280 40 L 358.94091796875 40 L 358.94091796875 79 L 280 79 L 280 40 Z Z" stroke-miterlimit="10"/></g><g transform="translate(-126,10) scale(1,1)"><g><path fill="none" stroke="none"/><text fill="#000000" stroke="none" font-family="Arial" font-size="13px" font-style="normal" font-weight="bold" text-decoration="none" x="291.286865234375" y="59.5">Agent BO</text></g></g><g transform="translate(-126,10) scale(1,1)"><path fill="none" stroke="#000000" d="M 320.5 80 L 320.5 624" stroke-miterlimit="10" stroke-dasharray="3"/></g><g transform="translate(-126,10) scale(1,1)"><rect fill="#C0C0C0" stroke="none" x="807" y="47" width="72.47900390625" height="39" opacity="0.2"/></g><g transform="translate(-126,10) scale(1,1)"><rect fill="#ffffff" stroke="none" x="800" y="40" width="72.47900390625" height="39"/></g><g transform="translate(-126,10) scale(1,1)"><path fill="none" stroke="#000000" d="M 800 40 L 872.47900390625 40 L 872.47900390625 79 L 800 79 L 800 40 Z Z" stroke-miterlimit="10"/></g><g transform="translate(-126,10) scale(1,1)"><g><path fill="none" stroke="none"/><text fill="#000000" stroke="none" font-family="Arial" font-size="13px" font-style="normal" font-weight="bold" text-decoration="none" x="810.95361328125" y="59.5">Système</text></g></g><g transform="translate(-126,10) scale(1,1)"><path fill="none" stroke="#000000" d="M 837.5 80 L 837.5 624" stroke-miterlimit="10" stroke-dasharray="3"/></g><g transform="translate(-126,10) scale(1,1)"><path fill="none" stroke="#000000" d="M 200 224 L 936 224 L 936 560 L 200 560 L 200 224" stroke-miterlimit="10"/></g><g transform="translate(-126,10) scale(1,1)"><path fill="#ffffff" stroke="none" d="M 200 224 L 200 246 L 272.36083984375 246 L 283.36083984375 235 L 283.36083984375 224 L 200 224"/></g><g transform="translate(-126,10) scale(1,1)"><path fill="none" stroke="#000000" d="M 200 224 L 200 246 L 272.36083984375 246 L 283.36083984375 235 L 283.36083984375 224 L 200 224 L 200 224" stroke-miterlimit="10"/></g><g transform="translate(-126,10) scale(1,1)"><g><path fill="none" stroke="none"/><text fill="#000000" stroke="none" font-family="Arial" font-size="13px" font-style="normal" font-weight="normal" text-decoration="none" x="224.72998046875" y="241.5">resultat</text></g></g><g transform="translate(-126,10) scale(1,1)"><g><path fill="none" stroke="none"/><text fill="#000000" stroke="none" font-family="Arial" font-size="13px" font-style="normal" font-weight="bold" text-decoration="none" x="205" y="241.5">alt</text></g></g><g transform="translate(-126,10) scale(1,1)"><g><path fill="none" stroke="none"/><text fill="#000000" stroke="none" font-family="Arial" font-size="13px" font-style="normal" font-weight="normal" text-decoration="none" x="219.5" y="274.5">[resultatVide]</text></g></g><g transform="translate(-126,10) scale(1,1)"><path fill="none" stroke="#000000" d="M 200 345 L 936 345" stroke-miterlimit="10" stroke-dasharray="10,3"/></g><g transform="translate(-126,10) scale(1,1)"><g><path fill="none" stroke="none"/><text fill="#000000" stroke="none" font-family="Arial" font-size="13px" font-style="normal" font-weight="normal" text-decoration="none" x="219.5" y="372.5">[resultaNontVide]</text></g></g><g transform="translate(-126,10) scale(1,1)"><path fill="none" stroke="#000000" d="M 320 124 L 830 124" stroke-miterlimit="10"/></g><g transform="translate(-126,10) scale(1,1)"><path fill="#000000" stroke="none" d="M 819.8373251423759 128.209517756016 L 830 124 L 819.8373251423758 119.79048224398402"/></g><g transform="translate(-126,10) scale(1,1)"><path fill="none" stroke="#000000" d="M 819.8373251423759 128.209517756016 L 830 124 L 819.8373251423758 119.79048224398402 L 819.8373251423759 128.209517756016" stroke-miterlimit="10"/></g><g transform="translate(-126,10) scale(1,1)"><g><path fill="none" stroke="none"/><text fill="#000000" stroke="none" font-family="Arial" font-size="13px" font-style="normal" font-weight="normal" text-decoration="none" x="472.5" y="120.5">1 : Cliquer sur réserver  un véhicule</text></g></g><g transform="translate(-126,10) scale(1,1)"><rect fill="#ffffff" stroke="none" x="830" y="124" width="13" height="28"/></g><g transform="translate(-126,10) scale(1,1)"><path fill="none" stroke="#000000" d="M 830 124 L 843 124 L 843 152 L 830 152 L 830 124 Z Z" stroke-miterlimit="10"/></g><g transform="translate(-126,10) scale(1,1)"><path fill="none" stroke="#000000" d="M 837 152 L 320 152" stroke-miterlimit="10" stroke-dasharray="3"/></g><g transform="translate(-126,10) scale(1,1)"><path fill="none" stroke="#000000" d="M 330.16267485762415 147.790482243984 L 320 152 L 330.16267485762415 156.209517756016" stroke-miterlimit="10"/></g><g transform="translate(-126,10) scale(1,1)"><g><path fill="none" stroke="none"/><text fill="#000000" stroke="none" font-family="Arial" font-size="13px" font-style="normal" font-weight="normal" text-decoration="none" x="458.5" y="168.5">2 : Affichage du formulaire de réservation</text></g></g><g transform="translate(-126,10) scale(1,1)"><path fill="none" stroke="#000000" d="M 320 214 L 830 214" stroke-miterlimit="10"/></g><g transform="translate(-126,10) scale(1,1)"><path fill="#000000" stroke="none" d="M 819.8373251423759 218.209517756016 L 830 214 L 819.8373251423758 209.790482243984"/></g><g transform="translate(-126,10) scale(1,1)"><path fill="none" stroke="#000000" d="M 819.8373251423759 218.209517756016 L 830 214 L 819.8373251423758 209.790482243984 L 819.8373251423759 218.209517756016" stroke-miterlimit="10"/></g><g transform="translate(-126,10) scale(1,1)"><g><path fill="none" stroke="none"/><text fill="#000000" stroke="none" font-family="Arial" font-size="13px" font-style="normal" font-weight="normal" text-decoration="none" x="426.5" y="210.5">3 : Remplissage du formulaire avec les préférences</text></g></g><g transform="translate(-126,10) scale(1,1)"><rect fill="#ffffff" stroke="none" x="830" y="214" width="13" height="77"/></g><g transform="translate(-126,10) scale(1,1)"><path fill="none" stroke="#000000" d="M 830 214 L 843 214 L 843 291 L 830 291 L 830 214 Z Z" stroke-miterlimit="10"/></g><g transform="translate(-126,10) scale(1,1)"><path fill="none" stroke="#000000" d="M 843 216 L 873 216 L 873 236 L 850 236" stroke-miterlimit="10"/></g><g transform="translate(-126,10) scale(1,1)"><path fill="#000000" stroke="none" d="M 860.1626748576241 231.790482243984 L 850 236 L 860.1626748576241 240.209517756016"/></g><g transform="translate(-126,10) scale(1,1)"><path fill="none" stroke="#000000" d="M 860.1626748576241 231.790482243984 L 850 236 L 860.1626748576241 240.209517756016 L 860.1626748576241 231.790482243984" stroke-miterlimit="10"/></g><g transform="translate(-126,10) scale(1,1)"><g><path fill="none" stroke="none"/><text fill="#000000" stroke="none" font-family="Arial" font-size="13px" font-style="normal" font-weight="normal" text-decoration="none" x="803.5" y="231.5">4 : Vérification des champs</text></g></g><g transform="translate(-126,10) scale(1,1)"><rect fill="#ffffff" stroke="none" x="837" y="236" width="13" height="28"/></g><g transform="translate(-126,10) scale(1,1)"><path fill="none" stroke="#000000" d="M 837 236 L 850 236 L 850 264 L 837 264 L 837 236 Z Z" stroke-miterlimit="10"/></g><g transform="translate(-126,10) scale(1,1)"><path fill="none" stroke="#000000" d="M 837 306 L 320 306" stroke-miterlimit="10" stroke-dasharray="3"/></g><g transform="translate(-126,10) scale(1,1)"><path fill="none" stroke="#000000" d="M 330.16267485762415 301.790482243984 L 320 306 L 330.16267485762415 310.209517756016" stroke-miterlimit="10"/></g><g transform="translate(-126,10) scale(1,1)"><g><path fill="none" stroke="none"/><text fill="#000000" stroke="none" font-family="Arial" font-size="13px" font-style="normal" font-weight="normal" text-decoration="none" x="436.6826171875" y="322.5">5 : Affiche le message aucun véhicule disponible</text></g></g><g transform="translate(-126,10) scale(1,1)"><path fill="none" stroke="#000000" d="M 837 392 L 320 392" stroke-miterlimit="10" stroke-dasharray="3"/></g><g transform="translate(-126,10) scale(1,1)"><path fill="none" stroke="#000000" d="M 330.16267485762415 387.790482243984 L 320 392 L 330.16267485762415 396.209517756016" stroke-miterlimit="10"/></g><g transform="translate(-126,10) scale(1,1)"><g><path fill="none" stroke="none"/><text fill="#000000" stroke="none" font-family="Arial" font-size="13px" font-style="normal" font-weight="normal" text-decoration="none" x="352.5" y="408.5">6 : Retourne la page avec les véhicules disponibles et les tarifs correspondant</text></g></g><g transform="translate(-126,10) scale(1,1)"><path fill="none" stroke="#000000" d="M 320 451 L 830 451" stroke-miterlimit="10"/></g><g transform="translate(-126,10) scale(1,1)"><path fill="#000000" stroke="none" d="M 819.8373251423759 455.209517756016 L 830 451 L 819.8373251423758 446.790482243984"/></g><g transform="translate(-126,10) scale(1,1)"><path fill="none" stroke="#000000" d="M 819.8373251423759 455.209517756016 L 830 451 L 819.8373251423758 446.790482243984 L 819.8373251423759 455.209517756016" stroke-miterlimit="10"/></g><g transform="translate(-126,10) scale(1,1)"><g><path fill="none" stroke="none"/><text fill="#000000" stroke="none" font-family="Arial" font-size="13px" font-style="normal" font-weight="normal" text-decoration="none" x="466.5" y="447.5">7 : Selectionner le véhicule à réserver</text></g></g><g transform="translate(-126,10) scale(1,1)"><rect fill="#ffffff" stroke="none" x="830" y="451" width="13" height="28"/></g><g transform="translate(-126,10) scale(1,1)"><path fill="none" stroke="#000000" d="M 830 451 L 843 451 L 843 479 L 830 479 L 830 451 Z Z" stroke-miterlimit="10"/></g><g transform="translate(-126,10) scale(1,1)"><path fill="none" stroke="#000000" d="M 830 473 L 320 473" stroke-miterlimit="10" stroke-dasharray="3"/></g><g transform="translate(-126,10) scale(1,1)"><path fill="none" stroke="#000000" d="M 330.16267485762415 468.790482243984 L 320 473 L 330.16267485762415 477.209517756016" stroke-miterlimit="10"/></g><g transform="translate(-126,10) scale(1,1)"><g><path fill="none" stroke="none"/><text fill="#000000" stroke="none" font-family="Arial" font-size="13px" font-style="normal" font-weight="normal" text-decoration="none" x="366.47802734375" y="489.5">8 : Confirme la reservation avec les détails du véhicule et sa localisation</text></g></g></g></svg>