<svg version="1.1" xmlns="http://www.w3.org/2000/svg" xmlns:xlink="http://www.w3.org/1999/xlink" width="652" height="436"><defs/><g><g transform="translate(-342,-246) scale(1,1)"><rect fill="#C0C0C0" stroke="none" x="535" y="263" width="456" height="416" opacity="0.2"/></g><g transform="translate(-342,-246) scale(1,1)"><rect fill="#ffffff" stroke="none" x="528" y="256" width="456" height="416"/></g><g transform="translate(-342,-246) scale(1,1)"><path fill="none" stroke="#000000" d="M 528 256 L 984 256 L 984 672 L 528 672 L 528 256 Z Z" stroke-miterlimit="10"/></g><g transform="translate(-342,-246) scale(1,1)"><g><path fill="none" stroke="none"/><text fill="#000000" stroke="none" font-family="Arial" font-size="13px" font-style="normal" font-weight="bold" text-decoration="none" x="686.62646484375" y="275.5">Réservation de véhicule</text></g></g><g transform="translate(-342,-246) scale(1,1)"><path fill="#ffffff" stroke="none" d="M 377.79118625710225 337.68 C 377.79118625710225 332.886167936 381.67702858204774 329 386.470458984375 329 C 391.26388938670226 329 395.14973171164775 332.886167936 395.14973171164775 337.68 C 395.14973171164775 342.473832064 391.26388938670226 346.36 386.470458984375 346.36 C 381.67702858204774 346.36 377.79118625710225 342.473832064 377.79118625710225 337.68 Z"/></g><g transform="translate(-342,-246) scale(1,1)"><path fill="none" stroke="#000000" d="M 377.79118625710225 337.68 C 377.79118625710225 332.886167936 381.67702858204774 329 386.470458984375 329 C 391.26388938670226 329 395.14973171164775 332.886167936 395.14973171164775 337.68 C 395.14973171164775 342.473832064 391.26388938670226 346.36 386.470458984375 346.36 C 381.67702858204774 346.36 377.79118625710225 342.473832064 377.79118625710225 337.68 Z" stroke-miterlimit="10"/></g><g transform="translate(-342,-246) scale(1,1)"><path fill="none" stroke="#000000" d="M 386.470458984375 346.36 L 386.470458984375 363.64" stroke-miterlimit="10"/></g><g transform="translate(-342,-246) scale(1,1)"><path fill="none" stroke="#000000" d="M 377.28064080255683 352.84 L 395.66027716619317 352.84" stroke-miterlimit="10"/></g><g transform="translate(-342,-246) scale(1,1)"><path fill="none" stroke="#000000" d="M 386.470458984375 363.64 L 373.70682262073865 381" stroke-miterlimit="10"/></g><g transform="translate(-342,-246) scale(1,1)"><path fill="none" stroke="#000000" d="M 386.470458984375 363.64 L 399.23409534801135 381" stroke-miterlimit="10"/></g><g transform="translate(-342,-246) scale(1,1)"><g><path fill="none" stroke="none"/><text fill="#000000" stroke="none" font-family="Arial" font-size="13px" font-style="normal" font-weight="bold" text-decoration="none" x="358.286865234375" y="401.5">Agent BO</text></g></g><g transform="translate(-342,-246) scale(1,1)"><path fill="#C0C0C0" stroke="none" d="M 607 379 C 607 363.5360256 683.3354416 351 777.5 351 C 871.6645584 351 948 363.5360256 948 379 C 948 394.4639744 871.6645584 407 777.5 407 C 683.3354416 407 607 394.4639744 607 379 Z" opacity="0.2"/></g><g transform="translate(-342,-246) scale(1,1)"><path fill="#ffffff" stroke="none" d="M 600 372 C 600 356.5360256 676.3354416 344 770.5 344 C 864.6645584 344 941 356.5360256 941 372 C 941 387.4639744 864.6645584 400 770.5 400 C 676.3354416 400 600 387.4639744 600 372 Z"/></g><g transform="translate(-342,-246) scale(1,1)"><path fill="none" stroke="#000000" d="M 600 372 C 600 356.5360256 676.3354416 344 770.5 344 C 864.6645584 344 941 356.5360256 941 372 C 941 387.4639744 864.6645584 400 770.5 400 C 676.3354416 400 600 387.4639744 600 372 Z" stroke-miterlimit="10"/></g><g transform="translate(-342,-246) scale(1,1)"><g><path fill="none" stroke="none"/><text fill="#000000" stroke="none" font-family="Arial" font-size="13px" font-style="normal" font-weight="bold" text-decoration="none" x="663.5546875" y="379">Rechercher les véhicules disponibles</text></g></g><g transform="translate(-342,-246) scale(1,1)"><path fill="none" stroke="#000000" d="M 422 367 L 599 370" stroke-miterlimit="10"/></g><g transform="translate(-342,-246) scale(1,1)"><path fill="#C0C0C0" stroke="none" d="M 695 472 C 695 462.6111584 739.3238048 455 794 455 C 848.6761952 455 893 462.6111584 893 472 C 893 481.3888416 848.6761952 489 794 489 C 739.3238048 489 695 481.3888416 695 472 Z" opacity="0.2"/></g><g transform="translate(-342,-246) scale(1,1)"><path fill="#ffffff" stroke="none" d="M 688 465 C 688 455.6111584 732.3238048 448 787 448 C 841.6761952 448 886 455.6111584 886 465 C 886 474.3888416 841.6761952 482 787 482 C 732.3238048 482 688 474.3888416 688 465 Z"/></g><g transform="translate(-342,-246) scale(1,1)"><path fill="none" stroke="#000000" d="M 688 465 C 688 455.6111584 732.3238048 448 787 448 C 841.6761952 448 886 455.6111584 886 465 C 886 474.3888416 841.6761952 482 787 482 C 732.3238048 482 688 474.3888416 688 465 Z" stroke-miterlimit="10"/></g><g transform="translate(-342,-246) scale(1,1)"><g><path fill="none" stroke="none"/><text fill="#000000" stroke="none" font-family="Arial" font-size="13px" font-style="normal" font-weight="bold" text-decoration="none" x="725.94189453125" y="472">Réserver un véhicule</text></g></g><g transform="translate(-342,-246) scale(1,1)"><path fill="none" stroke="#000000" d="M 775 401 L 784 447" stroke-miterlimit="10" stroke-dasharray="3"/></g><g transform="translate(-342,-246) scale(1,1)"><path fill="none" stroke="#000000" d="M 777.9174586691555 437.83470180743865 L 784 447 L 786.1798382816694 436.21814927455546" stroke-miterlimit="10"/></g><g transform="translate(-342,-246) scale(1,1)"><g><path fill="none" stroke="none"/><text fill="#000000" stroke="none" font-family="Arial" font-size="13px" font-style="normal" font-weight="normal" text-decoration="none" x="781.5" y="423.5">«extend»</text></g></g></g></svg>