<svg version="1.1" xmlns="http://www.w3.org/2000/svg" xmlns:xlink="http://www.w3.org/1999/xlink" width="175.65625" height="287"><defs/><g><g transform="translate(-502,-126) scale(1,1)"><rect fill="#C0C0C0" stroke="none" x="519" y="143" width="155.65625" height="267" opacity="0.2"/></g><g transform="translate(-502,-126) scale(1,1)"><rect fill="#ffffff" stroke="none" x="512" y="136" width="155.65625" height="267"/></g><g transform="translate(-502,-126) scale(1,1)"><path fill="none" stroke="#000000" d="M 512 136 L 667.65625 136 L 667.65625 403 L 512 403 L 512 136 Z Z" stroke-miterlimit="10"/></g><g transform="translate(-502,-126) scale(1,1)"><path fill="none" stroke="#000000" d="M 512 176 L 667.65625 176" stroke-miterlimit="10"/></g><g transform="translate(-502,-126) scale(1,1)"><path fill="none" stroke="#000000" d="M 512 394 L 667.65625 394" stroke-miterlimit="10"/></g><g transform="translate(-502,-126) scale(1,1)"><g><path fill="none" stroke="none"/><text fill="#000000" stroke="none" font-family="Arial" font-size="13px" font-style="normal" font-weight="bold" text-decoration="none" x="576.1044921875" y="155.5">User</text></g></g><g transform="translate(-502,-126) scale(1,1)"><g><path fill="none" stroke="none"/><text fill="#000000" stroke="none" font-family="Arial" font-size="13px" font-style="normal" font-weight="normal" text-decoration="none" x="552.26904296875" y="170.5">(from Portail)</text></g></g><g transform="translate(-502,-126) scale(1,1)"><g><path fill="none" stroke="none"/><text fill="#000000" stroke="none" font-family="Arial" font-size="13px" font-style="normal" font-weight="normal" text-decoration="none" x="517" y="193.5">-id: String</text></g></g><g transform="translate(-502,-126) scale(1,1)"><g><path fill="none" stroke="none"/><text fill="#000000" stroke="none" font-family="Arial" font-size="13px" font-style="normal" font-weight="normal" text-decoration="none" x="517" y="208.5">-gender: String</text></g></g><g transform="translate(-502,-126) scale(1,1)"><g><path fill="none" stroke="none"/><text fill="#000000" stroke="none" font-family="Arial" font-size="13px" font-style="normal" font-weight="normal" text-decoration="none" x="517" y="223.5">-firstName: String</text></g></g><g transform="translate(-502,-126) scale(1,1)"><g><path fill="none" stroke="none"/><text fill="#000000" stroke="none" font-family="Arial" font-size="13px" font-style="normal" font-weight="normal" text-decoration="none" x="517" y="238.5">-lastName: String</text></g></g><g transform="translate(-502,-126) scale(1,1)"><g><path fill="none" stroke="none"/><text fill="#000000" stroke="none" font-family="Arial" font-size="13px" font-style="normal" font-weight="normal" text-decoration="none" x="517" y="253.5">-email: String</text></g></g><g transform="translate(-502,-126) scale(1,1)"><g><path fill="none" stroke="none"/><text fill="#000000" stroke="none" font-family="Arial" font-size="13px" font-style="normal" font-weight="normal" text-decoration="none" x="517" y="268.5">-password: String</text></g></g><g transform="translate(-502,-126) scale(1,1)"><g><path fill="none" stroke="none"/><text fill="#000000" stroke="none" font-family="Arial" font-size="13px" font-style="normal" font-weight="normal" text-decoration="none" x="517" y="283.5">-passwordConfirm: String</text></g></g><g transform="translate(-502,-126) scale(1,1)"><g><path fill="none" stroke="none"/><text fill="#000000" stroke="none" font-family="Arial" font-size="13px" font-style="normal" font-weight="normal" text-decoration="none" x="517" y="298.5">-addressLine1: String</text></g></g><g transform="translate(-502,-126) scale(1,1)"><g><path fill="none" stroke="none"/><text fill="#000000" stroke="none" font-family="Arial" font-size="13px" font-style="normal" font-weight="normal" text-decoration="none" x="517" y="313.5">-addressLine2: String</text></g></g><g transform="translate(-502,-126) scale(1,1)"><g><path fill="none" stroke="none"/><text fill="#000000" stroke="none" font-family="Arial" font-size="13px" font-style="normal" font-weight="normal" text-decoration="none" x="517" y="328.5">-zipCode: String</text></g></g><g transform="translate(-502,-126) scale(1,1)"><g><path fill="none" stroke="none"/><text fill="#000000" stroke="none" font-family="Arial" font-size="13px" font-style="normal" font-weight="normal" text-decoration="none" x="517" y="343.5">-city: String</text></g></g><g transform="translate(-502,-126) scale(1,1)"><g><path fill="none" stroke="none"/><text fill="#000000" stroke="none" font-family="Arial" font-size="13px" font-style="normal" font-weight="normal" text-decoration="none" x="517" y="358.5">-phoneNumber: String</text></g></g><g transform="translate(-502,-126) scale(1,1)"><g><path fill="none" stroke="none"/><text fill="#000000" stroke="none" font-family="Arial" font-size="13px" font-style="normal" font-weight="normal" text-decoration="none" x="517" y="373.5">-birthDate: Date</text></g></g><g transform="translate(-502,-126) scale(1,1)"><g><path fill="none" stroke="none"/><text fill="#000000" stroke="none" font-family="Arial" font-size="13px" font-style="normal" font-weight="normal" text-decoration="none" x="517" y="388.5">-birthdateString: String</text></g></g></g></svg>