<svg version="1.1" xmlns="http://www.w3.org/2000/svg" xmlns:xlink="http://www.w3.org/1999/xlink" width="926" height="294"><defs/><g><g transform="translate(-110,-110) scale(1,1)"><path fill="#ffffff" stroke="none" d="M 147.60661594460228 217.68 C 147.60661594460228 212.886167936 151.49245826954774 209 156.285888671875 209 C 161.07931907420226 209 164.96516139914772 212.886167936 164.96516139914772 217.68 C 164.96516139914772 222.47383206400002 161.07931907420226 226.36 156.285888671875 226.36 C 151.49245826954774 226.36 147.60661594460228 222.47383206400002 147.60661594460228 217.68 Z"/></g><g transform="translate(-110,-110) scale(1,1)"><path fill="none" stroke="#000000" d="M 147.60661594460228 217.68 C 147.60661594460228 212.886167936 151.49245826954774 209 156.285888671875 209 C 161.07931907420226 209 164.96516139914772 212.886167936 164.96516139914772 217.68 C 164.96516139914772 222.47383206400002 161.07931907420226 226.36 156.285888671875 226.36 C 151.49245826954774 226.36 147.60661594460228 222.47383206400002 147.60661594460228 217.68 Z" stroke-miterlimit="10"/></g><g transform="translate(-110,-110) scale(1,1)"><path fill="none" stroke="#000000" d="M 156.285888671875 226.36 L 156.285888671875 243.64" stroke-miterlimit="10"/></g><g transform="translate(-110,-110) scale(1,1)"><path fill="none" stroke="#000000" d="M 147.09607049005683 232.84 L 165.47570685369317 232.84" stroke-miterlimit="10"/></g><g transform="translate(-110,-110) scale(1,1)"><path fill="none" stroke="#000000" d="M 156.285888671875 243.64 L 143.52225230823865 261" stroke-miterlimit="10"/></g><g transform="translate(-110,-110) scale(1,1)"><path fill="none" stroke="#000000" d="M 156.285888671875 243.64 L 169.04952503551135 261" stroke-miterlimit="10"/></g><g transform="translate(-110,-110) scale(1,1)"><g><path fill="none" stroke="none"/><text fill="#000000" stroke="none" font-family="Arial" font-size="13px" font-style="normal" font-weight="bold" text-decoration="none" x="127.38818359375" y="281.5">Utilisateur</text></g></g><g transform="translate(-110,-110) scale(1,1)"><path fill="#C0C0C0" stroke="none" d="M 343 264 C 343 254.6111584 413.0674288 247 499.5 247 C 585.9325712 247 656 254.6111584 656 264 C 656 273.3888416 585.9325712 281 499.5 281 C 413.0674288 281 343 273.3888416 343 264 Z" opacity="0.2"/></g><g transform="translate(-110,-110) scale(1,1)"><path fill="#ffffff" stroke="none" d="M 336 257 C 336 247.6111584 406.0674288 240 492.5 240 C 578.9325712 240 649 247.6111584 649 257 C 649 266.3888416 578.9325712 274 492.5 274 C 406.0674288 274 336 266.3888416 336 257 Z"/></g><g transform="translate(-110,-110) scale(1,1)"><path fill="none" stroke="#000000" d="M 336 257 C 336 247.6111584 406.0674288 240 492.5 240 C 578.9325712 240 649 247.6111584 649 257 C 649 266.3888416 578.9325712 274 492.5 274 C 406.0674288 274 336 266.3888416 336 257 Z" stroke-miterlimit="10"/></g><g transform="translate(-110,-110) scale(1,1)"><g><path fill="none" stroke="none"/><text fill="#000000" stroke="none" font-family="Arial" font-size="13px" font-style="normal" font-weight="bold" text-decoration="none" x="421.330078125" y="264">Gérer un profil utilisateur</text></g></g><g transform="translate(-110,-110) scale(1,1)"><path fill="none" stroke="#000000" d="M 194 248 L 335 252" stroke-miterlimit="10"/></g><g transform="translate(-110,-110) scale(1,1)"><path fill="#C0C0C0" stroke="none" d="M 279 384 C 279 374.6111584 336.3075456 367 407 367 C 477.6924544 367 535 374.6111584 535 384 C 535 393.3888416 477.6924544 401 407 401 C 336.3075456 401 279 393.3888416 279 384 Z" opacity="0.2"/></g><g transform="translate(-110,-110) scale(1,1)"><path fill="#ffffff" stroke="none" d="M 272 377 C 272 367.6111584 329.3075456 360 400 360 C 470.6924544 360 528 367.6111584 528 377 C 528 386.3888416 470.6924544 394 400 394 C 329.3075456 394 272 386.3888416 272 377 Z"/></g><g transform="translate(-110,-110) scale(1,1)"><path fill="none" stroke="#000000" d="M 272 377 C 272 367.6111584 329.3075456 360 400 360 C 470.6924544 360 528 367.6111584 528 377 C 528 386.3888416 470.6924544 394 400 394 C 329.3075456 394 272 386.3888416 272 377 Z" stroke-miterlimit="10"/></g><g transform="translate(-110,-110) scale(1,1)"><g><path fill="none" stroke="none"/><text fill="#000000" stroke="none" font-family="Arial" font-size="13px" font-style="normal" font-weight="bold" text-decoration="none" x="322.326904296875" y="384">Modifier un profil utilisateur</text></g></g><g transform="translate(-110,-110) scale(1,1)"><path fill="none" stroke="#000000" d="M 414 359 L 478 275" stroke-miterlimit="10" stroke-dasharray="3"/></g><g transform="translate(-110,-110) scale(1,1)"><path fill="none" stroke="#000000" d="M 475.1893638027896 285.63486361769304 L 478 275 L 468.4925959044393 280.532564266569" stroke-miterlimit="10"/></g><g transform="translate(-110,-110) scale(1,1)"><g><path fill="none" stroke="none"/><text fill="#000000" stroke="none" font-family="Arial" font-size="13px" font-style="normal" font-weight="normal" text-decoration="none" x="395.5" y="304.5">«extend»</text></g></g><g transform="translate(-110,-110) scale(1,1)"><path fill="#C0C0C0" stroke="none" d="M 575 384 C 575 374.6111584 638.799416 367 717.5 367 C 796.200584 367 860 374.6111584 860 384 C 860 393.3888416 796.200584 401 717.5 401 C 638.799416 401 575 393.3888416 575 384 Z" opacity="0.2"/></g><g transform="translate(-110,-110) scale(1,1)"><path fill="#ffffff" stroke="none" d="M 568 377 C 568 367.6111584 631.799416 360 710.5 360 C 789.200584 360 853 367.6111584 853 377 C 853 386.3888416 789.200584 394 710.5 394 C 631.799416 394 568 386.3888416 568 377 Z"/></g><g transform="translate(-110,-110) scale(1,1)"><path fill="none" stroke="#000000" d="M 568 377 C 568 367.6111584 631.799416 360 710.5 360 C 789.200584 360 853 367.6111584 853 377 C 853 386.3888416 789.200584 394 710.5 394 C 631.799416 394 568 386.3888416 568 377 Z" stroke-miterlimit="10"/></g><g transform="translate(-110,-110) scale(1,1)"><g><path fill="none" stroke="none"/><text fill="#000000" stroke="none" font-family="Arial" font-size="13px" font-style="normal" font-weight="bold" text-decoration="none" x="628.12646484375" y="384">Consulter un profil utilisateur</text></g></g><g transform="translate(-110,-110) scale(1,1)"><path fill="none" stroke="#000000" d="M 677 359 L 525 275" stroke-miterlimit="10" stroke-dasharray="3"/></g><g transform="translate(-110,-110) scale(1,1)"><path fill="none" stroke="#000000" d="M 535.9308804220549 276.2311999020209 L 525 275 L 531.8587098710591 283.59988947048953" stroke-miterlimit="10"/></g><g transform="translate(-110,-110) scale(1,1)"><g><path fill="none" stroke="none"/><text fill="#000000" stroke="none" font-family="Arial" font-size="13px" font-style="normal" font-weight="normal" text-decoration="none" x="559.5" y="340.5">«extend»</text></g></g><g transform="translate(-110,-110) scale(1,1)"><path fill="#C0C0C0" stroke="none" d="M 775 264 C 775 254.6111584 832.7552608 247 904 247 C 975.2447392 247 1033 254.6111584 1033 264 C 1033 273.3888416 975.2447392 281 904 281 C 832.7552608 281 775 273.3888416 775 264 Z" opacity="0.2"/></g><g transform="translate(-110,-110) scale(1,1)"><path fill="#ffffff" stroke="none" d="M 768 257 C 768 247.6111584 825.7552608 240 897 240 C 968.2447392 240 1026 247.6111584 1026 257 C 1026 266.3888416 968.2447392 274 897 274 C 825.7552608 274 768 266.3888416 768 257 Z"/></g><g transform="translate(-110,-110) scale(1,1)"><path fill="none" stroke="#000000" d="M 768 257 C 768 247.6111584 825.7552608 240 897 240 C 968.2447392 240 1026 247.6111584 1026 257 C 1026 266.3888416 968.2447392 274 897 274 C 825.7552608 274 768 266.3888416 768 257 Z" stroke-miterlimit="10"/></g><g transform="translate(-110,-110) scale(1,1)"><g><path fill="none" stroke="none"/><text fill="#000000" stroke="none" font-family="Arial" font-size="13px" font-style="normal" font-weight="bold" text-decoration="none" x="818.971435546875" y="264">Lister les profils utilisateurs</text></g></g><g transform="translate(-110,-110) scale(1,1)"><path fill="none" stroke="#000000" d="M 767 257 L 650 257" stroke-miterlimit="10" stroke-dasharray="3"/></g><g transform="translate(-110,-110) scale(1,1)"><path fill="none" stroke="#000000" d="M 660.1626748576241 252.790482243984 L 650 257 L 660.1626748576241 261.209517756016" stroke-miterlimit="10"/></g><g transform="translate(-110,-110) scale(1,1)"><g><path fill="none" stroke="none"/><text fill="#000000" stroke="none" font-family="Arial" font-size="13px" font-style="normal" font-weight="normal" text-decoration="none" x="680.5" y="293.5">«extend»</text></g></g><g transform="translate(-110,-110) scale(1,1)"><path fill="#C0C0C0" stroke="none" d="M 383 144 C 383 134.6111584 434.93496319999997 127 499 127 C 563.0650368 127 615 134.6111584 615 144 C 615 153.3888416 563.0650368 161 499 161 C 434.93496319999997 161 383 153.3888416 383 144 Z" opacity="0.2"/></g><g transform="translate(-110,-110) scale(1,1)"><path fill="#ffffff" stroke="none" d="M 376 137 C 376 127.6111584 427.93496319999997 120 492 120 C 556.0650368 120 608 127.6111584 608 137 C 608 146.3888416 556.0650368 154 492 154 C 427.93496319999997 154 376 146.3888416 376 137 Z"/></g><g transform="translate(-110,-110) scale(1,1)"><path fill="none" stroke="#000000" d="M 376 137 C 376 127.6111584 427.93496319999997 120 492 120 C 556.0650368 120 608 127.6111584 608 137 C 608 146.3888416 556.0650368 154 492 154 C 427.93496319999997 154 376 146.3888416 376 137 Z" stroke-miterlimit="10"/></g><g transform="translate(-110,-110) scale(1,1)"><g><path fill="none" stroke="none"/><text fill="#000000" stroke="none" font-family="Arial" font-size="13px" font-style="normal" font-weight="bold" text-decoration="none" x="421.19189453125" y="144">Créer un profil utilisateur</text></g></g><g transform="translate(-110,-110) scale(1,1)"><path fill="none" stroke="#000000" d="M 492 239 L 492 155" stroke-miterlimit="10" stroke-dasharray="3"/></g><g transform="translate(-110,-110) scale(1,1)"><path fill="none" stroke="#000000" d="M 496.209517756016 165.16267485762415 L 492 155 L 487.790482243984 165.16267485762415" stroke-miterlimit="10"/></g><g transform="translate(-110,-110) scale(1,1)"><g><path fill="none" stroke="none"/><text fill="#000000" stroke="none" font-family="Arial" font-size="13px" font-style="normal" font-weight="normal" text-decoration="none" x="434.5" y="202.5">«include»</text></g></g></g></svg>