<svg version="1.1" xmlns="http://www.w3.org/2000/svg" xmlns:xlink="http://www.w3.org/1999/xlink" width="489.86328125" height="581"><defs/><g><g transform="translate(-6,-14) scale(1,1)"><path fill="#C0C0C0" stroke="none" d="M 247 40.5 C 247 35.2532944 251.2532944 31 256.5 31 C 261.7467056 31 266 35.2532944 266 40.5 C 266 45.7467056 261.7467056 50 256.5 50 C 251.2532944 50 247 45.7467056 247 40.5 Z" opacity="0.2"/></g><g transform="translate(-6,-14) scale(1,1)"><path fill="#000000" stroke="none" d="M 240 33.5 C 240 28.2532944 244.2532944 24 249.5 24 C 254.7467056 24 259 28.2532944 259 33.5 C 259 38.7467056 254.7467056 43 249.5 43 C 244.2532944 43 240 38.7467056 240 33.5 Z"/></g><g transform="translate(-6,-14) scale(1,1)"><path fill="#C0C0C0" stroke="none" d="M 169 95 L 370.21923828125 95 Q 380.21923828125 95 380.21923828125 105 L 380.21923828125 125 Q 380.21923828125 135 370.21923828125 135 L 169 135 Q 159 135 159 125 L 159 105 Q 159 95 169 95 Z" opacity="0.2"/></g><g transform="translate(-6,-14) scale(1,1)"><path fill="#ffffff" stroke="none" d="M 162 88 L 363.21923828125 88 Q 373.21923828125 88 373.21923828125 98 L 373.21923828125 118 Q 373.21923828125 128 363.21923828125 128 L 162 128 Q 152 128 152 118 L 152 98 Q 152 88 162 88 Z"/></g><g transform="translate(-6,-14) scale(1,1)"><path fill="none" stroke="#000000" d="M 162 88 L 363.21923828125 88 Q 373.21923828125 88 373.21923828125 98 L 373.21923828125 118 Q 373.21923828125 128 363.21923828125 128 L 162 128 Q 152 128 152 118 L 152 98 Q 152 88 162 88 Z" stroke-miterlimit="10"/></g><g transform="translate(-6,-14) scale(1,1)"><g><path fill="none" stroke="none"/><text fill="#000000" stroke="none" font-family="Arial" font-size="13px" font-style="normal" font-weight="bold" text-decoration="none" x="172.109619140625" y="107.5">Agent Fo clique sur  Monitoring</text></g></g><g transform="translate(-6,-14) scale(1,1)"><path fill="#C0C0C0" stroke="none" d="M 161 183 L 390.12353515625 183 Q 400.12353515625 183 400.12353515625 193 L 400.12353515625 213 Q 400.12353515625 223 390.12353515625 223 L 161 223 Q 151 223 151 213 L 151 193 Q 151 183 161 183 Z" opacity="0.2"/></g><g transform="translate(-6,-14) scale(1,1)"><path fill="#ffffff" stroke="none" d="M 154 176 L 383.12353515625 176 Q 393.12353515625 176 393.12353515625 186 L 393.12353515625 206 Q 393.12353515625 216 383.12353515625 216 L 154 216 Q 144 216 144 206 L 144 186 Q 144 176 154 176 Z"/></g><g transform="translate(-6,-14) scale(1,1)"><path fill="none" stroke="#000000" d="M 154 176 L 383.12353515625 176 Q 393.12353515625 176 393.12353515625 186 L 393.12353515625 206 Q 393.12353515625 216 383.12353515625 216 L 154 216 Q 144 216 144 206 L 144 186 Q 144 176 154 176 Z" stroke-miterlimit="10"/></g><g transform="translate(-6,-14) scale(1,1)"><g><path fill="none" stroke="none"/><text fill="#000000" stroke="none" font-family="Arial" font-size="13px" font-style="normal" font-weight="bold" text-decoration="none" x="164.061767578125" y="195.5">affichage: courses retards détectés </text></g></g><g transform="translate(-6,-14) scale(1,1)"><path fill="#C0C0C0" stroke="none" d="M 73 255 L 197.26904296875 255 Q 207.26904296875 255 207.26904296875 265 L 207.26904296875 285 Q 207.26904296875 295 197.26904296875 295 L 73 295 Q 63 295 63 285 L 63 265 Q 63 255 73 255 Z" opacity="0.2"/></g><g transform="translate(-6,-14) scale(1,1)"><path fill="#ffffff" stroke="none" d="M 66 248 L 190.26904296875 248 Q 200.26904296875 248 200.26904296875 258 L 200.26904296875 278 Q 200.26904296875 288 190.26904296875 288 L 66 288 Q 56 288 56 278 L 56 258 Q 56 248 66 248 Z"/></g><g transform="translate(-6,-14) scale(1,1)"><path fill="none" stroke="#000000" d="M 66 248 L 190.26904296875 248 Q 200.26904296875 248 200.26904296875 258 L 200.26904296875 278 Q 200.26904296875 288 190.26904296875 288 L 66 288 Q 56 288 56 278 L 56 258 Q 56 248 66 248 Z" stroke-miterlimit="10"/></g><g transform="translate(-6,-14) scale(1,1)"><g><path fill="none" stroke="none"/><text fill="#000000" stroke="none" font-family="Arial" font-size="13px" font-style="normal" font-weight="bold" text-decoration="none" x="68.634521484375" y="267.5">Rélancer une course</text></g></g><g transform="translate(-6,-14) scale(1,1)"><path fill="none" stroke="#000000" d="M 251 44 L 258 87" stroke-miterlimit="10"/></g><g transform="translate(-6,-14) scale(1,1)"><path fill="none" stroke="#000000" d="M 252.21228147040122 77.64573283350646 L 258 87 L 260.5219307265799 76.29299923366342" stroke-miterlimit="10"/></g><g transform="translate(-6,-14) scale(1,1)"><path fill="none" stroke="#000000" d="M 263 129 L 267 175" stroke-miterlimit="10"/></g><g transform="translate(-6,-14) scale(1,1)"><path fill="none" stroke="#000000" d="M 261.9259189305698 165.2401997304837 L 267 175 L 270.31330382111696 164.51086191391437" stroke-miterlimit="10"/></g><g transform="translate(-6,-14) scale(1,1)"><path fill="#C0C0C0" stroke="none" d="M 33 375 L 138.29296875 375 Q 148.29296875 375 148.29296875 385 L 148.29296875 405 Q 148.29296875 415 138.29296875 415 L 33 415 Q 23 415 23 405 L 23 385 Q 23 375 33 375 Z" opacity="0.2"/></g><g transform="translate(-6,-14) scale(1,1)"><path fill="#ffffff" stroke="none" d="M 26 368 L 131.29296875 368 Q 141.29296875 368 141.29296875 378 L 141.29296875 398 Q 141.29296875 408 131.29296875 408 L 26 408 Q 16 408 16 398 L 16 378 Q 16 368 26 368 Z"/></g><g transform="translate(-6,-14) scale(1,1)"><path fill="none" stroke="#000000" d="M 26 368 L 131.29296875 368 Q 141.29296875 368 141.29296875 378 L 141.29296875 398 Q 141.29296875 408 131.29296875 408 L 26 408 Q 16 408 16 398 L 16 378 Q 16 368 26 368 Z" stroke-miterlimit="10"/></g><g transform="translate(-6,-14) scale(1,1)"><g><path fill="none" stroke="none"/><text fill="#000000" stroke="none" font-family="Arial" font-size="13px" font-style="normal" font-weight="bold" text-decoration="none" x="28.646484375" y="387.5">mis à jour course</text></g></g><g transform="translate(-6,-14) scale(1,1)"><path fill="#C0C0C0" stroke="none" d="M 361 255 L 482.86328125 255 Q 492.86328125 255 492.86328125 265 L 492.86328125 285 Q 492.86328125 295 482.86328125 295 L 361 295 Q 351 295 351 285 L 351 265 Q 351 255 361 255 Z" opacity="0.2"/></g><g transform="translate(-6,-14) scale(1,1)"><path fill="#ffffff" stroke="none" d="M 354 248 L 475.86328125 248 Q 485.86328125 248 485.86328125 258 L 485.86328125 278 Q 485.86328125 288 475.86328125 288 L 354 288 Q 344 288 344 278 L 344 258 Q 344 248 354 248 Z"/></g><g transform="translate(-6,-14) scale(1,1)"><path fill="none" stroke="#000000" d="M 354 248 L 475.86328125 248 Q 485.86328125 248 485.86328125 258 L 485.86328125 278 Q 485.86328125 288 475.86328125 288 L 354 288 Q 344 288 344 278 L 344 258 Q 344 248 354 248 Z" stroke-miterlimit="10"/></g><g transform="translate(-6,-14) scale(1,1)"><g><path fill="none" stroke="none"/><text fill="#000000" stroke="none" font-family="Arial" font-size="13px" font-style="normal" font-weight="bold" text-decoration="none" x="358.431640625" y="267.5">Cloturer une course</text></g></g><g transform="translate(-6,-14) scale(1,1)"><path fill="#C0C0C0" stroke="none" d="M 263 272.5 L 274.5 263 L 285 272.5 L 274.5 281 L 263 272.5" opacity="0.2"/></g><g transform="translate(-6,-14) scale(1,1)"><path fill="#ffffff" stroke="none" d="M 256 265 L 267 256 L 278 265 L 267 274 L 256 265"/></g><g transform="translate(-6,-14) scale(1,1)"><path fill="none" stroke="#000000" d="M 256 265 L 267 256 L 278 265 L 267 274 L 256 265 L 256 265" stroke-miterlimit="10"/></g><g transform="translate(-6,-14) scale(1,1)"><path fill="none" stroke="#000000" d="M 268 217 L 267 255" stroke-miterlimit="10"/></g><g transform="translate(-6,-14) scale(1,1)"><path fill="none" stroke="#000000" d="M 263.0592853332588 244.73010380211508 L 267 255 L 271.4754071800324 244.95158069281965" stroke-miterlimit="10"/></g><g transform="translate(-6,-14) scale(1,1)"><path fill="none" stroke="#000000" d="M 255 265 L 201 266" stroke-miterlimit="10"/></g><g transform="translate(-6,-14) scale(1,1)"><path fill="none" stroke="#000000" d="M 211.08299206520147 261.6030384339769 L 201 266 L 211.23887340390564 270.02063072400256" stroke-miterlimit="10"/></g><g transform="translate(-6,-14) scale(1,1)"><g><path fill="none" stroke="none"/><text fill="#000000" stroke="none" font-family="Arial" font-size="13px" font-style="normal" font-weight="normal" text-decoration="none" x="200.28857421875" y="297.5">retards déjà appelé</text></g></g><g transform="translate(-6,-14) scale(1,1)"><path fill="none" stroke="#000000" d="M 279 265 L 343 267" stroke-miterlimit="10"/></g><g transform="translate(-6,-14) scale(1,1)"><path fill="none" stroke="#000000" d="M 332.7108005097193 270.8900351989678 L 343 267 L 332.9737669991969 262.4751075356859" stroke-miterlimit="10"/></g><g transform="translate(-6,-14) scale(1,1)"><g><path fill="none" stroke="none"/><text fill="#000000" stroke="none" font-family="Arial" font-size="13px" font-style="normal" font-weight="normal" text-decoration="none" x="290.865966796875" y="257.5">retards</text></g></g><g transform="translate(-6,-14) scale(1,1)"><path fill="#C0C0C0" stroke="none" d="M 106 335 L 169 335 Q 172 335 172 338 L 172 337 Q 172 340 169 340 L 106 340 Q 103 340 103 337 L 103 338 Q 103 335 106 335 Z" opacity="0.2"/></g><g transform="translate(-6,-14) scale(1,1)"><path fill="#000000" stroke="none" d="M 99 328 L 162 328 Q 165 328 165 331 L 165 331 Q 165 334 162 334 L 99 334 Q 96 334 96 331 L 96 331 Q 96 328 99 328 Z"/></g><g transform="translate(-6,-14) scale(1,1)"><path fill="none" stroke="#000000" d="M 129 289 L 130 327" stroke-miterlimit="10"/></g><g transform="translate(-6,-14) scale(1,1)"><path fill="none" stroke="#000000" d="M 125.52459281996762 316.9515806928197 L 130 327 L 133.94071466674117 316.7301038021151" stroke-miterlimit="10"/></g><g transform="translate(-6,-14) scale(1,1)"><path fill="none" stroke="#000000" d="M 126 334 L 97 367" stroke-miterlimit="10"/></g><g transform="translate(-6,-14) scale(1,1)"><path fill="none" stroke="#000000" d="M 100.54648814939398 356.58739121035427 L 97 367 L 106.87057210483538 362.14491953483304" stroke-miterlimit="10"/></g><g transform="translate(-6,-14) scale(1,1)"><path fill="#C0C0C0" stroke="none" d="M 193 375 L 278.55126953125 375 Q 288.55126953125 375 288.55126953125 385 L 288.55126953125 405 Q 288.55126953125 415 278.55126953125 415 L 193 415 Q 183 415 183 405 L 183 385 Q 183 375 193 375 Z" opacity="0.2"/></g><g transform="translate(-6,-14) scale(1,1)"><path fill="#ffffff" stroke="none" d="M 186 368 L 271.55126953125 368 Q 281.55126953125 368 281.55126953125 378 L 281.55126953125 398 Q 281.55126953125 408 271.55126953125 408 L 186 408 Q 176 408 176 398 L 176 378 Q 176 368 186 368 Z"/></g><g transform="translate(-6,-14) scale(1,1)"><path fill="none" stroke="#000000" d="M 186 368 L 271.55126953125 368 Q 281.55126953125 368 281.55126953125 378 L 281.55126953125 398 Q 281.55126953125 408 271.55126953125 408 L 186 408 Q 176 408 176 398 L 176 378 Q 176 368 186 368 Z" stroke-miterlimit="10"/></g><g transform="translate(-6,-14) scale(1,1)"><g><path fill="none" stroke="none"/><text fill="#000000" stroke="none" font-family="Arial" font-size="13px" font-style="normal" font-weight="bold" text-decoration="none" x="187.275634765625" y="387.5">Prévenir client</text></g></g><g transform="translate(-6,-14) scale(1,1)"><path fill="none" stroke="#000000" d="M 137 334 L 193 367" stroke-miterlimit="10"/></g><g transform="translate(-6,-14) scale(1,1)"><path fill="none" stroke="#000000" d="M 182.10732495422337 365.46714960054305 L 193 367 L 186.38160452187037 358.21382669786937" stroke-miterlimit="10"/></g><g transform="translate(-6,-14) scale(1,1)"><path fill="#C0C0C0" stroke="none" d="M 130 455 L 193 455 Q 196 455 196 458 L 196 457 Q 196 460 193 460 L 130 460 Q 127 460 127 457 L 127 458 Q 127 455 130 455 Z" opacity="0.2"/></g><g transform="translate(-6,-14) scale(1,1)"><path fill="#000000" stroke="none" d="M 123 448 L 186 448 Q 189 448 189 451 L 189 451 Q 189 454 186 454 L 123 454 Q 120 454 120 451 L 120 451 Q 120 448 123 448 Z"/></g><g transform="translate(-6,-14) scale(1,1)"><path fill="none" stroke="#000000" d="M 104 409 L 150 447" stroke-miterlimit="10"/></g><g transform="translate(-6,-14) scale(1,1)"><path fill="none" stroke="#000000" d="M 139.48400263094146 443.77295811400694 L 150 447 L 144.84593015015753 437.2822037486401" stroke-miterlimit="10"/></g><g transform="translate(-6,-14) scale(1,1)"><path fill="none" stroke="#000000" d="M 203 409 L 158 447" stroke-miterlimit="10"/></g><g transform="translate(-6,-14) scale(1,1)"><path fill="none" stroke="#000000" d="M 163.0486875077694 437.2270396271706 L 158 447 L 168.4804877247306 443.6594346209405" stroke-miterlimit="10"/></g><g transform="translate(-6,-14) scale(1,1)"><path fill="#C0C0C0" stroke="none" d="M 263 579.5 C 263 572.59644 268.59644 567 275.5 567 C 282.40356 567 288 572.59644 288 579.5 C 288 586.40356 282.40356 592 275.5 592 C 268.59644 592 263 586.40356 263 579.5 Z" opacity="0.2"/></g><g transform="translate(-6,-14) scale(1,1)"><path fill="none" stroke="#000000" d="M 256 572.5 C 256 565.59644 261.59644 560 268.5 560 C 275.40356 560 281 565.59644 281 572.5 C 281 579.40356 275.40356 585 268.5 585 C 261.59644 585 256 579.40356 256 572.5 Z" stroke-miterlimit="10"/></g><g transform="translate(-6,-14) scale(1,1)"><path fill="#000000" stroke="none" d="M 261 572.5 C 261 568.357864 264.357864 565 268.5 565 C 272.642136 565 276 568.357864 276 572.5 C 276 576.642136 272.642136 580 268.5 580 C 264.357864 580 261 576.642136 261 572.5 Z"/></g><g transform="translate(-6,-14) scale(1,1)"><path fill="none" stroke="#000000" d="M 414 289 L 410 423" stroke-miterlimit="10"/></g><g transform="translate(-6,-14) scale(1,1)"><path fill="none" stroke="#000000" d="M 406.0955848330868 412.7162486317308 L 410 423 L 414.5108718874476 412.96745123036845" stroke-miterlimit="10"/></g><g transform="translate(-6,-14) scale(1,1)"><path fill="#C0C0C0" stroke="none" d="M 377 431 L 458.3369140625 431 Q 468.3369140625 431 468.3369140625 441 L 468.3369140625 461 Q 468.3369140625 471 458.3369140625 471 L 377 471 Q 367 471 367 461 L 367 441 Q 367 431 377 431 Z" opacity="0.2"/></g><g transform="translate(-6,-14) scale(1,1)"><path fill="#ffffff" stroke="none" d="M 370 424 L 451.3369140625 424 Q 461.3369140625 424 461.3369140625 434 L 461.3369140625 454 Q 461.3369140625 464 451.3369140625 464 L 370 464 Q 360 464 360 454 L 360 434 Q 360 424 370 424 Z"/></g><g transform="translate(-6,-14) scale(1,1)"><path fill="none" stroke="#000000" d="M 370 424 L 451.3369140625 424 Q 461.3369140625 424 461.3369140625 434 L 461.3369140625 454 Q 461.3369140625 464 451.3369140625 464 L 370 464 Q 360 464 360 454 L 360 434 Q 360 424 370 424 Z" stroke-miterlimit="10"/></g><g transform="translate(-6,-14) scale(1,1)"><g><path fill="none" stroke="none"/><text fill="#000000" stroke="none" font-family="Arial" font-size="13px" font-style="normal" font-weight="bold" text-decoration="none" x="371.16845703125" y="443.5">Mis à jour tag</text></g></g><g transform="translate(-6,-14) scale(1,1)"><path fill="none" stroke="#000000" d="M 359 464 L 282 495" stroke-miterlimit="10"/></g><g transform="translate(-6,-14) scale(1,1)"><path fill="none" stroke="#000000" d="M 289.8552240324216 487.29964576136484 L 282 495 L 292.99945488074235 495.10950948138736" stroke-miterlimit="10"/></g><g transform="translate(-6,-14) scale(1,1)"><path fill="#C0C0C0" stroke="none" d="M 250 503 L 313 503 Q 316 503 316 506 L 316 505 Q 316 508 313 508 L 250 508 Q 247 508 247 505 L 247 506 Q 247 503 250 503 Z" opacity="0.2"/></g><g transform="translate(-6,-14) scale(1,1)"><path fill="#000000" stroke="none" d="M 243 496 L 306 496 Q 309 496 309 499 L 309 499 Q 309 502 306 502 L 243 502 Q 240 502 240 499 L 240 499 Q 240 496 243 496 Z"/></g><g transform="translate(-6,-14) scale(1,1)"><path fill="none" stroke="#000000" d="M 164 454 L 267 495" stroke-miterlimit="10"/></g><g transform="translate(-6,-14) scale(1,1)"><path fill="none" stroke="#000000" d="M 256.0010577119655 495.1525403044627 L 267 495 L 259.11471103856144 487.33043560594115" stroke-miterlimit="10"/></g><g transform="translate(-6,-14) scale(1,1)"><path fill="none" stroke="#000000" d="M 274 502 L 269 559" stroke-miterlimit="10"/></g><g transform="translate(-6,-14) scale(1,1)"><path fill="none" stroke="#000000" d="M 265.69463742730807 548.5083567415277 L 269 559 L 274.0814678044252 549.2440436167134" stroke-miterlimit="10"/></g></g></svg>