<svg version="1.1" xmlns="http://www.w3.org/2000/svg" xmlns:xlink="http://www.w3.org/1999/xlink" width="626.40087890625" height="602"><defs/><g><g transform="translate(-78,-46) scale(1,1)"><rect fill="#C0C0C0" stroke="none" x="527" y="287" width="174.40087890625" height="222" opacity="0.2"/></g><g transform="translate(-78,-46) scale(1,1)"><rect fill="#ffffff" stroke="none" x="520" y="280" width="174.40087890625" height="222"/></g><g transform="translate(-78,-46) scale(1,1)"><path fill="none" stroke="#000000" d="M 520 280 L 694.40087890625 280 L 694.40087890625 502 L 520 502 L 520 280 Z Z" stroke-miterlimit="10"/></g><g transform="translate(-78,-46) scale(1,1)"><path fill="none" stroke="#000000" d="M 520 318 L 694.40087890625 318" stroke-miterlimit="10"/></g><g transform="translate(-78,-46) scale(1,1)"><path fill="none" stroke="#000000" d="M 520 491 L 694.40087890625 491" stroke-miterlimit="10"/></g><g transform="translate(-78,-46) scale(1,1)"><g><path fill="none" stroke="none"/><text fill="#000000" stroke="none" font-family="Arial" font-size="13px" font-style="normal" font-weight="normal" text-decoration="none" x="583.200439453125" y="297.5">«Entity»</text></g></g><g transform="translate(-78,-46) scale(1,1)"><g><path fill="none" stroke="none"/><text fill="#000000" stroke="none" font-family="Arial" font-size="13px" font-style="normal" font-weight="bold" text-decoration="none" x="566.700439453125" y="312.5">RetardCalcule</text></g></g><g transform="translate(-78,-46) scale(1,1)"><g><path fill="none" stroke="none"/><text fill="#000000" stroke="none" font-family="Arial" font-size="13px" font-style="normal" font-weight="normal" text-decoration="none" x="525" y="335.5">+id: int</text></g></g><g transform="translate(-78,-46) scale(1,1)"><g><path fill="none" stroke="none"/><text fill="#000000" stroke="none" font-family="Arial" font-size="13px" font-style="normal" font-weight="normal" text-decoration="none" x="525" y="350.5">+Immatriculation: string</text></g></g><g transform="translate(-78,-46) scale(1,1)"><g><path fill="none" stroke="none"/><text fill="#000000" stroke="none" font-family="Arial" font-size="13px" font-style="normal" font-weight="normal" text-decoration="none" x="525" y="365.5">+mark:string</text></g></g><g transform="translate(-78,-46) scale(1,1)"><g><path fill="none" stroke="none"/><text fill="#000000" stroke="none" font-family="Arial" font-size="13px" font-style="normal" font-weight="normal" text-decoration="none" x="525" y="380.5">+model: string</text></g></g><g transform="translate(-78,-46) scale(1,1)"><g><path fill="none" stroke="none"/><text fill="#000000" stroke="none" font-family="Arial" font-size="13px" font-style="normal" font-weight="normal" text-decoration="none" x="525" y="395.5">+heureRetourPrevu:Time</text></g></g><g transform="translate(-78,-46) scale(1,1)"><g><path fill="none" stroke="none"/><text fill="#000000" stroke="none" font-family="Arial" font-size="13px" font-style="normal" font-weight="normal" text-decoration="none" x="525" y="410.5">+heureRetourCalcule:Time</text></g></g><g transform="translate(-78,-46) scale(1,1)"><g><path fill="none" stroke="none"/><text fill="#000000" stroke="none" font-family="Arial" font-size="13px" font-style="normal" font-weight="normal" text-decoration="none" x="525" y="425.5">+Penality:float</text></g></g><g transform="translate(-78,-46) scale(1,1)"><g><path fill="none" stroke="none"/><text fill="#000000" stroke="none" font-family="Arial" font-size="13px" font-style="normal" font-weight="normal" text-decoration="none" x="525" y="440.5">+firsNamestring</text></g></g><g transform="translate(-78,-46) scale(1,1)"><g><path fill="none" stroke="none"/><text fill="#000000" stroke="none" font-family="Arial" font-size="13px" font-style="normal" font-weight="normal" text-decoration="none" x="525" y="455.5">+lastName:string</text></g></g><g transform="translate(-78,-46) scale(1,1)"><g><path fill="none" stroke="none"/><text fill="#000000" stroke="none" font-family="Arial" font-size="13px" font-style="normal" font-weight="normal" text-decoration="none" x="525" y="470.5">+phoneNumber:string</text></g></g><g transform="translate(-78,-46) scale(1,1)"><g><path fill="none" stroke="none"/><text fill="#000000" stroke="none" font-family="Arial" font-size="13px" font-style="normal" font-weight="normal" text-decoration="none" x="525" y="485.5">+tagAppel:boolean</text></g></g><g transform="translate(-78,-46) scale(1,1)"><rect fill="#C0C0C0" stroke="none" x="95" y="319" width="208.77978515625" height="162" opacity="0.2"/></g><g transform="translate(-78,-46) scale(1,1)"><rect fill="#ffffff" stroke="none" x="88" y="312" width="208.77978515625" height="162"/></g><g transform="translate(-78,-46) scale(1,1)"><path fill="none" stroke="#000000" d="M 88 312 L 296.77978515625 312 L 296.77978515625 474 L 88 474 L 88 312 Z Z" stroke-miterlimit="10"/></g><g transform="translate(-78,-46) scale(1,1)"><path fill="none" stroke="#000000" d="M 88 337 L 296.77978515625 337" stroke-miterlimit="10"/></g><g transform="translate(-78,-46) scale(1,1)"><path fill="none" stroke="#000000" d="M 88 465 L 296.77978515625 465" stroke-miterlimit="10"/></g><g transform="translate(-78,-46) scale(1,1)"><g><path fill="none" stroke="none"/><text fill="#000000" stroke="none" font-family="Arial" font-size="13px" font-style="normal" font-weight="bold" text-decoration="none" x="144.889892578125" y="331.5">currentSession</text></g></g><g transform="translate(-78,-46) scale(1,1)"><g><path fill="none" stroke="none"/><text fill="#000000" stroke="none" font-family="Arial" font-size="13px" font-style="normal" font-weight="normal" text-decoration="none" x="93" y="354.5">+id_session: int</text></g></g><g transform="translate(-78,-46) scale(1,1)"><g><path fill="none" stroke="none"/><text fill="#000000" stroke="none" font-family="Arial" font-size="13px" font-style="normal" font-weight="normal" text-decoration="none" x="93" y="369.5">+idPlaceDepart:int</text></g></g><g transform="translate(-78,-46) scale(1,1)"><g><path fill="none" stroke="none"/><text fill="#000000" stroke="none" font-family="Arial" font-size="13px" font-style="normal" font-weight="normal" text-decoration="none" x="93" y="384.5">+idplaceArrivée:int</text></g></g><g transform="translate(-78,-46) scale(1,1)"><g><path fill="none" stroke="none"/><text fill="#000000" stroke="none" font-family="Arial" font-size="13px" font-style="normal" font-weight="normal" text-decoration="none" x="93" y="399.5">+heureDepartReel:TimeStamp</text></g></g><g transform="translate(-78,-46) scale(1,1)"><g><path fill="none" stroke="none"/><text fill="#000000" stroke="none" font-family="Arial" font-size="13px" font-style="normal" font-weight="normal" text-decoration="none" x="93" y="414.5">+heureArrivéePrevu: TimeStamp</text></g></g><g transform="translate(-78,-46) scale(1,1)"><g><path fill="none" stroke="none"/><text fill="#000000" stroke="none" font-family="Arial" font-size="13px" font-style="normal" font-weight="normal" text-decoration="none" x="93" y="429.5">+heureArrivéReel: TimeStamp</text></g></g><g transform="translate(-78,-46) scale(1,1)"><g><path fill="none" stroke="none"/><text fill="#000000" stroke="none" font-family="Arial" font-size="13px" font-style="normal" font-weight="normal" text-decoration="none" x="93" y="444.5">+tag: boolean</text></g></g><g transform="translate(-78,-46) scale(1,1)"><g><path fill="none" stroke="none"/><text fill="#000000" stroke="none" font-family="Arial" font-size="13px" font-style="normal" font-weight="normal" text-decoration="none" x="93" y="459.5">+penality: float</text></g></g><g transform="translate(-78,-46) scale(1,1)"><path fill="none" stroke="#000000" d="M 298 392 L 519 391" stroke-miterlimit="10"/></g><g transform="translate(-78,-46) scale(1,1)"><g><path fill="none" stroke="none"/><text fill="#000000" stroke="none" font-family="Arial" font-size="13px" font-style="normal" font-weight="normal" text-decoration="none" x="377.18896484375" y="382.5">+concerne</text></g></g><g transform="translate(-78,-46) scale(1,1)"><g><path fill="none" stroke="none"/><text fill="#000000" stroke="none" font-family="Arial" font-size="13px" font-style="normal" font-weight="normal" text-decoration="none" x="315.5" y="382.5">+1</text></g></g><g transform="translate(-78,-46) scale(1,1)"><g><path fill="none" stroke="none"/><text fill="#000000" stroke="none" font-family="Arial" font-size="13px" font-style="normal" font-weight="normal" text-decoration="none" x="484.5" y="382.5">+1</text></g></g><g transform="translate(-78,-46) scale(1,1)"><rect fill="#C0C0C0" stroke="none" x="519" y="111" width="88.1552734375" height="57" opacity="0.2"/></g><g transform="translate(-78,-46) scale(1,1)"><rect fill="#ffffff" stroke="none" x="512" y="104" width="88.1552734375" height="57"/></g><g transform="translate(-78,-46) scale(1,1)"><path fill="none" stroke="#000000" d="M 512 104 L 600.1552734375 104 L 600.1552734375 161 L 512 161 L 512 104 Z Z" stroke-miterlimit="10"/></g><g transform="translate(-78,-46) scale(1,1)"><path fill="none" stroke="#000000" d="M 512 129 L 600.1552734375 129" stroke-miterlimit="10"/></g><g transform="translate(-78,-46) scale(1,1)"><path fill="none" stroke="#000000" d="M 512 152 L 600.1552734375 152" stroke-miterlimit="10"/></g><g transform="translate(-78,-46) scale(1,1)"><g><path fill="none" stroke="none"/><text fill="#000000" stroke="none" font-family="Arial" font-size="13px" font-style="normal" font-weight="bold" text-decoration="none" x="521.57763671875" y="123.5">Reservation</text></g></g><g transform="translate(-78,-46) scale(1,1)"><g><path fill="none" stroke="none"/><text fill="#000000" stroke="none" font-family="Arial" font-size="13px" font-style="normal" font-weight="normal" text-decoration="none" x="517" y="146.5">+id: int</text></g></g><g transform="translate(-78,-46) scale(1,1)"><rect fill="#C0C0C0" stroke="none" x="391" y="543" width="127.4091796875" height="102" opacity="0.2"/></g><g transform="translate(-78,-46) scale(1,1)"><rect fill="#ffffff" stroke="none" x="384" y="536" width="127.4091796875" height="102"/></g><g transform="translate(-78,-46) scale(1,1)"><path fill="none" stroke="#000000" d="M 384 536 L 511.4091796875 536 L 511.4091796875 638 L 384 638 L 384 536 Z Z" stroke-miterlimit="10"/></g><g transform="translate(-78,-46) scale(1,1)"><path fill="none" stroke="#000000" d="M 384 561 L 511.4091796875 561" stroke-miterlimit="10"/></g><g transform="translate(-78,-46) scale(1,1)"><path fill="none" stroke="#000000" d="M 384 629 L 511.4091796875 629" stroke-miterlimit="10"/></g><g transform="translate(-78,-46) scale(1,1)"><g><path fill="none" stroke="none"/><text fill="#000000" stroke="none" font-family="Arial" font-size="13px" font-style="normal" font-weight="bold" text-decoration="none" x="431.20458984375" y="555.5">Tarifs</text></g></g><g transform="translate(-78,-46) scale(1,1)"><g><path fill="none" stroke="none"/><text fill="#000000" stroke="none" font-family="Arial" font-size="13px" font-style="normal" font-weight="normal" text-decoration="none" x="389" y="578.5">+id: int</text></g></g><g transform="translate(-78,-46) scale(1,1)"><g><path fill="none" stroke="none"/><text fill="#000000" stroke="none" font-family="Arial" font-size="13px" font-style="normal" font-weight="normal" text-decoration="none" x="389" y="593.5">+libelle: string</text></g></g><g transform="translate(-78,-46) scale(1,1)"><g><path fill="none" stroke="none"/><text fill="#000000" stroke="none" font-family="Arial" font-size="13px" font-style="normal" font-weight="normal" text-decoration="none" x="389" y="608.5">+prix_km: string</text></g></g><g transform="translate(-78,-46) scale(1,1)"><g><path fill="none" stroke="none"/><text fill="#000000" stroke="none" font-family="Arial" font-size="13px" font-style="normal" font-weight="normal" text-decoration="none" x="389" y="623.5">+prix_heure: string</text></g></g><g transform="translate(-78,-46) scale(1,1)"><rect fill="#C0C0C0" stroke="none" x="263" y="63" width="159.2236328125" height="117" opacity="0.2"/></g><g transform="translate(-78,-46) scale(1,1)"><rect fill="#ffffff" stroke="none" x="256" y="56" width="159.2236328125" height="117"/></g><g transform="translate(-78,-46) scale(1,1)"><path fill="none" stroke="#000000" d="M 256 56 L 415.2236328125 56 L 415.2236328125 173 L 256 173 L 256 56 Z Z" stroke-miterlimit="10"/></g><g transform="translate(-78,-46) scale(1,1)"><path fill="none" stroke="#000000" d="M 256 81 L 415.2236328125 81" stroke-miterlimit="10"/></g><g transform="translate(-78,-46) scale(1,1)"><path fill="none" stroke="#000000" d="M 256 164 L 415.2236328125 164" stroke-miterlimit="10"/></g><g transform="translate(-78,-46) scale(1,1)"><g><path fill="none" stroke="none"/><text fill="#000000" stroke="none" font-family="Arial" font-size="13px" font-style="normal" font-weight="bold" text-decoration="none" x="310.61181640625" y="75.5">Véhicule</text></g></g><g transform="translate(-78,-46) scale(1,1)"><g><path fill="none" stroke="none"/><text fill="#000000" stroke="none" font-family="Arial" font-size="13px" font-style="normal" font-weight="normal" text-decoration="none" x="261" y="98.5">+id: int</text></g></g><g transform="translate(-78,-46) scale(1,1)"><g><path fill="none" stroke="none"/><text fill="#000000" stroke="none" font-family="Arial" font-size="13px" font-style="normal" font-weight="normal" text-decoration="none" x="261" y="113.5">+immatriculation: string</text></g></g><g transform="translate(-78,-46) scale(1,1)"><g><path fill="none" stroke="none"/><text fill="#000000" stroke="none" font-family="Arial" font-size="13px" font-style="normal" font-weight="normal" text-decoration="none" x="261" y="128.5">+typeCarburant: string</text></g></g><g transform="translate(-78,-46) scale(1,1)"><g><path fill="none" stroke="none"/><text fill="#000000" stroke="none" font-family="Arial" font-size="13px" font-style="normal" font-weight="normal" text-decoration="none" x="261" y="143.5">+mark: string</text></g></g><g transform="translate(-78,-46) scale(1,1)"><g><path fill="none" stroke="none"/><text fill="#000000" stroke="none" font-family="Arial" font-size="13px" font-style="normal" font-weight="normal" text-decoration="none" x="261" y="158.5">+model: string</text></g></g><g transform="translate(-78,-46) scale(1,1)"><path fill="none" stroke="#000000" d="M 298 473 L 383 538" stroke-miterlimit="10"/></g><g transform="translate(-78,-46) scale(1,1)"><g><path fill="none" stroke="none"/><text fill="#000000" stroke="none" font-family="Arial" font-size="13px" font-style="normal" font-weight="normal" text-decoration="none" x="303.5" y="502.5">1</text></g></g><g transform="translate(-78,-46) scale(1,1)"><g><path fill="none" stroke="none"/><text fill="#000000" stroke="none" font-family="Arial" font-size="13px" font-style="normal" font-weight="normal" text-decoration="none" x="347.5" y="540.5">0..*</text></g></g><g transform="translate(-78,-46) scale(1,1)"><path fill="none" stroke="#000000" d="M 234 311 L 304 174" stroke-miterlimit="10"/></g><g transform="translate(-78,-46) scale(1,1)"><g><path fill="none" stroke="none"/><text fill="#000000" stroke="none" font-family="Arial" font-size="13px" font-style="normal" font-weight="normal" text-decoration="none" x="210.18896484375" y="244.5">+concerne</text></g></g><g transform="translate(-78,-46) scale(1,1)"><g><path fill="none" stroke="none"/><text fill="#000000" stroke="none" font-family="Arial" font-size="13px" font-style="normal" font-weight="normal" text-decoration="none" x="243.5" y="303.5">0..*</text></g></g><g transform="translate(-78,-46) scale(1,1)"><g><path fill="none" stroke="none"/><text fill="#000000" stroke="none" font-family="Arial" font-size="13px" font-style="normal" font-weight="normal" text-decoration="none" x="301.5" y="204.5">1</text></g></g><g transform="translate(-78,-46) scale(1,1)"><rect fill="#C0C0C0" stroke="none" x="95" y="111" width="73" height="57" opacity="0.2"/></g><g transform="translate(-78,-46) scale(1,1)"><rect fill="#ffffff" stroke="none" x="88" y="104" width="73" height="57"/></g><g transform="translate(-78,-46) scale(1,1)"><path fill="none" stroke="#000000" d="M 88 104 L 161 104 L 161 161 L 88 161 L 88 104 Z Z" stroke-miterlimit="10"/></g><g transform="translate(-78,-46) scale(1,1)"><path fill="none" stroke="#000000" d="M 88 129 L 161 129" stroke-miterlimit="10"/></g><g transform="translate(-78,-46) scale(1,1)"><path fill="none" stroke="#000000" d="M 88 152 L 161 152" stroke-miterlimit="10"/></g><g transform="translate(-78,-46) scale(1,1)"><g><path fill="none" stroke="none"/><text fill="#000000" stroke="none" font-family="Arial" font-size="13px" font-style="normal" font-weight="bold" text-decoration="none" x="111" y="123.5">User</text></g></g><g transform="translate(-78,-46) scale(1,1)"><g><path fill="none" stroke="none"/><text fill="#000000" stroke="none" font-family="Arial" font-size="13px" font-style="normal" font-weight="normal" text-decoration="none" x="93" y="146.5">+id: int</text></g></g><g transform="translate(-78,-46) scale(1,1)"><path fill="none" stroke="#000000" d="M 132 162 L 171 311" stroke-miterlimit="10"/></g><g transform="translate(-78,-46) scale(1,1)"><g><path fill="none" stroke="none"/><text fill="#000000" stroke="none" font-family="Arial" font-size="13px" font-style="normal" font-weight="normal" text-decoration="none" x="145.5" y="189.5">+1</text></g></g><g transform="translate(-78,-46) scale(1,1)"><g><path fill="none" stroke="none"/><text fill="#000000" stroke="none" font-family="Arial" font-size="13px" font-style="normal" font-weight="normal" text-decoration="none" x="117.1455078125" y="252.5">+est affecté à</text></g></g><g transform="translate(-78,-46) scale(1,1)"><g><path fill="none" stroke="none"/><text fill="#000000" stroke="none" font-family="Arial" font-size="13px" font-style="normal" font-weight="normal" text-decoration="none" x="142.5" y="299.5">0..*</text></g></g></g></svg>