<svg version="1.1" xmlns="http://www.w3.org/2000/svg" xmlns:xlink="http://www.w3.org/1999/xlink" width="766.69970703125" height="626"><defs/><g><g transform="translate(-142,-54) scale(1,1)"><rect fill="#C0C0C0" stroke="none" x="159" y="119" width="140" height="100" opacity="0.2"/></g><g transform="translate(-142,-54) scale(1,1)"><rect fill="#ffffff" stroke="none" x="152" y="112" width="140" height="100"/></g><g transform="translate(-142,-54) scale(1,1)"><path fill="none" stroke="#000000" d="M 152 112 L 292 112 L 292 212 L 152 212 L 152 112 Z Z" stroke-miterlimit="10"/></g><g transform="translate(-142,-54) scale(1,1)"><path fill="none" stroke="#000000" d="M 152 150 L 292 150" stroke-miterlimit="10"/></g><g transform="translate(-142,-54) scale(1,1)"><path fill="none" stroke="#000000" d="M 152 160 L 292 160" stroke-miterlimit="10"/></g><g transform="translate(-142,-54) scale(1,1)"><g><path fill="none" stroke="none"/><text fill="#000000" stroke="none" font-family="Arial" font-size="13px" font-style="normal" font-weight="normal" text-decoration="none" x="191" y="129.5">«Boudary»</text></g></g><g transform="translate(-142,-54) scale(1,1)"><g><path fill="none" stroke="none"/><text fill="#000000" stroke="none" font-family="Arial" font-size="13px" font-style="normal" font-weight="bold" text-decoration="none" x="222" y="144.5"></text></g></g><g transform="translate(-142,-54) scale(1,1)"><g><path fill="none" stroke="none"/><text fill="#000000" stroke="none" font-family="Arial" font-size="13px" font-style="normal" font-weight="normal" text-decoration="none" x="157" y="177.5">+ListSession()</text></g></g><g transform="translate(-142,-54) scale(1,1)"><rect fill="#C0C0C0" stroke="none" x="175" y="343" width="301.220703125" height="143" opacity="0.2"/></g><g transform="translate(-142,-54) scale(1,1)"><rect fill="#ffffff" stroke="none" x="168" y="336" width="301.220703125" height="143"/></g><g transform="translate(-142,-54) scale(1,1)"><path fill="none" stroke="#000000" d="M 168 336 L 469.220703125 336 L 469.220703125 479 L 168 479 L 168 336 Z Z" stroke-miterlimit="10"/></g><g transform="translate(-142,-54) scale(1,1)"><path fill="none" stroke="#000000" d="M 168 374 L 469.220703125 374" stroke-miterlimit="10"/></g><g transform="translate(-142,-54) scale(1,1)"><path fill="none" stroke="#000000" d="M 168 412 L 469.220703125 412" stroke-miterlimit="10"/></g><g transform="translate(-142,-54) scale(1,1)"><g><path fill="none" stroke="none"/><text fill="#000000" stroke="none" font-family="Arial" font-size="13px" font-style="normal" font-weight="normal" text-decoration="none" x="284.1103515625" y="353.5">«Controller»</text></g></g><g transform="translate(-142,-54) scale(1,1)"><g><path fill="none" stroke="none"/><text fill="#000000" stroke="none" font-family="Arial" font-size="13px" font-style="normal" font-weight="bold" text-decoration="none" x="272.1103515625" y="368.5">RetardController</text></g></g><g transform="translate(-142,-54) scale(1,1)"><g><path fill="none" stroke="none"/><text fill="#000000" stroke="none" font-family="Arial" font-size="13px" font-style="normal" font-weight="normal" text-decoration="none" x="173" y="391.5">+retardCalculService: RetardService</text></g></g><g transform="translate(-142,-54) scale(1,1)"><g><path fill="none" stroke="none"/><text fill="#000000" stroke="none" font-family="Arial" font-size="13px" font-style="normal" font-weight="normal" text-decoration="none" x="173" y="406.5">+sessionsEnCoursService: SessionService</text></g></g><g transform="translate(-142,-54) scale(1,1)"><g><path fill="none" stroke="none"/><text fill="#000000" stroke="none" font-family="Arial" font-size="13px" font-style="normal" font-weight="normal" text-decoration="none" x="173" y="429.5">+addMonitorCoursePage :ModelAndView()</text></g></g><g transform="translate(-142,-54) scale(1,1)"><g><path fill="none" stroke="none"/><text fill="#000000" stroke="none" font-family="Arial" font-size="13px" font-style="normal" font-weight="normal" text-decoration="none" x="173" y="444.5">+edditingClotureLigneRetard :ModelAndView()</text></g></g><g transform="translate(-142,-54) scale(1,1)"><g><path fill="none" stroke="none"/><text fill="#000000" stroke="none" font-family="Arial" font-size="13px" font-style="normal" font-weight="normal" text-decoration="none" x="173" y="459.5">+affichageMultTable: ModelAndView()</text></g></g><g transform="translate(-142,-54) scale(1,1)"><g><path fill="none" stroke="none"/><text fill="#000000" stroke="none" font-family="Arial" font-size="13px" font-style="normal" font-weight="normal" text-decoration="none" x="173" y="474.5">+EdditingReouvrirLigneRetard:ModelAndView()</text></g></g><g transform="translate(-142,-54) scale(1,1)"><path fill="none" stroke="#000000" d="M 242 213 L 290 335" stroke-miterlimit="10"/></g><g transform="translate(-142,-54) scale(1,1)"><g><path fill="none" stroke="none"/><text fill="#000000" stroke="none" font-family="Arial" font-size="13px" font-style="normal" font-weight="normal" text-decoration="none" x="257.5" y="237.5">+1</text></g></g><g transform="translate(-142,-54) scale(1,1)"><g><path fill="none" stroke="none"/><text fill="#000000" stroke="none" font-family="Arial" font-size="13px" font-style="normal" font-weight="normal" text-decoration="none" x="286.5" y="311.5">+1</text></g></g><g transform="translate(-142,-54) scale(1,1)"><rect fill="#C0C0C0" stroke="none" x="695" y="407" width="153.99951171875" height="102" opacity="0.2"/></g><g transform="translate(-142,-54) scale(1,1)"><rect fill="#ffffff" stroke="none" x="688" y="400" width="153.99951171875" height="102"/></g><g transform="translate(-142,-54) scale(1,1)"><path fill="none" stroke="#000000" d="M 688 400 L 841.99951171875 400 L 841.99951171875 502 L 688 502 L 688 400 Z Z" stroke-miterlimit="10"/></g><g transform="translate(-142,-54) scale(1,1)"><path fill="none" stroke="#000000" d="M 688 425 L 841.99951171875 425" stroke-miterlimit="10"/></g><g transform="translate(-142,-54) scale(1,1)"><path fill="none" stroke="#000000" d="M 688 493 L 841.99951171875 493" stroke-miterlimit="10"/></g><g transform="translate(-142,-54) scale(1,1)"><g><path fill="none" stroke="none"/><text fill="#000000" stroke="none" font-family="Arial" font-size="13px" font-style="normal" font-weight="bold" text-decoration="none" x="716.499755859375" y="419.5">SessionEnCours</text></g></g><g transform="translate(-142,-54) scale(1,1)"><g><path fill="none" stroke="none"/><text fill="#000000" stroke="none" font-family="Arial" font-size="13px" font-style="normal" font-weight="normal" text-decoration="none" x="693" y="442.5">+id: int</text></g></g><g transform="translate(-142,-54) scale(1,1)"><g><path fill="none" stroke="none"/><text fill="#000000" stroke="none" font-family="Arial" font-size="13px" font-style="normal" font-weight="normal" text-decoration="none" x="693" y="457.5">+HeureReelDebut: Date</text></g></g><g transform="translate(-142,-54) scale(1,1)"><g><path fill="none" stroke="none"/><text fill="#000000" stroke="none" font-family="Arial" font-size="13px" font-style="normal" font-weight="normal" text-decoration="none" x="693" y="472.5">+HeureReelFin: Date</text></g></g><g transform="translate(-142,-54) scale(1,1)"><g><path fill="none" stroke="none"/><text fill="#000000" stroke="none" font-family="Arial" font-size="13px" font-style="normal" font-weight="normal" text-decoration="none" x="693" y="487.5">+Qté_appel: int</text></g></g><g transform="translate(-142,-54) scale(1,1)"><path fill="none" stroke="#000000" d="M 391 335 L 498 229" stroke-miterlimit="10"/></g><g transform="translate(-142,-54) scale(1,1)"><g><path fill="none" stroke="none"/><text fill="#000000" stroke="none" font-family="Arial" font-size="13px" font-style="normal" font-weight="normal" text-decoration="none" x="390.595458984375" y="277.5">+retardService</text></g></g><g transform="translate(-142,-54) scale(1,1)"><g><path fill="none" stroke="none"/><text fill="#000000" stroke="none" font-family="Arial" font-size="13px" font-style="normal" font-weight="normal" text-decoration="none" x="390.5" y="312.5">+1</text></g></g><g transform="translate(-142,-54) scale(1,1)"><g><path fill="none" stroke="none"/><text fill="#000000" stroke="none" font-family="Arial" font-size="13px" font-style="normal" font-weight="normal" text-decoration="none" x="460.5" y="242.5">+1</text></g></g><g transform="translate(-142,-54) scale(1,1)"><rect fill="#C0C0C0" stroke="none" x="463" y="191" width="130.20849609375" height="44" opacity="0.2"/></g><g transform="translate(-142,-54) scale(1,1)"><rect fill="#ffffff" stroke="none" x="456" y="184" width="130.20849609375" height="44"/></g><g transform="translate(-142,-54) scale(1,1)"><path fill="none" stroke="#000000" d="M 456 184 L 586.20849609375 184 L 586.20849609375 228 L 456 228 L 456 184 Z Z" stroke-miterlimit="10"/></g><g transform="translate(-142,-54) scale(1,1)"><path fill="none" stroke="#000000" d="M 456 209 L 586.20849609375 209" stroke-miterlimit="10"/></g><g transform="translate(-142,-54) scale(1,1)"><path fill="none" stroke="#000000" d="M 456 219 L 586.20849609375 219" stroke-miterlimit="10"/></g><g transform="translate(-142,-54) scale(1,1)"><g><path fill="none" stroke="none"/><text fill="#000000" stroke="none" font-family="Arial" font-size="13px" font-style="normal" font-weight="bold" text-decoration="none" x="467.604248046875" y="203.5">RetardServiceImpl</text></g></g><g transform="translate(-142,-54) scale(1,1)"><rect fill="#C0C0C0" stroke="none" x="735" y="271" width="120.07763671875" height="44" opacity="0.2"/></g><g transform="translate(-142,-54) scale(1,1)"><rect fill="#ffffff" stroke="none" x="728" y="264" width="120.07763671875" height="44"/></g><g transform="translate(-142,-54) scale(1,1)"><path fill="none" stroke="#000000" d="M 728 264 L 848.07763671875 264 L 848.07763671875 308 L 728 308 L 728 264 Z Z" stroke-miterlimit="10"/></g><g transform="translate(-142,-54) scale(1,1)"><path fill="none" stroke="#000000" d="M 728 289 L 848.07763671875 289" stroke-miterlimit="10"/></g><g transform="translate(-142,-54) scale(1,1)"><path fill="none" stroke="#000000" d="M 728 299 L 848.07763671875 299" stroke-miterlimit="10"/></g><g transform="translate(-142,-54) scale(1,1)"><g><path fill="none" stroke="none"/><text fill="#000000" stroke="none" font-family="Arial" font-size="13px" font-style="normal" font-weight="bold" text-decoration="none" x="739.038818359375" y="283.5">sessionDAOImpl</text></g></g><g transform="translate(-142,-54) scale(1,1)"><rect fill="#C0C0C0" stroke="none" x="655" y="71" width="250.69970703125" height="115" opacity="0.2"/></g><g transform="translate(-142,-54) scale(1,1)"><rect fill="#ffffff" stroke="none" x="648" y="64" width="250.69970703125" height="115"/></g><g transform="translate(-142,-54) scale(1,1)"><path fill="none" stroke="#000000" d="M 648 64 L 898.69970703125 64 L 898.69970703125 179 L 648 179 L 648 64 Z Z" stroke-miterlimit="10"/></g><g transform="translate(-142,-54) scale(1,1)"><path fill="none" stroke="#000000" d="M 648 89 L 898.69970703125 89" stroke-miterlimit="10"/></g><g transform="translate(-142,-54) scale(1,1)"><path fill="none" stroke="#000000" d="M 648 112 L 898.69970703125 112" stroke-miterlimit="10"/></g><g transform="translate(-142,-54) scale(1,1)"><g><path fill="none" stroke="none"/><text fill="#000000" stroke="none" font-family="Arial" font-size="13px" font-style="normal" font-weight="bold" text-decoration="none" x="716.349853515625" y="83.5">sessionServiceImpl</text></g></g><g transform="translate(-142,-54) scale(1,1)"><g><path fill="none" stroke="none"/><text fill="#000000" stroke="none" font-family="Arial" font-size="13px" font-style="normal" font-weight="normal" text-decoration="none" x="653" y="106.5">+sessionsenCoursDao: SessionDAO</text></g></g><g transform="translate(-142,-54) scale(1,1)"><g><path fill="none" stroke="none"/><text fill="#000000" stroke="none" font-family="Arial" font-size="13px" font-style="normal" font-weight="normal" text-decoration="none" x="653" y="129.5">+addSessionEnCours()</text></g></g><g transform="translate(-142,-54) scale(1,1)"><g><path fill="none" stroke="none"/><text fill="#000000" stroke="none" font-family="Arial" font-size="13px" font-style="normal" font-weight="normal" text-decoration="none" x="653" y="144.5">+updateSessionEncours: void()</text></g></g><g transform="translate(-142,-54) scale(1,1)"><g><path fill="none" stroke="none"/><text fill="#000000" stroke="none" font-family="Arial" font-size="13px" font-style="normal" font-weight="normal" text-decoration="none" x="653" y="159.5">+getSessionEnCours: SessionEnCours()</text></g></g><g transform="translate(-142,-54) scale(1,1)"><g><path fill="none" stroke="none"/><text fill="#000000" stroke="none" font-family="Arial" font-size="13px" font-style="normal" font-weight="normal" text-decoration="none" x="653" y="174.5">+getSessionEnCoursByObj :List()</text></g></g><g transform="translate(-142,-54) scale(1,1)"><path fill="none" stroke="#000000" d="M 778 180 L 786 263" stroke-miterlimit="10"/></g><g transform="translate(-142,-54) scale(1,1)"><g><path fill="none" stroke="none"/><text fill="#000000" stroke="none" font-family="Arial" font-size="13px" font-style="normal" font-weight="normal" text-decoration="none" x="757.985595703125" y="225.5">+sessionDao</text></g></g><g transform="translate(-142,-54) scale(1,1)"><g><path fill="none" stroke="none"/><text fill="#000000" stroke="none" font-family="Arial" font-size="13px" font-style="normal" font-weight="normal" text-decoration="none" x="787.5" y="210.5">+1</text></g></g><g transform="translate(-142,-54) scale(1,1)"><g><path fill="none" stroke="none"/><text fill="#000000" stroke="none" font-family="Arial" font-size="13px" font-style="normal" font-weight="normal" text-decoration="none" x="790.5" y="241.5">+1</text></g></g><g transform="translate(-142,-54) scale(1,1)"><path fill="none" stroke="#000000" d="M 785 309 L 772 399" stroke-miterlimit="10"/></g><g transform="translate(-142,-54) scale(1,1)"><g><path fill="none" stroke="none"/><text fill="#000000" stroke="none" font-family="Arial" font-size="13px" font-style="normal" font-weight="normal" text-decoration="none" x="765.03466796875" y="361.5">+session</text></g></g><g transform="translate(-142,-54) scale(1,1)"><g><path fill="none" stroke="none"/><text fill="#000000" stroke="none" font-family="Arial" font-size="13px" font-style="normal" font-weight="normal" text-decoration="none" x="788.5" y="342.5">+1</text></g></g><g transform="translate(-142,-54) scale(1,1)"><g><path fill="none" stroke="none"/><text fill="#000000" stroke="none" font-family="Arial" font-size="13px" font-style="normal" font-weight="normal" text-decoration="none" x="751.5" y="381.5">0..*</text></g></g><g transform="translate(-142,-54) scale(1,1)"><rect fill="#C0C0C0" stroke="none" x="527" y="311" width="155.75146484375" height="57" opacity="0.2"/></g><g transform="translate(-142,-54) scale(1,1)"><rect fill="#ffffff" stroke="none" x="520" y="304" width="155.75146484375" height="57"/></g><g transform="translate(-142,-54) scale(1,1)"><path fill="none" stroke="#000000" d="M 520 304 L 675.75146484375 304 L 675.75146484375 361 L 520 361 L 520 304 Z Z" stroke-miterlimit="10"/></g><g transform="translate(-142,-54) scale(1,1)"><path fill="none" stroke="#000000" d="M 520 329 L 675.75146484375 329" stroke-miterlimit="10"/></g><g transform="translate(-142,-54) scale(1,1)"><path fill="none" stroke="#000000" d="M 520 352 L 675.75146484375 352" stroke-miterlimit="10"/></g><g transform="translate(-142,-54) scale(1,1)"><g><path fill="none" stroke="none"/><text fill="#000000" stroke="none" font-family="Arial" font-size="13px" font-style="normal" font-weight="bold" text-decoration="none" x="557.375732421875" y="323.5">retardDaoImpl</text></g></g><g transform="translate(-142,-54) scale(1,1)"><g><path fill="none" stroke="none"/><text fill="#000000" stroke="none" font-family="Arial" font-size="13px" font-style="normal" font-weight="normal" text-decoration="none" x="525" y="346.5">+ratardDao: RetardDAO</text></g></g><g transform="translate(-142,-54) scale(1,1)"><path fill="none" stroke="#000000" d="M 535 229 L 580 303" stroke-miterlimit="10"/></g><g transform="translate(-142,-54) scale(1,1)"><g><path fill="none" stroke="none"/><text fill="#000000" stroke="none" font-family="Arial" font-size="13px" font-style="normal" font-weight="normal" text-decoration="none" x="536.57080078125" y="264.5">+retardDao</text></g></g><g transform="translate(-142,-54) scale(1,1)"><g><path fill="none" stroke="none"/><text fill="#000000" stroke="none" font-family="Arial" font-size="13px" font-style="normal" font-weight="normal" text-decoration="none" x="553.5" y="249.5">+1</text></g></g><g transform="translate(-142,-54) scale(1,1)"><g><path fill="none" stroke="none"/><text fill="#000000" stroke="none" font-family="Arial" font-size="13px" font-style="normal" font-weight="normal" text-decoration="none" x="571.5" y="279.5">+1</text></g></g><g transform="translate(-142,-54) scale(1,1)"><path fill="none" stroke="#000000" d="M 591 362 L 574 447" stroke-miterlimit="10"/></g><g transform="translate(-142,-54) scale(1,1)"><g><path fill="none" stroke="none"/><text fill="#000000" stroke="none" font-family="Arial" font-size="13px" font-style="normal" font-weight="normal" text-decoration="none" x="575.619873046875" y="412.5">+retard</text></g></g><g transform="translate(-142,-54) scale(1,1)"><g><path fill="none" stroke="none"/><text fill="#000000" stroke="none" font-family="Arial" font-size="13px" font-style="normal" font-weight="normal" text-decoration="none" x="592.5" y="396.5">+1</text></g></g><g transform="translate(-142,-54) scale(1,1)"><g><path fill="none" stroke="none"/><text fill="#000000" stroke="none" font-family="Arial" font-size="13px" font-style="normal" font-weight="normal" text-decoration="none" x="554.5" y="429.5">0..*</text></g></g><g transform="translate(-142,-54) scale(1,1)"><path fill="none" stroke="#000000" d="M 319 335 L 320 136 L 647 125" stroke-miterlimit="10"/></g><g transform="translate(-142,-54) scale(1,1)"><rect fill="#C0C0C0" stroke="none" x="471" y="455" width="174.40087890625" height="222" opacity="0.2"/></g><g transform="translate(-142,-54) scale(1,1)"><rect fill="#ffffff" stroke="none" x="464" y="448" width="174.40087890625" height="222"/></g><g transform="translate(-142,-54) scale(1,1)"><path fill="none" stroke="#000000" d="M 464 448 L 638.40087890625 448 L 638.40087890625 670 L 464 670 L 464 448 Z Z" stroke-miterlimit="10"/></g><g transform="translate(-142,-54) scale(1,1)"><path fill="none" stroke="#000000" d="M 464 486 L 638.40087890625 486" stroke-miterlimit="10"/></g><g transform="translate(-142,-54) scale(1,1)"><path fill="none" stroke="#000000" d="M 464 659 L 638.40087890625 659" stroke-miterlimit="10"/></g><g transform="translate(-142,-54) scale(1,1)"><g><path fill="none" stroke="none"/><text fill="#000000" stroke="none" font-family="Arial" font-size="13px" font-style="normal" font-weight="normal" text-decoration="none" x="527.200439453125" y="465.5">«Entity»</text></g></g><g transform="translate(-142,-54) scale(1,1)"><g><path fill="none" stroke="none"/><text fill="#000000" stroke="none" font-family="Arial" font-size="13px" font-style="normal" font-weight="bold" text-decoration="none" x="510.700439453125" y="480.5">RetardCalcule</text></g></g><g transform="translate(-142,-54) scale(1,1)"><g><path fill="none" stroke="none"/><text fill="#000000" stroke="none" font-family="Arial" font-size="13px" font-style="normal" font-weight="normal" text-decoration="none" x="469" y="503.5">+id: int</text></g></g><g transform="translate(-142,-54) scale(1,1)"><g><path fill="none" stroke="none"/><text fill="#000000" stroke="none" font-family="Arial" font-size="13px" font-style="normal" font-weight="normal" text-decoration="none" x="469" y="518.5">+Immatriculation: string</text></g></g><g transform="translate(-142,-54) scale(1,1)"><g><path fill="none" stroke="none"/><text fill="#000000" stroke="none" font-family="Arial" font-size="13px" font-style="normal" font-weight="normal" text-decoration="none" x="469" y="533.5">+mark:string</text></g></g><g transform="translate(-142,-54) scale(1,1)"><g><path fill="none" stroke="none"/><text fill="#000000" stroke="none" font-family="Arial" font-size="13px" font-style="normal" font-weight="normal" text-decoration="none" x="469" y="548.5">+model: string</text></g></g><g transform="translate(-142,-54) scale(1,1)"><g><path fill="none" stroke="none"/><text fill="#000000" stroke="none" font-family="Arial" font-size="13px" font-style="normal" font-weight="normal" text-decoration="none" x="469" y="563.5">+heureRetourPrevu:Time</text></g></g><g transform="translate(-142,-54) scale(1,1)"><g><path fill="none" stroke="none"/><text fill="#000000" stroke="none" font-family="Arial" font-size="13px" font-style="normal" font-weight="normal" text-decoration="none" x="469" y="578.5">+heureRetourCalcule:Time</text></g></g><g transform="translate(-142,-54) scale(1,1)"><g><path fill="none" stroke="none"/><text fill="#000000" stroke="none" font-family="Arial" font-size="13px" font-style="normal" font-weight="normal" text-decoration="none" x="469" y="593.5">+Penality:float</text></g></g><g transform="translate(-142,-54) scale(1,1)"><g><path fill="none" stroke="none"/><text fill="#000000" stroke="none" font-family="Arial" font-size="13px" font-style="normal" font-weight="normal" text-decoration="none" x="469" y="608.5">+firsNamestring</text></g></g><g transform="translate(-142,-54) scale(1,1)"><g><path fill="none" stroke="none"/><text fill="#000000" stroke="none" font-family="Arial" font-size="13px" font-style="normal" font-weight="normal" text-decoration="none" x="469" y="623.5">+lastName:string</text></g></g><g transform="translate(-142,-54) scale(1,1)"><g><path fill="none" stroke="none"/><text fill="#000000" stroke="none" font-family="Arial" font-size="13px" font-style="normal" font-weight="normal" text-decoration="none" x="469" y="638.5">+phoneNumber:string</text></g></g><g transform="translate(-142,-54) scale(1,1)"><g><path fill="none" stroke="none"/><text fill="#000000" stroke="none" font-family="Arial" font-size="13px" font-style="normal" font-weight="normal" text-decoration="none" x="469" y="653.5">+tagAppel:boolean</text></g></g></g></svg>