<svg version="1.1" xmlns="http://www.w3.org/2000/svg" xmlns:xlink="http://www.w3.org/1999/xlink" width="475" height="147"><defs/><g><g transform="translate(-166,-54) scale(1,1)"><rect fill="#C0C0C0" stroke="none" x="287" y="71" width="351" height="96" opacity="0.2"/></g><g transform="translate(-166,-54) scale(1,1)"><rect fill="#ffffff" stroke="none" x="280" y="64" width="351" height="96"/></g><g transform="translate(-166,-54) scale(1,1)"><path fill="none" stroke="#000000" d="M 280 64 L 631 64 L 631 160 L 280 160 L 280 64 Z Z" stroke-miterlimit="10"/></g><g transform="translate(-166,-54) scale(1,1)"><g><path fill="none" stroke="none"/><text fill="#000000" stroke="none" font-family="Arial" font-size="13px" font-style="normal" font-weight="bold" text-decoration="none" x="434" y="83.5">system</text></g></g><g transform="translate(-166,-54) scale(1,1)"><path fill="#ffffff" stroke="none" d="M 202.81486789772728 121.68 C 202.81486789772728 116.886167936 206.70071022267274 113 211.494140625 113 C 216.28757102732726 113 220.17341335227272 116.886167936 220.17341335227272 121.68 C 220.17341335227272 126.473832064 216.28757102732726 130.36 211.494140625 130.36 C 206.70071022267274 130.36 202.81486789772728 126.473832064 202.81486789772728 121.68 Z"/></g><g transform="translate(-166,-54) scale(1,1)"><path fill="none" stroke="#000000" d="M 202.81486789772728 121.68 C 202.81486789772728 116.886167936 206.70071022267274 113 211.494140625 113 C 216.28757102732726 113 220.17341335227272 116.886167936 220.17341335227272 121.68 C 220.17341335227272 126.473832064 216.28757102732726 130.36 211.494140625 130.36 C 206.70071022267274 130.36 202.81486789772728 126.473832064 202.81486789772728 121.68 Z" stroke-miterlimit="10"/></g><g transform="translate(-166,-54) scale(1,1)"><path fill="none" stroke="#000000" d="M 211.494140625 130.36 L 211.494140625 147.64" stroke-miterlimit="10"/></g><g transform="translate(-166,-54) scale(1,1)"><path fill="none" stroke="#000000" d="M 202.30432244318183 136.84 L 220.68395880681817 136.84" stroke-miterlimit="10"/></g><g transform="translate(-166,-54) scale(1,1)"><path fill="none" stroke="#000000" d="M 211.494140625 147.64 L 198.73050426136365 165" stroke-miterlimit="10"/></g><g transform="translate(-166,-54) scale(1,1)"><path fill="none" stroke="#000000" d="M 211.494140625 147.64 L 224.25777698863635 165" stroke-miterlimit="10"/></g><g transform="translate(-166,-54) scale(1,1)"><g><path fill="none" stroke="none"/><text fill="#000000" stroke="none" font-family="Arial" font-size="13px" font-style="normal" font-weight="bold" text-decoration="none" x="183.494140625" y="185.5">Agent FO</text></g></g><g transform="translate(-166,-54) scale(1,1)"><path fill="#C0C0C0" stroke="none" d="M 359 120 C 359 110.6111584 415.85983039999996 103 486 103 C 556.1401696 103 613 110.6111584 613 120 C 613 129.3888416 556.1401696 137 486 137 C 415.85983039999996 137 359 129.3888416 359 120 Z" opacity="0.2"/></g><g transform="translate(-166,-54) scale(1,1)"><path fill="#ffffff" stroke="none" d="M 352 113 C 352 103.6111584 408.85983039999996 96 479 96 C 549.1401696 96 606 103.6111584 606 113 C 606 122.3888416 549.1401696 130 479 130 C 408.85983039999996 130 352 122.3888416 352 113 Z"/></g><g transform="translate(-166,-54) scale(1,1)"><path fill="none" stroke="#000000" d="M 352 113 C 352 103.6111584 408.85983039999996 96 479 96 C 549.1401696 96 606 103.6111584 606 113 C 606 122.3888416 549.1401696 130 479 130 C 408.85983039999996 130 352 122.3888416 352 113 Z" stroke-miterlimit="10"/></g><g transform="translate(-166,-54) scale(1,1)"><g><path fill="none" stroke="none"/><text fill="#000000" stroke="none" font-family="Arial" font-size="13px" font-style="normal" font-weight="bold" text-decoration="none" x="430.5" y="120">Monitorer course</text></g></g><g transform="translate(-166,-54) scale(1,1)"><path fill="none" stroke="#000000" d="M 248 146 L 352 131" stroke-miterlimit="10"/></g></g></svg>