<svg version="1.1" xmlns="http://www.w3.org/2000/svg" xmlns:xlink="http://www.w3.org/1999/xlink" width="449.34619140625" height="287"><defs/><g><g transform="translate(-254,-134) scale(1,1)"><rect fill="#C0C0C0" stroke="none" x="271" y="151" width="155.65625" height="267" opacity="0.2"/></g><g transform="translate(-254,-134) scale(1,1)"><rect fill="#ffffff" stroke="none" x="264" y="144" width="155.65625" height="267"/></g><g transform="translate(-254,-134) scale(1,1)"><path fill="none" stroke="#000000" d="M 264 144 L 419.65625 144 L 419.65625 411 L 264 411 L 264 144 Z Z" stroke-miterlimit="10"/></g><g transform="translate(-254,-134) scale(1,1)"><path fill="none" stroke="#000000" d="M 264 169 L 419.65625 169" stroke-miterlimit="10"/></g><g transform="translate(-254,-134) scale(1,1)"><path fill="none" stroke="#000000" d="M 264 402 L 419.65625 402" stroke-miterlimit="10"/></g><g transform="translate(-254,-134) scale(1,1)"><g><path fill="none" stroke="none"/><text fill="#000000" stroke="none" font-family="Arial" font-size="13px" font-style="normal" font-weight="bold" text-decoration="none" x="328.1044921875" y="163.5">User</text></g></g><g transform="translate(-254,-134) scale(1,1)"><g><path fill="none" stroke="none"/><text fill="#000000" stroke="none" font-family="Arial" font-size="13px" font-style="normal" font-weight="normal" text-decoration="none" x="269" y="186.5">-id: String</text></g></g><g transform="translate(-254,-134) scale(1,1)"><g><path fill="none" stroke="none"/><text fill="#000000" stroke="none" font-family="Arial" font-size="13px" font-style="normal" font-weight="normal" text-decoration="none" x="269" y="201.5">-gender: String</text></g></g><g transform="translate(-254,-134) scale(1,1)"><g><path fill="none" stroke="none"/><text fill="#000000" stroke="none" font-family="Arial" font-size="13px" font-style="normal" font-weight="normal" text-decoration="none" x="269" y="216.5">-firstName: String</text></g></g><g transform="translate(-254,-134) scale(1,1)"><g><path fill="none" stroke="none"/><text fill="#000000" stroke="none" font-family="Arial" font-size="13px" font-style="normal" font-weight="normal" text-decoration="none" x="269" y="231.5">-lastName: String</text></g></g><g transform="translate(-254,-134) scale(1,1)"><g><path fill="none" stroke="none"/><text fill="#000000" stroke="none" font-family="Arial" font-size="13px" font-style="normal" font-weight="normal" text-decoration="none" x="269" y="246.5">-email: String</text></g></g><g transform="translate(-254,-134) scale(1,1)"><g><path fill="none" stroke="none"/><text fill="#000000" stroke="none" font-family="Arial" font-size="13px" font-style="normal" font-weight="normal" text-decoration="none" x="269" y="261.5">-password: String</text></g></g><g transform="translate(-254,-134) scale(1,1)"><g><path fill="none" stroke="none"/><text fill="#000000" stroke="none" font-family="Arial" font-size="13px" font-style="normal" font-weight="normal" text-decoration="none" x="269" y="276.5">-passwordConfirm: String</text></g></g><g transform="translate(-254,-134) scale(1,1)"><g><path fill="none" stroke="none"/><text fill="#000000" stroke="none" font-family="Arial" font-size="13px" font-style="normal" font-weight="normal" text-decoration="none" x="269" y="291.5">-addressLine1: String</text></g></g><g transform="translate(-254,-134) scale(1,1)"><g><path fill="none" stroke="none"/><text fill="#000000" stroke="none" font-family="Arial" font-size="13px" font-style="normal" font-weight="normal" text-decoration="none" x="269" y="306.5">-addressLine2: String</text></g></g><g transform="translate(-254,-134) scale(1,1)"><g><path fill="none" stroke="none"/><text fill="#000000" stroke="none" font-family="Arial" font-size="13px" font-style="normal" font-weight="normal" text-decoration="none" x="269" y="321.5">-zipCode: String</text></g></g><g transform="translate(-254,-134) scale(1,1)"><g><path fill="none" stroke="none"/><text fill="#000000" stroke="none" font-family="Arial" font-size="13px" font-style="normal" font-weight="normal" text-decoration="none" x="269" y="336.5">-city: String</text></g></g><g transform="translate(-254,-134) scale(1,1)"><g><path fill="none" stroke="none"/><text fill="#000000" stroke="none" font-family="Arial" font-size="13px" font-style="normal" font-weight="normal" text-decoration="none" x="269" y="351.5">-phoneNumber: String</text></g></g><g transform="translate(-254,-134) scale(1,1)"><g><path fill="none" stroke="none"/><text fill="#000000" stroke="none" font-family="Arial" font-size="13px" font-style="normal" font-weight="normal" text-decoration="none" x="269" y="366.5">-birthDate: Date</text></g></g><g transform="translate(-254,-134) scale(1,1)"><g><path fill="none" stroke="none"/><text fill="#000000" stroke="none" font-family="Arial" font-size="13px" font-style="normal" font-weight="normal" text-decoration="none" x="269" y="381.5">-birthdateString: String</text></g></g><g transform="translate(-254,-134) scale(1,1)"><g><path fill="none" stroke="none"/><text fill="#000000" stroke="none" font-family="Arial" font-size="13px" font-style="normal" font-weight="normal" text-decoration="none" x="269" y="396.5">-signUpDate: Date</text></g></g><g transform="translate(-254,-134) scale(1,1)"><rect fill="#C0C0C0" stroke="none" x="575" y="247" width="125.34619140625" height="90" opacity="0.2"/></g><g transform="translate(-254,-134) scale(1,1)"><rect fill="#ffffff" stroke="none" x="568" y="240" width="125.34619140625" height="90"/></g><g transform="translate(-254,-134) scale(1,1)"><path fill="none" stroke="#000000" d="M 568 240 L 693.34619140625 240 L 693.34619140625 330 L 568 330 L 568 240 Z Z" stroke-miterlimit="10"/></g><g transform="translate(-254,-134) scale(1,1)"><path fill="none" stroke="#000000" d="M 568 278 L 693.34619140625 278" stroke-miterlimit="10"/></g><g transform="translate(-254,-134) scale(1,1)"><g><path fill="none" stroke="none"/><text fill="#000000" stroke="none" font-family="Arial" font-size="13px" font-style="normal" font-weight="normal" text-decoration="none" x="587.30908203125" y="257.5">«enumeration»</text></g></g><g transform="translate(-254,-134) scale(1,1)"><g><path fill="none" stroke="none"/><text fill="#000000" stroke="none" font-family="Arial" font-size="13px" font-style="normal" font-weight="bold" text-decoration="none" x="598.522216796875" y="272.5">UserStatus</text></g></g><g transform="translate(-254,-134) scale(1,1)"><g><path fill="none" stroke="none"/><text fill="#000000" stroke="none" font-family="Arial" font-size="13px" font-style="normal" font-weight="normal" text-decoration="none" x="573" y="295.5">ACTIVE</text></g></g><g transform="translate(-254,-134) scale(1,1)"><g><path fill="none" stroke="none"/><text fill="#000000" stroke="none" font-family="Arial" font-size="13px" font-style="normal" font-weight="normal" text-decoration="none" x="573" y="310.5">INACTIVE</text></g></g><g transform="translate(-254,-134) scale(1,1)"><g><path fill="none" stroke="none"/><text fill="#000000" stroke="none" font-family="Arial" font-size="13px" font-style="normal" font-weight="normal" text-decoration="none" x="573" y="325.5">BANNED</text></g></g><g transform="translate(-254,-134) scale(1,1)"><path fill="none" stroke="#000000" d="M 421 279 L 567 283" stroke-miterlimit="10"/></g><g transform="translate(-254,-134) scale(1,1)"><path fill="none" stroke="#000000" d="M 556.7258511042676 286.92961378106287 L 567 283 L 556.9564230928736 278.51373619694095" stroke-miterlimit="10"/></g><g transform="translate(-254,-134) scale(1,1)"><g><path fill="none" stroke="none"/><text fill="#000000" stroke="none" font-family="Arial" font-size="13px" font-style="normal" font-weight="normal" text-decoration="none" x="474.5" y="272.5">-status</text></g></g><g transform="translate(-254,-134) scale(1,1)"><g><path fill="none" stroke="none"/><text fill="#000000" stroke="none" font-family="Arial" font-size="13px" font-style="normal" font-weight="normal" text-decoration="none" x="438.5" y="298.5">1</text></g></g><g transform="translate(-254,-134) scale(1,1)"><g><path fill="none" stroke="none"/><text fill="#000000" stroke="none" font-family="Arial" font-size="13px" font-style="normal" font-weight="normal" text-decoration="none" x="541.5" y="300.5">1</text></g></g></g></svg>