<svg version="1.1" xmlns="http://www.w3.org/2000/svg" xmlns:xlink="http://www.w3.org/1999/xlink" width="652" height="324"><defs/><g><g transform="translate(-14,2) scale(1,1)"><path fill="none" stroke="#000000" d="M 24 8 L 656 8 L 656 312 L 24 312 L 24 8" stroke-miterlimit="10"/></g><g transform="translate(-14,2) scale(1,1)"><path fill="#ffffff" stroke="none" d="M 24 8 L 24 30 L 276.28515625 30 L 287.28515625 19 L 287.28515625 8 L 24 8"/></g><g transform="translate(-14,2) scale(1,1)"><path fill="none" stroke="#000000" d="M 24 8 L 24 30 L 276.28515625 30 L 287.28515625 19 L 287.28515625 8 L 24 8 L 24 8" stroke-miterlimit="10"/></g><g transform="translate(-14,2) scale(1,1)"><g><path fill="none" stroke="none"/><text fill="#000000" stroke="none" font-family="Arial" font-size="13px" font-style="normal" font-weight="normal" text-decoration="none" x="94.97900390625" y="25.5">Rechercher un profil utilisateur</text></g></g><g transform="translate(-14,2) scale(1,1)"><g><path fill="none" stroke="none"/><text fill="#000000" stroke="none" font-family="Arial" font-size="13px" font-style="normal" font-weight="bold" text-decoration="none" x="29" y="25.5">interaction</text></g></g><g transform="translate(-14,2) scale(1,1)"><rect fill="#C0C0C0" stroke="none" x="487" y="47" width="84.7490234375" height="39" opacity="0.2"/></g><g transform="translate(-14,2) scale(1,1)"><rect fill="#ffffff" stroke="none" x="480" y="40" width="84.7490234375" height="39"/></g><g transform="translate(-14,2) scale(1,1)"><path fill="none" stroke="#000000" d="M 480 40 L 564.7490234375 40 L 564.7490234375 79 L 480 79 L 480 40 Z Z" stroke-miterlimit="10"/></g><g transform="translate(-14,2) scale(1,1)"><g><path fill="none" stroke="none"/><text fill="#000000" stroke="none" font-family="Arial" font-size="13px" font-style="normal" font-weight="bold" text-decoration="none" x="492.38818359375" y="59.5">Backoffice</text></g></g><g transform="translate(-14,2) scale(1,1)"><path fill="none" stroke="#000000" d="M 523.5 80 L 523.5 272" stroke-miterlimit="10" stroke-dasharray="3"/></g><g transform="translate(-14,2) scale(1,1)"><path fill="#ffffff" stroke="none" d="M 115.4749618252841 47.3 C 115.4749618252841 43.82060576 118.3533635474659 41 121.904052734375 41 C 125.4547419212841 41 128.33314364346592 43.82060576 128.33314364346592 47.3 C 128.33314364346592 50.779394239999995 125.4547419212841 53.6 121.904052734375 53.6 C 118.3533635474659 53.6 115.4749618252841 50.779394239999995 115.4749618252841 47.3 Z"/></g><g transform="translate(-14,2) scale(1,1)"><path fill="none" stroke="#000000" d="M 115.4749618252841 47.3 C 115.4749618252841 43.82060576 118.3533635474659 41 121.904052734375 41 C 125.4547419212841 41 128.33314364346592 43.82060576 128.33314364346592 47.3 C 128.33314364346592 50.779394239999995 125.4547419212841 53.6 121.904052734375 53.6 C 118.3533635474659 53.6 115.4749618252841 50.779394239999995 115.4749618252841 47.3 Z" stroke-miterlimit="10"/></g><g transform="translate(-14,2) scale(1,1)"><path fill="none" stroke="#000000" d="M 121.904052734375 53.6 L 121.904052734375 66.4" stroke-miterlimit="10"/></g><g transform="translate(-14,2) scale(1,1)"><path fill="none" stroke="#000000" d="M 115.09678000710228 58.4 L 128.71132546164773 58.4" stroke-miterlimit="10"/></g><g transform="translate(-14,2) scale(1,1)"><path fill="none" stroke="#000000" d="M 121.904052734375 66.4 L 112.44950727982955 79" stroke-miterlimit="10"/></g><g transform="translate(-14,2) scale(1,1)"><path fill="none" stroke="#000000" d="M 121.904052734375 66.4 L 131.35859818892047 79" stroke-miterlimit="10"/></g><g transform="translate(-14,2) scale(1,1)"><g><path fill="none" stroke="none"/><text fill="#000000" stroke="none" font-family="Arial" font-size="13px" font-style="normal" font-weight="bold" text-decoration="none" x="89.0263671875" y="99.5">: Opérateur</text></g></g><g transform="translate(-14,2) scale(1,1)"><path fill="none" stroke="#000000" d="M 122.5 105 L 122.5 272" stroke-miterlimit="10" stroke-dasharray="3"/></g><g transform="translate(-14,2) scale(1,1)"><path fill="none" stroke="#000000" d="M 122 128 L 516 128" stroke-miterlimit="10"/></g><g transform="translate(-14,2) scale(1,1)"><path fill="#000000" stroke="none" d="M 505.83732514237585 132.209517756016 L 516 128 L 505.83732514237585 123.79048224398402"/></g><g transform="translate(-14,2) scale(1,1)"><path fill="none" stroke="#000000" d="M 505.83732514237585 132.209517756016 L 516 128 L 505.83732514237585 123.79048224398402 L 505.83732514237585 132.209517756016" stroke-miterlimit="10"/></g><g transform="translate(-14,2) scale(1,1)"><g><path fill="none" stroke="none"/><text fill="#000000" stroke="none" font-family="Arial" font-size="13px" font-style="normal" font-weight="normal" text-decoration="none" x="261.5" y="124.5">1 : Lister utilisateurs</text></g></g><g transform="translate(-14,2) scale(1,1)"><rect fill="#ffffff" stroke="none" x="516" y="128" width="13" height="28"/></g><g transform="translate(-14,2) scale(1,1)"><path fill="none" stroke="#000000" d="M 516 128 L 529 128 L 529 156 L 516 156 L 516 128 Z Z" stroke-miterlimit="10"/></g><g transform="translate(-14,2) scale(1,1)"><path fill="none" stroke="#000000" d="M 516 152 L 122 152" stroke-miterlimit="10" stroke-dasharray="3"/></g><g transform="translate(-14,2) scale(1,1)"><path fill="none" stroke="#000000" d="M 132.16267485762415 147.790482243984 L 122 152 L 132.16267485762415 156.209517756016" stroke-miterlimit="10"/></g><g transform="translate(-14,2) scale(1,1)"><g><path fill="none" stroke="none"/><text fill="#000000" stroke="none" font-family="Arial" font-size="13px" font-style="normal" font-weight="normal" text-decoration="none" x="254.5" y="168.5">2 : Afficher utilisateurs</text></g></g><g transform="translate(-14,2) scale(1,1)"><path fill="none" stroke="#000000" d="M 122 200 L 516 200" stroke-miterlimit="10"/></g><g transform="translate(-14,2) scale(1,1)"><path fill="#000000" stroke="none" d="M 505.83732514237585 204.209517756016 L 516 200 L 505.83732514237585 195.790482243984"/></g><g transform="translate(-14,2) scale(1,1)"><path fill="none" stroke="#000000" d="M 505.83732514237585 204.209517756016 L 516 200 L 505.83732514237585 195.790482243984 L 505.83732514237585 204.209517756016" stroke-miterlimit="10"/></g><g transform="translate(-14,2) scale(1,1)"><g><path fill="none" stroke="none"/><text fill="#000000" stroke="none" font-family="Arial" font-size="13px" font-style="normal" font-weight="normal" text-decoration="none" x="155.5" y="196.5">3 : Rechercher utilisateurs(SearchCriteria searchCriteria)</text></g></g><g transform="translate(-14,2) scale(1,1)"><rect fill="#ffffff" stroke="none" x="516" y="200" width="13" height="28"/></g><g transform="translate(-14,2) scale(1,1)"><path fill="none" stroke="#000000" d="M 516 200 L 529 200 L 529 228 L 516 228 L 516 200 Z Z" stroke-miterlimit="10"/></g><g transform="translate(-14,2) scale(1,1)"><path fill="none" stroke="#000000" d="M 516 226 L 122 226" stroke-miterlimit="10" stroke-dasharray="3"/></g><g transform="translate(-14,2) scale(1,1)"><path fill="none" stroke="#000000" d="M 132.16267485762415 221.790482243984 L 122 226 L 132.16267485762415 230.209517756016" stroke-miterlimit="10"/></g><g transform="translate(-14,2) scale(1,1)"><g><path fill="none" stroke="none"/><text fill="#000000" stroke="none" font-family="Arial" font-size="13px" font-style="normal" font-weight="normal" text-decoration="none" x="236.5" y="242.5">4 : Afficher utilisateurs filtrés</text></g></g></g></svg>