<svg version="1.1" xmlns="http://www.w3.org/2000/svg" xmlns:xlink="http://www.w3.org/1999/xlink" width="804" height="1052"><defs/><g><g transform="translate(-54,2) scale(1,1)"><path fill="none" stroke="#000000" d="M 64 8 L 848 8 L 848 1040 L 64 1040 L 64 8" stroke-miterlimit="10"/></g><g transform="translate(-54,2) scale(1,1)"><path fill="#ffffff" stroke="none" d="M 64 8 L 64 30 L 281.59521484375 30 L 292.59521484375 19 L 292.59521484375 8 L 64 8"/></g><g transform="translate(-54,2) scale(1,1)"><path fill="none" stroke="#000000" d="M 64 8 L 64 30 L 281.59521484375 30 L 292.59521484375 19 L 292.59521484375 8 L 64 8 L 64 8" stroke-miterlimit="10"/></g><g transform="translate(-54,2) scale(1,1)"><g><path fill="none" stroke="none"/><text fill="#000000" stroke="none" font-family="Arial" font-size="13px" font-style="normal" font-weight="normal" text-decoration="none" x="134.97900390625" y="25.5">Créer un profil utilisateur</text></g></g><g transform="translate(-54,2) scale(1,1)"><g><path fill="none" stroke="none"/><text fill="#000000" stroke="none" font-family="Arial" font-size="13px" font-style="normal" font-weight="bold" text-decoration="none" x="69" y="25.5">interaction</text></g></g><g transform="translate(-54,2) scale(1,1)"><path fill="#ffffff" stroke="none" d="M 132.1954208096591 47.3 C 132.1954208096591 43.82060576 135.0738225318409 41 138.62451171875 41 C 142.1752009056591 41 145.05360262784092 43.82060576 145.05360262784092 47.3 C 145.05360262784092 50.779394239999995 142.1752009056591 53.6 138.62451171875 53.6 C 135.0738225318409 53.6 132.1954208096591 50.779394239999995 132.1954208096591 47.3 Z"/></g><g transform="translate(-54,2) scale(1,1)"><path fill="none" stroke="#000000" d="M 132.1954208096591 47.3 C 132.1954208096591 43.82060576 135.0738225318409 41 138.62451171875 41 C 142.1752009056591 41 145.05360262784092 43.82060576 145.05360262784092 47.3 C 145.05360262784092 50.779394239999995 142.1752009056591 53.6 138.62451171875 53.6 C 135.0738225318409 53.6 132.1954208096591 50.779394239999995 132.1954208096591 47.3 Z" stroke-miterlimit="10"/></g><g transform="translate(-54,2) scale(1,1)"><path fill="none" stroke="#000000" d="M 138.62451171875 53.6 L 138.62451171875 66.4" stroke-miterlimit="10"/></g><g transform="translate(-54,2) scale(1,1)"><path fill="none" stroke="#000000" d="M 131.8172389914773 58.4 L 145.43178444602273 58.4" stroke-miterlimit="10"/></g><g transform="translate(-54,2) scale(1,1)"><path fill="none" stroke="#000000" d="M 138.62451171875 66.4 L 129.16996626420456 79" stroke-miterlimit="10"/></g><g transform="translate(-54,2) scale(1,1)"><path fill="none" stroke="#000000" d="M 138.62451171875 66.4 L 148.07905717329547 79" stroke-miterlimit="10"/></g><g transform="translate(-54,2) scale(1,1)"><g><path fill="none" stroke="none"/><text fill="#000000" stroke="none" font-family="Arial" font-size="13px" font-style="normal" font-weight="bold" text-decoration="none" x="106.114990234375" y="99.5">: Utilisateur</text></g></g><g transform="translate(-54,2) scale(1,1)"><path fill="none" stroke="#000000" d="M 139.5 105 L 139.5 1016" stroke-miterlimit="10" stroke-dasharray="3"/></g><g transform="translate(-54,2) scale(1,1)"><rect fill="#C0C0C0" stroke="none" x="575" y="47" width="71.736328125" height="39" opacity="0.2"/></g><g transform="translate(-54,2) scale(1,1)"><rect fill="#ffffff" stroke="none" x="568" y="40" width="71.736328125" height="39"/></g><g transform="translate(-54,2) scale(1,1)"><path fill="none" stroke="#000000" d="M 568 40 L 639.736328125 40 L 639.736328125 79 L 568 79 L 568 40 Z Z" stroke-miterlimit="10"/></g><g transform="translate(-54,2) scale(1,1)"><g><path fill="none" stroke="none"/><text fill="#000000" stroke="none" font-family="Arial" font-size="13px" font-style="normal" font-weight="bold" text-decoration="none" x="585.444091796875" y="59.5">Portail</text></g></g><g transform="translate(-54,2) scale(1,1)"><path fill="none" stroke="#000000" d="M 604.5 80 L 604.5 1016" stroke-miterlimit="10" stroke-dasharray="3"/></g><g transform="translate(-54,2) scale(1,1)"><path fill="none" stroke="#000000" d="M 96 360 L 632 360 L 632 672 L 96 672 L 96 360" stroke-miterlimit="10"/></g><g transform="translate(-54,2) scale(1,1)"><path fill="#ffffff" stroke="none" d="M 96 360 L 96 382 L 290.47705078125 382 L 301.47705078125 371 L 301.47705078125 360 L 96 360"/></g><g transform="translate(-54,2) scale(1,1)"><path fill="none" stroke="#000000" d="M 96 360 L 96 382 L 290.47705078125 382 L 301.47705078125 371 L 301.47705078125 360 L 96 360 L 96 360" stroke-miterlimit="10"/></g><g transform="translate(-54,2) scale(1,1)"><g><path fill="none" stroke="none"/><text fill="#000000" stroke="none" font-family="Arial" font-size="13px" font-style="normal" font-weight="normal" text-decoration="none" x="120.72998046875" y="377.5">Contrôles identifiants choisis</text></g></g><g transform="translate(-54,2) scale(1,1)"><g><path fill="none" stroke="none"/><text fill="#000000" stroke="none" font-family="Arial" font-size="13px" font-style="normal" font-weight="bold" text-decoration="none" x="101" y="377.5">alt</text></g></g><g transform="translate(-54,2) scale(1,1)"><g><path fill="none" stroke="none"/><text fill="#000000" stroke="none" font-family="Arial" font-size="13px" font-style="normal" font-weight="normal" text-decoration="none" x="115.5" y="410.5">[Champs corrects]</text></g></g><g transform="translate(-54,2) scale(1,1)"><path fill="none" stroke="#000000" d="M 96 481 L 632 481" stroke-miterlimit="10" stroke-dasharray="10,3"/></g><g transform="translate(-54,2) scale(1,1)"><g><path fill="none" stroke="none"/><text fill="#000000" stroke="none" font-family="Arial" font-size="13px" font-style="normal" font-weight="normal" text-decoration="none" x="115.5" y="508.5">[Mot de passe et mot de passe de confirmation différents]</text></g></g><g transform="translate(-54,2) scale(1,1)"><path fill="none" stroke="#000000" d="M 96 578 L 632 578" stroke-miterlimit="10" stroke-dasharray="10,3"/></g><g transform="translate(-54,2) scale(1,1)"><g><path fill="none" stroke="none"/><text fill="#000000" stroke="none" font-family="Arial" font-size="13px" font-style="normal" font-weight="normal" text-decoration="none" x="115.5" y="605.5">[Email saisi déjà existant]</text></g></g><g transform="translate(-54,2) scale(1,1)"><path fill="none" stroke="#000000" d="M 96 776 L 632 776 L 632 992 L 96 992 L 96 776" stroke-miterlimit="10"/></g><g transform="translate(-54,2) scale(1,1)"><path fill="#ffffff" stroke="none" d="M 96 776 L 96 798 L 200.1689453125 798 L 211.1689453125 787 L 211.1689453125 776 L 96 776"/></g><g transform="translate(-54,2) scale(1,1)"><path fill="none" stroke="#000000" d="M 96 776 L 96 798 L 200.1689453125 798 L 211.1689453125 787 L 211.1689453125 776 L 96 776 L 96 776" stroke-miterlimit="10"/></g><g transform="translate(-54,2) scale(1,1)"><g><path fill="none" stroke="none"/><text fill="#000000" stroke="none" font-family="Arial" font-size="13px" font-style="normal" font-weight="normal" text-decoration="none" x="120.72998046875" y="793.5">Contrôle âge</text></g></g><g transform="translate(-54,2) scale(1,1)"><g><path fill="none" stroke="none"/><text fill="#000000" stroke="none" font-family="Arial" font-size="13px" font-style="normal" font-weight="bold" text-decoration="none" x="101" y="793.5">alt</text></g></g><g transform="translate(-54,2) scale(1,1)"><g><path fill="none" stroke="none"/><text fill="#000000" stroke="none" font-family="Arial" font-size="13px" font-style="normal" font-weight="normal" text-decoration="none" x="115.5" y="826.5">[Age &gt;= 21]</text></g></g><g transform="translate(-54,2) scale(1,1)"><path fill="none" stroke="#000000" d="M 96 889 L 632 889" stroke-miterlimit="10" stroke-dasharray="10,3"/></g><g transform="translate(-54,2) scale(1,1)"><g><path fill="none" stroke="none"/><text fill="#000000" stroke="none" font-family="Arial" font-size="13px" font-style="normal" font-weight="normal" text-decoration="none" x="115.5" y="916.5">[Age &lt; 21]</text></g></g><g transform="translate(-54,2) scale(1,1)"><path fill="none" stroke="#000000" d="M 139 146 L 597 146" stroke-miterlimit="10"/></g><g transform="translate(-54,2) scale(1,1)"><path fill="#000000" stroke="none" d="M 586.8373251423759 150.209517756016 L 597 146 L 586.8373251423758 141.790482243984"/></g><g transform="translate(-54,2) scale(1,1)"><path fill="none" stroke="#000000" d="M 586.8373251423759 150.209517756016 L 597 146 L 586.8373251423758 141.790482243984 L 586.8373251423759 150.209517756016" stroke-miterlimit="10"/></g><g transform="translate(-54,2) scale(1,1)"><g><path fill="none" stroke="none"/><text fill="#000000" stroke="none" font-family="Arial" font-size="13px" font-style="normal" font-weight="normal" text-decoration="none" x="331.621337890625" y="142.5">1 : S inscrire</text></g></g><g transform="translate(-54,2) scale(1,1)"><rect fill="#ffffff" stroke="none" x="597" y="146" width="13" height="28"/></g><g transform="translate(-54,2) scale(1,1)"><path fill="none" stroke="#000000" d="M 597 146 L 610 146 L 610 174 L 597 174 L 597 146 Z Z" stroke-miterlimit="10"/></g><g transform="translate(-54,2) scale(1,1)"><path fill="none" stroke="#000000" d="M 597 170 L 139 170" stroke-miterlimit="10" stroke-dasharray="3"/></g><g transform="translate(-54,2) scale(1,1)"><path fill="none" stroke="#000000" d="M 149.16267485762415 165.790482243984 L 139 170 L 149.16267485762415 174.209517756016" stroke-miterlimit="10"/></g><g transform="translate(-54,2) scale(1,1)"><g><path fill="none" stroke="none"/><text fill="#000000" stroke="none" font-family="Arial" font-size="13px" font-style="normal" font-weight="normal" text-decoration="none" x="271.846923828125" y="186.5">2 : Afficher formulaire identifiants</text></g></g><g transform="translate(-54,2) scale(1,1)"><path fill="none" stroke="#000000" d="M 139 226 L 597 226" stroke-miterlimit="10"/></g><g transform="translate(-54,2) scale(1,1)"><path fill="#000000" stroke="none" d="M 586.8373251423759 230.209517756016 L 597 226 L 586.8373251423758 221.790482243984"/></g><g transform="translate(-54,2) scale(1,1)"><path fill="none" stroke="#000000" d="M 586.8373251423759 230.209517756016 L 597 226 L 586.8373251423758 221.790482243984 L 586.8373251423759 230.209517756016" stroke-miterlimit="10"/></g><g transform="translate(-54,2) scale(1,1)"><g><path fill="none" stroke="none"/><text fill="#000000" stroke="none" font-family="Arial" font-size="13px" font-style="normal" font-weight="normal" text-decoration="none" x="250.5" y="220.5">3 : Saisir donnees idenfitication(User user)</text></g></g><g transform="translate(-54,2) scale(1,1)"><rect fill="#ffffff" stroke="none" x="597" y="226" width="13" height="129"/></g><g transform="translate(-54,2) scale(1,1)"><path fill="none" stroke="#000000" d="M 597 226 L 610 226 L 610 355 L 597 355 L 597 226 Z Z" stroke-miterlimit="10"/></g><g transform="translate(-54,2) scale(1,1)"><path fill="none" stroke="#000000" d="M 610 240 L 640 240 L 640 260 L 617 260" stroke-miterlimit="10"/></g><g transform="translate(-54,2) scale(1,1)"><path fill="#000000" stroke="none" d="M 627.1626748576241 255.790482243984 L 617 260 L 627.1626748576241 264.209517756016"/></g><g transform="translate(-54,2) scale(1,1)"><path fill="none" stroke="#000000" d="M 627.1626748576241 255.790482243984 L 617 260 L 627.1626748576241 264.209517756016 L 627.1626748576241 255.790482243984" stroke-miterlimit="10"/></g><g transform="translate(-54,2) scale(1,1)"><g><path fill="none" stroke="none"/><text fill="#000000" stroke="none" font-family="Arial" font-size="13px" font-style="normal" font-weight="normal" text-decoration="none" x="615.5" y="236.5">4 : Contrôle mot de passe confirmation</text></g></g><g transform="translate(-54,2) scale(1,1)"><rect fill="#ffffff" stroke="none" x="604" y="260" width="13" height="28"/></g><g transform="translate(-54,2) scale(1,1)"><path fill="none" stroke="#000000" d="M 604 260 L 617 260 L 617 288 L 604 288 L 604 260 Z Z" stroke-miterlimit="10"/></g><g transform="translate(-54,2) scale(1,1)"><path fill="none" stroke="#000000" d="M 610 296 L 640 296 L 640 316 L 617 316" stroke-miterlimit="10"/></g><g transform="translate(-54,2) scale(1,1)"><path fill="#000000" stroke="none" d="M 627.1626748576241 311.790482243984 L 617 316 L 627.1626748576241 320.209517756016"/></g><g transform="translate(-54,2) scale(1,1)"><path fill="none" stroke="#000000" d="M 627.1626748576241 311.790482243984 L 617 316 L 627.1626748576241 320.209517756016 L 627.1626748576241 311.790482243984" stroke-miterlimit="10"/></g><g transform="translate(-54,2) scale(1,1)"><g><path fill="none" stroke="none"/><text fill="#000000" stroke="none" font-family="Arial" font-size="13px" font-style="normal" font-weight="normal" text-decoration="none" x="622.5" y="292.5">5 : Contrôle existence email</text></g></g><g transform="translate(-54,2) scale(1,1)"><rect fill="#ffffff" stroke="none" x="604" y="316" width="13" height="28"/></g><g transform="translate(-54,2) scale(1,1)"><path fill="none" stroke="#000000" d="M 604 316 L 617 316 L 617 344 L 604 344 L 604 316 Z Z" stroke-miterlimit="10"/></g><g transform="translate(-54,2) scale(1,1)"><path fill="none" stroke="#000000" d="M 604 424 L 139 424" stroke-miterlimit="10" stroke-dasharray="3"/></g><g transform="translate(-54,2) scale(1,1)"><path fill="none" stroke="#000000" d="M 149.16267485762415 419.790482243984 L 139 424 L 149.16267485762415 428.209517756016" stroke-miterlimit="10"/></g><g transform="translate(-54,2) scale(1,1)"><g><path fill="none" stroke="none"/><text fill="#000000" stroke="none" font-family="Arial" font-size="13px" font-style="normal" font-weight="normal" text-decoration="none" x="232.5" y="440.5">6 : Afficher formulaire informations personnelles</text></g></g><g transform="translate(-54,2) scale(1,1)"><path fill="none" stroke="#000000" d="M 604 520 L 139 520" stroke-miterlimit="10" stroke-dasharray="3"/></g><g transform="translate(-54,2) scale(1,1)"><path fill="none" stroke="#000000" d="M 149.16267485762415 515.790482243984 L 139 520 L 149.16267485762415 524.209517756016" stroke-miterlimit="10"/></g><g transform="translate(-54,2) scale(1,1)"><g><path fill="none" stroke="none"/><text fill="#000000" stroke="none" font-family="Arial" font-size="13px" font-style="normal" font-weight="normal" text-decoration="none" x="182.71630859375" y="536.5">7 : Afficher formulaire identifiants(String messagePasswordError)</text></g></g><g transform="translate(-54,2) scale(1,1)"><path fill="none" stroke="#000000" d="M 604 616 L 139 616" stroke-miterlimit="10" stroke-dasharray="3"/></g><g transform="translate(-54,2) scale(1,1)"><path fill="none" stroke="#000000" d="M 149.16267485762415 611.790482243984 L 139 616 L 149.16267485762415 620.209517756016" stroke-miterlimit="10"/></g><g transform="translate(-54,2) scale(1,1)"><g><path fill="none" stroke="none"/><text fill="#000000" stroke="none" font-family="Arial" font-size="13px" font-style="normal" font-weight="normal" text-decoration="none" x="169.884033203125" y="632.5">8 : Afficher formulaire identifiants(String messageEmailAlreadyExists)</text></g></g><g transform="translate(-54,2) scale(1,1)"><path fill="none" stroke="#000000" d="M 139 728 L 597 728" stroke-miterlimit="10"/></g><g transform="translate(-54,2) scale(1,1)"><path fill="#000000" stroke="none" d="M 586.8373251423759 732.209517756016 L 597 728 L 586.8373251423758 723.790482243984"/></g><g transform="translate(-54,2) scale(1,1)"><path fill="none" stroke="#000000" d="M 586.8373251423759 732.209517756016 L 597 728 L 586.8373251423758 723.790482243984 L 586.8373251423759 732.209517756016" stroke-miterlimit="10"/></g><g transform="translate(-54,2) scale(1,1)"><g><path fill="none" stroke="none"/><text fill="#000000" stroke="none" font-family="Arial" font-size="13px" font-style="normal" font-weight="normal" text-decoration="none" x="234.5" y="724.5">9 : Saisir informations personnelles(User user)</text></g></g><g transform="translate(-54,2) scale(1,1)"><rect fill="#ffffff" stroke="none" x="597" y="728" width="13" height="28"/></g><g transform="translate(-54,2) scale(1,1)"><path fill="none" stroke="#000000" d="M 597 728 L 610 728 L 610 756 L 597 756 L 597 728 Z Z" stroke-miterlimit="10"/></g><g transform="translate(-54,2) scale(1,1)"><path fill="none" stroke="#000000" d="M 604 848 L 139 848" stroke-miterlimit="10" stroke-dasharray="3"/></g><g transform="translate(-54,2) scale(1,1)"><path fill="none" stroke="#000000" d="M 149.16267485762415 843.790482243984 L 139 848 L 149.16267485762415 852.209517756016" stroke-miterlimit="10"/></g><g transform="translate(-54,2) scale(1,1)"><g><path fill="none" stroke="none"/><text fill="#000000" stroke="none" font-family="Arial" font-size="13px" font-style="normal" font-weight="normal" text-decoration="none" x="265.5" y="864.5">10 : Afficher la page de confirmation</text></g></g><g transform="translate(-54,2) scale(1,1)"><path fill="none" stroke="#000000" d="M 604 948 L 139 948" stroke-miterlimit="10" stroke-dasharray="3"/></g><g transform="translate(-54,2) scale(1,1)"><path fill="none" stroke="#000000" d="M 149.16267485762415 943.790482243984 L 139 948 L 149.16267485762415 952.209517756016" stroke-miterlimit="10"/></g><g transform="translate(-54,2) scale(1,1)"><g><path fill="none" stroke="none"/><text fill="#000000" stroke="none" font-family="Arial" font-size="13px" font-style="normal" font-weight="normal" text-decoration="none" x="153.483154296875" y="964.5">11 : Afficher formulaire informations personnelles(String messageAgeError)</text></g></g></g></svg>