<svg version="1.1" xmlns="http://www.w3.org/2000/svg" xmlns:xlink="http://www.w3.org/1999/xlink" width="937" height="387"><defs/><g><g transform="translate(-118,-118) scale(1,1)"><path fill="#ffffff" stroke="none" d="M 163.60661594460228 225.68 C 163.60661594460228 220.886167936 167.49245826954774 217 172.285888671875 217 C 177.07931907420226 217 180.96516139914772 220.886167936 180.96516139914772 225.68 C 180.96516139914772 230.47383206400002 177.07931907420226 234.36 172.285888671875 234.36 C 167.49245826954774 234.36 163.60661594460228 230.47383206400002 163.60661594460228 225.68 Z"/></g><g transform="translate(-118,-118) scale(1,1)"><path fill="none" stroke="#000000" d="M 163.60661594460228 225.68 C 163.60661594460228 220.886167936 167.49245826954774 217 172.285888671875 217 C 177.07931907420226 217 180.96516139914772 220.886167936 180.96516139914772 225.68 C 180.96516139914772 230.47383206400002 177.07931907420226 234.36 172.285888671875 234.36 C 167.49245826954774 234.36 163.60661594460228 230.47383206400002 163.60661594460228 225.68 Z" stroke-miterlimit="10"/></g><g transform="translate(-118,-118) scale(1,1)"><path fill="none" stroke="#000000" d="M 172.285888671875 234.36 L 172.285888671875 251.64" stroke-miterlimit="10"/></g><g transform="translate(-118,-118) scale(1,1)"><path fill="none" stroke="#000000" d="M 163.09607049005683 240.84 L 181.47570685369317 240.84" stroke-miterlimit="10"/></g><g transform="translate(-118,-118) scale(1,1)"><path fill="none" stroke="#000000" d="M 172.285888671875 251.64 L 159.52225230823865 269" stroke-miterlimit="10"/></g><g transform="translate(-118,-118) scale(1,1)"><path fill="none" stroke="#000000" d="M 172.285888671875 251.64 L 185.04952503551135 269" stroke-miterlimit="10"/></g><g transform="translate(-118,-118) scale(1,1)"><g><path fill="none" stroke="none"/><text fill="#000000" stroke="none" font-family="Arial" font-size="13px" font-style="normal" font-weight="bold" text-decoration="none" x="143.38818359375" y="289.5">Utilisateur</text></g></g><g transform="translate(-118,-118) scale(1,1)"><path fill="#C0C0C0" stroke="none" d="M 343 264 C 343 254.6111584 413.0674288 247 499.5 247 C 585.9325712 247 656 254.6111584 656 264 C 656 273.3888416 585.9325712 281 499.5 281 C 413.0674288 281 343 273.3888416 343 264 Z" opacity="0.2"/></g><g transform="translate(-118,-118) scale(1,1)"><path fill="#ffffff" stroke="none" d="M 336 257 C 336 247.6111584 406.0674288 240 492.5 240 C 578.9325712 240 649 247.6111584 649 257 C 649 266.3888416 578.9325712 274 492.5 274 C 406.0674288 274 336 266.3888416 336 257 Z"/></g><g transform="translate(-118,-118) scale(1,1)"><path fill="none" stroke="#000000" d="M 336 257 C 336 247.6111584 406.0674288 240 492.5 240 C 578.9325712 240 649 247.6111584 649 257 C 649 266.3888416 578.9325712 274 492.5 274 C 406.0674288 274 336 266.3888416 336 257 Z" stroke-miterlimit="10"/></g><g transform="translate(-118,-118) scale(1,1)"><g><path fill="none" stroke="none"/><text fill="#000000" stroke="none" font-family="Arial" font-size="13px" font-style="normal" font-weight="bold" text-decoration="none" x="421.330078125" y="264">Gérer un profil utilisateur</text></g></g><g transform="translate(-118,-118) scale(1,1)"><path fill="none" stroke="#000000" d="M 210 255 L 335 256" stroke-miterlimit="10"/></g><g transform="translate(-118,-118) scale(1,1)"><path fill="#C0C0C0" stroke="none" d="M 591 360 C 591 350.6111584 648.3075456 343 719 343 C 789.6924544 343 847 350.6111584 847 360 C 847 369.3888416 789.6924544 377 719 377 C 648.3075456 377 591 369.3888416 591 360 Z" opacity="0.2"/></g><g transform="translate(-118,-118) scale(1,1)"><path fill="#ffffff" stroke="none" d="M 584 353 C 584 343.6111584 641.3075456 336 712 336 C 782.6924544 336 840 343.6111584 840 353 C 840 362.3888416 782.6924544 370 712 370 C 641.3075456 370 584 362.3888416 584 353 Z"/></g><g transform="translate(-118,-118) scale(1,1)"><path fill="none" stroke="#000000" d="M 584 353 C 584 343.6111584 641.3075456 336 712 336 C 782.6924544 336 840 343.6111584 840 353 C 840 362.3888416 782.6924544 370 712 370 C 641.3075456 370 584 362.3888416 584 353 Z" stroke-miterlimit="10"/></g><g transform="translate(-118,-118) scale(1,1)"><g><path fill="none" stroke="none"/><text fill="#000000" stroke="none" font-family="Arial" font-size="13px" font-style="normal" font-weight="bold" text-decoration="none" x="634.326904296875" y="360">Modifier un profil utilisateur</text></g></g><g transform="translate(-118,-118) scale(1,1)"><path fill="none" stroke="#000000" d="M 671 335 L 533 275" stroke-miterlimit="10" stroke-dasharray="3"/></g><g transform="translate(-118,-118) scale(1,1)"><path fill="none" stroke="#000000" d="M 543.998329449151 275.1917011422413 L 533 275 L 540.6414401575784 282.91254651285846" stroke-miterlimit="10"/></g><g transform="translate(-118,-118) scale(1,1)"><g><path fill="none" stroke="none"/><text fill="#000000" stroke="none" font-family="Arial" font-size="13px" font-style="normal" font-weight="normal" text-decoration="none" x="563.5" y="338.5">«extend»</text></g></g><g transform="translate(-118,-118) scale(1,1)"><path fill="#C0C0C0" stroke="none" d="M 767 256 C 767 246.6111584 830.799416 239 909.5 239 C 988.200584 239 1052 246.6111584 1052 256 C 1052 265.3888416 988.200584 273 909.5 273 C 830.799416 273 767 265.3888416 767 256 Z" opacity="0.2"/></g><g transform="translate(-118,-118) scale(1,1)"><path fill="#ffffff" stroke="none" d="M 760 249 C 760 239.6111584 823.799416 232 902.5 232 C 981.200584 232 1045 239.6111584 1045 249 C 1045 258.3888416 981.200584 266 902.5 266 C 823.799416 266 760 258.3888416 760 249 Z"/></g><g transform="translate(-118,-118) scale(1,1)"><path fill="none" stroke="#000000" d="M 760 249 C 760 239.6111584 823.799416 232 902.5 232 C 981.200584 232 1045 239.6111584 1045 249 C 1045 258.3888416 981.200584 266 902.5 266 C 823.799416 266 760 258.3888416 760 249 Z" stroke-miterlimit="10"/></g><g transform="translate(-118,-118) scale(1,1)"><g><path fill="none" stroke="none"/><text fill="#000000" stroke="none" font-family="Arial" font-size="13px" font-style="normal" font-weight="bold" text-decoration="none" x="820.12646484375" y="256">Consulter un profil utilisateur</text></g></g><g transform="translate(-118,-118) scale(1,1)"><path fill="none" stroke="#000000" d="M 759 252 L 650 254" stroke-miterlimit="10" stroke-dasharray="3"/></g><g transform="translate(-118,-118) scale(1,1)"><path fill="none" stroke="#000000" d="M 660.0837386863411 249.6047509620515 L 650 254 L 660.238190404562 258.0223696050879" stroke-miterlimit="10"/></g><g transform="translate(-118,-118) scale(1,1)"><g><path fill="none" stroke="none"/><text fill="#000000" stroke="none" font-family="Arial" font-size="13px" font-style="normal" font-weight="normal" text-decoration="none" x="672.5" y="281.5">«extend»</text></g></g><g transform="translate(-118,-118) scale(1,1)"><path fill="#C0C0C0" stroke="none" d="M 615 152 C 615 142.6111584 666.9349632 135 731 135 C 795.0650368 135 847 142.6111584 847 152 C 847 161.3888416 795.0650368 169 731 169 C 666.9349632 169 615 161.3888416 615 152 Z" opacity="0.2"/></g><g transform="translate(-118,-118) scale(1,1)"><path fill="#ffffff" stroke="none" d="M 608 145 C 608 135.6111584 659.9349632 128 724 128 C 788.0650368 128 840 135.6111584 840 145 C 840 154.3888416 788.0650368 162 724 162 C 659.9349632 162 608 154.3888416 608 145 Z"/></g><g transform="translate(-118,-118) scale(1,1)"><path fill="none" stroke="#000000" d="M 608 145 C 608 135.6111584 659.9349632 128 724 128 C 788.0650368 128 840 135.6111584 840 145 C 840 154.3888416 788.0650368 162 724 162 C 659.9349632 162 608 154.3888416 608 145 Z" stroke-miterlimit="10"/></g><g transform="translate(-118,-118) scale(1,1)"><g><path fill="none" stroke="none"/><text fill="#000000" stroke="none" font-family="Arial" font-size="13px" font-style="normal" font-weight="bold" text-decoration="none" x="653.19189453125" y="152">Créer un profil utilisateur</text></g></g><g transform="translate(-118,-118) scale(1,1)"><path fill="none" stroke="#000000" d="M 529 239 L 687 163" stroke-miterlimit="10" stroke-dasharray="3"/></g><g transform="translate(-118,-118) scale(1,1)"><path fill="none" stroke="#000000" d="M 679.6664460595117 171.19871859511892 L 687 163 L 676.0170247628346 163.61176379413223" stroke-miterlimit="10"/></g><g transform="translate(-118,-118) scale(1,1)"><g><path fill="none" stroke="none"/><text fill="#000000" stroke="none" font-family="Arial" font-size="13px" font-style="normal" font-weight="normal" text-decoration="none" x="566.5" y="179.5">«include»</text></g></g><g transform="translate(-118,-118) scale(1,1)"><path fill="#ffffff" stroke="none" d="M 154.88615696022728 425.68 C 154.88615696022728 420.886167936 158.77199928517274 417 163.5654296875 417 C 168.35886008982726 417 172.24470241477272 420.886167936 172.24470241477272 425.68 C 172.24470241477272 430.473832064 168.35886008982726 434.36 163.5654296875 434.36 C 158.77199928517274 434.36 154.88615696022728 430.473832064 154.88615696022728 425.68 Z"/></g><g transform="translate(-118,-118) scale(1,1)"><path fill="none" stroke="#000000" d="M 154.88615696022728 425.68 C 154.88615696022728 420.886167936 158.77199928517274 417 163.5654296875 417 C 168.35886008982726 417 172.24470241477272 420.886167936 172.24470241477272 425.68 C 172.24470241477272 430.473832064 168.35886008982726 434.36 163.5654296875 434.36 C 158.77199928517274 434.36 154.88615696022728 430.473832064 154.88615696022728 425.68 Z" stroke-miterlimit="10"/></g><g transform="translate(-118,-118) scale(1,1)"><path fill="none" stroke="#000000" d="M 163.5654296875 434.36 L 163.5654296875 451.64" stroke-miterlimit="10"/></g><g transform="translate(-118,-118) scale(1,1)"><path fill="none" stroke="#000000" d="M 154.37561150568183 440.84 L 172.75524786931817 440.84" stroke-miterlimit="10"/></g><g transform="translate(-118,-118) scale(1,1)"><path fill="none" stroke="#000000" d="M 163.5654296875 451.64 L 150.80179332386365 469" stroke-miterlimit="10"/></g><g transform="translate(-118,-118) scale(1,1)"><path fill="none" stroke="#000000" d="M 163.5654296875 451.64 L 176.32906605113635 469" stroke-miterlimit="10"/></g><g transform="translate(-118,-118) scale(1,1)"><g><path fill="none" stroke="none"/><text fill="#000000" stroke="none" font-family="Arial" font-size="13px" font-style="normal" font-weight="bold" text-decoration="none" x="134.299560546875" y="489.5">Opérateur</text></g></g><g transform="translate(-118,-118) scale(1,1)"><path fill="#C0C0C0" stroke="none" d="M 367 464 C 367 454.6111584 430.799416 447 509.5 447 C 588.200584 447 652 454.6111584 652 464 C 652 473.3888416 588.200584 481 509.5 481 C 430.799416 481 367 473.3888416 367 464 Z" opacity="0.2"/></g><g transform="translate(-118,-118) scale(1,1)"><path fill="#ffffff" stroke="none" d="M 360 457 C 360 447.6111584 423.799416 440 502.5 440 C 581.200584 440 645 447.6111584 645 457 C 645 466.3888416 581.200584 474 502.5 474 C 423.799416 474 360 466.3888416 360 457 Z"/></g><g transform="translate(-118,-118) scale(1,1)"><path fill="none" stroke="#000000" d="M 360 457 C 360 447.6111584 423.799416 440 502.5 440 C 581.200584 440 645 447.6111584 645 457 C 645 466.3888416 581.200584 474 502.5 474 C 423.799416 474 360 466.3888416 360 457 Z" stroke-miterlimit="10"/></g><g transform="translate(-118,-118) scale(1,1)"><g><path fill="none" stroke="none"/><text fill="#000000" stroke="none" font-family="Arial" font-size="13px" font-style="normal" font-weight="bold" text-decoration="none" x="414.346923828125" y="464">Rechercher un profil utilisateur</text></g></g><g transform="translate(-118,-118) scale(1,1)"><path fill="none" stroke="#000000" d="M 200 455 L 359 456" stroke-miterlimit="10"/></g></g></svg>